<svg width="343" height="483" viewBox="0 0 343 483" fill="none" xmlns="http://www.w3.org/2000/svg">
<g filter="url(#filter0_d_105_244)">
<rect x="4" width="335" height="475" rx="15" fill="white"/>
<path d="M57.46 23.43C57.41 25.11 57.355 27.96 57.295 31.98L58.555 32.1C58.555 32.38 58.47 32.68 58.3 33H54.85L54.805 32.475C55.385 32.265 55.845 32.145 56.185 32.115C56.085 28.255 56.005 25.36 55.945 23.43H53.755L53.395 24.96L52.525 24.9C52.375 24.29 52.3 23.67 52.3 23.04C52.3 22.92 52.31 22.74 52.33 22.5H60.97C60.99 22.63 61 22.83 61 23.1C61 23.64 60.93 24.23 60.79 24.87C60.57 24.93 60.28 24.96 59.92 24.96L59.545 23.43H57.46ZM65.0658 32.16C65.5058 32.16 66.1958 31.95 67.1358 31.53C67.3258 31.79 67.4258 32.02 67.4358 32.22C66.9258 32.52 66.4258 32.755 65.9358 32.925C65.4458 33.095 65.0958 33.18 64.8858 33.18C63.7258 33.18 62.8408 32.835 62.2308 32.145C61.6208 31.445 61.3158 30.47 61.3158 29.22C61.3158 27.97 61.6108 26.99 62.2008 26.28C62.8008 25.56 63.6958 25.2 64.8858 25.2C65.8058 25.2 66.5058 25.53 66.9858 26.19C67.4758 26.85 67.7208 27.735 67.7208 28.845C67.6408 28.985 67.5758 29.08 67.5258 29.13L62.6958 29.055C62.7058 30.065 62.8808 30.835 63.2208 31.365C63.5708 31.895 64.1858 32.16 65.0658 32.16ZM66.3558 28.2C66.3558 27.54 66.2358 27.03 65.9958 26.67C65.7558 26.3 65.3558 26.115 64.7958 26.115C64.2358 26.115 63.7358 26.22 63.2958 26.43C62.9958 27.03 62.8058 27.645 62.7258 28.275C63.5158 28.265 64.7258 28.24 66.3558 28.2ZM76.2066 26.88C76.2466 27.2 76.2666 27.57 76.2666 27.99C76.2666 28.41 76.2266 29.74 76.1466 31.98L77.4066 32.1C77.4066 32.38 77.3216 32.68 77.1516 33H73.7016L73.6566 32.475C74.1166 32.315 74.5666 32.195 75.0066 32.115C74.9466 29.455 74.8916 27.975 74.8416 27.675C74.8016 27.375 74.7316 27.125 74.6316 26.925C74.5316 26.715 74.3766 26.57 74.1666 26.49C73.9566 26.41 73.6366 26.37 73.2066 26.37C72.7866 26.37 72.2316 26.53 71.5416 26.85C71.4816 29.13 71.4416 30.84 71.4216 31.98L72.6816 32.1C72.6816 32.38 72.5966 32.68 72.4266 33H68.9766L68.9316 32.475C69.3916 32.315 69.8416 32.195 70.2816 32.115C70.2716 31.395 70.2466 30.38 70.2066 29.07C70.1666 27.75 70.1416 26.885 70.1316 26.475C69.5816 26.445 69.1416 26.385 68.8116 26.295L68.8716 25.515C69.4116 25.365 70.1966 25.29 71.2266 25.29C71.3666 25.54 71.4566 25.8 71.4966 26.07C71.9366 25.84 72.3716 25.64 72.8016 25.47C73.2316 25.29 73.5016 25.2 73.6116 25.2C74.7216 25.2 75.4966 25.54 75.9366 26.22C76.3966 25.97 76.8716 25.74 77.3616 25.53C77.8616 25.31 78.1616 25.2 78.2616 25.2C79.1716 25.2 79.8516 25.425 80.3016 25.875C80.7616 26.315 80.9916 27.04 80.9916 28.05C80.9916 28.35 80.9516 29.66 80.8716 31.98L82.1316 32.1C82.1316 32.38 82.0466 32.68 81.8766 33H78.4266L78.3816 32.475C78.8416 32.315 79.2916 32.195 79.7316 32.115C79.6916 30.535 79.6566 29.34 79.6266 28.53C79.5966 27.72 79.4816 27.16 79.2816 26.85C79.0816 26.53 78.6816 26.37 78.0816 26.37C77.4816 26.37 76.8566 26.54 76.2066 26.88ZM86.6283 32.16C87.0683 32.16 87.7583 31.95 88.6983 31.53C88.8883 31.79 88.9883 32.02 88.9983 32.22C88.4883 32.52 87.9883 32.755 87.4983 32.925C87.0083 33.095 86.6583 33.18 86.4483 33.18C85.2883 33.18 84.4033 32.835 83.7933 32.145C83.1833 31.445 82.8783 30.47 82.8783 29.22C82.8783 27.97 83.1733 26.99 83.7633 26.28C84.3633 25.56 85.2583 25.2 86.4483 25.2C87.3683 25.2 88.0683 25.53 88.5483 26.19C89.0383 26.85 89.2833 27.735 89.2833 28.845C89.2033 28.985 89.1383 29.08 89.0883 29.13L84.2583 29.055C84.2683 30.065 84.4433 30.835 84.7833 31.365C85.1333 31.895 85.7483 32.16 86.6283 32.16ZM87.9183 28.2C87.9183 27.54 87.7983 27.03 87.5583 26.67C87.3183 26.3 86.9183 26.115 86.3583 26.115C85.7983 26.115 85.2983 26.22 84.8583 26.43C84.5583 27.03 84.3683 27.645 84.2883 28.275C85.0783 28.265 86.2883 28.24 87.9183 28.2ZM92.5191 21.855C92.8291 21.855 93.0491 21.865 93.1791 21.885C93.1791 22.235 93.1141 22.635 92.9841 23.085C92.8941 28.985 92.8491 31.95 92.8491 31.98L94.1091 32.1C94.1091 32.38 94.0241 32.68 93.8541 33H90.4041L90.3591 32.475C90.8191 32.315 91.2691 32.195 91.7091 32.115L91.5591 23.04C91.0091 23.01 90.5691 22.95 90.2391 22.86L90.2991 22.08C90.8091 21.93 91.5491 21.855 92.5191 21.855ZM104.769 27.525C105.349 27.595 105.859 27.865 106.299 28.335C106.749 28.805 106.974 29.465 106.974 30.315C106.974 31.155 106.639 31.815 105.969 32.295C105.309 32.765 104.339 33 103.059 33H98.9494L98.9044 32.475C99.3244 32.305 99.7544 32.185 100.194 32.115C100.134 28.255 100.084 25.36 100.044 23.43C99.7044 23.37 99.2644 23.25 98.7244 23.07C98.7544 22.7 98.7794 22.51 98.7994 22.5H102.564C103.904 22.5 104.814 22.615 105.294 22.845C105.524 22.955 105.754 23.1 105.984 23.28C106.444 23.64 106.674 24.235 106.674 25.065C106.674 25.485 106.599 25.865 106.449 26.205C106.309 26.535 106.124 26.79 105.894 26.97C105.474 27.3 105.099 27.485 104.769 27.525ZM103.134 28.17H101.469C101.449 29.03 101.429 30.3 101.409 31.98H102.999C104.659 31.98 105.489 31.36 105.489 30.12C105.489 29.4 105.294 28.895 104.904 28.605C104.524 28.315 103.934 28.17 103.134 28.17ZM102.414 23.55L101.514 23.565C101.494 24.485 101.484 25.68 101.484 27.15H102.954C103.834 27.15 104.419 26.985 104.709 26.655C105.009 26.315 105.159 25.78 105.159 25.05C105.159 24.05 104.244 23.55 102.414 23.55ZM110.963 23.955C110.703 24.015 110.448 24.045 110.198 24.045C109.958 24.045 109.718 24.03 109.478 24C109.418 23.72 109.388 23.44 109.388 23.16C109.388 22.87 109.398 22.655 109.418 22.515C109.638 22.465 109.868 22.44 110.108 22.44C110.358 22.44 110.623 22.45 110.903 22.47C110.963 22.73 110.993 22.985 110.993 23.235C110.993 23.475 110.983 23.715 110.963 23.955ZM108.233 25.53C109.083 25.38 109.743 25.305 110.213 25.305C110.683 25.305 110.983 25.315 111.113 25.335C111.113 25.575 111.083 25.84 111.023 26.13C110.963 26.42 110.928 26.56 110.918 26.55L110.783 31.98L112.043 32.1C112.043 32.38 111.958 32.68 111.788 33H108.338L108.293 32.475C108.753 32.315 109.203 32.195 109.643 32.115C109.583 29.615 109.533 27.74 109.493 26.49C108.913 26.49 108.473 26.43 108.173 26.31L108.233 25.53ZM114.902 21.855C115.212 21.855 115.432 21.865 115.562 21.885C115.562 22.235 115.497 22.635 115.367 23.085C115.277 28.985 115.232 31.95 115.232 31.98L116.492 32.1C116.492 32.38 116.407 32.68 116.237 33H112.787L112.742 32.475C113.202 32.315 113.652 32.195 114.092 32.115L113.942 23.04C113.392 23.01 112.952 22.95 112.622 22.86L112.682 22.08C113.192 21.93 113.932 21.855 114.902 21.855ZM121.111 32.16C121.551 32.16 122.241 31.95 123.181 31.53C123.371 31.79 123.471 32.02 123.481 32.22C122.971 32.52 122.471 32.755 121.981 32.925C121.491 33.095 121.141 33.18 120.931 33.18C119.771 33.18 118.886 32.835 118.276 32.145C117.666 31.445 117.361 30.47 117.361 29.22C117.361 27.97 117.656 26.99 118.246 26.28C118.846 25.56 119.741 25.2 120.931 25.2C121.851 25.2 122.551 25.53 123.031 26.19C123.521 26.85 123.766 27.735 123.766 28.845C123.686 28.985 123.621 29.08 123.571 29.13L118.741 29.055C118.751 30.065 118.926 30.835 119.266 31.365C119.616 31.895 120.231 32.16 121.111 32.16ZM122.401 28.2C122.401 27.54 122.281 27.03 122.041 26.67C121.801 26.3 121.401 26.115 120.841 26.115C120.281 26.115 119.781 26.22 119.341 26.43C119.041 27.03 118.851 27.645 118.771 28.275C119.561 28.265 120.771 28.24 122.401 28.2ZM130.947 30.78C130.947 31.3 130.817 31.735 130.557 32.085C130.297 32.435 129.927 32.7 129.447 32.88C128.967 33.06 128.397 33.15 127.737 33.15C127.177 33.15 126.692 33.105 126.282 33.015C125.882 32.925 125.527 32.8 125.217 32.64V31.44C125.537 31.6 125.922 31.75 126.372 31.89C126.832 32.02 127.297 32.085 127.767 32.085C128.437 32.085 128.922 31.98 129.222 31.77C129.522 31.55 129.672 31.26 129.672 30.9C129.672 30.7 129.617 30.52 129.507 30.36C129.397 30.2 129.197 30.04 128.907 29.88C128.627 29.72 128.222 29.54 127.692 29.34C127.172 29.14 126.727 28.94 126.357 28.74C125.987 28.54 125.702 28.3 125.502 28.02C125.302 27.74 125.202 27.38 125.202 26.94C125.202 26.26 125.477 25.735 126.027 25.365C126.587 24.995 127.317 24.81 128.217 24.81C128.707 24.81 129.162 24.86 129.582 24.96C130.012 25.05 130.412 25.18 130.782 25.35L130.332 26.4C130.112 26.3 129.877 26.215 129.627 26.145C129.387 26.065 129.142 26.005 128.892 25.965C128.642 25.915 128.387 25.89 128.127 25.89C127.587 25.89 127.172 25.98 126.882 26.16C126.602 26.33 126.462 26.565 126.462 26.865C126.462 27.085 126.527 27.275 126.657 27.435C126.787 27.585 127.002 27.735 127.302 27.885C127.612 28.025 128.022 28.195 128.532 28.395C129.042 28.585 129.477 28.78 129.837 28.98C130.197 29.18 130.472 29.425 130.662 29.715C130.852 29.995 130.947 30.35 130.947 30.78ZM129.522 35.085C129.522 35.405 129.437 35.675 129.267 35.895C129.107 36.125 128.862 36.3 128.532 36.42C128.202 36.54 127.792 36.6 127.302 36.6C127.152 36.6 127.007 36.59 126.867 36.57C126.737 36.56 126.632 36.545 126.552 36.525V35.7C126.642 35.72 126.762 35.735 126.912 35.745C127.062 35.765 127.207 35.775 127.347 35.775C127.707 35.775 127.982 35.725 128.172 35.625C128.362 35.535 128.457 35.365 128.457 35.115C128.457 34.855 128.322 34.665 128.052 34.545C127.792 34.425 127.472 34.34 127.092 34.29L127.737 33H128.607L128.217 33.795C128.457 33.845 128.677 33.92 128.877 34.02C129.077 34.13 129.232 34.27 129.342 34.44C129.462 34.61 129.522 34.825 129.522 35.085ZM135.979 32.16C136.419 32.16 137.109 31.95 138.049 31.53C138.239 31.79 138.339 32.02 138.349 32.22C137.839 32.52 137.339 32.755 136.849 32.925C136.359 33.095 136.009 33.18 135.799 33.18C134.639 33.18 133.754 32.835 133.144 32.145C132.534 31.445 132.229 30.47 132.229 29.22C132.229 27.97 132.524 26.99 133.114 26.28C133.714 25.56 134.609 25.2 135.799 25.2C136.719 25.2 137.419 25.53 137.899 26.19C138.389 26.85 138.634 27.735 138.634 28.845C138.554 28.985 138.489 29.08 138.439 29.13L133.609 29.055C133.619 30.065 133.794 30.835 134.134 31.365C134.484 31.895 135.099 32.16 135.979 32.16ZM137.269 28.2C137.269 27.54 137.149 27.03 136.909 26.67C136.669 26.3 136.269 26.115 135.709 26.115C135.149 26.115 134.649 26.22 134.209 26.43C133.909 27.03 133.719 27.645 133.639 28.275C134.429 28.265 135.639 28.24 137.269 28.2ZM144.525 25.2C145.485 25.2 146.18 25.44 146.61 25.92C147.04 26.39 147.255 27.11 147.255 28.08C147.255 28.36 147.215 29.66 147.135 31.98L148.395 32.1C148.395 32.38 148.31 32.68 148.14 33H144.69L144.645 32.475C145.105 32.315 145.555 32.195 145.995 32.115C145.935 29.495 145.88 28.04 145.83 27.75C145.79 27.45 145.72 27.19 145.62 26.97C145.52 26.75 145.37 26.595 145.17 26.505C144.97 26.415 144.705 26.37 144.375 26.37C143.715 26.37 143.075 26.53 142.455 26.85C142.395 29.13 142.355 30.84 142.335 31.98L143.595 32.1C143.595 32.38 143.51 32.68 143.34 33H139.89L139.845 32.475C140.305 32.315 140.755 32.195 141.195 32.115C141.135 29.575 141.085 27.695 141.045 26.475C140.495 26.445 140.055 26.385 139.725 26.295L139.785 25.515C140.325 25.365 141.11 25.29 142.14 25.29C142.26 25.47 142.35 25.73 142.41 26.07C142.84 25.84 143.27 25.64 143.7 25.47C144.14 25.29 144.415 25.2 144.525 25.2ZM151.113 21.855C151.423 21.855 151.643 21.865 151.773 21.885C151.773 22.235 151.708 22.635 151.578 23.085C151.488 28.985 151.443 31.95 151.443 31.98L152.703 32.1C152.703 32.38 152.618 32.68 152.448 33H148.998L148.953 32.475C149.413 32.315 149.863 32.195 150.303 32.115L150.153 23.04C149.603 23.01 149.163 22.95 148.833 22.86L148.893 22.08C149.403 21.93 150.143 21.855 151.113 21.855ZM157.322 32.16C157.762 32.16 158.452 31.95 159.392 31.53C159.582 31.79 159.682 32.02 159.692 32.22C159.182 32.52 158.682 32.755 158.192 32.925C157.702 33.095 157.352 33.18 157.142 33.18C155.982 33.18 155.097 32.835 154.487 32.145C153.877 31.445 153.572 30.47 153.572 29.22C153.572 27.97 153.867 26.99 154.457 26.28C155.057 25.56 155.952 25.2 157.142 25.2C158.062 25.2 158.762 25.53 159.242 26.19C159.732 26.85 159.977 27.735 159.977 28.845C159.897 28.985 159.832 29.08 159.782 29.13L154.952 29.055C154.962 30.065 155.137 30.835 155.477 31.365C155.827 31.895 156.442 32.16 157.322 32.16ZM158.612 28.2C158.612 27.54 158.492 27.03 158.252 26.67C158.012 26.3 157.612 26.115 157.052 26.115C156.492 26.115 155.992 26.22 155.552 26.43C155.252 27.03 155.062 27.645 154.982 28.275C155.772 28.265 156.982 28.24 158.612 28.2ZM165.792 26.46C165.742 26.41 165.632 26.385 165.462 26.385C165.292 26.385 165.037 26.445 164.697 26.565C164.367 26.685 164.067 26.825 163.797 26.985C163.737 29.205 163.697 30.87 163.677 31.98L164.937 32.1C164.937 32.38 164.852 32.68 164.682 33H161.232L161.187 32.475C161.647 32.315 162.097 32.195 162.537 32.115C162.477 29.575 162.427 27.695 162.387 26.475C161.837 26.445 161.397 26.385 161.067 26.295L161.127 25.515C161.657 25.365 162.442 25.29 163.482 25.29C163.642 25.54 163.742 25.86 163.782 26.25C164.932 25.55 165.617 25.2 165.837 25.2C166.057 25.2 166.312 25.245 166.602 25.335C166.892 25.415 167.107 25.505 167.247 25.605C167.247 26.605 167.152 27.42 166.962 28.05C166.822 28.09 166.657 28.11 166.467 28.11C166.287 28.11 166.162 28.105 166.092 28.095L165.792 26.46ZM186.476 32.085L187.811 32.055C189.191 32.055 189.881 32.625 189.881 33.765C189.881 34.295 189.651 34.785 189.191 35.235C188.741 35.695 188.201 36.04 187.571 36.27C186.941 36.5 186.351 36.615 185.801 36.615C185.261 36.615 184.756 36.535 184.286 36.375C183.816 36.225 183.416 35.975 183.086 35.625C182.756 35.275 182.591 34.87 182.591 34.41C182.591 34.3 182.766 34.01 183.116 33.54C183.476 33.08 183.711 32.81 183.821 32.73C183.731 32.67 183.556 32.5 183.296 32.22C183.036 31.93 182.891 31.73 182.861 31.62C183.111 31.16 183.506 30.71 184.046 30.27C183.246 29.79 182.846 29 182.846 27.9C182.846 27.02 183.126 26.35 183.686 25.89C184.246 25.43 184.946 25.2 185.786 25.2C186.626 25.2 187.276 25.335 187.736 25.605C188.536 25.445 189.321 25.365 190.091 25.365C190.281 25.365 190.376 25.48 190.376 25.71C190.376 26.11 190.301 26.385 190.151 26.535L188.426 26.25C188.786 26.71 188.966 27.26 188.966 27.9C188.966 28.9 188.671 29.62 188.081 30.06C187.491 30.49 186.766 30.705 185.906 30.705C185.636 30.705 185.316 30.67 184.946 30.6C184.796 30.91 184.606 31.245 184.376 31.605C184.556 31.925 185.256 32.085 186.476 32.085ZM188.381 34.845C188.481 34.565 188.531 34.275 188.531 33.975C188.531 33.685 188.416 33.45 188.186 33.27C187.956 33.09 187.661 33 187.301 33C185.871 33 184.996 32.985 184.676 32.955C184.406 33.385 184.216 33.745 184.106 34.035C184.006 34.335 183.956 34.505 183.956 34.545C183.956 34.935 184.141 35.225 184.511 35.415C184.881 35.605 185.306 35.7 185.786 35.7C186.276 35.7 186.766 35.62 187.256 35.46C187.756 35.3 188.131 35.095 188.381 34.845ZM187.616 27.96C187.616 26.72 187.046 26.1 185.906 26.1C184.766 26.1 184.196 26.7 184.196 27.9C184.196 28.51 184.346 28.98 184.646 29.31C184.946 29.64 185.381 29.805 185.951 29.805C187.061 29.805 187.616 29.19 187.616 27.96ZM195.792 26.46C195.742 26.41 195.632 26.385 195.462 26.385C195.292 26.385 195.037 26.445 194.697 26.565C194.367 26.685 194.067 26.825 193.797 26.985C193.737 29.205 193.697 30.87 193.677 31.98L194.937 32.1C194.937 32.38 194.852 32.68 194.682 33H191.232L191.187 32.475C191.647 32.315 192.097 32.195 192.537 32.115C192.477 29.575 192.427 27.695 192.387 26.475C191.837 26.445 191.397 26.385 191.067 26.295L191.127 25.515C191.657 25.365 192.442 25.29 193.482 25.29C193.642 25.54 193.742 25.86 193.782 26.25C194.932 25.55 195.617 25.2 195.837 25.2C196.057 25.2 196.312 25.245 196.602 25.335C196.892 25.415 197.107 25.505 197.247 25.605C197.247 26.605 197.152 27.42 196.962 28.05C196.822 28.09 196.657 28.11 196.467 28.11C196.287 28.11 196.162 28.105 196.092 28.095L195.792 26.46ZM201.796 32.01C202.086 32.01 202.411 31.95 202.771 31.83C203.131 31.7 203.426 31.545 203.656 31.365C203.616 29.235 203.581 27.62 203.551 26.52C202.931 26.52 202.471 26.46 202.171 26.34L202.231 25.56C203.081 25.41 203.746 25.335 204.226 25.335C204.716 25.335 205.026 25.345 205.156 25.365C205.156 25.545 205.126 25.785 205.066 26.085C205.016 26.385 204.981 26.55 204.961 26.58L204.781 31.935C205.311 31.965 205.741 32.025 206.071 32.115L206.041 32.88C205.601 33.02 205.176 33.09 204.766 33.09C204.356 33.09 204.106 33.085 204.016 33.075C203.826 32.695 203.716 32.345 203.686 32.025C203.196 32.395 202.741 32.68 202.321 32.88C201.911 33.08 201.641 33.18 201.511 33.18C200.631 33.18 199.991 32.945 199.591 32.475C199.201 31.995 199.006 31.295 199.006 30.375C199.006 30.365 199.051 29.085 199.141 26.535C198.561 26.535 198.026 26.47 197.536 26.34L197.596 25.56C198.446 25.41 199.106 25.335 199.576 25.335C200.046 25.335 200.346 25.345 200.476 25.365C200.476 25.605 200.446 25.87 200.386 26.16C200.326 26.45 200.291 26.59 200.281 26.58L200.296 29.82C200.296 30.58 200.391 31.135 200.581 31.485C200.771 31.835 201.176 32.01 201.796 32.01ZM209.202 32.235L209.127 35.445L210.432 35.55C210.432 35.83 210.347 36.13 210.177 36.45H206.697L206.652 35.925C207.112 35.775 207.562 35.66 208.002 35.58C207.942 31.5 207.892 28.465 207.852 26.475C207.402 26.465 206.962 26.405 206.532 26.295L206.592 25.515C207.172 25.365 207.982 25.29 209.022 25.29C209.112 25.45 209.197 25.745 209.277 26.175C210.557 25.525 211.367 25.2 211.707 25.2C212.637 25.2 213.327 25.565 213.777 26.295C214.227 27.015 214.452 27.955 214.452 29.115C214.452 30.265 214.197 31.23 213.687 32.01C213.187 32.79 212.457 33.18 211.497 33.18C211.137 33.18 210.742 33.09 210.312 32.91C209.892 32.73 209.522 32.505 209.202 32.235ZM211.437 26.325C210.817 26.325 210.097 26.545 209.277 26.985C209.257 28.845 209.237 30.24 209.217 31.17C209.467 31.42 209.797 31.65 210.207 31.86C210.627 32.06 210.992 32.16 211.302 32.16C212.482 32.16 213.072 31.19 213.072 29.25C213.072 28.51 212.987 27.93 212.817 27.51C212.647 27.08 212.452 26.775 212.232 26.595C212.012 26.415 211.747 26.325 211.437 26.325ZM216.643 32.07L216.523 26.415H215.368L215.323 25.89C215.423 25.82 215.713 25.69 216.193 25.5L217.423 23.58C217.623 23.6 217.778 23.65 217.888 23.73L217.873 25.38C218.623 25.38 219.238 25.43 219.718 25.53C219.718 25.8 219.633 26.095 219.463 26.415H217.843C217.823 27.615 217.803 29.435 217.783 31.875C218.343 31.905 218.903 32.005 219.463 32.175L219.448 32.7C219.308 32.79 218.948 32.895 218.368 33.015C217.798 33.135 217.328 33.195 216.958 33.195C216.908 33.115 216.843 32.945 216.763 32.685C216.683 32.415 216.643 32.21 216.643 32.07ZM226.778 28.095L226.703 31.965C227.133 31.995 227.563 32.065 227.993 32.175L227.963 32.7C227.803 32.78 227.513 32.87 227.093 32.97C226.683 33.06 226.278 33.105 225.878 33.105C225.698 32.745 225.598 32.4 225.578 32.07C224.438 32.82 223.638 33.195 223.178 33.195C222.468 33.195 221.898 33.005 221.468 32.625C221.038 32.245 220.823 31.715 220.823 31.035C220.823 29.465 221.783 28.655 223.703 28.605C224.823 28.575 225.388 28.56 225.398 28.56L225.383 28.05C225.363 27.36 225.233 26.865 224.993 26.565C224.753 26.255 224.323 26.1 223.703 26.1C223.443 26.1 223.163 26.16 222.863 26.28L222.503 27.78C222.453 27.79 222.368 27.795 222.248 27.795L221.633 27.75C221.473 27.32 221.388 26.725 221.378 25.965C221.568 25.865 222.003 25.715 222.683 25.515C223.363 25.305 223.798 25.2 223.988 25.2C225.008 25.2 225.728 25.425 226.148 25.875C226.568 26.325 226.778 27.065 226.778 28.095ZM223.508 32.175C223.798 32.175 224.468 31.85 225.518 31.2L225.443 29.325C224.763 29.385 224.193 29.44 223.733 29.49C223.273 29.54 222.903 29.675 222.623 29.895C222.343 30.105 222.203 30.44 222.203 30.9C222.203 31.75 222.638 32.175 223.508 32.175ZM235.43 23.955C235.17 24.015 234.915 24.045 234.665 24.045C234.425 24.045 234.185 24.03 233.945 24C233.885 23.72 233.855 23.44 233.855 23.16C233.855 22.87 233.865 22.655 233.885 22.515C234.105 22.465 234.335 22.44 234.575 22.44C234.825 22.44 235.09 22.45 235.37 22.47C235.43 22.73 235.46 22.985 235.46 23.235C235.46 23.475 235.45 23.715 235.43 23.955ZM232.7 25.53C233.55 25.38 234.21 25.305 234.68 25.305C235.15 25.305 235.45 25.315 235.58 25.335C235.58 25.575 235.55 25.84 235.49 26.13C235.43 26.42 235.395 26.56 235.385 26.55L235.25 31.98L236.51 32.1C236.51 32.38 236.425 32.68 236.255 33H232.805L232.76 32.475C233.22 32.315 233.67 32.195 234.11 32.115C234.05 29.615 234 27.74 233.96 26.49C233.38 26.49 232.94 26.43 232.64 26.31L232.7 25.53ZM242.025 25.2C242.985 25.2 243.68 25.44 244.11 25.92C244.54 26.39 244.755 27.11 244.755 28.08C244.755 28.36 244.715 29.66 244.635 31.98L245.895 32.1C245.895 32.38 245.81 32.68 245.64 33H242.19L242.145 32.475C242.605 32.315 243.055 32.195 243.495 32.115C243.435 29.495 243.38 28.04 243.33 27.75C243.29 27.45 243.22 27.19 243.12 26.97C243.02 26.75 242.87 26.595 242.67 26.505C242.47 26.415 242.205 26.37 241.875 26.37C241.215 26.37 240.575 26.53 239.955 26.85C239.895 29.13 239.855 30.84 239.835 31.98L241.095 32.1C241.095 32.38 241.01 32.68 240.84 33H237.39L237.345 32.475C237.805 32.315 238.255 32.195 238.695 32.115C238.635 29.575 238.585 27.695 238.545 26.475C237.995 26.445 237.555 26.385 237.225 26.295L237.285 25.515C237.825 25.365 238.61 25.29 239.64 25.29C239.76 25.47 239.85 25.73 239.91 26.07C240.34 25.84 240.77 25.64 241.2 25.47C241.64 25.29 241.915 25.2 242.025 25.2ZM250.158 33.18C248.958 33.18 248.063 32.845 247.473 32.175C246.883 31.495 246.588 30.53 246.588 29.28C246.588 26.56 247.798 25.2 250.218 25.2C250.608 25.2 251.013 25.26 251.433 25.38C251.853 25.49 252.183 25.615 252.423 25.755C252.393 26.685 252.298 27.345 252.138 27.735C251.958 27.785 251.813 27.81 251.703 27.81H251.448C251.398 27.81 251.338 27.805 251.268 27.795L250.893 26.145C250.563 26.115 250.373 26.1 250.323 26.1C249.603 26.1 249.028 26.32 248.598 26.76C248.178 27.2 247.968 27.94 247.968 28.98C247.968 30.02 248.128 30.81 248.448 31.35C248.778 31.89 249.408 32.16 250.338 32.16C250.778 32.16 251.468 31.95 252.408 31.53C252.598 31.79 252.698 32.02 252.708 32.22C252.198 32.52 251.698 32.755 251.208 32.925C250.718 33.095 250.368 33.18 250.158 33.18ZM257.473 32.16C257.913 32.16 258.603 31.95 259.543 31.53C259.733 31.79 259.833 32.02 259.843 32.22C259.333 32.52 258.833 32.755 258.343 32.925C257.853 33.095 257.503 33.18 257.293 33.18C256.133 33.18 255.248 32.835 254.638 32.145C254.028 31.445 253.723 30.47 253.723 29.22C253.723 27.97 254.018 26.99 254.608 26.28C255.208 25.56 256.103 25.2 257.293 25.2C258.213 25.2 258.913 25.53 259.393 26.19C259.883 26.85 260.128 27.735 260.128 28.845C260.048 28.985 259.983 29.08 259.933 29.13L255.103 29.055C255.113 30.065 255.288 30.835 255.628 31.365C255.978 31.895 256.593 32.16 257.473 32.16ZM258.763 28.2C258.763 27.54 258.643 27.03 258.403 26.67C258.163 26.3 257.763 26.115 257.203 26.115C256.643 26.115 256.143 26.22 255.703 26.43C255.403 27.03 255.213 27.645 255.133 28.275C255.923 28.265 257.133 28.24 258.763 28.2ZM263.364 21.855C263.674 21.855 263.894 21.865 264.024 21.885C264.024 22.235 263.959 22.635 263.829 23.085C263.739 28.985 263.694 31.95 263.694 31.98L264.954 32.1C264.954 32.38 264.869 32.68 264.699 33H261.249L261.204 32.475C261.664 32.315 262.114 32.195 262.554 32.115L262.404 23.04C261.854 23.01 261.414 22.95 261.084 22.86L261.144 22.08C261.654 21.93 262.394 21.855 263.364 21.855ZM269.573 32.16C270.013 32.16 270.703 31.95 271.643 31.53C271.833 31.79 271.933 32.02 271.943 32.22C271.433 32.52 270.933 32.755 270.443 32.925C269.953 33.095 269.603 33.18 269.393 33.18C268.233 33.18 267.348 32.835 266.738 32.145C266.128 31.445 265.823 30.47 265.823 29.22C265.823 27.97 266.118 26.99 266.708 26.28C267.308 25.56 268.203 25.2 269.393 25.2C270.313 25.2 271.013 25.53 271.493 26.19C271.983 26.85 272.228 27.735 272.228 28.845C272.148 28.985 272.083 29.08 272.033 29.13L267.203 29.055C267.213 30.065 267.388 30.835 267.728 31.365C268.078 31.895 268.693 32.16 269.573 32.16ZM270.863 28.2C270.863 27.54 270.743 27.03 270.503 26.67C270.263 26.3 269.863 26.115 269.303 26.115C268.743 26.115 268.243 26.22 267.803 26.43C267.503 27.03 267.313 27.645 267.233 28.275C268.023 28.265 269.233 28.24 270.863 28.2ZM278.118 25.2C279.078 25.2 279.773 25.44 280.203 25.92C280.633 26.39 280.848 27.11 280.848 28.08C280.848 28.36 280.808 29.66 280.728 31.98L281.988 32.1C281.988 32.38 281.903 32.68 281.733 33H278.283L278.238 32.475C278.698 32.315 279.148 32.195 279.588 32.115C279.528 29.495 279.473 28.04 279.423 27.75C279.383 27.45 279.313 27.19 279.213 26.97C279.113 26.75 278.963 26.595 278.763 26.505C278.563 26.415 278.298 26.37 277.968 26.37C277.308 26.37 276.668 26.53 276.048 26.85C275.988 29.13 275.948 30.84 275.928 31.98L277.188 32.1C277.188 32.38 277.103 32.68 276.933 33H273.483L273.438 32.475C273.898 32.315 274.348 32.195 274.788 32.115C274.728 29.575 274.678 27.695 274.638 26.475C274.088 26.445 273.648 26.385 273.318 26.295L273.378 25.515C273.918 25.365 274.703 25.29 275.733 25.29C275.853 25.47 275.943 25.73 276.003 26.07C276.433 25.84 276.863 25.64 277.293 25.47C277.733 25.29 278.008 25.2 278.118 25.2ZM285.382 23.955C285.122 24.015 284.867 24.045 284.617 24.045C284.377 24.045 284.137 24.03 283.897 24C283.837 23.72 283.807 23.44 283.807 23.16C283.807 22.87 283.817 22.655 283.837 22.515C284.057 22.465 284.287 22.44 284.527 22.44C284.777 22.44 285.042 22.45 285.322 22.47C285.382 22.73 285.412 22.985 285.412 23.235C285.412 23.475 285.402 23.715 285.382 23.955ZM282.652 25.53C283.502 25.38 284.162 25.305 284.632 25.305C285.102 25.305 285.402 25.315 285.532 25.335C285.532 25.575 285.502 25.84 285.442 26.13C285.382 26.42 285.347 26.56 285.337 26.55L285.202 31.98L286.462 32.1C286.462 32.38 286.377 32.68 286.207 33H282.757L282.712 32.475C283.172 32.315 283.622 32.195 284.062 32.115C284.002 29.615 283.952 27.74 283.912 26.49C283.332 26.49 282.892 26.43 282.592 26.31L282.652 25.53ZM291.901 26.46C291.851 26.41 291.741 26.385 291.571 26.385C291.401 26.385 291.146 26.445 290.806 26.565C290.476 26.685 290.176 26.825 289.906 26.985C289.846 29.205 289.806 30.87 289.786 31.98L291.046 32.1C291.046 32.38 290.961 32.68 290.791 33H287.341L287.296 32.475C287.756 32.315 288.206 32.195 288.646 32.115C288.586 29.575 288.536 27.695 288.496 26.475C287.946 26.445 287.506 26.385 287.176 26.295L287.236 25.515C287.766 25.365 288.551 25.29 289.591 25.29C289.751 25.54 289.851 25.86 289.891 26.25C291.041 25.55 291.726 25.2 291.946 25.2C292.166 25.2 292.421 25.245 292.711 25.335C293.001 25.415 293.216 25.505 293.356 25.605C293.356 26.605 293.261 27.42 293.071 28.05C292.931 28.09 292.766 28.11 292.576 28.11C292.396 28.11 292.271 28.105 292.201 28.095L291.901 26.46ZM296.059 27.87C295.799 27.93 295.544 27.96 295.294 27.96C295.054 27.96 294.814 27.945 294.574 27.915C294.514 27.635 294.484 27.355 294.484 27.075C294.484 26.785 294.494 26.57 294.514 26.43C294.734 26.38 294.964 26.355 295.204 26.355C295.454 26.355 295.719 26.365 295.999 26.385C296.059 26.645 296.089 26.9 296.089 27.15C296.089 27.39 296.079 27.63 296.059 27.87ZM296.059 32.97C295.799 33.03 295.544 33.06 295.294 33.06C295.054 33.06 294.814 33.045 294.574 33.015C294.514 32.735 294.484 32.455 294.484 32.175C294.484 31.885 294.494 31.67 294.514 31.53C294.734 31.48 294.964 31.455 295.204 31.455C295.454 31.455 295.719 31.465 295.999 31.485C296.059 31.745 296.089 32.025 296.089 32.325C296.089 32.625 296.079 32.84 296.059 32.97Z" fill="black"/>
<path d="M176.427 30.69C176.497 30.68 176.582 30.675 176.682 30.675C176.862 30.675 177.037 30.7 177.207 30.75C177.327 31.35 177.387 32.1 177.387 33H172.137C172.017 32.79 171.957 32.605 171.957 32.445C171.957 32.275 171.962 32.17 171.972 32.13C174.042 30.16 175.157 29.09 175.317 28.92C175.477 28.74 175.637 28.475 175.797 28.125C175.967 27.775 176.052 27.425 176.052 27.075C176.052 26.715 175.912 26.385 175.632 26.085C175.362 25.785 174.947 25.635 174.387 25.635C174.077 25.635 173.812 25.665 173.592 25.725L173.232 27.57C173.132 27.58 173.022 27.585 172.902 27.585C172.782 27.585 172.602 27.565 172.362 27.525C172.202 27.095 172.117 26.5 172.107 25.74C172.357 25.5 172.712 25.275 173.172 25.065C173.642 24.845 174.087 24.735 174.507 24.735C175.387 24.735 176.092 24.96 176.622 25.41C177.162 25.85 177.432 26.335 177.432 26.865C177.432 27.545 177.287 28.135 176.997 28.635C176.717 29.135 176.247 29.665 175.587 30.225L173.577 31.935L173.622 32.115L176.247 32.1C176.297 31.42 176.357 30.95 176.427 30.69Z" fill="#FF0101"/>
<g filter="url(#filter1_d_105_244)">
<rect x="19" y="50" width="305" height="35" rx="2" fill="#A0BCC2"/>
</g>
<circle cx="108" cy="157" r="50" fill="#ECF2FF"/>
<circle cx="147" cy="408" r="50" fill="#FEBBCC"/>
<circle cx="69" cy="287" r="50" fill="#E5D1FA"/>
<circle cx="275" cy="343" r="50" fill="#FFF4D2"/>
<path d="M292 201C292 228.614 269.614 251 242 251C214.386 251 192 228.614 192 201C192 173.386 214.386 151 242 151C269.614 151 292 173.386 292 201Z" fill="#E3DFFD"/>
<path d="M103.03 159.995C104.52 159.995 105.265 159.39 105.265 158.18C105.265 157.59 104.9 157.09 104.17 156.68C103.84 156.49 103.475 156.31 103.075 156.14C102.685 155.97 102.29 155.785 101.89 155.585C101.49 155.385 101.125 155.17 100.795 154.94C100.475 154.71 100.21 154.42 100 154.07C99.8002 153.72 99.7002 153.325 99.7002 152.885C99.7002 152.165 99.9902 151.555 100.57 151.055C101.16 150.545 101.965 150.29 102.985 150.29C104.005 150.29 105.08 150.6 106.21 151.22C106.21 151.79 106.14 152.505 106 153.365C105.78 153.395 105.49 153.41 105.13 153.41L104.68 151.67C104.56 151.61 104.32 151.55 103.96 151.49C103.61 151.43 103.3 151.4 103.03 151.4C102.45 151.4 102 151.525 101.68 151.775C101.36 152.015 101.2 152.355 101.2 152.795C101.2 153.225 101.385 153.615 101.755 153.965C102.135 154.305 102.59 154.6 103.12 154.85C103.66 155.09 104.195 155.34 104.725 155.6C105.265 155.86 105.72 156.2 106.09 156.62C106.47 157.03 106.66 157.51 106.66 158.06C106.66 159.06 106.325 159.835 105.655 160.385C104.985 160.925 104.11 161.195 103.03 161.195C102.44 161.195 101.8 161.105 101.11 160.925C100.43 160.735 99.8652 160.495 99.4152 160.205C99.4352 159.535 99.5102 158.76 99.6402 157.88C99.8602 157.85 100.15 157.835 100.51 157.835L100.825 159.635C101.045 159.725 101.375 159.81 101.815 159.89C102.265 159.96 102.67 159.995 103.03 159.995ZM111.749 160.01C112.039 160.01 112.364 159.95 112.724 159.83C113.084 159.7 113.379 159.545 113.609 159.365C113.569 157.235 113.534 155.62 113.504 154.52C112.884 154.52 112.424 154.46 112.124 154.34L112.184 153.56C113.034 153.41 113.699 153.335 114.179 153.335C114.669 153.335 114.979 153.345 115.109 153.365C115.109 153.545 115.079 153.785 115.019 154.085C114.969 154.385 114.934 154.55 114.914 154.58L114.734 159.935C115.264 159.965 115.694 160.025 116.024 160.115L115.994 160.88C115.554 161.02 115.129 161.09 114.719 161.09C114.309 161.09 114.059 161.085 113.969 161.075C113.779 160.695 113.669 160.345 113.639 160.025C113.149 160.395 112.694 160.68 112.274 160.88C111.864 161.08 111.594 161.18 111.464 161.18C110.584 161.18 109.944 160.945 109.544 160.475C109.154 159.995 108.959 159.295 108.959 158.375C108.959 158.365 109.004 157.085 109.094 154.535C108.514 154.535 107.979 154.47 107.489 154.34L107.549 153.56C108.399 153.41 109.059 153.335 109.529 153.335C109.999 153.335 110.299 153.345 110.429 153.365C110.429 153.605 110.399 153.87 110.339 154.16C110.279 154.45 110.244 154.59 110.234 154.58L110.249 157.82C110.249 158.58 110.344 159.135 110.534 159.485C110.724 159.835 111.129 160.01 111.749 160.01Z" fill="black"/>
<path d="M216.318 197.535L217.893 205.98L219.258 206.115C219.258 206.385 219.173 206.68 219.003 207H215.553L215.508 206.475C215.808 206.345 216.178 206.24 216.618 206.16L215.013 197.745L213.033 206.28H211.548L208.818 197.715L207.603 205.98L208.878 206.1C208.878 206.38 208.793 206.68 208.623 207H205.173L205.128 206.475C205.568 206.315 206.008 206.195 206.448 206.115L207.768 197.415C207.158 197.325 206.673 197.22 206.313 197.1L206.373 196.5H209.868L212.253 204.72H212.313L214.173 196.5H217.518C217.688 196.82 217.773 197.13 217.773 197.43C217.123 197.5 216.638 197.535 216.318 197.535ZM222.718 197.955C222.458 198.015 222.203 198.045 221.953 198.045C221.713 198.045 221.473 198.03 221.233 198C221.173 197.72 221.143 197.44 221.143 197.16C221.143 196.87 221.153 196.655 221.173 196.515C221.393 196.465 221.623 196.44 221.863 196.44C222.113 196.44 222.378 196.45 222.658 196.47C222.718 196.73 222.748 196.985 222.748 197.235C222.748 197.475 222.738 197.715 222.718 197.955ZM219.988 199.53C220.838 199.38 221.498 199.305 221.968 199.305C222.438 199.305 222.738 199.315 222.868 199.335C222.868 199.575 222.838 199.84 222.778 200.13C222.718 200.42 222.683 200.56 222.673 200.55L222.538 205.98L223.798 206.1C223.798 206.38 223.713 206.68 223.543 207H220.093L220.048 206.475C220.508 206.315 220.958 206.195 221.398 206.115C221.338 203.615 221.288 201.74 221.248 200.49C220.668 200.49 220.228 200.43 219.928 200.31L219.988 199.53ZM229.312 199.2C230.272 199.2 230.967 199.44 231.397 199.92C231.827 200.39 232.042 201.11 232.042 202.08C232.042 202.36 232.002 203.66 231.922 205.98L233.182 206.1C233.182 206.38 233.097 206.68 232.927 207H229.477L229.432 206.475C229.892 206.315 230.342 206.195 230.782 206.115C230.722 203.495 230.667 202.04 230.617 201.75C230.577 201.45 230.507 201.19 230.407 200.97C230.307 200.75 230.157 200.595 229.957 200.505C229.757 200.415 229.492 200.37 229.162 200.37C228.502 200.37 227.862 200.53 227.242 200.85C227.182 203.13 227.142 204.84 227.122 205.98L228.382 206.1C228.382 206.38 228.297 206.68 228.127 207H224.677L224.632 206.475C225.092 206.315 225.542 206.195 225.982 206.115C225.922 203.575 225.872 201.695 225.832 200.475C225.282 200.445 224.842 200.385 224.512 200.295L224.572 199.515C225.112 199.365 225.897 199.29 226.927 199.29C227.047 199.47 227.137 199.73 227.197 200.07C227.627 199.84 228.057 199.64 228.487 199.47C228.927 199.29 229.202 199.2 229.312 199.2ZM237.685 206.16C238.125 206.16 238.815 205.95 239.755 205.53C239.945 205.79 240.045 206.02 240.055 206.22C239.545 206.52 239.045 206.755 238.555 206.925C238.065 207.095 237.715 207.18 237.505 207.18C236.345 207.18 235.46 206.835 234.85 206.145C234.24 205.445 233.935 204.47 233.935 203.22C233.935 201.97 234.23 200.99 234.82 200.28C235.42 199.56 236.315 199.2 237.505 199.2C238.425 199.2 239.125 199.53 239.605 200.19C240.095 200.85 240.34 201.735 240.34 202.845C240.26 202.985 240.195 203.08 240.145 203.13L235.315 203.055C235.325 204.065 235.5 204.835 235.84 205.365C236.19 205.895 236.805 206.16 237.685 206.16ZM238.975 202.2C238.975 201.54 238.855 201.03 238.615 200.67C238.375 200.3 237.975 200.115 237.415 200.115C236.855 200.115 236.355 200.22 235.915 200.43C235.615 201.03 235.425 201.645 235.345 202.275C236.135 202.265 237.345 202.24 238.975 202.2ZM246.156 200.46C246.106 200.41 245.996 200.385 245.826 200.385C245.656 200.385 245.401 200.445 245.061 200.565C244.731 200.685 244.431 200.825 244.161 200.985C244.101 203.205 244.061 204.87 244.041 205.98L245.301 206.1C245.301 206.38 245.216 206.68 245.046 207H241.596L241.551 206.475C242.011 206.315 242.461 206.195 242.901 206.115C242.841 203.575 242.791 201.695 242.751 200.475C242.201 200.445 241.761 200.385 241.431 200.295L241.491 199.515C242.021 199.365 242.806 199.29 243.846 199.29C244.006 199.54 244.106 199.86 244.146 200.25C245.296 199.55 245.981 199.2 246.201 199.2C246.421 199.2 246.676 199.245 246.966 199.335C247.256 199.415 247.471 199.505 247.611 199.605C247.611 200.605 247.516 201.42 247.326 202.05C247.186 202.09 247.021 202.11 246.831 202.11C246.651 202.11 246.526 202.105 246.456 202.095L246.156 200.46ZM254.32 202.095L254.245 205.965C254.675 205.995 255.105 206.065 255.535 206.175L255.505 206.7C255.345 206.78 255.055 206.87 254.635 206.97C254.225 207.06 253.82 207.105 253.42 207.105C253.24 206.745 253.14 206.4 253.12 206.07C251.98 206.82 251.18 207.195 250.72 207.195C250.01 207.195 249.44 207.005 249.01 206.625C248.58 206.245 248.365 205.715 248.365 205.035C248.365 203.465 249.325 202.655 251.245 202.605C252.365 202.575 252.93 202.56 252.94 202.56L252.925 202.05C252.905 201.36 252.775 200.865 252.535 200.565C252.295 200.255 251.865 200.1 251.245 200.1C250.985 200.1 250.705 200.16 250.405 200.28L250.045 201.78C249.995 201.79 249.91 201.795 249.79 201.795L249.175 201.75C249.015 201.32 248.93 200.725 248.92 199.965C249.11 199.865 249.545 199.715 250.225 199.515C250.905 199.305 251.34 199.2 251.53 199.2C252.55 199.2 253.27 199.425 253.69 199.875C254.11 200.325 254.32 201.065 254.32 202.095ZM251.05 206.175C251.34 206.175 252.01 205.85 253.06 205.2L252.985 203.325C252.305 203.385 251.735 203.44 251.275 203.49C250.815 203.54 250.445 203.675 250.165 203.895C249.885 204.105 249.745 204.44 249.745 204.9C249.745 205.75 250.18 206.175 251.05 206.175ZM258.4 195.855C258.71 195.855 258.93 195.865 259.06 195.885C259.06 196.235 258.995 196.635 258.865 197.085C258.775 202.985 258.73 205.95 258.73 205.98L259.99 206.1C259.99 206.38 259.905 206.68 259.735 207H256.285L256.24 206.475C256.7 206.315 257.15 206.195 257.59 206.115L257.44 197.04C256.89 197.01 256.45 196.95 256.12 196.86L256.18 196.08C256.69 195.93 257.43 195.855 258.4 195.855ZM262.824 195.855C263.134 195.855 263.354 195.865 263.484 195.885C263.484 196.235 263.419 196.635 263.289 197.085C263.199 202.985 263.154 205.95 263.154 205.98L264.414 206.1C264.414 206.38 264.329 206.68 264.159 207H260.709L260.664 206.475C261.124 206.315 261.574 206.195 262.014 206.115L261.864 197.04C261.314 197.01 260.874 196.95 260.544 196.86L260.604 196.08C261.114 195.93 261.854 195.855 262.824 195.855ZM269.033 206.16C269.473 206.16 270.163 205.95 271.103 205.53C271.293 205.79 271.393 206.02 271.403 206.22C270.893 206.52 270.393 206.755 269.903 206.925C269.413 207.095 269.063 207.18 268.853 207.18C267.693 207.18 266.808 206.835 266.198 206.145C265.588 205.445 265.283 204.47 265.283 203.22C265.283 201.97 265.578 200.99 266.168 200.28C266.768 199.56 267.663 199.2 268.853 199.2C269.773 199.2 270.473 199.53 270.953 200.19C271.443 200.85 271.688 201.735 271.688 202.845C271.608 202.985 271.543 203.08 271.493 203.13L266.663 203.055C266.673 204.065 266.848 204.835 267.188 205.365C267.538 205.895 268.153 206.16 269.033 206.16ZM270.323 202.2C270.323 201.54 270.203 201.03 269.963 200.67C269.723 200.3 269.323 200.115 268.763 200.115C268.203 200.115 267.703 200.22 267.263 200.43C266.963 201.03 266.773 201.645 266.693 202.275C267.483 202.265 268.693 202.24 270.323 202.2ZM277.504 200.46C277.454 200.41 277.344 200.385 277.174 200.385C277.004 200.385 276.749 200.445 276.409 200.565C276.079 200.685 275.779 200.825 275.509 200.985C275.449 203.205 275.409 204.87 275.389 205.98L276.649 206.1C276.649 206.38 276.564 206.68 276.394 207H272.944L272.899 206.475C273.359 206.315 273.809 206.195 274.249 206.115C274.189 203.575 274.139 201.695 274.099 200.475C273.549 200.445 273.109 200.385 272.779 200.295L272.839 199.515C273.369 199.365 274.154 199.29 275.194 199.29C275.354 199.54 275.454 199.86 275.494 200.25C276.644 199.55 277.329 199.2 277.549 199.2C277.769 199.2 278.024 199.245 278.314 199.335C278.604 199.415 278.819 199.505 278.959 199.605C278.959 200.605 278.864 201.42 278.674 202.05C278.534 202.09 278.369 202.11 278.179 202.11C277.999 202.11 277.874 202.105 277.804 202.095L277.504 200.46Z" fill="black"/>
<path d="M52.0772 284.43C52.0272 286.11 51.9722 288.96 51.9122 292.98L53.1722 293.1C53.1722 293.38 53.0872 293.68 52.9172 294H49.4672L49.4222 293.475C50.0022 293.265 50.4622 293.145 50.8022 293.115C50.7022 289.255 50.6222 286.36 50.5622 284.43H48.3722L48.0122 285.96L47.1422 285.9C46.9922 285.29 46.9172 284.67 46.9172 284.04C46.9172 283.92 46.9272 283.74 46.9472 283.5H55.5872C55.6072 283.63 55.6172 283.83 55.6172 284.1C55.6172 284.64 55.5472 285.23 55.4072 285.87C55.1872 285.93 54.8972 285.96 54.5372 285.96L54.1622 284.43H52.0772ZM60.3436 293.01C60.6336 293.01 60.9586 292.95 61.3186 292.83C61.6786 292.7 61.9736 292.545 62.2036 292.365C62.1636 290.235 62.1286 288.62 62.0986 287.52C61.4786 287.52 61.0186 287.46 60.7186 287.34L60.7786 286.56C61.6286 286.41 62.2936 286.335 62.7736 286.335C63.2636 286.335 63.5736 286.345 63.7036 286.365C63.7036 286.545 63.6736 286.785 63.6136 287.085C63.5636 287.385 63.5286 287.55 63.5086 287.58L63.3286 292.935C63.8586 292.965 64.2886 293.025 64.6186 293.115L64.5886 293.88C64.1486 294.02 63.7236 294.09 63.3136 294.09C62.9036 294.09 62.6536 294.085 62.5636 294.075C62.3736 293.695 62.2636 293.345 62.2336 293.025C61.7436 293.395 61.2886 293.68 60.8686 293.88C60.4586 294.08 60.1886 294.18 60.0586 294.18C59.1786 294.18 58.5386 293.945 58.1386 293.475C57.7486 292.995 57.5536 292.295 57.5536 291.375C57.5536 291.365 57.5986 290.085 57.6886 287.535C57.1086 287.535 56.5736 287.47 56.0836 287.34L56.1436 286.56C56.9936 286.41 57.6536 286.335 58.1236 286.335C58.5936 286.335 58.8936 286.345 59.0236 286.365C59.0236 286.605 58.9936 286.87 58.9336 287.16C58.8736 287.45 58.8386 287.59 58.8286 287.58L58.8436 290.82C58.8436 291.58 58.9386 292.135 59.1286 292.485C59.3186 292.835 59.7236 293.01 60.3436 293.01ZM71.2145 291.6C71.3545 292.18 71.4245 292.695 71.4245 293.145C71.4245 293.585 71.4145 293.87 71.3945 294H65.7245C65.6045 293.82 65.5345 293.55 65.5145 293.19L69.8195 287.22H67.2545L66.8945 288.78C66.7445 288.79 66.6545 288.795 66.6245 288.795L66.0245 288.75C65.8845 288.17 65.8145 287.665 65.8145 287.235C65.8145 286.795 65.8245 286.51 65.8445 286.38H71.1695C71.2295 286.53 71.2595 286.81 71.2595 287.22L67.1495 293.1H69.9845L70.3445 291.525L71.2145 291.6ZM74.6998 282.855C75.0098 282.855 75.2298 282.865 75.3598 282.885C75.3598 283.235 75.2948 283.635 75.1648 284.085C75.0748 289.985 75.0298 292.95 75.0298 292.98L76.2898 293.1C76.2898 293.38 76.2048 293.68 76.0348 294H72.5848L72.5398 293.475C72.9998 293.315 73.4498 293.195 73.8898 293.115L73.7398 284.04C73.1898 284.01 72.7498 283.95 72.4198 283.86L72.4798 283.08C72.9898 282.93 73.7298 282.855 74.6998 282.855ZM83.1286 289.095L83.0536 292.965C83.4836 292.995 83.9136 293.065 84.3436 293.175L84.3136 293.7C84.1536 293.78 83.8636 293.87 83.4436 293.97C83.0336 294.06 82.6286 294.105 82.2286 294.105C82.0486 293.745 81.9486 293.4 81.9286 293.07C80.7886 293.82 79.9886 294.195 79.5286 294.195C78.8186 294.195 78.2486 294.005 77.8186 293.625C77.3886 293.245 77.1736 292.715 77.1736 292.035C77.1736 290.465 78.1336 289.655 80.0536 289.605C81.1736 289.575 81.7386 289.56 81.7486 289.56L81.7336 289.05C81.7136 288.36 81.5836 287.865 81.3436 287.565C81.1036 287.255 80.6736 287.1 80.0536 287.1C79.7936 287.1 79.5136 287.16 79.2136 287.28L78.8536 288.78C78.8036 288.79 78.7186 288.795 78.5986 288.795L77.9836 288.75C77.8236 288.32 77.7386 287.725 77.7286 286.965C77.9186 286.865 78.3536 286.715 79.0336 286.515C79.7136 286.305 80.1486 286.2 80.3386 286.2C81.3586 286.2 82.0786 286.425 82.4986 286.875C82.9186 287.325 83.1286 288.065 83.1286 289.095ZM79.8586 293.175C80.1486 293.175 80.8186 292.85 81.8686 292.2L81.7936 290.325C81.1136 290.385 80.5436 290.44 80.0836 290.49C79.6236 290.54 79.2536 290.675 78.9736 290.895C78.6936 291.105 78.5536 291.44 78.5536 291.9C78.5536 292.75 78.9886 293.175 79.8586 293.175ZM89.7895 287.46C89.7395 287.41 89.6295 287.385 89.4595 287.385C89.2895 287.385 89.0345 287.445 88.6945 287.565C88.3645 287.685 88.0645 287.825 87.7945 287.985C87.7345 290.205 87.6945 291.87 87.6745 292.98L88.9345 293.1C88.9345 293.38 88.8495 293.68 88.6795 294H85.2295L85.1845 293.475C85.6445 293.315 86.0945 293.195 86.5345 293.115C86.4745 290.575 86.4245 288.695 86.3845 287.475C85.8345 287.445 85.3945 287.385 85.0645 287.295L85.1245 286.515C85.6545 286.365 86.4395 286.29 87.4795 286.29C87.6395 286.54 87.7395 286.86 87.7795 287.25C88.9295 286.55 89.6145 286.2 89.8345 286.2C90.0545 286.2 90.3095 286.245 90.5995 286.335C90.8895 286.415 91.1045 286.505 91.2445 286.605C91.2445 287.605 91.1495 288.42 90.9595 289.05C90.8195 289.09 90.6545 289.11 90.4645 289.11C90.2845 289.11 90.1595 289.105 90.0895 289.095L89.7895 287.46Z" fill="black"/>
<path d="M254.146 339.815C254.326 339.755 254.816 339.69 255.616 339.62C256.416 339.54 257.141 339.5 257.791 339.5C258.451 339.5 258.961 339.53 259.321 339.59C259.331 339.63 259.336 339.68 259.336 339.74C259.336 339.79 259.306 339.915 259.246 340.115C259.196 340.315 259.156 340.445 259.126 340.505C259.046 340.585 258.821 340.645 258.451 340.685L261.316 348.98L262.741 349.1C262.741 349.38 262.656 349.68 262.486 350H259.036L258.991 349.475C259.221 349.355 259.556 349.25 259.996 349.16L259.231 347.015H255.046L254.341 348.98L255.556 349.1C255.556 349.38 255.471 349.68 255.301 350H251.851L251.806 349.475C252.196 349.335 252.611 349.225 253.051 349.145L255.961 340.64C255.071 340.54 254.446 340.42 254.086 340.28L254.146 339.815ZM258.046 343.67L257.251 340.73C257.191 340.72 257.106 340.715 256.996 340.715L256.186 343.775L255.316 346.055H258.961L258.046 343.67ZM264.605 349.04C264.955 349.19 265.38 349.265 265.88 349.265C266.39 349.265 266.79 349.17 267.08 348.98C267.37 348.79 267.515 348.53 267.515 348.2C267.515 347.87 267.38 347.595 267.11 347.375C266.84 347.155 266.51 346.96 266.12 346.79C265.73 346.62 265.34 346.44 264.95 346.25C264.56 346.06 264.23 345.81 263.96 345.5C263.69 345.19 263.555 344.83 263.555 344.42C263.555 343.73 263.785 343.19 264.245 342.8C264.705 342.4 265.34 342.2 266.15 342.2C266.97 342.2 267.74 342.385 268.46 342.755C268.47 342.855 268.475 343.125 268.475 343.565C268.475 343.995 268.43 344.365 268.34 344.675C268.1 344.755 267.815 344.795 267.485 344.795L266.99 343.265C266.77 343.155 266.47 343.1 266.09 343.1C265.72 343.1 265.425 343.2 265.205 343.4C264.985 343.59 264.875 343.835 264.875 344.135C264.875 344.425 265.01 344.68 265.28 344.9C265.56 345.12 265.895 345.32 266.285 345.5C266.675 345.67 267.065 345.855 267.455 346.055C267.845 346.245 268.175 346.5 268.445 346.82C268.725 347.13 268.865 347.49 268.865 347.9C268.865 348.62 268.585 349.185 268.025 349.595C267.475 349.995 266.795 350.195 265.985 350.195C265.545 350.195 265.075 350.125 264.575 349.985C264.075 349.835 263.655 349.645 263.315 349.415C263.315 348.745 263.375 348.15 263.495 347.63C263.725 347.59 264.035 347.57 264.425 347.57L264.605 349.04ZM272.842 340.955C272.582 341.015 272.327 341.045 272.077 341.045C271.837 341.045 271.597 341.03 271.357 341C271.297 340.72 271.267 340.44 271.267 340.16C271.267 339.87 271.277 339.655 271.297 339.515C271.517 339.465 271.747 339.44 271.987 339.44C272.237 339.44 272.502 339.45 272.782 339.47C272.842 339.73 272.872 339.985 272.872 340.235C272.872 340.475 272.862 340.715 272.842 340.955ZM270.112 342.53C270.962 342.38 271.622 342.305 272.092 342.305C272.562 342.305 272.862 342.315 272.992 342.335C272.992 342.575 272.962 342.84 272.902 343.13C272.842 343.42 272.807 343.56 272.797 343.55L272.662 348.98L273.922 349.1C273.922 349.38 273.837 349.68 273.667 350H270.217L270.172 349.475C270.632 349.315 271.082 349.195 271.522 349.115C271.462 346.615 271.412 344.74 271.372 343.49C270.792 343.49 270.352 343.43 270.052 343.31L270.112 342.53ZM275.866 349.07L275.746 343.415H274.591L274.546 342.89C274.646 342.82 274.936 342.69 275.416 342.5L276.646 340.58C276.846 340.6 277.001 340.65 277.111 340.73L277.096 342.38C277.846 342.38 278.461 342.43 278.941 342.53C278.941 342.8 278.856 343.095 278.686 343.415H277.066C277.046 344.615 277.026 346.435 277.006 348.875C277.566 348.905 278.126 349.005 278.686 349.175L278.671 349.7C278.531 349.79 278.171 349.895 277.591 350.015C277.021 350.135 276.551 350.195 276.181 350.195C276.131 350.115 276.066 349.945 275.986 349.685C275.906 349.415 275.866 349.21 275.866 349.07ZM281.996 338.855C282.306 338.855 282.526 338.865 282.656 338.885C282.656 339.235 282.591 339.635 282.461 340.085C282.371 345.985 282.326 348.95 282.326 348.98L283.586 349.1C283.586 349.38 283.501 349.68 283.331 350H279.881L279.836 349.475C280.296 349.315 280.746 349.195 281.186 349.115L281.036 340.04C280.486 340.01 280.046 339.95 279.716 339.86L279.776 339.08C280.286 338.93 281.026 338.855 281.996 338.855ZM288.205 349.16C288.645 349.16 289.335 348.95 290.275 348.53C290.465 348.79 290.565 349.02 290.575 349.22C290.065 349.52 289.565 349.755 289.075 349.925C288.585 350.095 288.235 350.18 288.025 350.18C286.865 350.18 285.98 349.835 285.37 349.145C284.76 348.445 284.455 347.47 284.455 346.22C284.455 344.97 284.75 343.99 285.34 343.28C285.94 342.56 286.835 342.2 288.025 342.2C288.945 342.2 289.645 342.53 290.125 343.19C290.615 343.85 290.86 344.735 290.86 345.845C290.78 345.985 290.715 346.08 290.665 346.13L285.835 346.055C285.845 347.065 286.02 347.835 286.36 348.365C286.71 348.895 287.325 349.16 288.205 349.16ZM289.495 345.2C289.495 344.54 289.375 344.03 289.135 343.67C288.895 343.3 288.495 343.115 287.935 343.115C287.375 343.115 286.875 343.22 286.435 343.43C286.135 344.03 285.945 344.645 285.865 345.275C286.655 345.265 287.865 345.24 289.495 345.2ZM296.676 343.46C296.626 343.41 296.516 343.385 296.346 343.385C296.176 343.385 295.921 343.445 295.581 343.565C295.251 343.685 294.951 343.825 294.681 343.985C294.621 346.205 294.581 347.87 294.561 348.98L295.821 349.1C295.821 349.38 295.736 349.68 295.566 350H292.116L292.071 349.475C292.531 349.315 292.981 349.195 293.421 349.115C293.361 346.575 293.311 344.695 293.271 343.475C292.721 343.445 292.281 343.385 291.951 343.295L292.011 342.515C292.541 342.365 293.326 342.29 294.366 342.29C294.526 342.54 294.626 342.86 294.666 343.25C295.816 342.55 296.501 342.2 296.721 342.2C296.941 342.2 297.196 342.245 297.486 342.335C297.776 342.415 297.991 342.505 298.131 342.605C298.131 343.605 298.036 344.42 297.846 345.05C297.706 345.09 297.541 345.11 297.351 345.11C297.171 345.11 297.046 345.105 296.976 345.095L296.676 343.46Z" fill="black"/>
<path d="M130.964 407.525C131.544 407.595 132.054 407.865 132.494 408.335C132.944 408.805 133.169 409.465 133.169 410.315C133.169 411.155 132.834 411.815 132.164 412.295C131.504 412.765 130.534 413 129.254 413H125.144L125.099 412.475C125.519 412.305 125.949 412.185 126.389 412.115C126.329 408.255 126.279 405.36 126.239 403.43C125.899 403.37 125.459 403.25 124.919 403.07C124.949 402.7 124.974 402.51 124.994 402.5H128.759C130.099 402.5 131.009 402.615 131.489 402.845C131.719 402.955 131.949 403.1 132.179 403.28C132.639 403.64 132.869 404.235 132.869 405.065C132.869 405.485 132.794 405.865 132.644 406.205C132.504 406.535 132.319 406.79 132.089 406.97C131.669 407.3 131.294 407.485 130.964 407.525ZM129.329 408.17H127.664C127.644 409.03 127.624 410.3 127.604 411.98H129.194C130.854 411.98 131.684 411.36 131.684 410.12C131.684 409.4 131.489 408.895 131.099 408.605C130.719 408.315 130.129 408.17 129.329 408.17ZM128.609 403.55L127.709 403.565C127.689 404.485 127.679 405.68 127.679 407.15H129.149C130.029 407.15 130.614 406.985 130.904 406.655C131.204 406.315 131.354 405.78 131.354 405.05C131.354 404.05 130.439 403.55 128.609 403.55ZM140.487 408.095L140.412 411.965C140.842 411.995 141.272 412.065 141.702 412.175L141.672 412.7C141.512 412.78 141.222 412.87 140.802 412.97C140.392 413.06 139.987 413.105 139.587 413.105C139.407 412.745 139.307 412.4 139.287 412.07C138.147 412.82 137.347 413.195 136.887 413.195C136.177 413.195 135.607 413.005 135.177 412.625C134.747 412.245 134.532 411.715 134.532 411.035C134.532 409.465 135.492 408.655 137.412 408.605C138.532 408.575 139.097 408.56 139.107 408.56L139.092 408.05C139.072 407.36 138.942 406.865 138.702 406.565C138.462 406.255 138.032 406.1 137.412 406.1C137.152 406.1 136.872 406.16 136.572 406.28L136.212 407.78C136.162 407.79 136.077 407.795 135.957 407.795L135.342 407.75C135.182 407.32 135.097 406.725 135.087 405.965C135.277 405.865 135.712 405.715 136.392 405.515C137.072 405.305 137.507 405.2 137.697 405.2C138.717 405.2 139.437 405.425 139.857 405.875C140.277 406.325 140.487 407.065 140.487 408.095ZM137.217 412.175C137.507 412.175 138.177 411.85 139.227 411.2L139.152 409.325C138.472 409.385 137.902 409.44 137.442 409.49C136.982 409.54 136.612 409.675 136.332 409.895C136.052 410.105 135.912 410.44 135.912 410.9C135.912 411.75 136.347 412.175 137.217 412.175ZM148.363 410.6C148.503 411.18 148.573 411.695 148.573 412.145C148.573 412.585 148.563 412.87 148.543 413H142.873C142.753 412.82 142.683 412.55 142.663 412.19L146.968 406.22H144.403L144.043 407.78C143.893 407.79 143.803 407.795 143.773 407.795L143.173 407.75C143.033 407.17 142.963 406.665 142.963 406.235C142.963 405.795 142.973 405.51 142.993 405.38H148.318C148.378 405.53 148.408 405.81 148.408 406.22L144.298 412.1H147.133L147.493 410.525L148.363 410.6ZM151.848 401.855C152.158 401.855 152.378 401.865 152.508 401.885C152.508 402.235 152.443 402.635 152.313 403.085C152.223 408.985 152.178 411.95 152.178 411.98L153.438 412.1C153.438 412.38 153.353 412.68 153.183 413H149.733L149.688 412.475C150.148 412.315 150.598 412.195 151.038 412.115L150.888 403.04C150.338 403.01 149.898 402.95 149.568 402.86L149.628 402.08C150.138 401.93 150.878 401.855 151.848 401.855ZM160.277 408.095L160.202 411.965C160.632 411.995 161.062 412.065 161.492 412.175L161.462 412.7C161.302 412.78 161.012 412.87 160.592 412.97C160.182 413.06 159.777 413.105 159.377 413.105C159.197 412.745 159.097 412.4 159.077 412.07C157.937 412.82 157.137 413.195 156.677 413.195C155.967 413.195 155.397 413.005 154.967 412.625C154.537 412.245 154.322 411.715 154.322 411.035C154.322 409.465 155.282 408.655 157.202 408.605C158.322 408.575 158.887 408.56 158.897 408.56L158.882 408.05C158.862 407.36 158.732 406.865 158.492 406.565C158.252 406.255 157.822 406.1 157.202 406.1C156.942 406.1 156.662 406.16 156.362 406.28L156.002 407.78C155.952 407.79 155.867 407.795 155.747 407.795L155.132 407.75C154.972 407.32 154.887 406.725 154.877 405.965C155.067 405.865 155.502 405.715 156.182 405.515C156.862 405.305 157.297 405.2 157.487 405.2C158.507 405.2 159.227 405.425 159.647 405.875C160.067 406.325 160.277 407.065 160.277 408.095ZM157.007 412.175C157.297 412.175 157.967 411.85 159.017 411.2L158.942 409.325C158.262 409.385 157.692 409.44 157.232 409.49C156.772 409.54 156.402 409.675 156.122 409.895C155.842 410.105 155.702 410.44 155.702 410.9C155.702 411.75 156.137 412.175 157.007 412.175ZM166.938 406.46C166.888 406.41 166.778 406.385 166.608 406.385C166.438 406.385 166.183 406.445 165.843 406.565C165.513 406.685 165.213 406.825 164.943 406.985C164.883 409.205 164.843 410.87 164.823 411.98L166.083 412.1C166.083 412.38 165.998 412.68 165.828 413H162.378L162.333 412.475C162.793 412.315 163.243 412.195 163.683 412.115C163.623 409.575 163.573 407.695 163.533 406.475C162.983 406.445 162.543 406.385 162.213 406.295L162.273 405.515C162.803 405.365 163.588 405.29 164.628 405.29C164.788 405.54 164.888 405.86 164.928 406.25C166.078 405.55 166.763 405.2 166.983 405.2C167.203 405.2 167.458 405.245 167.748 405.335C168.038 405.415 168.253 405.505 168.393 405.605C168.393 406.605 168.298 407.42 168.108 408.05C167.968 408.09 167.803 408.11 167.613 408.11C167.433 408.11 167.308 408.105 167.238 408.095L166.938 406.46Z" fill="black"/>
<path d="M75.0383 64.22C75.0383 64.38 74.9717 67 74.8383 72.08L76.4983 72.26C76.4983 72.8467 76.345 73.4267 76.0383 74H70.4783L70.2983 72.9C71.285 72.5267 72.0317 72.2867 72.5383 72.18C72.4183 67.9933 72.3583 65.88 72.3583 65.84C71.5317 66.16 70.885 66.3467 70.4183 66.4C70.0717 65.7867 69.8917 65.2 69.8783 64.64L74.0983 63.18C74.565 63.4333 74.8783 63.78 75.0383 64.22ZM80.3454 71.46C80.4654 71.94 80.5254 72.3533 80.5254 72.7C80.5254 73.0333 80.5054 73.4133 80.4654 73.84C80.012 73.96 79.5787 74.02 79.1654 74.02C78.752 74.02 78.2987 74 77.8054 73.96C77.672 73.4267 77.6054 73.04 77.6054 72.8C77.6054 72.5467 77.632 72.14 77.6854 71.58C78.1254 71.46 78.5454 71.4 78.9454 71.4C79.3587 71.4 79.8254 71.42 80.3454 71.46ZM94.5521 74H88.0521V72.28L89.7921 71.48V62.24L88.0521 61.44V59.72H94.5521V61.44L92.8121 62.24V71.48L94.5521 72.28V74ZM91.3121 55.44C91.7521 55.44 92.1321 55.5467 92.4521 55.76C92.7721 55.96 92.9321 56.34 92.9321 56.9C92.9321 57.4467 92.7721 57.8267 92.4521 58.04C92.1321 58.2533 91.7521 58.36 91.3121 58.36C90.8588 58.36 90.4721 58.2533 90.1521 58.04C89.8454 57.8267 89.6921 57.4467 89.6921 56.9C89.6921 56.34 89.8454 55.96 90.1521 55.76C90.4721 55.5467 90.8588 55.44 91.3121 55.44ZM102.466 63.6C103.799 63.6 104.766 63.9267 105.366 64.58C105.966 65.2333 106.266 66.1467 106.266 67.32C106.266 68.4933 106.199 70.08 106.066 72.08L107.646 72.26C107.646 72.8067 107.492 73.3867 107.186 74H102.206L102.026 72.9C102.652 72.6467 103.232 72.4467 103.766 72.3C103.726 70.7667 103.686 69.48 103.646 68.44C103.606 67.3867 103.506 66.6733 103.346 66.3C103.186 65.9267 102.832 65.74 102.286 65.74C101.459 65.74 100.719 65.8867 100.066 66.18C100.052 66.7533 100.012 67.6933 99.9455 69C99.8922 70.2933 99.8589 71.32 99.8455 72.08L101.406 72.26C101.406 72.8067 101.252 73.3867 100.946 74H95.9655L95.7855 72.9C96.4522 72.6467 97.0522 72.4467 97.5855 72.3C97.5722 71.5 97.5255 70.3933 97.4455 68.98C97.3789 67.5667 97.3389 66.52 97.3255 65.84C96.8322 65.7867 96.3055 65.6867 95.7455 65.54L95.8455 64.1C96.7789 63.8467 97.8322 63.72 99.0055 63.72C99.1522 63.8133 99.3522 64.1 99.6055 64.58C100.059 64.3533 100.612 64.1333 101.266 63.92C101.919 63.7067 102.319 63.6 102.466 63.6ZM113.41 65.2C112.93 65.2 112.383 65.32 111.77 65.56C111.596 65.8267 111.43 66.3 111.27 66.98C111.123 67.6467 111.05 68.32 111.05 69C111.05 70.2533 111.236 71.1467 111.61 71.68C111.983 72.2 112.583 72.46 113.41 72.46C114.25 72.46 114.856 72.2 115.23 71.68C115.603 71.1467 115.79 70.24 115.79 68.96C115.79 67.6667 115.596 66.72 115.21 66.12C114.836 65.5067 114.236 65.2 113.41 65.2ZM113.41 63.6C114.97 63.6 116.223 64.08 117.17 65.04C118.13 65.9867 118.61 67.3133 118.61 69.02C118.61 70.7133 118.136 72.0067 117.19 72.9C116.243 73.7933 114.983 74.24 113.41 74.24C111.836 74.24 110.576 73.7933 109.63 72.9C108.696 72.0067 108.23 70.7133 108.23 69.02C108.23 67.3133 108.703 65.9867 109.65 65.04C110.596 64.08 111.85 63.6 113.41 63.6ZM124.791 65.76C124.765 65.6933 124.631 65.66 124.391 65.66C124.151 65.66 123.738 65.84 123.151 66.2C123.098 68.8133 123.065 70.7733 123.051 72.08L124.611 72.28C124.611 72.8533 124.458 73.4267 124.151 74H119.171L118.991 72.9C119.818 72.5933 120.418 72.3933 120.791 72.3L120.571 65.82C119.878 65.7667 119.298 65.6667 118.831 65.52L118.971 64.08C119.331 63.92 120.631 63.8133 122.871 63.76C122.991 63.88 123.051 64.1133 123.051 64.46C124.225 63.8867 124.965 63.6 125.271 63.6C125.591 63.6 125.978 63.68 126.431 63.84C126.898 63.9867 127.251 64.1467 127.491 64.32V64.66C127.491 65.7533 127.358 66.7667 127.091 67.7C126.865 67.7933 126.565 67.84 126.191 67.84C125.818 67.84 125.471 67.82 125.151 67.78C125.111 67.6067 124.991 66.9333 124.791 65.76ZM135.936 70.54C135.496 70.82 135.029 71.0267 134.536 71.16C134.043 71.28 133.563 71.34 133.096 71.34C132.643 71.34 132.243 71.2933 131.896 71.2C131.749 71.5467 131.609 71.8067 131.476 71.98C131.583 72.14 132.703 72.22 134.836 72.22C136.169 72.22 137.109 72.4267 137.656 72.84C137.909 73.0133 138.129 73.2867 138.316 73.66C138.516 74.0333 138.616 74.5133 138.616 75.1C138.616 75.7 138.323 76.3 137.736 76.9C137.149 77.5 136.416 77.9733 135.536 78.32C134.656 78.6667 133.783 78.84 132.916 78.84C131.476 78.84 130.309 78.5533 129.416 77.98C128.523 77.42 128.076 76.72 128.076 75.88C128.076 75.72 128.309 75.3267 128.776 74.7C129.243 74.0867 129.549 73.7333 129.696 73.64C129.563 73.5733 129.329 73.3533 128.996 72.98C128.663 72.5933 128.476 72.32 128.436 72.16C128.609 71.68 129.143 71.08 130.036 70.36C128.996 69.7333 128.476 68.68 128.476 67.2C128.476 66.0267 128.876 65.1333 129.676 64.52C130.489 63.9067 131.556 63.6 132.876 63.6C134.209 63.6 135.216 63.78 135.896 64.14C137.029 63.94 137.829 63.84 138.296 63.84C138.776 63.84 139.089 63.8467 139.236 63.86C139.236 64.18 139.156 64.5467 138.996 64.96C138.849 65.36 138.709 65.64 138.576 65.8L136.856 65.4C137.189 65.88 137.356 66.5 137.356 67.26C137.356 68.02 137.229 68.6867 136.976 69.26C136.723 69.82 136.376 70.2467 135.936 70.54ZM135.836 76.26C135.929 76.0067 135.976 75.7133 135.976 75.38C135.976 75.0467 135.829 74.8 135.536 74.64C135.243 74.4933 134.896 74.42 134.496 74.42C132.936 74.42 131.903 74.4067 131.396 74.38C131.289 74.6067 131.156 74.9267 130.996 75.34C130.836 75.7667 130.756 76.02 130.756 76.1C130.756 76.18 130.809 76.2933 130.916 76.44C131.023 76.6 131.249 76.7667 131.596 76.94C131.956 77.1133 132.389 77.2 132.896 77.2C133.416 77.2 134.023 77.08 134.716 76.84C135.409 76.6 135.783 76.4067 135.836 76.26ZM134.216 65.64C133.909 65.28 133.476 65.1 132.916 65.1C132.356 65.1 131.916 65.28 131.596 65.64C131.289 66 131.136 66.5267 131.136 67.22C131.136 67.9 131.296 68.4333 131.616 68.82C131.936 69.2067 132.369 69.4 132.916 69.4C134.103 69.4 134.696 68.6667 134.696 67.2C134.696 66.52 134.536 66 134.216 65.64ZM143.198 74.24C142.065 74.24 141.185 74.0067 140.558 73.54C139.945 73.0733 139.638 72.2867 139.638 71.18C139.638 70.1267 140.005 69.2667 140.738 68.6C141.165 68.2133 141.758 67.9867 142.518 67.92C143.278 67.8533 144.325 67.82 145.658 67.82V67.5C145.658 66.6867 145.525 66.0933 145.258 65.72C145.005 65.3333 144.552 65.14 143.898 65.14C143.565 65.14 143.265 65.2067 142.998 65.34L142.518 67.08L141.038 67.04C140.705 66.5333 140.525 65.7267 140.498 64.62C140.765 64.4867 141.392 64.2867 142.378 64.02C143.365 63.74 143.998 63.6 144.278 63.6C145.718 63.6 146.765 63.9 147.418 64.5C148.072 65.0867 148.398 66.0267 148.398 67.32C148.398 68.6 148.338 70.2933 148.218 72.4C148.978 72.4667 149.565 72.58 149.978 72.74C149.992 72.9 149.998 73.0933 149.998 73.32L149.978 73.76C149.018 74.08 148.052 74.24 147.078 74.24C146.825 74.24 146.638 74.2333 146.518 74.22C146.318 73.82 146.198 73.34 146.158 72.78H146.058C145.805 73.02 145.358 73.3267 144.718 73.7C144.092 74.06 143.585 74.24 143.198 74.24ZM142.198 71.3C142.198 71.74 142.332 72.0667 142.598 72.28C142.878 72.48 143.192 72.58 143.538 72.58C143.885 72.58 144.298 72.4267 144.778 72.12C145.258 71.8 145.645 71.5133 145.938 71.26L145.838 69.42C144.785 69.4733 143.992 69.5733 143.458 69.72C142.618 69.8933 142.198 70.42 142.198 71.3ZM156.88 63.6C158.213 63.6 159.18 63.9267 159.78 64.58C160.38 65.2333 160.68 66.1467 160.68 67.32C160.68 68.4933 160.613 70.08 160.48 72.08L162.06 72.26C162.06 72.8067 161.906 73.3867 161.6 74H156.62L156.44 72.9C157.066 72.6467 157.646 72.4467 158.18 72.3C158.14 70.7667 158.1 69.48 158.06 68.44C158.02 67.3867 157.92 66.6733 157.76 66.3C157.6 65.9267 157.246 65.74 156.7 65.74C155.873 65.74 155.133 65.8867 154.48 66.18C154.466 66.7533 154.426 67.6933 154.36 69C154.306 70.2933 154.273 71.32 154.26 72.08L155.82 72.26C155.82 72.8067 155.666 73.3867 155.36 74H150.38L150.2 72.9C150.866 72.6467 151.466 72.4467 152 72.3C151.986 71.5 151.94 70.3933 151.86 68.98C151.793 67.5667 151.753 66.52 151.74 65.84C151.246 65.7867 150.72 65.6867 150.16 65.54L150.26 64.1C151.193 63.8467 152.246 63.72 153.42 63.72C153.566 63.8133 153.766 64.1 154.02 64.58C154.473 64.3533 155.026 64.1333 155.68 63.92C156.333 63.7067 156.733 63.6 156.88 63.6ZM166.704 63.76C166.957 63.76 167.117 63.7667 167.184 63.78C167.184 64.4333 167.07 65.04 166.844 65.6C166.79 68.48 166.757 70.64 166.744 72.08L168.304 72.26C168.304 72.8067 168.15 73.3867 167.844 74H162.864L162.684 72.9C163.51 72.5933 164.11 72.3933 164.484 72.3L164.264 65.82C163.477 65.74 162.897 65.64 162.524 65.52C162.524 65.1867 162.57 64.7067 162.664 64.08C163.45 63.8667 164.797 63.76 166.704 63.76ZM166.704 59.98C166.824 60.58 166.884 61.04 166.884 61.36C166.884 61.6667 166.857 62.0133 166.804 62.4C166.27 62.52 165.817 62.58 165.444 62.58C165.084 62.58 164.644 62.56 164.124 62.52C164.004 61.92 163.944 61.4667 163.944 61.16C163.944 60.84 163.97 60.4867 164.024 60.1C164.557 59.98 165.004 59.92 165.364 59.92C165.737 59.92 166.184 59.94 166.704 59.98ZM172.696 70.54L172.676 72.08L174.236 72.26C174.236 72.8067 174.083 73.3867 173.776 74H168.796L168.616 72.9C169.443 72.5933 170.043 72.3933 170.416 72.3L170.036 61.2C169.41 61.1333 168.883 61.0333 168.456 60.9C168.456 60.4067 168.503 59.9267 168.596 59.46C169.383 59.2467 170.73 59.14 172.636 59.14C172.89 59.14 173.05 59.1467 173.116 59.16C173.116 59.8533 173.03 60.46 172.856 60.98C172.776 64.18 172.736 66.5533 172.736 68.1L175.116 65.74L173.876 65.58C173.876 65.0333 174.03 64.4533 174.336 63.84H179.316L179.496 64.94C178.67 65.2467 178.07 65.4467 177.696 65.54L175.496 67.74L178.296 72.08L179.856 72.26C179.856 72.8067 179.703 73.3867 179.396 74H176.836L173.876 69.36L172.696 70.54ZM191.068 72.16C193.135 72.16 194.168 71.42 194.168 69.94C194.168 68.86 193.915 68.18 193.408 67.9C192.915 67.6067 191.795 67.46 190.048 67.46L189.968 72.12C190.421 72.1467 190.788 72.16 191.068 72.16ZM190.948 65.82C191.975 65.7933 192.701 65.66 193.128 65.42C193.555 65.18 193.768 64.68 193.768 63.92C193.768 63.1467 193.521 62.6333 193.028 62.38C192.535 62.1267 191.788 62 190.788 62H190.068C190.041 63.68 190.028 64.9467 190.028 65.8L190.948 65.82ZM190.968 74.02H186.028L185.848 72.92C186.541 72.64 187.101 72.4467 187.528 72.34C187.528 72.3 187.468 68.7733 187.348 61.76C187.135 61.7067 186.581 61.5333 185.688 61.24L185.848 60.02H191.388C192.975 60.02 194.208 60.3267 195.088 60.94C195.968 61.5533 196.408 62.44 196.408 63.6C196.408 64.16 196.255 64.7667 195.948 65.42C195.655 66.0733 195.315 66.46 194.928 66.58C195.515 66.9 195.975 67.3467 196.308 67.92C196.641 68.4933 196.808 69.1533 196.808 69.9C196.808 71.1267 196.308 72.12 195.308 72.88C194.308 73.64 192.861 74.02 190.968 74.02ZM202.466 63.76C202.719 63.76 202.879 63.7667 202.946 63.78C202.946 64.4333 202.832 65.04 202.606 65.6C202.552 68.48 202.519 70.64 202.506 72.08L204.066 72.26C204.066 72.8067 203.912 73.3867 203.606 74H198.626L198.446 72.9C199.272 72.5933 199.872 72.3933 200.246 72.3L200.026 65.82C199.239 65.74 198.659 65.64 198.286 65.52C198.286 65.1867 198.332 64.7067 198.426 64.08C199.212 63.8667 200.559 63.76 202.466 63.76ZM202.466 59.98C202.586 60.58 202.646 61.04 202.646 61.36C202.646 61.6667 202.619 62.0133 202.566 62.4C202.032 62.52 201.579 62.58 201.206 62.58C200.846 62.58 200.406 62.56 199.886 62.52C199.766 61.92 199.706 61.4667 199.706 61.16C199.706 60.84 199.732 60.4867 199.786 60.1C200.319 59.98 200.766 59.92 201.126 59.92C201.499 59.92 201.946 59.94 202.466 59.98ZM208.398 59.14C208.651 59.14 208.811 59.1467 208.878 59.16C208.878 59.8533 208.791 60.46 208.618 60.98C208.605 61.8067 208.585 62.9733 208.558 64.48C208.505 67.7867 208.465 70.32 208.438 72.08L209.998 72.26C209.998 72.8067 209.845 73.3867 209.538 74H204.558L204.378 72.9C205.205 72.5933 205.805 72.3933 206.178 72.3L205.798 61.2C205.171 61.1333 204.645 61.0333 204.218 60.9C204.218 60.4067 204.265 59.9267 204.358 59.46C205.145 59.2467 206.491 59.14 208.398 59.14ZM215.676 72.28C216.13 72.28 217.05 71.9667 218.436 71.34C218.73 71.7667 218.95 72.26 219.096 72.82C218.363 73.2733 217.643 73.6267 216.936 73.88C216.243 74.12 215.75 74.24 215.456 74.24C213.843 74.24 212.616 73.7933 211.776 72.9C210.95 72.0067 210.536 70.74 210.536 69.1C210.536 67.4467 210.95 66.12 211.776 65.12C212.603 64.1067 213.83 63.6 215.456 63.6C216.75 63.6 217.736 64.02 218.416 64.86C219.096 65.7 219.436 66.7933 219.436 68.14C219.436 68.42 219.276 68.74 218.956 69.1L213.196 69C213.223 70.0667 213.423 70.88 213.796 71.44C214.17 72 214.796 72.28 215.676 72.28ZM215.276 65.26C214.77 65.26 214.296 65.36 213.856 65.56C213.55 66.2 213.356 66.7933 213.276 67.34C214.316 67.3 215.496 67.2733 216.816 67.26C216.75 65.9267 216.236 65.26 215.276 65.26ZM229.151 70.76C229.151 71.4933 228.977 72.12 228.631 72.64C228.284 73.1467 227.764 73.5333 227.071 73.8C226.377 74.0667 225.517 74.2 224.491 74.2C223.731 74.2 223.077 74.1467 222.531 74.04C221.984 73.9467 221.437 73.7867 220.891 73.56V71.1C221.477 71.3667 222.111 71.5867 222.791 71.76C223.471 71.9333 224.071 72.02 224.591 72.02C225.177 72.02 225.591 71.9333 225.831 71.76C226.084 71.5867 226.211 71.36 226.211 71.08C226.211 70.8933 226.157 70.7267 226.051 70.58C225.957 70.4333 225.744 70.2667 225.411 70.08C225.077 69.8933 224.557 69.6533 223.851 69.36C223.171 69.0667 222.611 68.78 222.171 68.5C221.731 68.2067 221.404 67.86 221.191 67.46C220.977 67.0467 220.871 66.5333 220.871 65.92C220.871 64.9067 221.264 64.1467 222.051 63.64C222.837 63.1333 223.884 62.88 225.191 62.88C225.871 62.88 226.517 62.9467 227.131 63.08C227.744 63.2133 228.377 63.4333 229.031 63.74L228.131 65.88C227.771 65.72 227.424 65.58 227.091 65.46C226.757 65.34 226.431 65.2467 226.111 65.18C225.804 65.1133 225.484 65.08 225.151 65.08C224.711 65.08 224.377 65.14 224.151 65.26C223.937 65.38 223.831 65.56 223.831 65.8C223.831 65.9733 223.884 66.1333 223.991 66.28C224.111 66.4133 224.331 66.56 224.651 66.72C224.984 66.88 225.471 67.0933 226.111 67.36C226.737 67.6133 227.277 67.88 227.731 68.16C228.184 68.4267 228.531 68.7667 228.771 69.18C229.024 69.58 229.151 70.1067 229.151 70.76ZM227.171 76.44C227.171 76.9333 227.077 77.3533 226.891 77.7C226.704 78.06 226.391 78.3333 225.951 78.52C225.511 78.7067 224.911 78.8 224.151 78.8C223.857 78.8 223.591 78.78 223.351 78.74C223.124 78.7 222.917 78.6533 222.731 78.6V76.96C222.917 77.0133 223.144 77.06 223.411 77.1C223.691 77.14 223.931 77.16 224.131 77.16C224.317 77.16 224.477 77.1133 224.611 77.02C224.757 76.94 224.831 76.7867 224.831 76.56C224.831 76.32 224.711 76.1067 224.471 75.92C224.231 75.7333 223.811 75.5933 223.211 75.5L223.971 74H225.851L225.591 74.6C225.857 74.68 226.111 74.8 226.351 74.96C226.591 75.1333 226.784 75.34 226.931 75.58C227.091 75.82 227.171 76.1067 227.171 76.44ZM235.852 72.28C236.305 72.28 237.225 71.9667 238.612 71.34C238.905 71.7667 239.125 72.26 239.272 72.82C238.539 73.2733 237.819 73.6267 237.112 73.88C236.419 74.12 235.925 74.24 235.632 74.24C234.019 74.24 232.792 73.7933 231.952 72.9C231.125 72.0067 230.712 70.74 230.712 69.1C230.712 67.4467 231.125 66.12 231.952 65.12C232.779 64.1067 234.005 63.6 235.632 63.6C236.925 63.6 237.912 64.02 238.592 64.86C239.272 65.7 239.612 66.7933 239.612 68.14C239.612 68.42 239.452 68.74 239.132 69.1L233.372 69C233.399 70.0667 233.599 70.88 233.972 71.44C234.345 72 234.972 72.28 235.852 72.28ZM235.452 65.26C234.945 65.26 234.472 65.36 234.032 65.56C233.725 66.2 233.532 66.7933 233.452 67.34C234.492 67.3 235.672 67.2733 236.992 67.26C236.925 65.9267 236.412 65.26 235.452 65.26ZM247.426 63.6C248.76 63.6 249.726 63.9267 250.326 64.58C250.926 65.2333 251.226 66.1467 251.226 67.32C251.226 68.4933 251.16 70.08 251.026 72.08L252.606 72.26C252.606 72.8067 252.453 73.3867 252.146 74H247.166L246.986 72.9C247.613 72.6467 248.193 72.4467 248.726 72.3C248.686 70.7667 248.646 69.48 248.606 68.44C248.566 67.3867 248.466 66.6733 248.306 66.3C248.146 65.9267 247.793 65.74 247.246 65.74C246.42 65.74 245.68 65.8867 245.026 66.18C245.013 66.7533 244.973 67.6933 244.906 69C244.853 70.2933 244.82 71.32 244.806 72.08L246.366 72.26C246.366 72.8067 246.213 73.3867 245.906 74H240.926L240.746 72.9C241.413 72.6467 242.013 72.4467 242.546 72.3C242.533 71.5 242.486 70.3933 242.406 68.98C242.34 67.5667 242.3 66.52 242.286 65.84C241.793 65.7867 241.266 65.6867 240.706 65.54L240.806 64.1C241.74 63.8467 242.793 63.72 243.966 63.72C244.113 63.8133 244.313 64.1 244.566 64.58C245.02 64.3533 245.573 64.1333 246.226 63.92C246.88 63.7067 247.28 63.6 247.426 63.6ZM257.031 59.14C257.284 59.14 257.444 59.1467 257.511 59.16C257.511 59.8533 257.424 60.46 257.251 60.98C257.237 61.8067 257.217 62.9733 257.191 64.48C257.137 67.7867 257.097 70.32 257.071 72.08L258.631 72.26C258.631 72.8067 258.477 73.3867 258.171 74H253.191L253.011 72.9C253.837 72.5933 254.437 72.3933 254.811 72.3L254.431 61.2C253.804 61.1333 253.277 61.0333 252.851 60.9C252.851 60.4067 252.897 59.9267 252.991 59.46C253.777 59.2467 255.124 59.14 257.031 59.14ZM264.309 72.28C264.762 72.28 265.682 71.9667 267.069 71.34C267.362 71.7667 267.582 72.26 267.729 72.82C266.996 73.2733 266.276 73.6267 265.569 73.88C264.876 74.12 264.382 74.24 264.089 74.24C262.476 74.24 261.249 73.7933 260.409 72.9C259.582 72.0067 259.169 70.74 259.169 69.1C259.169 67.4467 259.582 66.12 260.409 65.12C261.236 64.1067 262.462 63.6 264.089 63.6C265.382 63.6 266.369 64.02 267.049 64.86C267.729 65.7 268.069 66.7933 268.069 68.14C268.069 68.42 267.909 68.74 267.589 69.1L261.829 69C261.856 70.0667 262.056 70.88 262.429 71.44C262.802 72 263.429 72.28 264.309 72.28ZM263.909 65.26C263.402 65.26 262.929 65.36 262.489 65.56C262.182 66.2 261.989 66.7933 261.909 67.34C262.949 67.3 264.129 67.2733 265.449 67.26C265.382 65.9267 264.869 65.26 263.909 65.26ZM275.124 65.76C275.097 65.6933 274.964 65.66 274.724 65.66C274.484 65.66 274.07 65.84 273.484 66.2C273.43 68.8133 273.397 70.7733 273.384 72.08L274.944 72.28C274.944 72.8533 274.79 73.4267 274.484 74H269.504L269.324 72.9C270.15 72.5933 270.75 72.3933 271.124 72.3L270.904 65.82C270.21 65.7667 269.63 65.6667 269.164 65.52L269.304 64.08C269.664 63.92 270.964 63.8133 273.204 63.76C273.324 63.88 273.384 64.1133 273.384 64.46C274.557 63.8867 275.297 63.6 275.604 63.6C275.924 63.6 276.31 63.68 276.764 63.84C277.23 63.9867 277.584 64.1467 277.824 64.32V64.66C277.824 65.7533 277.69 66.7667 277.424 67.7C277.197 67.7933 276.897 67.84 276.524 67.84C276.15 67.84 275.804 67.82 275.484 67.78C275.444 67.6067 275.324 66.9333 275.124 65.76Z" fill="white"/>
</g>
<defs>
<filter id="filter0_d_105_244" x="0" y="0" width="343" height="483" filterUnits="userSpaceOnUse" color-interpolation-filters="sRGB">
<feFlood flood-opacity="0" result="BackgroundImageFix"/>
<feColorMatrix in="SourceAlpha" type="matrix" values="0 0 0 0 0 0 0 0 0 0 0 0 0 0 0 0 0 0 127 0" result="hardAlpha"/>
<feOffset dy="4"/>
<feGaussianBlur stdDeviation="2"/>
<feComposite in2="hardAlpha" operator="out"/>
<feColorMatrix type="matrix" values="0 0 0 0 0 0 0 0 0 0 0 0 0 0 0 0 0 0 0.25 0"/>
<feBlend mode="normal" in2="BackgroundImageFix" result="effect1_dropShadow_105_244"/>
<feBlend mode="normal" in="SourceGraphic" in2="effect1_dropShadow_105_244" result="shape"/>
</filter>
<filter id="filter1_d_105_244" x="15" y="50" width="313" height="43" filterUnits="userSpaceOnUse" color-interpolation-filters="sRGB">
<feFlood flood-opacity="0" result="BackgroundImageFix"/>
<feColorMatrix in="SourceAlpha" type="matrix" values="0 0 0 0 0 0 0 0 0 0 0 0 0 0 0 0 0 0 127 0" result="hardAlpha"/>
<feOffset dy="4"/>
<feGaussianBlur stdDeviation="2"/>
<feComposite in2="hardAlpha" operator="out"/>
<feColorMatrix type="matrix" values="0 0 0 0 0 0 0 0 0 0 0 0 0 0 0 0 0 0 0.25 0"/>
<feBlend mode="normal" in2="BackgroundImageFix" result="effect1_dropShadow_105_244"/>
<feBlend mode="normal" in="SourceGraphic" in2="effect1_dropShadow_105_244" result="shape"/>
</filter>
</defs>
</svg>
