<svg width="343" height="483" viewBox="0 0 343 483" fill="none" xmlns="http://www.w3.org/2000/svg">
<g filter="url(#filter0_d_146_980)">
<rect x="4" width="335" height="475" rx="15" fill="white"/>
<g filter="url(#filter1_d_146_980)">
<rect x="19" y="13" width="305" height="35" rx="2" fill="#A0BCC2"/>
</g>
<path d="M87.9934 27.22C87.9934 27.38 87.9267 30 87.7934 35.08L89.4534 35.26C89.4534 35.8467 89.3001 36.4267 88.9934 37H83.4334L83.2534 35.9C84.2401 35.5267 84.9867 35.2867 85.4934 35.18C85.3734 30.9933 85.3134 28.88 85.3134 28.84C84.4867 29.16 83.8401 29.3467 83.3734 29.4C83.0267 28.7867 82.8467 28.2 82.8334 27.64L87.0534 26.18C87.5201 26.4333 87.8334 26.78 87.9934 27.22ZM93.3004 34.46C93.4204 34.94 93.4804 35.3533 93.4804 35.7C93.4804 36.0333 93.4604 36.4133 93.4204 36.84C92.9671 36.96 92.5338 37.02 92.1204 37.02C91.7071 37.02 91.2538 37 90.7604 36.96C90.6271 36.4267 90.5604 36.04 90.5604 35.8C90.5604 35.5467 90.5871 35.14 90.6404 34.58C91.0804 34.46 91.5004 34.4 91.9004 34.4C92.3138 34.4 92.7804 34.42 93.3004 34.46ZM106.967 35.12C109.181 35.12 110.287 33.42 110.287 30.02C110.287 26.62 109.181 24.92 106.967 24.92C106.007 24.92 105.167 25.0667 104.447 25.36C103.834 26.64 103.527 28.1267 103.527 29.82C103.527 31.5 103.781 32.8067 104.287 33.74C104.794 34.66 105.687 35.12 106.967 35.12ZM106.967 22.76C109.194 22.76 110.761 23.3467 111.667 24.52C112.574 25.68 113.027 27.46 113.027 29.86C113.027 31.3667 112.834 32.6533 112.447 33.72C112.061 34.7867 111.407 35.64 110.487 36.28C109.567 36.92 108.394 37.24 106.967 37.24C104.794 37.24 103.214 36.6333 102.227 35.42C101.254 34.2067 100.767 32.44 100.767 30.12C100.767 25.2133 102.834 22.76 106.967 22.76ZM119.836 28.76C119.81 28.6933 119.676 28.66 119.436 28.66C119.196 28.66 118.783 28.84 118.196 29.2C118.143 31.8133 118.11 33.7733 118.096 35.08L119.656 35.28C119.656 35.8533 119.503 36.4267 119.196 37H114.216L114.036 35.9C114.863 35.5933 115.463 35.3933 115.836 35.3L115.616 28.82C114.923 28.7667 114.343 28.6667 113.876 28.52L114.016 27.08C114.376 26.92 115.676 26.8133 117.916 26.76C118.036 26.88 118.096 27.1133 118.096 27.46C119.27 26.8867 120.01 26.6 120.316 26.6C120.636 26.6 121.023 26.68 121.476 26.84C121.943 26.9867 122.296 27.1467 122.536 27.32V27.66C122.536 28.7533 122.403 29.7667 122.136 30.7C121.91 30.7933 121.61 30.84 121.236 30.84C120.863 30.84 120.516 30.82 120.196 30.78C120.156 30.6067 120.036 29.9333 119.836 28.76ZM130.981 33.54C130.541 33.82 130.074 34.0267 129.581 34.16C129.087 34.28 128.607 34.34 128.141 34.34C127.687 34.34 127.287 34.2933 126.941 34.2C126.794 34.5467 126.654 34.8067 126.521 34.98C126.627 35.14 127.747 35.22 129.881 35.22C131.214 35.22 132.154 35.4267 132.701 35.84C132.954 36.0133 133.174 36.2867 133.361 36.66C133.561 37.0333 133.661 37.5133 133.661 38.1C133.661 38.7 133.367 39.3 132.781 39.9C132.194 40.5 131.461 40.9733 130.581 41.32C129.701 41.6667 128.827 41.84 127.961 41.84C126.521 41.84 125.354 41.5533 124.461 40.98C123.567 40.42 123.121 39.72 123.121 38.88C123.121 38.72 123.354 38.3267 123.821 37.7C124.287 37.0867 124.594 36.7333 124.741 36.64C124.607 36.5733 124.374 36.3533 124.041 35.98C123.707 35.5933 123.521 35.32 123.481 35.16C123.654 34.68 124.187 34.08 125.081 33.36C124.041 32.7333 123.521 31.68 123.521 30.2C123.521 29.0267 123.921 28.1333 124.721 27.52C125.534 26.9067 126.601 26.6 127.921 26.6C129.254 26.6 130.261 26.78 130.941 27.14C132.074 26.94 132.874 26.84 133.341 26.84C133.821 26.84 134.134 26.8467 134.281 26.86C134.281 27.18 134.201 27.5467 134.041 27.96C133.894 28.36 133.754 28.64 133.621 28.8L131.901 28.4C132.234 28.88 132.401 29.5 132.401 30.26C132.401 31.02 132.274 31.6867 132.021 32.26C131.767 32.82 131.421 33.2467 130.981 33.54ZM130.881 39.26C130.974 39.0067 131.021 38.7133 131.021 38.38C131.021 38.0467 130.874 37.8 130.581 37.64C130.287 37.4933 129.941 37.42 129.541 37.42C127.981 37.42 126.947 37.4067 126.441 37.38C126.334 37.6067 126.201 37.9267 126.041 38.34C125.881 38.7667 125.801 39.02 125.801 39.1C125.801 39.18 125.854 39.2933 125.961 39.44C126.067 39.6 126.294 39.7667 126.641 39.94C127.001 40.1133 127.434 40.2 127.941 40.2C128.461 40.2 129.067 40.08 129.761 39.84C130.454 39.6 130.827 39.4067 130.881 39.26ZM129.261 28.64C128.954 28.28 128.521 28.1 127.961 28.1C127.401 28.1 126.961 28.28 126.641 28.64C126.334 29 126.181 29.5267 126.181 30.22C126.181 30.9 126.341 31.4333 126.661 31.82C126.981 32.2067 127.414 32.4 127.961 32.4C129.147 32.4 129.741 31.6667 129.741 30.2C129.741 29.52 129.581 29 129.261 28.64ZM138.243 37.24C137.11 37.24 136.23 37.0067 135.603 36.54C134.99 36.0733 134.683 35.2867 134.683 34.18C134.683 33.1267 135.05 32.2667 135.783 31.6C136.21 31.2133 136.803 30.9867 137.563 30.92C138.323 30.8533 139.37 30.82 140.703 30.82V30.5C140.703 29.6867 140.57 29.0933 140.303 28.72C140.05 28.3333 139.597 28.14 138.943 28.14C138.61 28.14 138.31 28.2067 138.043 28.34L137.563 30.08L136.083 30.04C135.75 29.5333 135.57 28.7267 135.543 27.62C135.81 27.4867 136.437 27.2867 137.423 27.02C138.41 26.74 139.043 26.6 139.323 26.6C140.763 26.6 141.81 26.9 142.463 27.5C143.117 28.0867 143.443 29.0267 143.443 30.32C143.443 31.6 143.383 33.2933 143.263 35.4C144.023 35.4667 144.61 35.58 145.023 35.74C145.037 35.9 145.043 36.0933 145.043 36.32L145.023 36.76C144.063 37.08 143.097 37.24 142.123 37.24C141.87 37.24 141.683 37.2333 141.563 37.22C141.363 36.82 141.243 36.34 141.203 35.78H141.103C140.85 36.02 140.403 36.3267 139.763 36.7C139.137 37.06 138.63 37.24 138.243 37.24ZM137.243 34.3C137.243 34.74 137.377 35.0667 137.643 35.28C137.923 35.48 138.237 35.58 138.583 35.58C138.93 35.58 139.343 35.4267 139.823 35.12C140.303 34.8 140.69 34.5133 140.983 34.26L140.883 32.42C139.83 32.4733 139.037 32.5733 138.503 32.72C137.663 32.8933 137.243 33.42 137.243 34.3ZM151.925 26.6C153.258 26.6 154.225 26.9267 154.825 27.58C155.425 28.2333 155.725 29.1467 155.725 30.32C155.725 31.4933 155.658 33.08 155.525 35.08L157.105 35.26C157.105 35.8067 156.951 36.3867 156.645 37H151.665L151.485 35.9C152.111 35.6467 152.691 35.4467 153.225 35.3C153.185 33.7667 153.145 32.48 153.105 31.44C153.065 30.3867 152.965 29.6733 152.805 29.3C152.645 28.9267 152.291 28.74 151.745 28.74C150.918 28.74 150.178 28.8867 149.525 29.18C149.511 29.7533 149.471 30.6933 149.405 32C149.351 33.2933 149.318 34.32 149.305 35.08L150.865 35.26C150.865 35.8067 150.711 36.3867 150.405 37H145.425L145.245 35.9C145.911 35.6467 146.511 35.4467 147.045 35.3C147.031 34.5 146.985 33.3933 146.905 31.98C146.838 30.5667 146.798 29.52 146.785 28.84C146.291 28.7867 145.765 28.6867 145.205 28.54L145.305 27.1C146.238 26.8467 147.291 26.72 148.465 26.72C148.611 26.8133 148.811 27.1 149.065 27.58C149.518 27.3533 150.071 27.1333 150.725 26.92C151.378 26.7067 151.778 26.6 151.925 26.6ZM161.749 26.76C162.002 26.76 162.162 26.7667 162.229 26.78C162.229 27.4333 162.115 28.04 161.889 28.6C161.835 31.48 161.802 33.64 161.789 35.08L163.349 35.26C163.349 35.8067 163.195 36.3867 162.889 37H157.909L157.729 35.9C158.555 35.5933 159.155 35.3933 159.529 35.3L159.309 28.82C158.522 28.74 157.942 28.64 157.569 28.52C157.569 28.1867 157.615 27.7067 157.709 27.08C158.495 26.8667 159.842 26.76 161.749 26.76ZM161.749 22.98C161.869 23.58 161.929 24.04 161.929 24.36C161.929 24.6667 161.902 25.0133 161.849 25.4C161.315 25.52 160.862 25.58 160.489 25.58C160.129 25.58 159.689 25.56 159.169 25.52C159.049 24.92 158.989 24.4667 158.989 24.16C158.989 23.84 159.015 23.4867 159.069 23.1C159.602 22.98 160.049 22.92 160.409 22.92C160.782 22.92 161.229 22.94 161.749 22.98ZM167.741 33.54L167.721 35.08L169.281 35.26C169.281 35.8067 169.128 36.3867 168.821 37H163.841L163.661 35.9C164.488 35.5933 165.088 35.3933 165.461 35.3L165.081 24.2C164.454 24.1333 163.928 24.0333 163.501 23.9C163.501 23.4067 163.548 22.9267 163.641 22.46C164.428 22.2467 165.774 22.14 167.681 22.14C167.934 22.14 168.094 22.1467 168.161 22.16C168.161 22.8533 168.074 23.46 167.901 23.98C167.821 27.18 167.781 29.5533 167.781 31.1L170.161 28.74L168.921 28.58C168.921 28.0333 169.074 27.4533 169.381 26.84H174.361L174.541 27.94C173.714 28.2467 173.114 28.4467 172.741 28.54L170.541 30.74L173.341 35.08L174.901 35.26C174.901 35.8067 174.748 36.3867 174.441 37H171.881L168.921 32.36L167.741 33.54ZM186.113 35.16C188.179 35.16 189.213 34.42 189.213 32.94C189.213 31.86 188.959 31.18 188.453 30.9C187.959 30.6067 186.839 30.46 185.093 30.46L185.013 35.12C185.466 35.1467 185.833 35.16 186.113 35.16ZM185.993 28.82C187.019 28.7933 187.746 28.66 188.173 28.42C188.599 28.18 188.813 27.68 188.813 26.92C188.813 26.1467 188.566 25.6333 188.073 25.38C187.579 25.1267 186.833 25 185.833 25H185.113C185.086 26.68 185.073 27.9467 185.073 28.8L185.993 28.82ZM186.013 37.02H181.073L180.893 35.92C181.586 35.64 182.146 35.4467 182.573 35.34C182.573 35.3 182.513 31.7733 182.393 24.76C182.179 24.7067 181.626 24.5333 180.733 24.24L180.893 23.02H186.433C188.019 23.02 189.253 23.3267 190.133 23.94C191.013 24.5533 191.453 25.44 191.453 26.6C191.453 27.16 191.299 27.7667 190.993 28.42C190.699 29.0733 190.359 29.46 189.973 29.58C190.559 29.9 191.019 30.3467 191.353 30.92C191.686 31.4933 191.853 32.1533 191.853 32.9C191.853 34.1267 191.353 35.12 190.353 35.88C189.353 36.64 187.906 37.02 186.013 37.02ZM197.51 26.76C197.764 26.76 197.924 26.7667 197.99 26.78C197.99 27.4333 197.877 28.04 197.65 28.6C197.597 31.48 197.564 33.64 197.55 35.08L199.11 35.26C199.11 35.8067 198.957 36.3867 198.65 37H193.67L193.49 35.9C194.317 35.5933 194.917 35.3933 195.29 35.3L195.07 28.82C194.284 28.74 193.704 28.64 193.33 28.52C193.33 28.1867 193.377 27.7067 193.47 27.08C194.257 26.8667 195.604 26.76 197.51 26.76ZM197.51 22.98C197.63 23.58 197.69 24.04 197.69 24.36C197.69 24.6667 197.664 25.0133 197.61 25.4C197.077 25.52 196.624 25.58 196.25 25.58C195.89 25.58 195.45 25.56 194.93 25.52C194.81 24.92 194.75 24.4667 194.75 24.16C194.75 23.84 194.777 23.4867 194.83 23.1C195.364 22.98 195.81 22.92 196.17 22.92C196.544 22.92 196.99 22.94 197.51 22.98ZM203.443 22.14C203.696 22.14 203.856 22.1467 203.923 22.16C203.923 22.8533 203.836 23.46 203.663 23.98C203.649 24.8067 203.629 25.9733 203.603 27.48C203.549 30.7867 203.509 33.32 203.483 35.08L205.043 35.26C205.043 35.8067 204.889 36.3867 204.583 37H199.603L199.423 35.9C200.249 35.5933 200.849 35.3933 201.223 35.3L200.843 24.2C200.216 24.1333 199.689 24.0333 199.263 23.9C199.263 23.4067 199.309 22.9267 199.403 22.46C200.189 22.2467 201.536 22.14 203.443 22.14ZM210.721 35.28C211.175 35.28 212.095 34.9667 213.481 34.34C213.775 34.7667 213.995 35.26 214.141 35.82C213.408 36.2733 212.688 36.6267 211.981 36.88C211.288 37.12 210.795 37.24 210.501 37.24C208.888 37.24 207.661 36.7933 206.821 35.9C205.995 35.0067 205.581 33.74 205.581 32.1C205.581 30.4467 205.995 29.12 206.821 28.12C207.648 27.1067 208.875 26.6 210.501 26.6C211.795 26.6 212.781 27.02 213.461 27.86C214.141 28.7 214.481 29.7933 214.481 31.14C214.481 31.42 214.321 31.74 214.001 32.1L208.241 32C208.268 33.0667 208.468 33.88 208.841 34.44C209.215 35 209.841 35.28 210.721 35.28ZM210.321 28.26C209.815 28.26 209.341 28.36 208.901 28.56C208.595 29.2 208.401 29.7933 208.321 30.34C209.361 30.3 210.541 30.2733 211.861 30.26C211.795 28.9267 211.281 28.26 210.321 28.26ZM224.196 33.76C224.196 34.4933 224.022 35.12 223.676 35.64C223.329 36.1467 222.809 36.5333 222.116 36.8C221.422 37.0667 220.562 37.2 219.536 37.2C218.776 37.2 218.122 37.1467 217.576 37.04C217.029 36.9467 216.482 36.7867 215.936 36.56V34.1C216.522 34.3667 217.156 34.5867 217.836 34.76C218.516 34.9333 219.116 35.02 219.636 35.02C220.222 35.02 220.636 34.9333 220.876 34.76C221.129 34.5867 221.256 34.36 221.256 34.08C221.256 33.8933 221.202 33.7267 221.096 33.58C221.002 33.4333 220.789 33.2667 220.456 33.08C220.122 32.8933 219.602 32.6533 218.896 32.36C218.216 32.0667 217.656 31.78 217.216 31.5C216.776 31.2067 216.449 30.86 216.236 30.46C216.022 30.0467 215.916 29.5333 215.916 28.92C215.916 27.9067 216.309 27.1467 217.096 26.64C217.882 26.1333 218.929 25.88 220.236 25.88C220.916 25.88 221.562 25.9467 222.176 26.08C222.789 26.2133 223.422 26.4333 224.076 26.74L223.176 28.88C222.816 28.72 222.469 28.58 222.136 28.46C221.802 28.34 221.476 28.2467 221.156 28.18C220.849 28.1133 220.529 28.08 220.196 28.08C219.756 28.08 219.422 28.14 219.196 28.26C218.982 28.38 218.876 28.56 218.876 28.8C218.876 28.9733 218.929 29.1333 219.036 29.28C219.156 29.4133 219.376 29.56 219.696 29.72C220.029 29.88 220.516 30.0933 221.156 30.36C221.782 30.6133 222.322 30.88 222.776 31.16C223.229 31.4267 223.576 31.7667 223.816 32.18C224.069 32.58 224.196 33.1067 224.196 33.76ZM222.216 39.44C222.216 39.9333 222.122 40.3533 221.936 40.7C221.749 41.06 221.436 41.3333 220.996 41.52C220.556 41.7067 219.956 41.8 219.196 41.8C218.902 41.8 218.636 41.78 218.396 41.74C218.169 41.7 217.962 41.6533 217.776 41.6V39.96C217.962 40.0133 218.189 40.06 218.456 40.1C218.736 40.14 218.976 40.16 219.176 40.16C219.362 40.16 219.522 40.1133 219.656 40.02C219.802 39.94 219.876 39.7867 219.876 39.56C219.876 39.32 219.756 39.1067 219.516 38.92C219.276 38.7333 218.856 38.5933 218.256 38.5L219.016 37H220.896L220.636 37.6C220.902 37.68 221.156 37.8 221.396 37.96C221.636 38.1333 221.829 38.34 221.976 38.58C222.136 38.82 222.216 39.1067 222.216 39.44ZM230.897 35.28C231.35 35.28 232.27 34.9667 233.657 34.34C233.95 34.7667 234.17 35.26 234.317 35.82C233.584 36.2733 232.864 36.6267 232.157 36.88C231.464 37.12 230.97 37.24 230.677 37.24C229.064 37.24 227.837 36.7933 226.997 35.9C226.17 35.0067 225.757 33.74 225.757 32.1C225.757 30.4467 226.17 29.12 226.997 28.12C227.824 27.1067 229.05 26.6 230.677 26.6C231.97 26.6 232.957 27.02 233.637 27.86C234.317 28.7 234.657 29.7933 234.657 31.14C234.657 31.42 234.497 31.74 234.177 32.1L228.417 32C228.444 33.0667 228.644 33.88 229.017 34.44C229.39 35 230.017 35.28 230.897 35.28ZM230.497 28.26C229.99 28.26 229.517 28.36 229.077 28.56C228.77 29.2 228.577 29.7933 228.497 30.34C229.537 30.3 230.717 30.2733 232.037 30.26C231.97 28.9267 231.457 28.26 230.497 28.26ZM242.471 26.6C243.805 26.6 244.771 26.9267 245.371 27.58C245.971 28.2333 246.271 29.1467 246.271 30.32C246.271 31.4933 246.205 33.08 246.071 35.08L247.651 35.26C247.651 35.8067 247.498 36.3867 247.191 37H242.211L242.031 35.9C242.658 35.6467 243.238 35.4467 243.771 35.3C243.731 33.7667 243.691 32.48 243.651 31.44C243.611 30.3867 243.511 29.6733 243.351 29.3C243.191 28.9267 242.838 28.74 242.291 28.74C241.465 28.74 240.725 28.8867 240.071 29.18C240.058 29.7533 240.018 30.6933 239.951 32C239.898 33.2933 239.865 34.32 239.851 35.08L241.411 35.26C241.411 35.8067 241.258 36.3867 240.951 37H235.971L235.791 35.9C236.458 35.6467 237.058 35.4467 237.591 35.3C237.578 34.5 237.531 33.3933 237.451 31.98C237.385 30.5667 237.345 29.52 237.331 28.84C236.838 28.7867 236.311 28.6867 235.751 28.54L235.851 27.1C236.785 26.8467 237.838 26.72 239.011 26.72C239.158 26.8133 239.358 27.1 239.611 27.58C240.065 27.3533 240.618 27.1333 241.271 26.92C241.925 26.7067 242.325 26.6 242.471 26.6ZM252.076 22.14C252.329 22.14 252.489 22.1467 252.556 22.16C252.556 22.8533 252.469 23.46 252.296 23.98C252.282 24.8067 252.262 25.9733 252.236 27.48C252.182 30.7867 252.142 33.32 252.116 35.08L253.676 35.26C253.676 35.8067 253.522 36.3867 253.216 37H248.236L248.056 35.9C248.882 35.5933 249.482 35.3933 249.856 35.3L249.476 24.2C248.849 24.1333 248.322 24.0333 247.896 23.9C247.896 23.4067 247.942 22.9267 248.036 22.46C248.822 22.2467 250.169 22.14 252.076 22.14ZM259.354 35.28C259.807 35.28 260.727 34.9667 262.114 34.34C262.407 34.7667 262.627 35.26 262.774 35.82C262.041 36.2733 261.321 36.6267 260.614 36.88C259.921 37.12 259.427 37.24 259.134 37.24C257.521 37.24 256.294 36.7933 255.454 35.9C254.627 35.0067 254.214 33.74 254.214 32.1C254.214 30.4467 254.627 29.12 255.454 28.12C256.281 27.1067 257.507 26.6 259.134 26.6C260.427 26.6 261.414 27.02 262.094 27.86C262.774 28.7 263.114 29.7933 263.114 31.14C263.114 31.42 262.954 31.74 262.634 32.1L256.874 32C256.901 33.0667 257.101 33.88 257.474 34.44C257.847 35 258.474 35.28 259.354 35.28ZM258.954 28.26C258.447 28.26 257.974 28.36 257.534 28.56C257.227 29.2 257.034 29.7933 256.954 30.34C257.994 30.3 259.174 30.2733 260.494 30.26C260.427 28.9267 259.914 28.26 258.954 28.26ZM270.168 28.76C270.142 28.6933 270.008 28.66 269.768 28.66C269.528 28.66 269.115 28.84 268.528 29.2C268.475 31.8133 268.442 33.7733 268.428 35.08L269.988 35.28C269.988 35.8533 269.835 36.4267 269.528 37H264.548L264.368 35.9C265.195 35.5933 265.795 35.3933 266.168 35.3L265.948 28.82C265.255 28.7667 264.675 28.6667 264.208 28.52L264.348 27.08C264.708 26.92 266.008 26.8133 268.248 26.76C268.368 26.88 268.428 27.1133 268.428 27.46C269.602 26.8867 270.342 26.6 270.648 26.6C270.968 26.6 271.355 26.68 271.808 26.84C272.275 26.9867 272.628 27.1467 272.868 27.32V27.66C272.868 28.7533 272.735 29.7667 272.468 30.7C272.242 30.7933 271.942 30.84 271.568 30.84C271.195 30.84 270.848 30.82 270.528 30.78C270.488 30.6067 270.368 29.9333 270.168 28.76Z" fill="white"/>
<g filter="url(#filter2_d_146_980)">
<path d="M17 63C17 61.8954 17.8954 61 19 61H170C171.105 61 172 61.8954 172 63V115C172 116.105 171.105 117 170 117H19C17.8954 117 17 116.105 17 115V63Z" fill="#B7B7B7"/>
</g>
<g filter="url(#filter3_d_146_980)">
<rect x="172" y="128" width="155" height="56" rx="2" fill="#967E76"/>
</g>
<g filter="url(#filter4_d_146_980)">
<path d="M17 189H172V245H17V189Z" fill="#856C8B"/>
</g>
<g filter="url(#filter5_d_146_980)">
<rect x="172" y="252" width="155" height="56" rx="2" fill="#BFCCB5"/>
</g>
<g filter="url(#filter6_d_146_980)">
<path d="M17 331C17 329.895 17.8954 329 19 329H170C171.105 329 172 329.895 172 331V383C172 384.105 171.105 385 170 385H94.5H19C17.8954 385 17 384.105 17 383V331Z" fill="#F4D19B"/>
</g>
<g filter="url(#filter7_d_146_980)">
<path d="M172 398C172 396.895 172.895 396 174 396H325C326.105 396 327 396.895 327 398V450C327 451.105 326.105 452 325 452H249.5H174C172.895 452 172 451.105 172 450V398Z" fill="#7C96AB"/>
</g>
<path d="M23.6228 92.7L23.5628 95.64L25.2428 95.8C25.2428 96.1733 25.1295 96.5733 24.9028 97H20.3028L20.2428 96.3C20.8695 96.0867 21.4828 95.9267 22.0828 95.82C21.9495 90.6467 21.8428 86.7667 21.7628 84.18C21.2695 84.0867 20.6761 83.9267 19.9828 83.7L20.0428 83H25.0428C25.2695 83.4267 25.3828 83.8267 25.3828 84.2C24.7161 84.2533 24.1828 84.28 23.7828 84.28C23.7561 85.6667 23.7295 86.92 23.7028 88.04C23.6895 89.16 23.6761 89.9467 23.6628 90.4L28.4428 84.36L26.8428 84.2C26.8428 83.8267 26.9561 83.4267 27.1828 83H32.2628L32.3228 83.88C31.7095 84.0933 31.1095 84.2533 30.5228 84.36L26.5828 89.1L31.1828 95.64L32.8628 95.8C32.8628 96.1733 32.7495 96.5733 32.5228 97H30.0228L25.4828 90.46L23.6228 92.7ZM41.9905 90.46L41.8905 95.62C42.4638 95.66 43.0371 95.7533 43.6105 95.9L43.5705 96.6C43.3571 96.7067 42.9705 96.8267 42.4105 96.96C41.8638 97.08 41.3238 97.14 40.7905 97.14C40.5505 96.66 40.4171 96.2 40.3905 95.76C38.8705 96.76 37.8038 97.26 37.1905 97.26C36.2438 97.26 35.4838 97.0067 34.9105 96.5C34.3371 95.9933 34.0505 95.2867 34.0505 94.38C34.0505 92.2867 35.3305 91.2067 37.8905 91.14C39.3838 91.1 40.1371 91.08 40.1505 91.08L40.1305 90.4C40.1038 89.48 39.9305 88.82 39.6105 88.42C39.2905 88.0067 38.7171 87.8 37.8905 87.8C37.5438 87.8 37.1705 87.88 36.7705 88.04L36.2905 90.04C36.2238 90.0533 36.1105 90.06 35.9505 90.06L35.1305 90C34.9171 89.4267 34.8038 88.6333 34.7905 87.62C35.0438 87.4867 35.6238 87.2867 36.5305 87.02C37.4371 86.74 38.0171 86.6 38.2705 86.6C39.6305 86.6 40.5905 86.9 41.1505 87.5C41.7105 88.1 41.9905 89.0867 41.9905 90.46ZM37.6305 95.9C38.0171 95.9 38.9105 95.4667 40.3105 94.6L40.2105 92.1C39.3038 92.18 38.5438 92.2533 37.9305 92.32C37.3171 92.3867 36.8238 92.5667 36.4505 92.86C36.0771 93.14 35.8905 93.5867 35.8905 94.2C35.8905 95.3333 36.4705 95.9 37.6305 95.9ZM50.8717 88.28C50.8051 88.2133 50.6584 88.18 50.4317 88.18C50.2051 88.18 49.8651 88.26 49.4117 88.42C48.9717 88.58 48.5717 88.7667 48.2117 88.98C48.1317 91.94 48.0784 94.16 48.0517 95.64L49.7317 95.8C49.7317 96.1733 49.6184 96.5733 49.3917 97H44.7917L44.7317 96.3C45.3451 96.0867 45.9451 95.9267 46.5317 95.82C46.4517 92.4333 46.3851 89.9267 46.3317 88.3C45.5984 88.26 45.0117 88.18 44.5717 88.06L44.6517 87.02C45.3584 86.82 46.4051 86.72 47.7917 86.72C48.0051 87.0533 48.1384 87.48 48.1917 88C49.7251 87.0667 50.6384 86.6 50.9317 86.6C51.2251 86.6 51.5651 86.66 51.9517 86.78C52.3384 86.8867 52.6251 87.0067 52.8117 87.14C52.8117 88.4733 52.6851 89.56 52.4317 90.4C52.2451 90.4533 52.0251 90.48 51.7717 90.48C51.5317 90.48 51.3651 90.4733 51.2717 90.46L50.8717 88.28ZM59.5961 88.1C58.7294 88.1 57.7761 88.38 56.7361 88.94C56.7094 90.1667 56.6828 91.3067 56.6561 92.36C56.6428 93.4 56.6294 94.1267 56.6161 94.54C56.9494 94.8733 57.3961 95.18 57.9561 95.46C58.5161 95.74 59.0028 95.88 59.4161 95.88C60.9894 95.88 61.7761 94.5867 61.7761 92C61.7761 91.0133 61.6628 90.24 61.4361 89.68C61.2094 89.1067 60.9494 88.7 60.6561 88.46C60.3628 88.22 60.0094 88.1 59.5961 88.1ZM56.1761 82.14C56.5894 82.14 56.8828 82.1533 57.0561 82.18C57.0561 82.58 56.9694 83.1133 56.7961 83.78C56.7961 84.0867 56.7894 84.52 56.7761 85.08C56.7494 86.1733 56.7361 87.1 56.7361 87.86C58.3894 87.02 59.4628 86.6 59.9561 86.6C61.1961 86.6 62.1161 87.0867 62.7161 88.06C63.3161 89.02 63.6161 90.2733 63.6161 91.82C63.6161 93.3533 63.2761 94.64 62.5961 95.68C61.9294 96.72 60.9561 97.24 59.6761 97.24C59.1561 97.24 58.5828 97.0933 57.9561 96.8C57.3428 96.5067 56.8161 96.16 56.3761 95.76C56.3228 96.2533 56.2161 96.7067 56.0561 97.12C56.0028 97.1333 55.9028 97.14 55.7561 97.14C55.6094 97.14 55.3961 97.12 55.1161 97.08L54.8961 83.74C54.2294 83.7 53.6428 83.6133 53.1361 83.48L53.2161 82.44C53.8961 82.24 54.8828 82.14 56.1761 82.14ZM69.6838 96.04C70.8038 96.04 71.5571 95.6933 71.9438 95C72.3438 94.2933 72.5438 93.2933 72.5438 92C72.5438 89.9467 72.0904 88.66 71.1838 88.14C70.8104 87.9267 70.2838 87.82 69.6038 87.82C68.9371 87.82 68.3038 87.96 67.7038 88.24C67.1704 89.2667 66.9038 90.46 66.9038 91.82C66.9038 93.1267 67.0771 94.1333 67.4238 94.84C67.8238 95.64 68.5771 96.04 69.6838 96.04ZM65.0638 92C65.0638 90.3067 65.4504 88.9867 66.2238 88.04C66.9971 87.08 68.1904 86.6 69.8038 86.6C71.4171 86.6 72.5838 87.04 73.3038 87.92C74.0238 88.7867 74.3838 90.0733 74.3838 91.78C74.3838 93.4867 73.9971 94.8267 73.2238 95.8C72.4638 96.7733 71.3038 97.26 69.7438 97.26C68.1838 97.26 67.0104 96.8067 66.2238 95.9C65.4504 94.9933 65.0638 93.6933 65.0638 92ZM82.0655 86.6C83.3455 86.6 84.2721 86.92 84.8455 87.56C85.4188 88.1867 85.7055 89.1467 85.7055 90.44C85.7055 90.8133 85.6521 92.5467 85.5455 95.64L87.2255 95.8C87.2255 96.1733 87.1121 96.5733 86.8855 97H82.2855L82.2255 96.3C82.8388 96.0867 83.4388 95.9267 84.0255 95.82C83.9455 92.3267 83.8721 90.3867 83.8055 90C83.7521 89.6 83.6588 89.2533 83.5255 88.96C83.3921 88.6667 83.1921 88.46 82.9255 88.34C82.6588 88.22 82.3055 88.16 81.8655 88.16C80.9855 88.16 80.1321 88.3733 79.3055 88.8C79.2255 91.84 79.1721 94.12 79.1455 95.64L80.8255 95.8C80.8255 96.1733 80.7121 96.5733 80.4855 97H75.8855L75.8255 96.3C76.4388 96.0867 77.0388 95.9267 77.6255 95.82C77.5455 92.4333 77.4788 89.9267 77.4255 88.3C76.6921 88.26 76.1055 88.18 75.6655 88.06L75.7455 87.02C76.4655 86.82 77.5121 86.72 78.8855 86.72C79.0455 86.96 79.1655 87.3067 79.2455 87.76C79.8188 87.4533 80.3921 87.1867 80.9655 86.96C81.5521 86.72 81.9188 86.6 82.0655 86.6ZM90.9497 82.14C91.363 82.14 91.6564 82.1533 91.8297 82.18C91.8297 82.42 91.7897 82.7333 91.7097 83.12C91.643 83.4933 91.5964 83.7133 91.5697 83.78C91.5697 84.0733 91.5564 84.68 91.5297 85.6C91.503 86.52 91.4897 87.2333 91.4897 87.74C92.063 87.4333 92.6297 87.1667 93.1897 86.94C93.763 86.7133 94.123 86.6 94.2697 86.6C95.5497 86.6 96.4764 86.92 97.0497 87.56C97.623 88.1867 97.9097 89.1467 97.9097 90.44C97.9097 90.8133 97.8564 92.5467 97.7497 95.64L99.4297 95.8C99.4297 96.1733 99.3164 96.5733 99.0897 97H94.4897L94.4297 96.3C95.043 96.0867 95.643 95.9267 96.2297 95.82C96.1497 92.3267 96.0764 90.3867 96.0097 90C95.9564 89.6 95.863 89.2533 95.7297 88.96C95.5964 88.6667 95.3964 88.46 95.1297 88.34C94.863 88.22 94.5097 88.16 94.0697 88.16C93.163 88.16 92.2964 88.3733 91.4697 88.8L91.3497 95.64L93.0297 95.8C93.0297 96.1733 92.9164 96.5733 92.6897 97H88.0897L88.0297 96.3C88.643 96.0867 89.243 95.9267 89.8297 95.82L89.5897 83.72C88.8564 83.68 88.2697 83.6 87.8297 83.48L87.9097 82.44C88.5897 82.24 89.603 82.14 90.9497 82.14ZM104.093 84.94C103.747 85.02 103.407 85.06 103.073 85.06C102.753 85.06 102.433 85.04 102.113 85C102.033 84.6267 101.993 84.2533 101.993 83.88C101.993 83.4933 102.007 83.2067 102.033 83.02C102.327 82.9533 102.633 82.92 102.953 82.92C103.287 82.92 103.64 82.9333 104.013 82.96C104.093 83.3067 104.133 83.6467 104.133 83.98C104.133 84.3 104.12 84.62 104.093 84.94ZM100.453 87.04C101.587 86.84 102.467 86.74 103.093 86.74C103.72 86.74 104.12 86.7533 104.293 86.78C104.293 87.1 104.253 87.4533 104.173 87.84C104.093 88.2267 104.047 88.4133 104.033 88.4L103.853 95.64L105.533 95.8C105.533 96.1733 105.42 96.5733 105.193 97H100.593L100.533 96.3C101.147 96.0867 101.747 95.9267 102.333 95.82C102.253 92.4867 102.187 89.9867 102.133 88.32C101.36 88.32 100.773 88.24 100.373 88.08L100.453 87.04ZM113.526 87.74L113.466 83.74C112.732 83.7 112.146 83.62 111.706 83.5L111.786 82.46C112.466 82.26 113.452 82.16 114.746 82.16C115.159 82.16 115.452 82.1733 115.626 82.2C115.626 82.44 115.586 82.76 115.506 83.16C115.439 83.5467 115.392 83.76 115.366 83.8L115.186 95.62C115.732 95.6467 116.312 95.74 116.926 95.9L116.886 96.6C115.966 97.0267 115.152 97.24 114.446 97.24C114.299 97.24 114.186 97.2333 114.106 97.22C113.999 97.02 113.866 96.56 113.706 95.84C112.172 96.7067 111.099 97.1733 110.486 97.24C109.206 97.24 108.246 96.7533 107.606 95.78C106.966 94.8067 106.646 93.56 106.646 92.04C106.646 90.5067 106.966 89.22 107.606 88.18C108.259 87.1267 109.219 86.6 110.486 86.6C111.472 86.6 112.486 86.98 113.526 87.74ZM110.826 87.96C109.266 87.96 108.486 89.24 108.486 91.8C108.486 92.8 108.646 93.6667 108.966 94.4C109.126 94.8 109.359 95.12 109.666 95.36C109.986 95.6 110.352 95.72 110.766 95.72C111.179 95.72 111.659 95.6267 112.206 95.44C112.766 95.2533 113.246 95.04 113.646 94.8L113.526 89.1C113.166 88.7933 112.726 88.5267 112.206 88.3C111.686 88.0733 111.226 87.96 110.826 87.96ZM124.094 88.28C124.028 88.2133 123.881 88.18 123.654 88.18C123.428 88.18 123.088 88.26 122.634 88.42C122.194 88.58 121.794 88.7667 121.434 88.98C121.354 91.94 121.301 94.16 121.274 95.64L122.954 95.8C122.954 96.1733 122.841 96.5733 122.614 97H118.014L117.954 96.3C118.568 96.0867 119.168 95.9267 119.754 95.82C119.674 92.4333 119.608 89.9267 119.554 88.3C118.821 88.26 118.234 88.18 117.794 88.06L117.874 87.02C118.581 86.82 119.628 86.72 121.014 86.72C121.228 87.0533 121.361 87.48 121.414 88C122.948 87.0667 123.861 86.6 124.154 86.6C124.448 86.6 124.788 86.66 125.174 86.78C125.561 86.8867 125.848 87.0067 126.034 87.14C126.034 88.4733 125.908 89.56 125.654 90.4C125.468 90.4533 125.248 90.48 124.994 90.48C124.754 90.48 124.588 90.4733 124.494 90.46L124.094 88.28ZM134.979 90.46L134.879 95.62C135.452 95.66 136.025 95.7533 136.599 95.9L136.559 96.6C136.345 96.7067 135.959 96.8267 135.399 96.96C134.852 97.08 134.312 97.14 133.779 97.14C133.539 96.66 133.405 96.2 133.379 95.76C131.859 96.76 130.792 97.26 130.179 97.26C129.232 97.26 128.472 97.0067 127.899 96.5C127.325 95.9933 127.039 95.2867 127.039 94.38C127.039 92.2867 128.319 91.2067 130.879 91.14C132.372 91.1 133.125 91.08 133.139 91.08L133.119 90.4C133.092 89.48 132.919 88.82 132.599 88.42C132.279 88.0067 131.705 87.8 130.879 87.8C130.532 87.8 130.159 87.88 129.759 88.04L129.279 90.04C129.212 90.0533 129.099 90.06 128.939 90.06L128.119 90C127.905 89.4267 127.792 88.6333 127.779 87.62C128.032 87.4867 128.612 87.2867 129.519 87.02C130.425 86.74 131.005 86.6 131.259 86.6C132.619 86.6 133.579 86.9 134.139 87.5C134.699 88.1 134.979 89.0867 134.979 90.46ZM130.619 95.9C131.005 95.9 131.899 95.4667 133.299 94.6L133.199 92.1C132.292 92.18 131.532 92.2533 130.919 92.32C130.305 92.3867 129.812 92.5667 129.439 92.86C129.065 93.14 128.879 93.5867 128.879 94.2C128.879 95.3333 129.459 95.9 130.619 95.9ZM139.2 95.76L139.04 88.22H137.5L137.44 87.52C137.573 87.4267 137.96 87.2533 138.6 87L140.24 84.44C140.507 84.4667 140.713 84.5333 140.86 84.64L140.84 86.84C141.84 86.84 142.66 86.9067 143.3 87.04C143.3 87.4 143.187 87.7933 142.96 88.22H140.8C140.773 89.82 140.747 92.2467 140.72 95.5C141.467 95.54 142.213 95.6733 142.96 95.9L142.94 96.6C142.753 96.72 142.273 96.86 141.5 97.02C140.74 97.18 140.113 97.26 139.62 97.26C139.553 97.1533 139.467 96.9267 139.36 96.58C139.253 96.22 139.2 95.9467 139.2 95.76ZM147.373 82.14C147.786 82.14 148.08 82.1533 148.253 82.18C148.253 82.6467 148.166 83.18 147.993 83.78C147.873 91.6467 147.813 95.6 147.813 95.64L149.493 95.8C149.493 96.1733 149.38 96.5733 149.153 97H144.553L144.493 96.3C145.106 96.0867 145.706 95.9267 146.293 95.82L146.093 83.72C145.36 83.68 144.773 83.6 144.333 83.48L144.413 82.44C145.093 82.24 146.08 82.14 147.373 82.14ZM158.612 90.46L158.512 95.62C159.085 95.66 159.658 95.7533 160.232 95.9L160.192 96.6C159.978 96.7067 159.592 96.8267 159.032 96.96C158.485 97.08 157.945 97.14 157.412 97.14C157.172 96.66 157.038 96.2 157.012 95.76C155.492 96.76 154.425 97.26 153.812 97.26C152.865 97.26 152.105 97.0067 151.532 96.5C150.958 95.9933 150.672 95.2867 150.672 94.38C150.672 92.2867 151.952 91.2067 154.512 91.14C156.005 91.1 156.758 91.08 156.772 91.08L156.752 90.4C156.725 89.48 156.552 88.82 156.232 88.42C155.912 88.0067 155.338 87.8 154.512 87.8C154.165 87.8 153.792 87.88 153.392 88.04L152.912 90.04C152.845 90.0533 152.732 90.06 152.572 90.06L151.752 90C151.538 89.4267 151.425 88.6333 151.412 87.62C151.665 87.4867 152.245 87.2867 153.152 87.02C154.058 86.74 154.638 86.6 154.892 86.6C156.252 86.6 157.212 86.9 157.772 87.5C158.332 88.1 158.612 89.0867 158.612 90.46ZM154.252 95.9C154.638 95.9 155.532 95.4667 156.932 94.6L156.832 92.1C155.925 92.18 155.165 92.2533 154.552 92.32C153.938 92.3867 153.445 92.5667 153.072 92.86C152.698 93.14 152.512 93.5867 152.512 94.2C152.512 95.3333 153.092 95.9 154.252 95.9ZM167.493 88.28C167.426 88.2133 167.279 88.18 167.053 88.18C166.826 88.18 166.486 88.26 166.033 88.42C165.593 88.58 165.193 88.7667 164.833 88.98C164.753 91.94 164.699 94.16 164.673 95.64L166.353 95.8C166.353 96.1733 166.239 96.5733 166.013 97H161.413L161.353 96.3C161.966 96.0867 162.566 95.9267 163.153 95.82C163.073 92.4333 163.006 89.9267 162.953 88.3C162.219 88.26 161.633 88.18 161.193 88.06L161.273 87.02C161.979 86.82 163.026 86.72 164.413 86.72C164.626 87.0533 164.759 87.48 164.813 88C166.346 87.0667 167.259 86.6 167.553 86.6C167.846 86.6 168.186 86.66 168.573 86.78C168.959 86.8867 169.246 87.0067 169.433 87.14C169.433 88.4733 169.306 89.56 169.053 90.4C168.866 90.4533 168.646 90.48 168.393 90.48C168.153 90.48 167.986 90.4733 167.893 90.46L167.493 88.28Z" fill="#060606"/>
<path d="M209.584 150C211.278 150 212.531 150.28 213.344 150.84C214.171 151.387 214.584 152.36 214.584 153.76C214.584 155.16 214.178 156.273 213.364 157.1C212.551 157.913 211.238 158.32 209.424 158.32H207.744L207.684 162.66L209.244 162.8C209.244 163.173 209.131 163.573 208.904 164H204.404L204.344 163.32C204.904 163.107 205.478 162.947 206.064 162.84C205.984 157.64 205.918 153.773 205.864 151.24C205.504 151.173 204.918 151.013 204.104 150.76L204.204 150H209.584ZM209.224 157.02C210.371 157.007 211.244 156.72 211.844 156.16C212.444 155.587 212.744 154.833 212.744 153.9C212.744 152.967 212.451 152.32 211.864 151.96C211.278 151.587 210.338 151.4 209.044 151.4C208.804 151.4 208.398 151.407 207.824 151.42C207.824 151.433 207.804 153.307 207.764 157.04L209.224 157.02ZM221.848 155.28C221.782 155.213 221.635 155.18 221.408 155.18C221.182 155.18 220.842 155.26 220.388 155.42C219.948 155.58 219.548 155.767 219.188 155.98C219.108 158.94 219.055 161.16 219.028 162.64L220.708 162.8C220.708 163.173 220.595 163.573 220.368 164H215.768L215.708 163.3C216.322 163.087 216.922 162.927 217.508 162.82C217.428 159.433 217.362 156.927 217.308 155.3C216.575 155.26 215.988 155.18 215.548 155.06L215.628 154.02C216.335 153.82 217.382 153.72 218.768 153.72C218.982 154.053 219.115 154.48 219.168 155C220.702 154.067 221.615 153.6 221.908 153.6C222.202 153.6 222.542 153.66 222.928 153.78C223.315 153.887 223.602 154.007 223.788 154.14C223.788 155.473 223.662 156.56 223.408 157.4C223.222 157.453 223.002 157.48 222.748 157.48C222.508 157.48 222.342 157.473 222.248 157.46L221.848 155.28ZM229.313 163.04C230.433 163.04 231.186 162.693 231.573 162C231.973 161.293 232.173 160.293 232.173 159C232.173 156.947 231.719 155.66 230.813 155.14C230.439 154.927 229.913 154.82 229.233 154.82C228.566 154.82 227.933 154.96 227.333 155.24C226.799 156.267 226.533 157.46 226.533 158.82C226.533 160.127 226.706 161.133 227.053 161.84C227.453 162.64 228.206 163.04 229.313 163.04ZM224.693 159C224.693 157.307 225.079 155.987 225.853 155.04C226.626 154.08 227.819 153.6 229.433 153.6C231.046 153.6 232.213 154.04 232.933 154.92C233.653 155.787 234.013 157.073 234.013 158.78C234.013 160.487 233.626 161.827 232.853 162.8C232.093 163.773 230.933 164.26 229.373 164.26C227.813 164.26 226.639 163.807 225.853 162.9C225.079 161.993 224.693 160.693 224.693 159ZM236.934 162.76L236.774 155.22H235.234L235.174 154.52C235.308 154.427 235.694 154.253 236.334 154L237.974 151.44C238.241 151.467 238.448 151.533 238.594 151.64L238.574 153.84C239.574 153.84 240.394 153.907 241.034 154.04C241.034 154.4 240.921 154.793 240.694 155.22H238.534C238.508 156.82 238.481 159.247 238.454 162.5C239.201 162.54 239.948 162.673 240.694 162.9L240.674 163.6C240.488 163.72 240.008 163.86 239.234 164.02C238.474 164.18 237.848 164.26 237.354 164.26C237.288 164.153 237.201 163.927 237.094 163.58C236.988 163.22 236.934 162.947 236.934 162.76ZM247.488 162.88C248.074 162.88 248.994 162.6 250.248 162.04C250.501 162.387 250.634 162.693 250.648 162.96C249.968 163.36 249.301 163.673 248.648 163.9C247.994 164.127 247.528 164.24 247.248 164.24C245.701 164.24 244.521 163.78 243.708 162.86C242.894 161.927 242.488 160.627 242.488 158.96C242.488 157.293 242.881 155.987 243.668 155.04C244.468 154.08 245.661 153.6 247.248 153.6C248.474 153.6 249.408 154.04 250.048 154.92C250.701 155.8 251.028 156.98 251.028 158.46C250.921 158.647 250.834 158.773 250.768 158.84L244.327 158.74C244.341 160.087 244.574 161.113 245.028 161.82C245.494 162.527 246.314 162.88 247.488 162.88ZM249.208 157.6C249.208 156.72 249.048 156.04 248.728 155.56C248.408 155.067 247.874 154.82 247.128 154.82C246.381 154.82 245.714 154.96 245.128 155.24C244.728 156.04 244.474 156.86 244.368 157.7C245.421 157.687 247.034 157.653 249.208 157.6ZM256.242 151.94C255.895 152.02 255.555 152.06 255.222 152.06C254.902 152.06 254.582 152.04 254.262 152C254.182 151.627 254.142 151.253 254.142 150.88C254.142 150.493 254.155 150.207 254.182 150.02C254.475 149.953 254.782 149.92 255.102 149.92C255.435 149.92 255.789 149.933 256.162 149.96C256.242 150.307 256.282 150.647 256.282 150.98C256.282 151.3 256.269 151.62 256.242 151.94ZM252.602 154.04C253.735 153.84 254.615 153.74 255.242 153.74C255.869 153.74 256.269 153.753 256.442 153.78C256.442 154.1 256.402 154.453 256.322 154.84C256.242 155.227 256.195 155.413 256.182 155.4L256.002 162.64L257.682 162.8C257.682 163.173 257.569 163.573 257.342 164H252.742L252.682 163.3C253.295 163.087 253.895 162.927 254.482 162.82C254.402 159.487 254.335 156.987 254.282 155.32C253.509 155.32 252.922 155.24 252.522 155.08L252.602 154.04ZM265.034 153.6C266.314 153.6 267.241 153.92 267.814 154.56C268.388 155.187 268.674 156.147 268.674 157.44C268.674 157.813 268.621 159.547 268.514 162.64L270.194 162.8C270.194 163.173 270.081 163.573 269.854 164H265.254L265.194 163.3C265.808 163.087 266.408 162.927 266.994 162.82C266.914 159.327 266.841 157.387 266.774 157C266.721 156.6 266.628 156.253 266.494 155.96C266.361 155.667 266.161 155.46 265.894 155.34C265.628 155.22 265.274 155.16 264.834 155.16C263.954 155.16 263.101 155.373 262.274 155.8C262.194 158.84 262.141 161.12 262.114 162.64L263.794 162.8C263.794 163.173 263.681 163.573 263.454 164H258.854L258.794 163.3C259.408 163.087 260.008 162.927 260.594 162.82C260.514 159.433 260.448 156.927 260.394 155.3C259.661 155.26 259.074 155.18 258.634 155.06L258.714 154.02C259.434 153.82 260.481 153.72 261.854 153.72C262.014 153.96 262.134 154.307 262.214 154.76C262.788 154.453 263.361 154.187 263.934 153.96C264.521 153.72 264.888 153.6 265.034 153.6ZM273.818 149.14C274.232 149.14 274.525 149.153 274.698 149.18C274.698 149.647 274.612 150.18 274.438 150.78C274.318 158.647 274.258 162.6 274.258 162.64L275.938 162.8C275.938 163.173 275.825 163.573 275.598 164H270.998L270.938 163.3C271.552 163.087 272.152 162.927 272.738 162.82L272.538 150.72C271.805 150.68 271.218 150.6 270.778 150.48L270.858 149.44C271.538 149.24 272.525 149.14 273.818 149.14ZM282.097 162.88C282.684 162.88 283.604 162.6 284.857 162.04C285.11 162.387 285.244 162.693 285.257 162.96C284.577 163.36 283.91 163.673 283.257 163.9C282.604 164.127 282.137 164.24 281.857 164.24C280.31 164.24 279.13 163.78 278.317 162.86C277.504 161.927 277.097 160.627 277.097 158.96C277.097 157.293 277.49 155.987 278.277 155.04C279.077 154.08 280.27 153.6 281.857 153.6C283.084 153.6 284.017 154.04 284.657 154.92C285.31 155.8 285.637 156.98 285.637 158.46C285.53 158.647 285.444 158.773 285.377 158.84L278.937 158.74C278.95 160.087 279.184 161.113 279.637 161.82C280.104 162.527 280.924 162.88 282.097 162.88ZM283.817 157.6C283.817 156.72 283.657 156.04 283.337 155.56C283.017 155.067 282.484 154.82 281.737 154.82C280.99 154.82 280.324 154.96 279.737 155.24C279.337 156.04 279.084 156.86 278.977 157.7C280.03 157.687 281.644 157.653 283.817 157.6ZM293.391 155.28C293.325 155.213 293.178 155.18 292.951 155.18C292.725 155.18 292.385 155.26 291.931 155.42C291.491 155.58 291.091 155.767 290.731 155.98C290.651 158.94 290.598 161.16 290.571 162.64L292.251 162.8C292.251 163.173 292.138 163.573 291.911 164H287.311L287.251 163.3C287.865 163.087 288.465 162.927 289.051 162.82C288.971 159.433 288.905 156.927 288.851 155.3C288.118 155.26 287.531 155.18 287.091 155.06L287.171 154.02C287.878 153.82 288.925 153.72 290.311 153.72C290.525 154.053 290.658 154.48 290.711 155C292.245 154.067 293.158 153.6 293.451 153.6C293.745 153.6 294.085 153.66 294.471 153.78C294.858 153.887 295.145 154.007 295.331 154.14C295.331 155.473 295.205 156.56 294.951 157.4C294.765 157.453 294.545 157.48 294.291 157.48C294.051 157.48 293.885 157.473 293.791 157.46L293.391 155.28Z" fill="#060606"/>
<path d="M28.4791 353.48L28.2791 363.64L29.9591 363.8C29.9591 364.173 29.8458 364.573 29.6191 365H25.0191L24.9591 364.3C25.6791 364.06 26.2925 363.9 26.7991 363.82C26.7725 362.953 26.7258 361.167 26.6591 358.46C26.6058 355.753 26.5591 353.66 26.5191 352.18C26.0125 352.1 25.4125 351.94 24.7191 351.7L24.7791 351H28.7391L36.0391 362.66L35.6991 352.18C35.2058 352.087 34.6125 351.927 33.9191 351.7L33.9791 351H38.9791C39.2058 351.427 39.3191 351.827 39.3191 352.2C38.6525 352.253 38.1191 352.28 37.7191 352.28L37.5191 365H35.5791L28.4791 353.48ZM44.7823 352.88C44.5156 352.933 44.2289 352.96 43.9223 352.96C43.6289 352.96 43.3889 352.947 43.2023 352.92C43.1356 352.68 43.1023 352.44 43.1023 352.2C43.1023 351.947 43.1156 351.66 43.1423 351.34C43.3423 351.3 43.6156 351.28 43.9623 351.28C44.3089 351.28 44.5623 351.287 44.7223 351.3C44.7756 351.593 44.8023 351.9 44.8023 352.22C44.8023 352.527 44.7956 352.747 44.7823 352.88ZM48.0823 352.88C47.8156 352.933 47.5289 352.96 47.2223 352.96C46.9289 352.96 46.6889 352.947 46.5023 352.92C46.4356 352.68 46.4023 352.44 46.4023 352.2C46.4023 351.947 46.4156 351.66 46.4423 351.34C46.6423 351.3 46.9156 351.28 47.2623 351.28C47.6089 351.28 47.8623 351.287 48.0223 351.3C48.0756 351.593 48.1023 351.9 48.1023 352.22C48.1023 352.527 48.0956 352.747 48.0823 352.88ZM45.7023 363.68C46.0889 363.68 46.5223 363.6 47.0023 363.44C47.4823 363.267 47.8756 363.06 48.1823 362.82C48.1289 359.98 48.0823 357.827 48.0423 356.36C47.2156 356.36 46.6023 356.28 46.2023 356.12L46.2823 355.08C47.4156 354.88 48.3023 354.78 48.9423 354.78C49.5956 354.78 50.0089 354.793 50.1823 354.82C50.1823 355.06 50.1423 355.38 50.0623 355.78C49.9956 356.18 49.9489 356.4 49.9223 356.44L49.6823 363.58C50.3889 363.62 50.9623 363.7 51.4023 363.82L51.3623 364.84C50.7756 365.027 50.2089 365.12 49.6623 365.12C49.1156 365.12 48.7823 365.113 48.6623 365.1C48.4089 364.593 48.2623 364.127 48.2223 363.7C47.5689 364.193 46.9623 364.573 46.4023 364.84C45.8556 365.107 45.4956 365.24 45.3223 365.24C44.1489 365.24 43.2956 364.927 42.7623 364.3C42.2423 363.66 41.9823 362.727 41.9823 361.5C41.9823 361.487 42.0423 359.78 42.1623 356.38C41.3889 356.38 40.6756 356.293 40.0223 356.12L40.1023 355.08C41.2356 354.88 42.1156 354.78 42.7423 354.78C43.3689 354.78 43.7689 354.793 43.9423 354.82C43.9423 355.14 43.9023 355.493 43.8223 355.88C43.7423 356.267 43.6956 356.453 43.6823 356.44L43.7023 360.76C43.7023 361.773 43.8289 362.513 44.0823 362.98C44.3356 363.447 44.8756 363.68 45.7023 363.68ZM55.1368 350.02C55.5501 350.02 55.8435 350.033 56.0168 350.06C56.0168 350.473 55.9301 351.007 55.7568 351.66C55.6768 355.18 55.6368 357.84 55.6368 359.64L58.8568 356.2L57.2568 356.04C57.2568 355.667 57.3701 355.267 57.5968 354.84H62.6768L62.7368 355.72C62.4301 355.84 61.8701 355.993 61.0568 356.18L58.3168 358.66L61.6968 363.64L63.3768 363.8C63.3768 364.173 63.2635 364.573 63.0368 365H60.2968L57.1768 359.68L55.6168 361.1C55.5901 362.22 55.5768 363.067 55.5768 363.64L57.2568 363.8C57.2568 364.173 57.1435 364.573 56.9168 365H52.3168L52.2568 364.3C52.8701 364.087 53.4701 363.927 54.0568 363.82C53.9768 358.433 53.9101 354.36 53.8568 351.6C53.1235 351.56 52.5368 351.48 52.0968 351.36L52.1768 350.32C52.8568 350.12 53.8435 350.02 55.1368 350.02ZM66.9532 350.14C67.3665 350.14 67.6599 350.153 67.8332 350.18C67.8332 350.647 67.7465 351.18 67.5732 351.78C67.4532 359.647 67.3932 363.6 67.3932 363.64L69.0732 363.8C69.0732 364.173 68.9599 364.573 68.7332 365H64.1332L64.0732 364.3C64.6865 364.087 65.2865 363.927 65.8732 363.82L65.6732 351.72C64.9399 351.68 64.3532 351.6 63.9132 351.48L63.9932 350.44C64.6732 350.24 65.6599 350.14 66.9532 350.14ZM75.2316 363.88C75.8183 363.88 76.7383 363.6 77.9916 363.04C78.245 363.387 78.3783 363.693 78.3916 363.96C77.7116 364.36 77.045 364.673 76.3916 364.9C75.7383 365.127 75.2716 365.24 74.9916 365.24C73.445 365.24 72.265 364.78 71.4516 363.86C70.6383 362.927 70.2316 361.627 70.2316 359.96C70.2316 358.293 70.625 356.987 71.4116 356.04C72.2116 355.08 73.405 354.6 74.9916 354.6C76.2183 354.6 77.1516 355.04 77.7916 355.92C78.445 356.8 78.7716 357.98 78.7716 359.46C78.665 359.647 78.5783 359.773 78.5116 359.84L72.0716 359.74C72.085 361.087 72.3183 362.113 72.7716 362.82C73.2383 363.527 74.0583 363.88 75.2316 363.88ZM76.9516 358.6C76.9516 357.72 76.7916 357.04 76.4716 356.56C76.1516 356.067 75.6183 355.82 74.8716 355.82C74.125 355.82 73.4583 355.96 72.8716 356.24C72.4716 357.04 72.2183 357.86 72.1116 358.7C73.165 358.687 74.7783 358.653 76.9516 358.6ZM83.986 352.94C83.6393 353.02 83.2993 353.06 82.966 353.06C82.646 353.06 82.326 353.04 82.006 353C81.926 352.627 81.886 352.253 81.886 351.88C81.886 351.493 81.8993 351.207 81.926 351.02C82.2193 350.953 82.526 350.92 82.846 350.92C83.1793 350.92 83.5327 350.933 83.906 350.96C83.986 351.307 84.026 351.647 84.026 351.98C84.026 352.3 84.0127 352.62 83.986 352.94ZM80.346 355.04C81.4793 354.84 82.3593 354.74 82.986 354.74C83.6127 354.74 84.0127 354.753 84.186 354.78C84.186 355.1 84.146 355.453 84.066 355.84C83.986 356.227 83.9393 356.413 83.926 356.4L83.746 363.64L85.426 363.8C85.426 364.173 85.3127 364.573 85.086 365H80.486L80.426 364.3C81.0393 364.087 81.6393 363.927 82.226 363.82C82.146 360.487 82.0793 357.987 82.026 356.32C81.2527 356.32 80.666 356.24 80.266 356.08L80.346 355.04ZM89.2384 350.02C89.6517 350.02 89.945 350.033 90.1184 350.06C90.1184 350.473 90.0317 351.007 89.8584 351.66C89.7784 355.18 89.7384 357.84 89.7384 359.64L92.9584 356.2L91.3584 356.04C91.3584 355.667 91.4717 355.267 91.6984 354.84H96.7784L96.8384 355.72C96.5317 355.84 95.9717 355.993 95.1584 356.18L92.4184 358.66L95.7984 363.64L97.4784 363.8C97.4784 364.173 97.365 364.573 97.1384 365H94.3984L91.2784 359.68L89.7184 361.1C89.6917 362.22 89.6784 363.067 89.6784 363.64L91.3584 363.8C91.3584 364.173 91.245 364.573 91.0184 365H86.4184L86.3584 364.3C86.9717 364.087 87.5717 363.927 88.1584 363.82C88.0784 358.433 88.0117 354.36 87.9584 351.6C87.225 351.56 86.6384 351.48 86.1984 351.36L86.2784 350.32C86.9584 350.12 87.945 350.02 89.2384 350.02ZM106.05 351.42C106.29 351.34 106.943 351.253 108.01 351.16C109.077 351.053 110.043 351 110.91 351C111.79 351 112.47 351.04 112.95 351.12C112.963 351.173 112.97 351.24 112.97 351.32C112.97 351.387 112.93 351.553 112.85 351.82C112.783 352.087 112.73 352.26 112.69 352.34C112.583 352.447 112.283 352.527 111.79 352.58L115.61 363.64L117.51 363.8C117.51 364.173 117.397 364.573 117.17 365H112.57L112.51 364.3C112.817 364.14 113.263 364 113.85 363.88L112.83 361.02H107.25L106.31 363.64L107.93 363.8C107.93 364.173 107.817 364.573 107.59 365H102.99L102.93 364.3C103.45 364.113 104.003 363.967 104.59 363.86L108.47 352.52C107.283 352.387 106.45 352.227 105.97 352.04L106.05 351.42ZM111.25 356.56L110.19 352.64C110.11 352.627 109.997 352.62 109.85 352.62L108.77 356.7L107.61 359.74H112.47L111.25 356.56ZM119.995 363.72C120.462 363.92 121.029 364.02 121.695 364.02C122.375 364.02 122.909 363.893 123.295 363.64C123.682 363.387 123.875 363.04 123.875 362.6C123.875 362.16 123.695 361.793 123.335 361.5C122.975 361.207 122.535 360.947 122.015 360.72C121.495 360.493 120.975 360.253 120.455 360C119.935 359.747 119.495 359.413 119.135 359C118.775 358.587 118.595 358.107 118.595 357.56C118.595 356.64 118.902 355.92 119.515 355.4C120.129 354.867 120.975 354.6 122.055 354.6C123.149 354.6 124.175 354.847 125.135 355.34C125.149 355.473 125.155 355.833 125.155 356.42C125.155 356.993 125.095 357.487 124.975 357.9C124.655 358.007 124.275 358.06 123.835 358.06L123.175 356.02C122.882 355.873 122.482 355.8 121.975 355.8C121.482 355.8 121.089 355.933 120.795 356.2C120.502 356.453 120.355 356.78 120.355 357.18C120.355 357.567 120.535 357.907 120.895 358.2C121.269 358.493 121.715 358.76 122.235 359C122.755 359.227 123.275 359.473 123.795 359.74C124.315 359.993 124.755 360.333 125.115 360.76C125.489 361.173 125.675 361.653 125.675 362.2C125.675 363.16 125.302 363.913 124.555 364.46C123.822 364.993 122.915 365.26 121.835 365.26C121.249 365.26 120.622 365.167 119.955 364.98C119.289 364.78 118.729 364.527 118.275 364.22C118.275 363.327 118.355 362.533 118.515 361.84C118.822 361.787 119.235 361.76 119.755 361.76L119.995 363.72ZM130.978 352.94C130.632 353.02 130.292 353.06 129.958 353.06C129.638 353.06 129.318 353.04 128.998 353C128.918 352.627 128.878 352.253 128.878 351.88C128.878 351.493 128.892 351.207 128.918 351.02C129.212 350.953 129.518 350.92 129.838 350.92C130.172 350.92 130.525 350.933 130.898 350.96C130.978 351.307 131.018 351.647 131.018 351.98C131.018 352.3 131.005 352.62 130.978 352.94ZM127.338 355.04C128.472 354.84 129.352 354.74 129.978 354.74C130.605 354.74 131.005 354.753 131.178 354.78C131.178 355.1 131.138 355.453 131.058 355.84C130.978 356.227 130.932 356.413 130.918 356.4L130.738 363.64L132.418 363.8C132.418 364.173 132.305 364.573 132.078 365H127.478L127.418 364.3C128.032 364.087 128.632 363.927 129.218 363.82C129.138 360.487 129.072 357.987 129.018 356.32C128.245 356.32 127.658 356.24 127.258 356.08L127.338 355.04ZM135.011 363.76L134.851 356.22H133.311L133.251 355.52C133.384 355.427 133.771 355.253 134.411 355L136.051 352.44C136.317 352.467 136.524 352.533 136.671 352.64L136.651 354.84C137.651 354.84 138.471 354.907 139.111 355.04C139.111 355.4 138.997 355.793 138.771 356.22H136.611C136.584 357.82 136.557 360.247 136.531 363.5C137.277 363.54 138.024 363.673 138.771 363.9L138.751 364.6C138.564 364.72 138.084 364.86 137.311 365.02C136.551 365.18 135.924 365.26 135.431 365.26C135.364 365.153 135.277 364.927 135.171 364.58C135.064 364.22 135.011 363.947 135.011 363.76ZM143.184 350.14C143.597 350.14 143.89 350.153 144.064 350.18C144.064 350.647 143.977 351.18 143.804 351.78C143.684 359.647 143.624 363.6 143.624 363.64L145.304 363.8C145.304 364.173 145.19 364.573 144.964 365H140.364L140.304 364.3C140.917 364.087 141.517 363.927 142.104 363.82L141.904 351.72C141.17 351.68 140.584 351.6 140.144 351.48L140.224 350.44C140.904 350.24 141.89 350.14 143.184 350.14ZM151.462 363.88C152.049 363.88 152.969 363.6 154.222 363.04C154.475 363.387 154.609 363.693 154.622 363.96C153.942 364.36 153.275 364.673 152.622 364.9C151.969 365.127 151.502 365.24 151.222 365.24C149.675 365.24 148.495 364.78 147.682 363.86C146.869 362.927 146.462 361.627 146.462 359.96C146.462 358.293 146.855 356.987 147.642 356.04C148.442 355.08 149.635 354.6 151.222 354.6C152.449 354.6 153.382 355.04 154.022 355.92C154.675 356.8 155.002 357.98 155.002 359.46C154.895 359.647 154.809 359.773 154.742 359.84L148.302 359.74C148.315 361.087 148.549 362.113 149.002 362.82C149.469 363.527 150.289 363.88 151.462 363.88ZM153.182 358.6C153.182 357.72 153.022 357.04 152.702 356.56C152.382 356.067 151.849 355.82 151.102 355.82C150.355 355.82 149.689 355.96 149.102 356.24C148.702 357.04 148.449 357.86 148.342 358.7C149.395 358.687 151.009 358.653 153.182 358.6ZM162.756 356.28C162.69 356.213 162.543 356.18 162.316 356.18C162.09 356.18 161.75 356.26 161.296 356.42C160.856 356.58 160.456 356.767 160.096 356.98C160.016 359.94 159.963 362.16 159.936 363.64L161.616 363.8C161.616 364.173 161.503 364.573 161.276 365H156.676L156.616 364.3C157.23 364.087 157.83 363.927 158.416 363.82C158.336 360.433 158.27 357.927 158.216 356.3C157.483 356.26 156.896 356.18 156.456 356.06L156.536 355.02C157.243 354.82 158.29 354.72 159.676 354.72C159.89 355.053 160.023 355.48 160.076 356C161.61 355.067 162.523 354.6 162.816 354.6C163.11 354.6 163.45 354.66 163.836 354.78C164.223 354.887 164.51 355.007 164.696 355.14C164.696 356.473 164.57 357.56 164.316 358.4C164.13 358.453 163.91 358.48 163.656 358.48C163.416 358.48 163.25 358.473 163.156 358.46L162.756 356.28Z" fill="#060606"/>
<path d="M210.377 275.32L206.257 288H204.177L199.597 275.18C199.064 275.073 198.464 274.913 197.797 274.7L197.857 274H203.057C203.284 274.427 203.397 274.827 203.397 275.2C202.744 275.24 202.144 275.28 201.597 275.32L205.137 285.9H205.237C205.531 284.9 206.644 281.327 208.577 275.18C208.044 275.1 207.417 274.94 206.697 274.7L206.757 274H211.777C212.004 274.427 212.117 274.827 212.117 275.2C211.504 275.24 210.924 275.28 210.377 275.32ZM216.627 275.94C216.28 276.02 215.94 276.06 215.607 276.06C215.287 276.06 214.967 276.04 214.647 276C214.567 275.627 214.527 275.253 214.527 274.88C214.527 274.493 214.54 274.207 214.567 274.02C214.86 273.953 215.167 273.92 215.487 273.92C215.82 273.92 216.173 273.933 216.547 273.96C216.627 274.307 216.667 274.647 216.667 274.98C216.667 275.3 216.653 275.62 216.627 275.94ZM212.987 278.04C214.12 277.84 215 277.74 215.627 277.74C216.253 277.74 216.653 277.753 216.827 277.78C216.827 278.1 216.787 278.453 216.707 278.84C216.627 279.227 216.58 279.413 216.567 279.4L216.387 286.64L218.067 286.8C218.067 287.173 217.953 287.573 217.727 288H213.127L213.067 287.3C213.68 287.087 214.28 286.927 214.867 286.82C214.787 283.487 214.72 280.987 214.667 279.32C213.893 279.32 213.307 279.24 212.907 279.08L212.987 278.04ZM220.659 286.76L220.499 279.22H218.959L218.899 278.52C219.032 278.427 219.419 278.253 220.059 278L221.699 275.44C221.966 275.467 222.172 275.533 222.319 275.64L222.299 277.84C223.299 277.84 224.119 277.907 224.759 278.04C224.759 278.4 224.646 278.793 224.419 279.22H222.259C222.232 280.82 222.206 283.247 222.179 286.5C222.926 286.54 223.672 286.673 224.419 286.9L224.399 287.6C224.212 287.72 223.732 287.86 222.959 288.02C222.199 288.18 221.572 288.26 221.079 288.26C221.012 288.153 220.926 287.927 220.819 287.58C220.712 287.22 220.659 286.947 220.659 286.76ZM234.172 281.46L234.072 286.62C234.645 286.66 235.219 286.753 235.792 286.9L235.752 287.6C235.539 287.707 235.152 287.827 234.592 287.96C234.045 288.08 233.505 288.14 232.972 288.14C232.732 287.66 232.599 287.2 232.572 286.76C231.052 287.76 229.985 288.26 229.372 288.26C228.425 288.26 227.665 288.007 227.092 287.5C226.519 286.993 226.232 286.287 226.232 285.38C226.232 283.287 227.512 282.207 230.072 282.14C231.565 282.1 232.319 282.08 232.332 282.08L232.312 281.4C232.285 280.48 232.112 279.82 231.792 279.42C231.472 279.007 230.899 278.8 230.072 278.8C229.725 278.8 229.352 278.88 228.952 279.04L228.472 281.04C228.405 281.053 228.292 281.06 228.132 281.06L227.312 281C227.099 280.427 226.985 279.633 226.972 278.62C227.225 278.487 227.805 278.287 228.712 278.02C229.619 277.74 230.199 277.6 230.452 277.6C231.812 277.6 232.772 277.9 233.332 278.5C233.892 279.1 234.172 280.087 234.172 281.46ZM229.812 286.9C230.199 286.9 231.092 286.467 232.492 285.6L232.392 283.1C231.485 283.18 230.725 283.253 230.112 283.32C229.499 283.387 229.005 283.567 228.632 283.86C228.259 284.14 228.072 284.587 228.072 285.2C228.072 286.333 228.652 286.9 229.812 286.9ZM246.613 279.84C246.667 280.267 246.693 280.76 246.693 281.32C246.693 281.88 246.64 283.653 246.533 286.64L248.213 286.8C248.213 287.173 248.1 287.573 247.873 288H243.273L243.213 287.3C243.827 287.087 244.427 286.927 245.013 286.82C244.933 283.273 244.86 281.3 244.793 280.9C244.74 280.5 244.647 280.167 244.513 279.9C244.38 279.62 244.173 279.427 243.893 279.32C243.613 279.213 243.187 279.16 242.613 279.16C242.053 279.16 241.313 279.373 240.393 279.8C240.313 282.84 240.26 285.12 240.233 286.64L241.913 286.8C241.913 287.173 241.8 287.573 241.573 288H236.973L236.913 287.3C237.527 287.087 238.127 286.927 238.713 286.82C238.7 285.86 238.667 284.507 238.613 282.76C238.56 281 238.527 279.847 238.513 279.3C237.78 279.26 237.193 279.18 236.753 279.06L236.833 278.02C237.553 277.82 238.6 277.72 239.973 277.72C240.16 278.053 240.28 278.4 240.333 278.76C240.92 278.453 241.5 278.187 242.073 277.96C242.647 277.72 243.007 277.6 243.153 277.6C244.633 277.6 245.667 278.053 246.253 278.96C246.867 278.627 247.5 278.32 248.153 278.04C248.82 277.747 249.22 277.6 249.353 277.6C250.567 277.6 251.473 277.9 252.073 278.5C252.687 279.087 252.993 280.053 252.993 281.4C252.993 281.8 252.94 283.547 252.833 286.64L254.513 286.8C254.513 287.173 254.4 287.573 254.173 288H249.573L249.513 287.3C250.127 287.087 250.727 286.927 251.313 286.82C251.26 284.713 251.213 283.12 251.173 282.04C251.133 280.96 250.98 280.213 250.713 279.8C250.447 279.373 249.913 279.16 249.113 279.16C248.313 279.16 247.48 279.387 246.613 279.84ZM259.029 275.94C258.682 276.02 258.342 276.06 258.009 276.06C257.689 276.06 257.369 276.04 257.049 276C256.969 275.627 256.929 275.253 256.929 274.88C256.929 274.493 256.942 274.207 256.969 274.02C257.262 273.953 257.569 273.92 257.889 273.92C258.222 273.92 258.576 273.933 258.949 273.96C259.029 274.307 259.069 274.647 259.069 274.98C259.069 275.3 259.056 275.62 259.029 275.94ZM255.389 278.04C256.522 277.84 257.402 277.74 258.029 277.74C258.656 277.74 259.056 277.753 259.229 277.78C259.229 278.1 259.189 278.453 259.109 278.84C259.029 279.227 258.982 279.413 258.969 279.4L258.789 286.64L260.469 286.8C260.469 287.173 260.356 287.573 260.129 288H255.529L255.469 287.3C256.082 287.087 256.682 286.927 257.269 286.82C257.189 283.487 257.122 280.987 257.069 279.32C256.296 279.32 255.709 279.24 255.309 279.08L255.389 278.04ZM267.821 277.6C269.101 277.6 270.028 277.92 270.601 278.56C271.175 279.187 271.461 280.147 271.461 281.44C271.461 281.813 271.408 283.547 271.301 286.64L272.981 286.8C272.981 287.173 272.868 287.573 272.641 288H268.041L267.981 287.3C268.595 287.087 269.195 286.927 269.781 286.82C269.701 283.327 269.628 281.387 269.561 281C269.508 280.6 269.415 280.253 269.281 279.96C269.148 279.667 268.948 279.46 268.681 279.34C268.415 279.22 268.061 279.16 267.621 279.16C266.741 279.16 265.888 279.373 265.061 279.8C264.981 282.84 264.928 285.12 264.901 286.64L266.581 286.8C266.581 287.173 266.468 287.573 266.241 288H261.641L261.581 287.3C262.195 287.087 262.795 286.927 263.381 286.82C263.301 283.433 263.235 280.927 263.181 279.3C262.448 279.26 261.861 279.18 261.421 279.06L261.501 278.02C262.221 277.82 263.268 277.72 264.641 277.72C264.801 277.96 264.921 278.307 265.001 278.76C265.575 278.453 266.148 278.187 266.721 277.96C267.308 277.72 267.675 277.6 267.821 277.6ZM276.606 273.14C277.019 273.14 277.312 273.153 277.486 273.18C277.486 273.647 277.399 274.18 277.226 274.78C277.106 282.647 277.046 286.6 277.046 286.64L278.726 286.8C278.726 287.173 278.612 287.573 278.386 288H273.786L273.726 287.3C274.339 287.087 274.939 286.927 275.526 286.82L275.326 274.72C274.592 274.68 274.006 274.6 273.566 274.48L273.646 273.44C274.326 273.24 275.312 273.14 276.606 273.14ZM284.884 286.88C285.471 286.88 286.391 286.6 287.644 286.04C287.897 286.387 288.031 286.693 288.044 286.96C287.364 287.36 286.697 287.673 286.044 287.9C285.391 288.127 284.924 288.24 284.644 288.24C283.097 288.24 281.917 287.78 281.104 286.86C280.291 285.927 279.884 284.627 279.884 282.96C279.884 281.293 280.277 279.987 281.064 279.04C281.864 278.08 283.057 277.6 284.644 277.6C285.871 277.6 286.804 278.04 287.444 278.92C288.097 279.8 288.424 280.98 288.424 282.46C288.317 282.647 288.231 282.773 288.164 282.84L281.724 282.74C281.737 284.087 281.971 285.113 282.424 285.82C282.891 286.527 283.711 286.88 284.884 286.88ZM286.604 281.6C286.604 280.72 286.444 280.04 286.124 279.56C285.804 279.067 285.271 278.82 284.524 278.82C283.777 278.82 283.111 278.96 282.524 279.24C282.124 280.04 281.871 280.86 281.764 281.7C282.817 281.687 284.431 281.653 286.604 281.6ZM296.178 279.28C296.112 279.213 295.965 279.18 295.738 279.18C295.512 279.18 295.172 279.26 294.718 279.42C294.278 279.58 293.878 279.767 293.518 279.98C293.438 282.94 293.385 285.16 293.358 286.64L295.038 286.8C295.038 287.173 294.925 287.573 294.698 288H290.098L290.038 287.3C290.652 287.087 291.252 286.927 291.838 286.82C291.758 283.433 291.692 280.927 291.638 279.3C290.905 279.26 290.318 279.18 289.878 279.06L289.958 278.02C290.665 277.82 291.712 277.72 293.098 277.72C293.312 278.053 293.445 278.48 293.498 279C295.032 278.067 295.945 277.6 296.238 277.6C296.532 277.6 296.872 277.66 297.258 277.78C297.645 277.887 297.932 278.007 298.118 278.14C298.118 279.473 297.992 280.56 297.738 281.4C297.552 281.453 297.332 281.48 297.078 281.48C296.838 281.48 296.672 281.473 296.578 281.46L296.178 279.28Z" fill="black"/>
<path d="M234.616 420.42C234.856 420.34 235.51 420.253 236.576 420.16C237.643 420.053 238.61 420 239.476 420C240.356 420 241.036 420.04 241.516 420.12C241.53 420.173 241.536 420.24 241.536 420.32C241.536 420.387 241.496 420.553 241.416 420.82C241.35 421.087 241.296 421.26 241.256 421.34C241.15 421.447 240.85 421.527 240.356 421.58L244.176 432.64L246.076 432.8C246.076 433.173 245.963 433.573 245.736 434H241.136L241.076 433.3C241.383 433.14 241.83 433 242.416 432.88L241.396 430.02H235.816L234.876 432.64L236.496 432.8C236.496 433.173 236.383 433.573 236.156 434H231.556L231.496 433.3C232.016 433.113 232.57 432.967 233.156 432.86L237.036 421.52C235.85 421.387 235.016 421.227 234.536 421.04L234.616 420.42ZM239.816 425.56L238.756 421.64C238.676 421.627 238.563 421.62 238.416 421.62L237.336 425.7L236.176 428.74H241.036L239.816 425.56ZM251.958 421.24C251.891 423.48 251.818 427.28 251.738 432.64L253.418 432.8C253.418 433.173 253.304 433.573 253.078 434H248.478L248.418 433.3C249.191 433.02 249.804 432.86 250.258 432.82C250.124 427.673 250.018 423.813 249.938 421.24H247.018L246.538 423.28L245.378 423.2C245.178 422.387 245.078 421.56 245.078 420.72C245.078 420.56 245.091 420.32 245.118 420H256.638C256.664 420.173 256.678 420.44 256.678 420.8C256.678 421.52 256.584 422.307 256.398 423.16C256.104 423.24 255.718 423.28 255.238 423.28L254.738 421.24H251.958ZM263.2 420C264.893 420 266.146 420.28 266.96 420.84C267.786 421.387 268.2 422.36 268.2 423.76C268.2 425.16 267.793 426.273 266.98 427.1C266.166 427.913 264.853 428.32 263.04 428.32H261.36L261.3 432.66L262.86 432.8C262.86 433.173 262.746 433.573 262.52 434H258.02L257.96 433.32C258.52 433.107 259.093 432.947 259.68 432.84C259.6 427.64 259.533 423.773 259.48 421.24C259.12 421.173 258.533 421.013 257.72 420.76L257.82 420H263.2ZM262.84 427.02C263.986 427.007 264.86 426.72 265.46 426.16C266.06 425.587 266.36 424.833 266.36 423.9C266.36 422.967 266.066 422.32 265.48 421.96C264.893 421.587 263.953 421.4 262.66 421.4C262.42 421.4 262.013 421.407 261.44 421.42C261.44 421.433 261.42 423.307 261.38 427.04L262.84 427.02Z" fill="black"/>
<path d="M72.0835 220.86C72.1235 220.94 72.1768 221.247 72.2435 221.78C72.3235 222.313 72.3635 222.767 72.3635 223.14C72.3635 223.5 72.3435 223.787 72.3035 224H62.8035L62.7435 223.3C63.3702 223.073 63.9368 222.92 64.4435 222.84C64.3635 217.587 64.2968 213.713 64.2435 211.22C63.8968 211.167 63.3102 211.007 62.4835 210.74L62.5835 210H67.4035C67.6302 210.373 67.7435 210.767 67.7435 211.18C67.0235 211.207 66.5035 211.227 66.1835 211.24C66.1568 213.8 66.1302 216.133 66.1035 218.24C66.0902 220.333 66.0768 221.807 66.0635 222.66H70.4435L70.9235 220.76C71.5902 220.76 71.9768 220.793 72.0835 220.86ZM77.2595 211.94C76.9128 212.02 76.5728 212.06 76.2395 212.06C75.9195 212.06 75.5995 212.04 75.2795 212C75.1995 211.627 75.1595 211.253 75.1595 210.88C75.1595 210.493 75.1728 210.207 75.1995 210.02C75.4928 209.953 75.7995 209.92 76.1195 209.92C76.4528 209.92 76.8061 209.933 77.1795 209.96C77.2595 210.307 77.2995 210.647 77.2995 210.98C77.2995 211.3 77.2861 211.62 77.2595 211.94ZM73.6195 214.04C74.7528 213.84 75.6328 213.74 76.2595 213.74C76.8861 213.74 77.2861 213.753 77.4595 213.78C77.4595 214.1 77.4195 214.453 77.3395 214.84C77.2595 215.227 77.2128 215.413 77.1995 215.4L77.0195 222.64L78.6995 222.8C78.6995 223.173 78.5861 223.573 78.3595 224H73.7595L73.6995 223.3C74.3128 223.087 74.9128 222.927 75.4995 222.82C75.4195 219.487 75.3528 216.987 75.2995 215.32C74.5261 215.32 73.9395 215.24 73.5395 215.08L73.6195 214.04ZM82.9518 222.98L82.8518 227.26L84.5918 227.4C84.5918 227.773 84.4785 228.173 84.2518 228.6H79.6118L79.5518 227.9C80.1651 227.7 80.7651 227.547 81.3518 227.44C81.2718 222 81.2051 217.953 81.1518 215.3C80.5518 215.287 79.9651 215.207 79.3918 215.06L79.4718 214.02C80.2451 213.82 81.3251 213.72 82.7118 213.72C82.8318 213.933 82.9451 214.327 83.0518 214.9C84.7585 214.033 85.8385 213.6 86.2918 213.6C87.5318 213.6 88.4518 214.087 89.0518 215.06C89.6518 216.02 89.9518 217.273 89.9518 218.82C89.9518 220.353 89.6118 221.64 88.9318 222.68C88.2651 223.72 87.2918 224.24 86.0118 224.24C85.5318 224.24 85.0051 224.12 84.4318 223.88C83.8718 223.64 83.3785 223.34 82.9518 222.98ZM85.9318 215.1C85.1051 215.1 84.1451 215.393 83.0518 215.98C83.0251 218.46 82.9985 220.32 82.9718 221.56C83.3051 221.893 83.7451 222.2 84.2918 222.48C84.8518 222.747 85.3385 222.88 85.7518 222.88C87.3251 222.88 88.1118 221.587 88.1118 219C88.1118 218.013 87.9985 217.24 87.7718 216.68C87.5451 216.107 87.2851 215.7 86.9918 215.46C86.6985 215.22 86.3451 215.1 85.9318 215.1ZM94.9938 211.94C94.6472 212.02 94.3072 212.06 93.9738 212.06C93.6538 212.06 93.3338 212.04 93.0138 212C92.9338 211.627 92.8938 211.253 92.8938 210.88C92.8938 210.493 92.9072 210.207 92.9338 210.02C93.2272 209.953 93.5338 209.92 93.8538 209.92C94.1872 209.92 94.5405 209.933 94.9138 209.96C94.9938 210.307 95.0338 210.647 95.0338 210.98C95.0338 211.3 95.0205 211.62 94.9938 211.94ZM91.3538 214.04C92.4872 213.84 93.3672 213.74 93.9938 213.74C94.6205 213.74 95.0205 213.753 95.1938 213.78C95.1938 214.1 95.1538 214.453 95.0738 214.84C94.9938 215.227 94.9472 215.413 94.9338 215.4L94.7538 222.64L96.4338 222.8C96.4338 223.173 96.3205 223.573 96.0938 224H91.4938L91.4338 223.3C92.0472 223.087 92.6472 222.927 93.2338 222.82C93.1538 219.487 93.0872 216.987 93.0338 215.32C92.2605 215.32 91.6738 215.24 91.2738 215.08L91.3538 214.04ZM99.0262 222.76L98.8662 215.22H97.3262L97.2662 214.52C97.3995 214.427 97.7862 214.253 98.4262 214L100.066 211.44C100.333 211.467 100.54 211.533 100.686 211.64L100.666 213.84C101.666 213.84 102.486 213.907 103.126 214.04C103.126 214.4 103.013 214.793 102.786 215.22H100.626C100.6 216.82 100.573 219.247 100.546 222.5C101.293 222.54 102.04 222.673 102.786 222.9L102.766 223.6C102.58 223.72 102.1 223.86 101.326 224.02C100.566 224.18 99.9395 224.26 99.4462 224.26C99.3795 224.153 99.2928 223.927 99.1862 223.58C99.0795 223.22 99.0262 222.947 99.0262 222.76ZM107.199 209.14C107.613 209.14 107.906 209.153 108.079 209.18C108.079 209.647 107.993 210.18 107.819 210.78C107.699 218.647 107.639 222.6 107.639 222.64L109.319 222.8C109.319 223.173 109.206 223.573 108.979 224H104.379L104.319 223.3C104.933 223.087 105.533 222.927 106.119 222.82L105.919 210.72C105.186 210.68 104.599 210.6 104.159 210.48L104.239 209.44C104.919 209.24 105.906 209.14 107.199 209.14ZM115.478 222.88C116.064 222.88 116.984 222.6 118.238 222.04C118.491 222.387 118.624 222.693 118.638 222.96C117.958 223.36 117.291 223.673 116.638 223.9C115.984 224.127 115.518 224.24 115.238 224.24C113.691 224.24 112.511 223.78 111.698 222.86C110.884 221.927 110.478 220.627 110.478 218.96C110.478 217.293 110.871 215.987 111.658 215.04C112.458 214.08 113.651 213.6 115.238 213.6C116.464 213.6 117.398 214.04 118.038 214.92C118.691 215.8 119.018 216.98 119.018 218.46C118.911 218.647 118.824 218.773 118.758 218.84L112.318 218.74C112.331 220.087 112.564 221.113 113.018 221.82C113.484 222.527 114.304 222.88 115.478 222.88ZM117.198 217.6C117.198 216.72 117.038 216.04 116.718 215.56C116.398 215.067 115.864 214.82 115.118 214.82C114.371 214.82 113.704 214.96 113.118 215.24C112.718 216.04 112.464 216.86 112.358 217.7C113.411 217.687 115.024 217.653 117.198 217.6ZM126.772 215.28C126.705 215.213 126.559 215.18 126.332 215.18C126.105 215.18 125.765 215.26 125.312 215.42C124.872 215.58 124.472 215.767 124.112 215.98C124.032 218.94 123.979 221.16 123.952 222.64L125.632 222.8C125.632 223.173 125.519 223.573 125.292 224H120.692L120.632 223.3C121.245 223.087 121.845 222.927 122.432 222.82C122.352 219.433 122.285 216.927 122.232 215.3C121.499 215.26 120.912 215.18 120.472 215.06L120.552 214.02C121.259 213.82 122.305 213.72 123.692 213.72C123.905 214.053 124.039 214.48 124.092 215C125.625 214.067 126.539 213.6 126.832 213.6C127.125 213.6 127.465 213.66 127.852 213.78C128.239 213.887 128.525 214.007 128.712 214.14C128.712 215.473 128.585 216.56 128.332 217.4C128.145 217.453 127.925 217.48 127.672 217.48C127.432 217.48 127.265 217.473 127.172 217.46L126.772 215.28Z" fill="black"/>
</g>
<defs>
<filter id="filter0_d_146_980" x="0" y="0" width="343" height="483" filterUnits="userSpaceOnUse" color-interpolation-filters="sRGB">
<feFlood flood-opacity="0" result="BackgroundImageFix"/>
<feColorMatrix in="SourceAlpha" type="matrix" values="0 0 0 0 0 0 0 0 0 0 0 0 0 0 0 0 0 0 127 0" result="hardAlpha"/>
<feOffset dy="4"/>
<feGaussianBlur stdDeviation="2"/>
<feComposite in2="hardAlpha" operator="out"/>
<feColorMatrix type="matrix" values="0 0 0 0 0 0 0 0 0 0 0 0 0 0 0 0 0 0 0.25 0"/>
<feBlend mode="normal" in2="BackgroundImageFix" result="effect1_dropShadow_146_980"/>
<feBlend mode="normal" in="SourceGraphic" in2="effect1_dropShadow_146_980" result="shape"/>
</filter>
<filter id="filter1_d_146_980" x="15" y="13" width="313" height="43" filterUnits="userSpaceOnUse" color-interpolation-filters="sRGB">
<feFlood flood-opacity="0" result="BackgroundImageFix"/>
<feColorMatrix in="SourceAlpha" type="matrix" values="0 0 0 0 0 0 0 0 0 0 0 0 0 0 0 0 0 0 127 0" result="hardAlpha"/>
<feOffset dy="4"/>
<feGaussianBlur stdDeviation="2"/>
<feComposite in2="hardAlpha" operator="out"/>
<feColorMatrix type="matrix" values="0 0 0 0 0 0 0 0 0 0 0 0 0 0 0 0 0 0 0.25 0"/>
<feBlend mode="normal" in2="BackgroundImageFix" result="effect1_dropShadow_146_980"/>
<feBlend mode="normal" in="SourceGraphic" in2="effect1_dropShadow_146_980" result="shape"/>
</filter>
<filter id="filter2_d_146_980" x="13" y="61" width="163" height="64" filterUnits="userSpaceOnUse" color-interpolation-filters="sRGB">
<feFlood flood-opacity="0" result="BackgroundImageFix"/>
<feColorMatrix in="SourceAlpha" type="matrix" values="0 0 0 0 0 0 0 0 0 0 0 0 0 0 0 0 0 0 127 0" result="hardAlpha"/>
<feOffset dy="4"/>
<feGaussianBlur stdDeviation="2"/>
<feComposite in2="hardAlpha" operator="out"/>
<feColorMatrix type="matrix" values="0 0 0 0 0 0 0 0 0 0 0 0 0 0 0 0 0 0 0.25 0"/>
<feBlend mode="normal" in2="BackgroundImageFix" result="effect1_dropShadow_146_980"/>
<feBlend mode="normal" in="SourceGraphic" in2="effect1_dropShadow_146_980" result="shape"/>
</filter>
<filter id="filter3_d_146_980" x="168" y="128" width="163" height="64" filterUnits="userSpaceOnUse" color-interpolation-filters="sRGB">
<feFlood flood-opacity="0" result="BackgroundImageFix"/>
<feColorMatrix in="SourceAlpha" type="matrix" values="0 0 0 0 0 0 0 0 0 0 0 0 0 0 0 0 0 0 127 0" result="hardAlpha"/>
<feOffset dy="4"/>
<feGaussianBlur stdDeviation="2"/>
<feComposite in2="hardAlpha" operator="out"/>
<feColorMatrix type="matrix" values="0 0 0 0 0 0 0 0 0 0 0 0 0 0 0 0 0 0 0.25 0"/>
<feBlend mode="normal" in2="BackgroundImageFix" result="effect1_dropShadow_146_980"/>
<feBlend mode="normal" in="SourceGraphic" in2="effect1_dropShadow_146_980" result="shape"/>
</filter>
<filter id="filter4_d_146_980" x="13" y="189" width="163" height="64" filterUnits="userSpaceOnUse" color-interpolation-filters="sRGB">
<feFlood flood-opacity="0" result="BackgroundImageFix"/>
<feColorMatrix in="SourceAlpha" type="matrix" values="0 0 0 0 0 0 0 0 0 0 0 0 0 0 0 0 0 0 127 0" result="hardAlpha"/>
<feOffset dy="4"/>
<feGaussianBlur stdDeviation="2"/>
<feComposite in2="hardAlpha" operator="out"/>
<feColorMatrix type="matrix" values="0 0 0 0 0 0 0 0 0 0 0 0 0 0 0 0 0 0 0.25 0"/>
<feBlend mode="normal" in2="BackgroundImageFix" result="effect1_dropShadow_146_980"/>
<feBlend mode="normal" in="SourceGraphic" in2="effect1_dropShadow_146_980" result="shape"/>
</filter>
<filter id="filter5_d_146_980" x="168" y="252" width="163" height="64" filterUnits="userSpaceOnUse" color-interpolation-filters="sRGB">
<feFlood flood-opacity="0" result="BackgroundImageFix"/>
<feColorMatrix in="SourceAlpha" type="matrix" values="0 0 0 0 0 0 0 0 0 0 0 0 0 0 0 0 0 0 127 0" result="hardAlpha"/>
<feOffset dy="4"/>
<feGaussianBlur stdDeviation="2"/>
<feComposite in2="hardAlpha" operator="out"/>
<feColorMatrix type="matrix" values="0 0 0 0 0 0 0 0 0 0 0 0 0 0 0 0 0 0 0.25 0"/>
<feBlend mode="normal" in2="BackgroundImageFix" result="effect1_dropShadow_146_980"/>
<feBlend mode="normal" in="SourceGraphic" in2="effect1_dropShadow_146_980" result="shape"/>
</filter>
<filter id="filter6_d_146_980" x="13" y="329" width="163" height="64" filterUnits="userSpaceOnUse" color-interpolation-filters="sRGB">
<feFlood flood-opacity="0" result="BackgroundImageFix"/>
<feColorMatrix in="SourceAlpha" type="matrix" values="0 0 0 0 0 0 0 0 0 0 0 0 0 0 0 0 0 0 127 0" result="hardAlpha"/>
<feOffset dy="4"/>
<feGaussianBlur stdDeviation="2"/>
<feComposite in2="hardAlpha" operator="out"/>
<feColorMatrix type="matrix" values="0 0 0 0 0 0 0 0 0 0 0 0 0 0 0 0 0 0 0.25 0"/>
<feBlend mode="normal" in2="BackgroundImageFix" result="effect1_dropShadow_146_980"/>
<feBlend mode="normal" in="SourceGraphic" in2="effect1_dropShadow_146_980" result="shape"/>
</filter>
<filter id="filter7_d_146_980" x="168" y="396" width="163" height="64" filterUnits="userSpaceOnUse" color-interpolation-filters="sRGB">
<feFlood flood-opacity="0" result="BackgroundImageFix"/>
<feColorMatrix in="SourceAlpha" type="matrix" values="0 0 0 0 0 0 0 0 0 0 0 0 0 0 0 0 0 0 127 0" result="hardAlpha"/>
<feOffset dy="4"/>
<feGaussianBlur stdDeviation="2"/>
<feComposite in2="hardAlpha" operator="out"/>
<feColorMatrix type="matrix" values="0 0 0 0 0 0 0 0 0 0 0 0 0 0 0 0 0 0 0.25 0"/>
<feBlend mode="normal" in2="BackgroundImageFix" result="effect1_dropShadow_146_980"/>
<feBlend mode="normal" in="SourceGraphic" in2="effect1_dropShadow_146_980" result="shape"/>
</filter>
</defs>
</svg>
