<svg width="343" height="483" viewBox="0 0 343 483" fill="none" xmlns="http://www.w3.org/2000/svg">
<g filter="url(#filter0_d_12_1398)">
<rect x="4" width="335" height="475" rx="15" fill="white"/>
<g filter="url(#filter1_d_12_1398)">
<rect x="47" y="4" width="249" height="34" rx="15" fill="#F9F3F3"/>
</g>
<rect x="42" y="60" width="262" height="34" rx="5" fill="#726A95"/>
<path d="M52.0572 77.13L52.0032 79.776L53.5152 79.92C53.5152 80.256 53.4132 80.616 53.2092 81H49.0692L49.0152 80.37C49.5792 80.178 50.1312 80.034 50.6712 79.938C50.5512 75.282 50.4552 71.79 50.3832 69.462C49.9392 69.378 49.4052 69.234 48.7812 69.03L48.8352 68.4H53.3352C53.5392 68.784 53.6412 69.144 53.6412 69.48C53.0412 69.528 52.5612 69.552 52.2012 69.552C52.1772 70.8 52.1532 71.928 52.1292 72.936C52.1172 73.944 52.1052 74.652 52.0932 75.06L56.3952 69.624L54.9552 69.48C54.9552 69.144 55.0572 68.784 55.2612 68.4H59.8332L59.8872 69.192C59.3352 69.384 58.7952 69.528 58.2672 69.624L54.7212 73.89L58.8612 79.776L60.3732 79.92C60.3732 80.256 60.2712 80.616 60.0672 81H57.8172L53.7312 75.114L52.0572 77.13ZM68.5881 75.114L68.4981 79.758C69.0141 79.794 69.5301 79.878 70.0461 80.01L70.0101 80.64C69.8181 80.736 69.4701 80.844 68.9661 80.964C68.4741 81.072 67.9881 81.126 67.5081 81.126C67.2921 80.694 67.1721 80.28 67.1481 79.884C65.7801 80.784 64.8201 81.234 64.2681 81.234C63.4161 81.234 62.7321 81.006 62.2161 80.55C61.7001 80.094 61.4421 79.458 61.4421 78.642C61.4421 76.758 62.5941 75.786 64.8981 75.726C66.2421 75.69 66.9201 75.672 66.9321 75.672L66.9141 75.06C66.8901 74.232 66.7341 73.638 66.4461 73.278C66.1581 72.906 65.6421 72.72 64.8981 72.72C64.5861 72.72 64.2501 72.792 63.8901 72.936L63.4581 74.736C63.3981 74.748 63.2961 74.754 63.1521 74.754L62.4141 74.7C62.2221 74.184 62.1201 73.47 62.1081 72.558C62.3361 72.438 62.8581 72.258 63.6741 72.018C64.4901 71.766 65.0121 71.64 65.2401 71.64C66.4641 71.64 67.3281 71.91 67.8321 72.45C68.3361 72.99 68.5881 73.878 68.5881 75.114ZM64.6641 80.01C65.0121 80.01 65.8161 79.62 67.0761 78.84L66.9861 76.59C66.1701 76.662 65.4861 76.728 64.9341 76.788C64.3821 76.848 63.9381 77.01 63.6021 77.274C63.2661 77.526 63.0981 77.928 63.0981 78.48C63.0981 79.5 63.6201 80.01 64.6641 80.01ZM76.6712 71.64C77.8232 71.64 78.6572 71.928 79.1732 72.504C79.6892 73.068 79.9472 73.932 79.9472 75.096C79.9472 75.432 79.8992 76.992 79.8032 79.776L81.3152 79.92C81.3152 80.256 81.2132 80.616 81.0092 81H76.8692L76.8152 80.37C77.3672 80.178 77.9072 80.034 78.4352 79.938C78.3632 76.794 78.2972 75.048 78.2372 74.7C78.1892 74.34 78.1052 74.028 77.9852 73.764C77.8652 73.5 77.6852 73.314 77.4452 73.206C77.2052 73.098 76.8872 73.044 76.4912 73.044C75.6992 73.044 74.9312 73.236 74.1872 73.62C74.1152 76.356 74.0672 78.408 74.0432 79.776L75.5552 79.92C75.5552 80.256 75.4532 80.616 75.2492 81H71.1092L71.0552 80.37C71.6072 80.178 72.1472 80.034 72.6752 79.938C72.6032 76.89 72.5432 74.634 72.4952 73.17C71.8352 73.134 71.3072 73.062 70.9112 72.954L70.9832 72.018C71.6312 71.838 72.5732 71.748 73.8092 71.748C73.9532 71.964 74.0612 72.276 74.1332 72.684C74.6492 72.408 75.1652 72.168 75.6812 71.964C76.2092 71.748 76.5392 71.64 76.6712 71.64ZM91.5748 79.902L93.1768 79.866C94.8328 79.866 95.6608 80.55 95.6608 81.918C95.6608 82.554 95.3848 83.142 94.8328 83.682C94.2928 84.234 93.6448 84.648 92.8888 84.924C92.1328 85.2 91.4248 85.338 90.7648 85.338C90.1168 85.338 89.5108 85.242 88.9468 85.05C88.3828 84.87 87.9028 84.57 87.5068 84.15C87.1108 83.73 86.9128 83.244 86.9128 82.692C86.9128 82.56 87.1228 82.212 87.5428 81.648C87.9748 81.096 88.2568 80.772 88.3888 80.676C88.2808 80.604 88.0708 80.4 87.7588 80.064C87.4468 79.716 87.2728 79.476 87.2368 79.344C87.5368 78.792 88.0108 78.252 88.6588 77.724C87.6988 77.148 87.2188 76.2 87.2188 74.88C87.2188 73.824 87.5548 73.02 88.2268 72.468C88.8988 71.916 89.7388 71.64 90.7468 71.64C91.7548 71.64 92.5348 71.802 93.0868 72.126C94.0468 71.934 94.9888 71.838 95.9128 71.838C96.1408 71.838 96.2548 71.976 96.2548 72.252C96.2548 72.732 96.1648 73.062 95.9848 73.242L93.9148 72.9C94.3468 73.452 94.5628 74.112 94.5628 74.88C94.5628 76.08 94.2088 76.944 93.5008 77.472C92.7928 77.988 91.9228 78.246 90.8908 78.246C90.5668 78.246 90.1828 78.204 89.7388 78.12C89.5588 78.492 89.3308 78.894 89.0548 79.326C89.2708 79.71 90.1108 79.902 91.5748 79.902ZM93.8608 83.214C93.9808 82.878 94.0408 82.53 94.0408 82.17C94.0408 81.822 93.9028 81.54 93.6268 81.324C93.3508 81.108 92.9968 81 92.5648 81C90.8488 81 89.7988 80.982 89.4148 80.946C89.0908 81.462 88.8628 81.894 88.7308 82.242C88.6108 82.602 88.5508 82.806 88.5508 82.854C88.5508 83.322 88.7728 83.67 89.2168 83.898C89.6608 84.126 90.1708 84.24 90.7468 84.24C91.3348 84.24 91.9228 84.144 92.5108 83.952C93.1108 83.76 93.5608 83.514 93.8608 83.214ZM92.9428 74.952C92.9428 73.464 92.2588 72.72 90.8908 72.72C89.5228 72.72 88.8388 73.44 88.8388 74.88C88.8388 75.612 89.0188 76.176 89.3788 76.572C89.7388 76.968 90.2608 77.166 90.9448 77.166C92.2768 77.166 92.9428 76.428 92.9428 74.952ZM102.755 73.152C102.695 73.092 102.563 73.062 102.359 73.062C102.155 73.062 101.849 73.134 101.441 73.278C101.045 73.422 100.685 73.59 100.361 73.782C100.289 76.446 100.241 78.444 100.217 79.776L101.729 79.92C101.729 80.256 101.627 80.616 101.423 81H97.2831L97.2291 80.37C97.7811 80.178 98.3211 80.034 98.8491 79.938C98.7771 76.89 98.7171 74.634 98.6691 73.17C98.0091 73.134 97.4811 73.062 97.0851 72.954L97.1571 72.018C97.7931 71.838 98.7351 71.748 99.9831 71.748C100.175 72.048 100.295 72.432 100.343 72.9C101.723 72.06 102.545 71.64 102.809 71.64C103.073 71.64 103.379 71.694 103.727 71.802C104.075 71.898 104.333 72.006 104.501 72.126C104.501 73.326 104.387 74.304 104.159 75.06C103.991 75.108 103.793 75.132 103.565 75.132C103.349 75.132 103.199 75.126 103.115 75.114L102.755 73.152ZM109.959 79.812C110.307 79.812 110.697 79.74 111.129 79.596C111.561 79.44 111.915 79.254 112.191 79.038C112.143 76.482 112.101 74.544 112.065 73.224C111.321 73.224 110.769 73.152 110.409 73.008L110.481 72.072C111.501 71.892 112.299 71.802 112.875 71.802C113.463 71.802 113.835 71.814 113.991 71.838C113.991 72.054 113.955 72.342 113.883 72.702C113.823 73.062 113.781 73.26 113.757 73.296L113.541 79.722C114.177 79.758 114.693 79.83 115.089 79.938L115.053 80.856C114.525 81.024 114.015 81.108 113.523 81.108C113.031 81.108 112.731 81.102 112.623 81.09C112.395 80.634 112.263 80.214 112.227 79.83C111.639 80.274 111.093 80.616 110.589 80.856C110.097 81.096 109.773 81.216 109.617 81.216C108.561 81.216 107.793 80.934 107.313 80.37C106.845 79.794 106.611 78.954 106.611 77.85C106.611 77.838 106.665 76.302 106.773 73.242C106.077 73.242 105.435 73.164 104.847 73.008L104.919 72.072C105.939 71.892 106.731 71.802 107.295 71.802C107.859 71.802 108.219 71.814 108.375 71.838C108.375 72.126 108.339 72.444 108.267 72.792C108.195 73.14 108.153 73.308 108.141 73.296L108.159 77.184C108.159 78.096 108.273 78.762 108.501 79.182C108.729 79.602 109.215 79.812 109.959 79.812ZM118.846 80.082L118.756 83.934L120.322 84.06C120.322 84.396 120.22 84.756 120.016 85.14H115.84L115.786 84.51C116.338 84.33 116.878 84.192 117.406 84.096C117.334 79.2 117.274 75.558 117.226 73.17C116.686 73.158 116.158 73.086 115.642 72.954L115.714 72.018C116.41 71.838 117.382 71.748 118.63 71.748C118.738 71.94 118.84 72.294 118.936 72.81C120.472 72.03 121.444 71.64 121.852 71.64C122.968 71.64 123.796 72.078 124.336 72.954C124.876 73.818 125.146 74.946 125.146 76.338C125.146 77.718 124.84 78.876 124.228 79.812C123.628 80.748 122.752 81.216 121.6 81.216C121.168 81.216 120.694 81.108 120.178 80.892C119.674 80.676 119.23 80.406 118.846 80.082ZM121.528 72.99C120.784 72.99 119.92 73.254 118.936 73.782C118.912 76.014 118.888 77.688 118.864 78.804C119.164 79.104 119.56 79.38 120.052 79.632C120.556 79.872 120.994 79.992 121.366 79.992C122.782 79.992 123.49 78.828 123.49 76.5C123.49 75.612 123.388 74.916 123.184 74.412C122.98 73.896 122.746 73.53 122.482 73.314C122.218 73.098 121.9 72.99 121.528 72.99ZM128.874 67.626C129.246 67.626 129.51 67.638 129.666 67.662C129.666 68.082 129.588 68.562 129.432 69.102C129.324 76.182 129.27 79.74 129.27 79.776L130.782 79.92C130.782 80.256 130.68 80.616 130.476 81H126.336L126.282 80.37C126.834 80.178 127.374 80.034 127.902 79.938L127.722 69.048C127.062 69.012 126.534 68.94 126.138 68.832L126.21 67.896C126.822 67.716 127.71 67.626 128.874 67.626ZM138.988 75.114L138.898 79.758C139.414 79.794 139.93 79.878 140.446 80.01L140.41 80.64C140.218 80.736 139.87 80.844 139.366 80.964C138.874 81.072 138.388 81.126 137.908 81.126C137.692 80.694 137.572 80.28 137.548 79.884C136.18 80.784 135.22 81.234 134.668 81.234C133.816 81.234 133.132 81.006 132.616 80.55C132.1 80.094 131.842 79.458 131.842 78.642C131.842 76.758 132.994 75.786 135.298 75.726C136.642 75.69 137.32 75.672 137.332 75.672L137.314 75.06C137.29 74.232 137.134 73.638 136.846 73.278C136.558 72.906 136.042 72.72 135.298 72.72C134.986 72.72 134.65 72.792 134.29 72.936L133.858 74.736C133.798 74.748 133.696 74.754 133.552 74.754L132.814 74.7C132.622 74.184 132.52 73.47 132.508 72.558C132.736 72.438 133.258 72.258 134.074 72.018C134.89 71.766 135.412 71.64 135.64 71.64C136.864 71.64 137.728 71.91 138.232 72.45C138.736 72.99 138.988 73.878 138.988 75.114ZM135.064 80.01C135.412 80.01 136.216 79.62 137.476 78.84L137.386 76.59C136.57 76.662 135.886 76.728 135.334 76.788C134.782 76.848 134.338 77.01 134.002 77.274C133.666 77.526 133.498 77.928 133.498 78.48C133.498 79.5 134.02 80.01 135.064 80.01ZM146.982 73.152C146.922 73.092 146.79 73.062 146.586 73.062C146.382 73.062 146.076 73.134 145.668 73.278C145.272 73.422 144.912 73.59 144.588 73.782C144.516 76.446 144.468 78.444 144.444 79.776L145.956 79.92C145.956 80.256 145.854 80.616 145.65 81H141.51L141.456 80.37C142.008 80.178 142.548 80.034 143.076 79.938C143.004 76.89 142.944 74.634 142.896 73.17C142.236 73.134 141.708 73.062 141.312 72.954L141.384 72.018C142.02 71.838 142.962 71.748 144.21 71.748C144.402 72.048 144.522 72.432 144.57 72.9C145.95 72.06 146.772 71.64 147.036 71.64C147.3 71.64 147.606 71.694 147.954 71.802C148.302 71.898 148.56 72.006 148.728 72.126C148.728 73.326 148.614 74.304 148.386 75.06C148.218 75.108 148.02 75.132 147.792 75.132C147.576 75.132 147.426 75.126 147.342 75.114L146.982 73.152ZM149.506 72.036C150.526 71.856 151.318 71.766 151.882 71.766C152.446 71.766 152.806 71.778 152.962 71.802C152.962 72.09 152.926 72.408 152.854 72.756C152.782 73.104 152.74 73.272 152.728 73.26L152.566 79.776L154.078 79.92C154.078 80.256 153.976 80.616 153.772 81H149.632L149.578 80.37C150.13 80.178 150.67 80.034 151.198 79.938C151.126 76.938 151.066 74.688 151.018 73.188C150.322 73.188 149.794 73.116 149.434 72.972L149.506 72.036ZM160.695 71.64C161.847 71.64 162.681 71.928 163.197 72.504C163.713 73.068 163.971 73.932 163.971 75.096C163.971 75.432 163.923 76.992 163.827 79.776L165.339 79.92C165.339 80.256 165.237 80.616 165.033 81H160.893L160.839 80.37C161.391 80.178 161.931 80.034 162.459 79.938C162.387 76.794 162.321 75.048 162.261 74.7C162.213 74.34 162.129 74.028 162.009 73.764C161.889 73.5 161.709 73.314 161.469 73.206C161.229 73.098 160.911 73.044 160.515 73.044C159.723 73.044 158.955 73.236 158.211 73.62C158.139 76.356 158.091 78.408 158.067 79.776L159.579 79.92C159.579 80.256 159.477 80.616 159.273 81H155.133L155.079 80.37C155.631 80.178 156.171 80.034 156.699 79.938C156.627 76.89 156.567 74.634 156.519 73.17C155.859 73.134 155.331 73.062 154.935 72.954L155.007 72.018C155.655 71.838 156.597 71.748 157.833 71.748C157.977 71.964 158.085 72.276 158.157 72.684C158.673 72.408 159.189 72.168 159.705 71.964C160.233 71.748 160.563 71.64 160.695 71.64ZM166.134 72.036C167.154 71.856 167.946 71.766 168.51 71.766C169.074 71.766 169.434 71.778 169.59 71.802C169.59 72.09 169.554 72.408 169.482 72.756C169.41 73.104 169.368 73.272 169.356 73.26L169.194 79.776L170.706 79.92C170.706 80.256 170.604 80.616 170.4 81H166.26L166.206 80.37C166.758 80.178 167.298 80.034 167.826 79.938C167.754 76.938 167.694 74.688 167.646 73.188C166.95 73.188 166.422 73.116 166.062 72.972L166.134 72.036ZM177.324 71.64C178.476 71.64 179.31 71.928 179.826 72.504C180.342 73.068 180.6 73.932 180.6 75.096C180.6 75.432 180.552 76.992 180.456 79.776L181.968 79.92C181.968 80.256 181.866 80.616 181.662 81H177.522L177.468 80.37C178.02 80.178 178.56 80.034 179.088 79.938C179.016 76.794 178.95 75.048 178.89 74.7C178.842 74.34 178.758 74.028 178.638 73.764C178.518 73.5 178.338 73.314 178.098 73.206C177.858 73.098 177.54 73.044 177.144 73.044C176.352 73.044 175.584 73.236 174.84 73.62C174.768 76.356 174.72 78.408 174.696 79.776L176.208 79.92C176.208 80.256 176.106 80.616 175.902 81H171.762L171.708 80.37C172.26 80.178 172.8 80.034 173.328 79.938C173.256 76.89 173.196 74.634 173.148 73.17C172.488 73.134 171.96 73.062 171.564 72.954L171.636 72.018C172.284 71.838 173.226 71.748 174.462 71.748C174.606 71.964 174.714 72.276 174.786 72.684C175.302 72.408 175.818 72.168 176.334 71.964C176.862 71.748 177.192 71.64 177.324 71.64ZM194.621 74.43C195.317 74.514 195.929 74.838 196.457 75.402C196.997 75.966 197.267 76.758 197.267 77.778C197.267 78.786 196.865 79.578 196.061 80.154C195.269 80.718 194.105 81 192.569 81H187.637L187.583 80.37C188.087 80.166 188.603 80.022 189.131 79.938C189.059 75.306 188.999 71.832 188.951 69.516C188.543 69.444 188.015 69.3 187.367 69.084C187.403 68.64 187.433 68.412 187.457 68.4H191.975C193.583 68.4 194.675 68.538 195.251 68.814C195.527 68.946 195.803 69.12 196.079 69.336C196.631 69.768 196.907 70.482 196.907 71.478C196.907 71.982 196.817 72.438 196.637 72.846C196.469 73.242 196.247 73.548 195.971 73.764C195.467 74.16 195.017 74.382 194.621 74.43ZM192.659 75.204H190.661C190.637 76.236 190.613 77.76 190.589 79.776H192.497C194.489 79.776 195.485 79.032 195.485 77.544C195.485 76.68 195.251 76.074 194.783 75.726C194.327 75.378 193.619 75.204 192.659 75.204ZM191.795 69.66L190.715 69.678C190.691 70.782 190.679 72.216 190.679 73.98H192.443C193.499 73.98 194.201 73.782 194.549 73.386C194.909 72.978 195.089 72.336 195.089 71.46C195.089 70.26 193.991 69.66 191.795 69.66ZM203.385 79.992C203.913 79.992 204.741 79.74 205.869 79.236C206.097 79.548 206.217 79.824 206.229 80.064C205.617 80.424 205.017 80.706 204.429 80.91C203.841 81.114 203.421 81.216 203.169 81.216C201.777 81.216 200.715 80.802 199.983 79.974C199.251 79.134 198.885 77.964 198.885 76.464C198.885 74.964 199.239 73.788 199.947 72.936C200.667 72.072 201.741 71.64 203.169 71.64C204.273 71.64 205.113 72.036 205.689 72.828C206.277 73.62 206.571 74.682 206.571 76.014C206.475 76.182 206.397 76.296 206.337 76.356L200.541 76.266C200.553 77.478 200.763 78.402 201.171 79.038C201.591 79.674 202.329 79.992 203.385 79.992ZM204.933 75.24C204.933 74.448 204.789 73.836 204.501 73.404C204.213 72.96 203.733 72.738 203.061 72.738C202.389 72.738 201.789 72.864 201.261 73.116C200.901 73.836 200.673 74.574 200.577 75.33C201.525 75.318 202.977 75.288 204.933 75.24ZM210.454 67.626C210.826 67.626 211.09 67.638 211.246 67.662C211.246 68.082 211.168 68.562 211.012 69.102C210.904 76.182 210.85 79.74 210.85 79.776L212.362 79.92C212.362 80.256 212.26 80.616 212.056 81H207.916L207.862 80.37C208.414 80.178 208.954 80.034 209.482 79.938L209.302 69.048C208.642 69.012 208.114 68.94 207.718 68.832L207.79 67.896C208.402 67.716 209.29 67.626 210.454 67.626ZM216.573 70.146C216.261 70.218 215.955 70.254 215.655 70.254C215.367 70.254 215.079 70.236 214.791 70.2C214.719 69.864 214.683 69.528 214.683 69.192C214.683 68.844 214.695 68.586 214.719 68.418C214.983 68.358 215.259 68.328 215.547 68.328C215.847 68.328 216.165 68.34 216.501 68.364C216.573 68.676 216.609 68.982 216.609 69.282C216.609 69.57 216.597 69.858 216.573 70.146ZM213.297 72.036C214.317 71.856 215.109 71.766 215.673 71.766C216.237 71.766 216.597 71.778 216.753 71.802C216.753 72.09 216.717 72.408 216.645 72.756C216.573 73.104 216.531 73.272 216.519 73.26L216.357 79.776L217.869 79.92C217.869 80.256 217.767 80.616 217.563 81H213.423L213.369 80.37C213.921 80.178 214.461 80.034 214.989 79.938C214.917 76.938 214.857 74.688 214.809 73.188C214.113 73.188 213.585 73.116 213.225 72.972L213.297 72.036ZM224.396 73.152C224.336 73.092 224.204 73.062 224 73.062C223.796 73.062 223.49 73.134 223.082 73.278C222.686 73.422 222.326 73.59 222.002 73.782C221.93 76.446 221.882 78.444 221.858 79.776L223.37 79.92C223.37 80.256 223.268 80.616 223.064 81H218.924L218.87 80.37C219.422 80.178 219.962 80.034 220.49 79.938C220.418 76.89 220.358 74.634 220.31 73.17C219.65 73.134 219.122 73.062 218.726 72.954L218.798 72.018C219.434 71.838 220.376 71.748 221.624 71.748C221.816 72.048 221.936 72.432 221.984 72.9C223.364 72.06 224.186 71.64 224.45 71.64C224.714 71.64 225.02 71.694 225.368 71.802C225.716 71.898 225.974 72.006 226.142 72.126C226.142 73.326 226.028 74.304 225.8 75.06C225.632 75.108 225.434 75.132 225.206 75.132C224.99 75.132 224.84 75.126 224.756 75.114L224.396 73.152ZM229.386 67.626C229.758 67.626 230.022 67.638 230.178 67.662C230.178 68.082 230.1 68.562 229.944 69.102C229.836 76.182 229.782 79.74 229.782 79.776L231.294 79.92C231.294 80.256 231.192 80.616 230.988 81H226.848L226.794 80.37C227.346 80.178 227.886 80.034 228.414 79.938L228.234 69.048C227.574 69.012 227.046 68.94 226.65 68.832L226.722 67.896C227.334 67.716 228.222 67.626 229.386 67.626ZM236.836 79.992C237.364 79.992 238.192 79.74 239.32 79.236C239.548 79.548 239.668 79.824 239.68 80.064C239.068 80.424 238.468 80.706 237.88 80.91C237.292 81.114 236.872 81.216 236.62 81.216C235.228 81.216 234.166 80.802 233.434 79.974C232.702 79.134 232.336 77.964 232.336 76.464C232.336 74.964 232.69 73.788 233.398 72.936C234.118 72.072 235.192 71.64 236.62 71.64C237.724 71.64 238.564 72.036 239.14 72.828C239.728 73.62 240.022 74.682 240.022 76.014C239.926 76.182 239.848 76.296 239.788 76.356L233.992 76.266C234.004 77.478 234.214 78.402 234.622 79.038C235.042 79.674 235.78 79.992 236.836 79.992ZM238.384 75.24C238.384 74.448 238.24 73.836 237.952 73.404C237.664 72.96 237.184 72.738 236.512 72.738C235.84 72.738 235.24 72.864 234.712 73.116C234.352 73.836 234.124 74.574 234.028 75.33C234.976 75.318 236.428 75.288 238.384 75.24ZM247.091 71.64C248.243 71.64 249.077 71.928 249.593 72.504C250.109 73.068 250.367 73.932 250.367 75.096C250.367 75.432 250.319 76.992 250.223 79.776L251.735 79.92C251.735 80.256 251.633 80.616 251.429 81H247.289L247.235 80.37C247.787 80.178 248.327 80.034 248.855 79.938C248.783 76.794 248.717 75.048 248.657 74.7C248.609 74.34 248.525 74.028 248.405 73.764C248.285 73.5 248.105 73.314 247.865 73.206C247.625 73.098 247.307 73.044 246.911 73.044C246.119 73.044 245.351 73.236 244.607 73.62C244.535 76.356 244.487 78.408 244.463 79.776L245.975 79.92C245.975 80.256 245.873 80.616 245.669 81H241.529L241.475 80.37C242.027 80.178 242.567 80.034 243.095 79.938C243.023 76.89 242.963 74.634 242.915 73.17C242.255 73.134 241.727 73.062 241.331 72.954L241.403 72.018C242.051 71.838 242.993 71.748 244.229 71.748C244.373 71.964 244.481 72.276 244.553 72.684C245.069 72.408 245.585 72.168 246.101 71.964C246.629 71.748 246.959 71.64 247.091 71.64ZM261.297 73.656C261.345 74.04 261.369 74.484 261.369 74.988C261.369 75.492 261.321 77.088 261.225 79.776L262.737 79.92C262.737 80.256 262.635 80.616 262.431 81H258.291L258.237 80.37C258.789 80.178 259.329 80.034 259.857 79.938C259.785 76.746 259.719 74.97 259.659 74.61C259.611 74.25 259.527 73.95 259.407 73.71C259.287 73.458 259.101 73.284 258.849 73.188C258.597 73.092 258.213 73.044 257.697 73.044C257.193 73.044 256.527 73.236 255.699 73.62C255.627 76.356 255.579 78.408 255.555 79.776L257.067 79.92C257.067 80.256 256.965 80.616 256.761 81H252.621L252.567 80.37C253.119 80.178 253.659 80.034 254.187 79.938C254.175 79.074 254.145 77.856 254.097 76.284C254.049 74.7 254.019 73.662 254.007 73.17C253.347 73.134 252.819 73.062 252.423 72.954L252.495 72.018C253.143 71.838 254.085 71.748 255.321 71.748C255.489 72.048 255.597 72.36 255.645 72.684C256.173 72.408 256.695 72.168 257.211 71.964C257.727 71.748 258.051 71.64 258.183 71.64C259.515 71.64 260.445 72.048 260.973 72.864C261.525 72.564 262.095 72.288 262.683 72.036C263.283 71.772 263.643 71.64 263.763 71.64C264.855 71.64 265.671 71.91 266.211 72.45C266.763 72.978 267.039 73.848 267.039 75.06C267.039 75.42 266.991 76.992 266.895 79.776L268.407 79.92C268.407 80.256 268.305 80.616 268.101 81H263.961L263.907 80.37C264.459 80.178 264.999 80.034 265.527 79.938C265.479 78.042 265.437 76.608 265.401 75.636C265.365 74.664 265.227 73.992 264.987 73.62C264.747 73.236 264.267 73.044 263.547 73.044C262.827 73.044 262.077 73.248 261.297 73.656ZM273.803 79.992C274.331 79.992 275.159 79.74 276.287 79.236C276.515 79.548 276.635 79.824 276.647 80.064C276.035 80.424 275.435 80.706 274.847 80.91C274.259 81.114 273.839 81.216 273.587 81.216C272.195 81.216 271.133 80.802 270.401 79.974C269.669 79.134 269.303 77.964 269.303 76.464C269.303 74.964 269.657 73.788 270.365 72.936C271.085 72.072 272.159 71.64 273.587 71.64C274.691 71.64 275.531 72.036 276.107 72.828C276.695 73.62 276.989 74.682 276.989 76.014C276.893 76.182 276.815 76.296 276.755 76.356L270.959 76.266C270.971 77.478 271.181 78.402 271.589 79.038C272.009 79.674 272.747 79.992 273.803 79.992ZM275.351 75.24C275.351 74.448 275.207 73.836 274.919 73.404C274.631 72.96 274.151 72.738 273.479 72.738C272.807 72.738 272.207 72.864 271.679 73.116C271.319 73.836 271.091 74.574 270.995 75.33C271.943 75.318 273.395 75.288 275.351 75.24ZM279.936 79.848C280.356 80.028 280.866 80.118 281.466 80.118C282.078 80.118 282.558 80.004 282.906 79.776C283.254 79.548 283.428 79.236 283.428 78.84C283.428 78.444 283.266 78.114 282.942 77.85C282.618 77.586 282.222 77.352 281.754 77.148C281.286 76.944 280.818 76.728 280.35 76.5C279.882 76.272 279.486 75.972 279.162 75.6C278.838 75.228 278.676 74.796 278.676 74.304C278.676 73.476 278.952 72.828 279.504 72.36C280.056 71.88 280.818 71.64 281.79 71.64C282.774 71.64 283.698 71.862 284.562 72.306C284.574 72.426 284.58 72.75 284.58 73.278C284.58 73.794 284.526 74.238 284.418 74.61C284.13 74.706 283.788 74.754 283.392 74.754L282.798 72.918C282.534 72.786 282.174 72.72 281.718 72.72C281.274 72.72 280.92 72.84 280.656 73.08C280.392 73.308 280.26 73.602 280.26 73.962C280.26 74.31 280.422 74.616 280.746 74.88C281.082 75.144 281.484 75.384 281.952 75.6C282.42 75.804 282.888 76.026 283.356 76.266C283.824 76.494 284.22 76.8 284.544 77.184C284.88 77.556 285.048 77.988 285.048 78.48C285.048 79.344 284.712 80.022 284.04 80.514C283.38 80.994 282.564 81.234 281.592 81.234C281.064 81.234 280.5 81.15 279.9 80.982C279.3 80.802 278.796 80.574 278.388 80.298C278.388 79.494 278.46 78.78 278.604 78.156C278.88 78.108 279.252 78.084 279.72 78.084L279.936 79.848ZM289.821 70.146C289.509 70.218 289.203 70.254 288.903 70.254C288.615 70.254 288.327 70.236 288.039 70.2C287.967 69.864 287.931 69.528 287.931 69.192C287.931 68.844 287.943 68.586 287.967 68.418C288.231 68.358 288.507 68.328 288.795 68.328C289.095 68.328 289.413 68.34 289.749 68.364C289.821 68.676 289.857 68.982 289.857 69.282C289.857 69.57 289.845 69.858 289.821 70.146ZM286.545 72.036C287.565 71.856 288.357 71.766 288.921 71.766C289.485 71.766 289.845 71.778 290.001 71.802C290.001 72.09 289.965 72.408 289.893 72.756C289.821 73.104 289.779 73.272 289.767 73.26L289.605 79.776L291.117 79.92C291.117 80.256 291.015 80.616 290.811 81H286.671L286.617 80.37C287.169 80.178 287.709 80.034 288.237 79.938C288.165 76.938 288.105 74.688 288.057 73.188C287.361 73.188 286.833 73.116 286.473 72.972L286.545 72.036ZM294.548 74.844C294.236 74.916 293.93 74.952 293.63 74.952C293.342 74.952 293.054 74.934 292.766 74.898C292.694 74.562 292.658 74.226 292.658 73.89C292.658 73.542 292.67 73.284 292.694 73.116C292.958 73.056 293.234 73.026 293.522 73.026C293.822 73.026 294.14 73.038 294.476 73.062C294.548 73.374 294.584 73.68 294.584 73.98C294.584 74.268 294.572 74.556 294.548 74.844ZM294.548 80.964C294.236 81.036 293.93 81.072 293.63 81.072C293.342 81.072 293.054 81.054 292.766 81.018C292.694 80.682 292.658 80.346 292.658 80.01C292.658 79.662 292.67 79.404 292.694 79.236C292.958 79.176 293.234 79.146 293.522 79.146C293.822 79.146 294.14 79.158 294.476 79.182C294.548 79.494 294.584 79.83 294.584 80.19C294.584 80.55 294.572 80.808 294.548 80.964Z" fill="white"/>
<rect x="76" y="117" width="206" height="49" rx="6" fill="#FFE7FF"/>
<circle cx="118" cy="141" r="21" fill="#BAD7DF"/>
<circle cx="179" cy="141" r="21" fill="#BAD7DF"/>
<circle cx="240" cy="141" r="21" fill="#BAD7DF"/>
<rect x="103" y="219" width="151" height="36" rx="6" fill="#FFE7FF"/>
<circle cx="133.5" cy="236.5" r="15" fill="black" stroke="black"/>
<circle cx="178.5" cy="236.5" r="15" fill="black" stroke="black"/>
<circle cx="223.5" cy="236.5" r="15.5" fill="#BAD7DF"/>
<circle cx="248.5" cy="452.5" r="7.5" fill="#BAD7DF"/>
<rect x="103" y="400" width="151" height="36" rx="6" fill="#FFE7FF"/>
<circle cx="133.5" cy="417.5" r="15.5" fill="#BAD7DF"/>
<path d="M130.24 23.7L130.18 26.64L131.86 26.8C131.86 27.1733 131.747 27.5733 131.52 28H126.92L126.86 27.3C127.487 27.0867 128.1 26.9267 128.7 26.82C128.567 21.6467 128.46 17.7667 128.38 15.18C127.887 15.0867 127.293 14.9267 126.6 14.7L126.66 14H131.66C131.887 14.4267 132 14.8267 132 15.2C131.333 15.2533 130.8 15.28 130.4 15.28C130.373 16.6667 130.347 17.92 130.32 19.04C130.307 20.16 130.293 20.9467 130.28 21.4L135.06 15.36L133.46 15.2C133.46 14.8267 133.573 14.4267 133.8 14H138.88L138.94 14.88C138.327 15.0933 137.727 15.2533 137.14 15.36L133.2 20.1L137.8 26.64L139.48 26.8C139.48 27.1733 139.367 27.5733 139.14 28H136.64L132.1 21.46L130.24 23.7ZM143.068 14.42C143.308 14.34 143.961 14.2533 145.028 14.16C146.094 14.0533 147.061 14 147.928 14C148.808 14 149.488 14.04 149.968 14.12C149.981 14.1733 149.988 14.24 149.988 14.32C149.988 14.3867 149.948 14.5533 149.868 14.82C149.801 15.0867 149.748 15.26 149.708 15.34C149.601 15.4467 149.301 15.5267 148.808 15.58L152.628 26.64L154.528 26.8C154.528 27.1733 154.414 27.5733 154.188 28H149.588L149.528 27.3C149.834 27.14 150.281 27 150.868 26.88L149.848 24.02H144.268L143.328 26.64L144.948 26.8C144.948 27.1733 144.834 27.5733 144.608 28H140.008L139.948 27.3C140.468 27.1133 141.021 26.9667 141.608 26.86L145.488 15.52C144.301 15.3867 143.468 15.2267 142.988 15.04L143.068 14.42ZM148.268 19.56L147.208 15.64C147.128 15.6267 147.014 15.62 146.868 15.62L145.788 19.7L144.628 22.74H149.488L148.268 19.56ZM165.613 24.86C165.653 24.94 165.706 25.2467 165.773 25.78C165.853 26.3133 165.893 26.7667 165.893 27.14C165.893 27.5 165.873 27.7867 165.833 28H156.333L156.273 27.3C156.899 27.0733 157.466 26.92 157.973 26.84C157.893 21.5867 157.826 17.7133 157.773 15.22C157.426 15.1667 156.839 15.0067 156.013 14.74L156.113 14H160.933C161.159 14.3733 161.273 14.7667 161.273 15.18C160.553 15.2067 160.033 15.2267 159.713 15.24C159.686 17.8 159.659 20.1333 159.633 22.24C159.619 24.3333 159.606 25.8067 159.593 26.66H163.973L164.453 24.76C165.119 24.76 165.506 24.7933 165.613 24.86ZM171.349 15.28L171.149 26.64L172.829 26.8C172.829 27.1733 172.715 27.5733 172.489 28H167.889L167.829 27.3C168.442 27.0867 169.049 26.9267 169.649 26.82C169.622 25.9533 169.575 24.1667 169.509 21.46C169.455 18.7533 169.409 16.66 169.369 15.18C168.835 15.0733 168.235 14.9133 167.569 14.7L167.629 14H172.629C172.855 14.4267 172.969 14.8267 172.969 15.2C172.289 15.2533 171.749 15.28 171.349 15.28ZM181.346 15.24C181.28 17.48 181.206 21.28 181.126 26.64L182.806 26.8C182.806 27.1733 182.693 27.5733 182.466 28H177.866L177.806 27.3C178.58 27.02 179.193 26.86 179.646 26.82C179.513 21.6733 179.406 17.8133 179.326 15.24H176.406L175.926 17.28L174.766 17.2C174.566 16.3867 174.466 15.56 174.466 14.72C174.466 14.56 174.48 14.32 174.506 14H186.026C186.053 14.1733 186.066 14.44 186.066 14.8C186.066 15.52 185.973 16.3067 185.786 17.16C185.493 17.24 185.106 17.28 184.626 17.28L184.126 15.24H181.346ZM191.368 15.28L191.168 26.64L192.848 26.8C192.848 27.1733 192.735 27.5733 192.508 28H187.908L187.848 27.3C188.462 27.0867 189.068 26.9267 189.668 26.82C189.642 25.9533 189.595 24.1667 189.528 21.46C189.475 18.7533 189.428 16.66 189.388 15.18C188.855 15.0733 188.255 14.9133 187.588 14.7L187.648 14H192.648C192.875 14.4267 192.988 14.8267 192.988 15.2C192.308 15.2533 191.768 15.28 191.368 15.28ZM209.306 15.38L211.406 26.64L213.226 26.82C213.226 27.18 213.113 27.5733 212.886 28H208.286L208.226 27.3C208.626 27.1267 209.119 26.9867 209.706 26.88L207.566 15.66L204.926 27.04H202.946L199.306 15.62L197.686 26.64L199.386 26.8C199.386 27.1733 199.273 27.5733 199.046 28H194.446L194.386 27.3C194.973 27.0867 195.559 26.9267 196.146 26.82L197.906 15.22C197.093 15.1 196.446 14.96 195.966 14.8L196.046 14H200.706L203.886 24.96H203.966L206.446 14H210.906C211.133 14.4267 211.246 14.84 211.246 15.24C210.379 15.3333 209.733 15.38 209.306 15.38Z" fill="black"/>
<circle cx="181.5" cy="417.5" r="15.5" fill="#BAD7DF"/>
<circle cx="223.5" cy="417.5" r="15.5" fill="#BAD7DF"/>
<rect x="103" y="340" width="151" height="36" rx="6" fill="#FFE7FF"/>
<circle cx="133.5" cy="357.5" r="15.5" fill="#BAD7DF"/>
<circle cx="181.5" cy="357.5" r="15" fill="black" stroke="black"/>
<circle cx="223.5" cy="357.5" r="15" fill="black" stroke="black"/>
<rect x="103" y="278" width="151" height="36" rx="6" fill="#FFE7FF"/>
<circle cx="133.5" cy="295.5" r="15" fill="black" stroke="black"/>
<circle cx="19.5" cy="452.5" r="7" fill="black" stroke="black"/>
<circle cx="178.5" cy="295.5" r="15.5" fill="#BAD7DF"/>
<circle cx="223.5" cy="295.5" r="15" fill="black" stroke="black"/>
<path d="M117.5 183L120.387 178H114.613L117.5 183ZM117 162V178.5H118V162H117Z" fill="black"/>
<path d="M179.5 183L182.387 178H176.613L179.5 183ZM179 162V178.5H180V162H179Z" fill="black"/>
<path d="M240.5 183L243.387 178H237.613L240.5 183ZM240 162V178.5H241V162H240Z" fill="black"/>
<path d="M96.415 190.815C96.595 190.755 97.085 190.69 97.885 190.62C98.685 190.54 99.41 190.5 100.06 190.5C100.72 190.5 101.23 190.53 101.59 190.59C101.6 190.63 101.605 190.68 101.605 190.74C101.605 190.79 101.575 190.915 101.515 191.115C101.465 191.315 101.425 191.445 101.395 191.505C101.315 191.585 101.09 191.645 100.72 191.685L103.585 199.98L105.01 200.1C105.01 200.38 104.925 200.68 104.755 201H101.305L101.26 200.475C101.49 200.355 101.825 200.25 102.265 200.16L101.5 198.015H97.315L96.61 199.98L97.825 200.1C97.825 200.38 97.74 200.68 97.57 201H94.12L94.075 200.475C94.465 200.335 94.88 200.225 95.32 200.145L98.23 191.64C97.34 191.54 96.715 191.42 96.355 191.28L96.415 190.815ZM100.315 194.67L99.52 191.73C99.46 191.72 99.375 191.715 99.265 191.715L98.455 194.775L97.585 197.055H101.23L100.315 194.67ZM110.309 193.2C111.269 193.2 111.964 193.44 112.394 193.92C112.824 194.39 113.039 195.11 113.039 196.08C113.039 196.36 112.999 197.66 112.919 199.98L114.179 200.1C114.179 200.38 114.094 200.68 113.924 201H110.474L110.429 200.475C110.889 200.315 111.339 200.195 111.779 200.115C111.719 197.495 111.664 196.04 111.614 195.75C111.574 195.45 111.504 195.19 111.404 194.97C111.304 194.75 111.154 194.595 110.954 194.505C110.754 194.415 110.489 194.37 110.159 194.37C109.499 194.37 108.859 194.53 108.239 194.85C108.179 197.13 108.139 198.84 108.119 199.98L109.379 200.1C109.379 200.38 109.294 200.68 109.124 201H105.674L105.629 200.475C106.089 200.315 106.539 200.195 106.979 200.115C106.919 197.575 106.869 195.695 106.829 194.475C106.279 194.445 105.839 194.385 105.509 194.295L105.569 193.515C106.109 193.365 106.894 193.29 107.924 193.29C108.044 193.47 108.134 193.73 108.194 194.07C108.624 193.84 109.054 193.64 109.484 193.47C109.924 193.29 110.199 193.2 110.309 193.2ZM115.982 200.07L115.862 194.415H114.707L114.662 193.89C114.762 193.82 115.052 193.69 115.532 193.5L116.762 191.58C116.962 191.6 117.117 191.65 117.227 191.73L117.212 193.38C117.962 193.38 118.577 193.43 119.057 193.53C119.057 193.8 118.972 194.095 118.802 194.415H117.182C117.162 195.615 117.142 197.435 117.122 199.875C117.682 199.905 118.242 200.005 118.802 200.175L118.787 200.7C118.647 200.79 118.287 200.895 117.707 201.015C117.137 201.135 116.667 201.195 116.297 201.195C116.247 201.115 116.182 200.945 116.102 200.685C116.022 200.415 115.982 200.21 115.982 200.07ZM122.787 191.955C122.527 192.015 122.272 192.045 122.022 192.045C121.782 192.045 121.542 192.03 121.302 192C121.242 191.72 121.212 191.44 121.212 191.16C121.212 190.87 121.222 190.655 121.242 190.515C121.462 190.465 121.692 190.44 121.932 190.44C122.182 190.44 122.447 190.45 122.727 190.47C122.787 190.73 122.817 190.985 122.817 191.235C122.817 191.475 122.807 191.715 122.787 191.955ZM120.057 193.53C120.907 193.38 121.567 193.305 122.037 193.305C122.507 193.305 122.807 193.315 122.937 193.335C122.937 193.575 122.907 193.84 122.847 194.13C122.787 194.42 122.752 194.56 122.742 194.55L122.607 199.98L123.867 200.1C123.867 200.38 123.782 200.68 123.612 201H120.162L120.117 200.475C120.577 200.315 121.027 200.195 121.467 200.115C121.407 197.615 121.357 195.74 121.317 194.49C120.737 194.49 120.297 194.43 119.997 194.31L120.057 193.53ZM128.361 196.77C128.381 196.93 128.391 197.065 128.391 197.175L128.361 197.7C127.841 197.75 127.351 197.775 126.891 197.775L124.881 197.7C124.861 197.63 124.851 197.5 124.851 197.31L124.881 196.77C125.401 196.72 125.891 196.695 126.351 196.695L128.361 196.77ZM131.483 190.815C131.663 190.755 132.153 190.69 132.953 190.62C133.753 190.54 134.478 190.5 135.128 190.5C135.788 190.5 136.298 190.53 136.658 190.59C136.668 190.63 136.673 190.68 136.673 190.74C136.673 190.79 136.643 190.915 136.583 191.115C136.533 191.315 136.493 191.445 136.463 191.505C136.383 191.585 136.158 191.645 135.788 191.685L138.653 199.98L140.078 200.1C140.078 200.38 139.993 200.68 139.823 201H136.373L136.328 200.475C136.558 200.355 136.893 200.25 137.333 200.16L136.568 198.015H132.383L131.678 199.98L132.893 200.1C132.893 200.38 132.808 200.68 132.638 201H129.188L129.143 200.475C129.533 200.335 129.948 200.225 130.388 200.145L133.298 191.64C132.408 191.54 131.783 191.42 131.423 191.28L131.483 190.815ZM135.383 194.67L134.588 191.73C134.528 191.72 134.443 191.715 134.333 191.715L133.523 194.775L132.653 197.055H136.298L135.383 194.67Z" fill="black"/>
<path d="M160.415 190.815C160.595 190.755 161.085 190.69 161.885 190.62C162.685 190.54 163.41 190.5 164.06 190.5C164.72 190.5 165.23 190.53 165.59 190.59C165.6 190.63 165.605 190.68 165.605 190.74C165.605 190.79 165.575 190.915 165.515 191.115C165.465 191.315 165.425 191.445 165.395 191.505C165.315 191.585 165.09 191.645 164.72 191.685L167.585 199.98L169.01 200.1C169.01 200.38 168.925 200.68 168.755 201H165.305L165.26 200.475C165.49 200.355 165.825 200.25 166.265 200.16L165.5 198.015H161.315L160.61 199.98L161.825 200.1C161.825 200.38 161.74 200.68 161.57 201H158.12L158.075 200.475C158.465 200.335 158.88 200.225 159.32 200.145L162.23 191.64C161.34 191.54 160.715 191.42 160.355 191.28L160.415 190.815ZM164.315 194.67L163.52 191.73C163.46 191.72 163.375 191.715 163.265 191.715L162.455 194.775L161.585 197.055H165.23L164.315 194.67ZM174.309 193.2C175.269 193.2 175.964 193.44 176.394 193.92C176.824 194.39 177.039 195.11 177.039 196.08C177.039 196.36 176.999 197.66 176.919 199.98L178.179 200.1C178.179 200.38 178.094 200.68 177.924 201H174.474L174.429 200.475C174.889 200.315 175.339 200.195 175.779 200.115C175.719 197.495 175.664 196.04 175.614 195.75C175.574 195.45 175.504 195.19 175.404 194.97C175.304 194.75 175.154 194.595 174.954 194.505C174.754 194.415 174.489 194.37 174.159 194.37C173.499 194.37 172.859 194.53 172.239 194.85C172.179 197.13 172.139 198.84 172.119 199.98L173.379 200.1C173.379 200.38 173.294 200.68 173.124 201H169.674L169.629 200.475C170.089 200.315 170.539 200.195 170.979 200.115C170.919 197.575 170.869 195.695 170.829 194.475C170.279 194.445 169.839 194.385 169.509 194.295L169.569 193.515C170.109 193.365 170.894 193.29 171.924 193.29C172.044 193.47 172.134 193.73 172.194 194.07C172.624 193.84 173.054 193.64 173.484 193.47C173.924 193.29 174.199 193.2 174.309 193.2ZM179.982 200.07L179.862 194.415H178.707L178.662 193.89C178.762 193.82 179.052 193.69 179.532 193.5L180.762 191.58C180.962 191.6 181.117 191.65 181.227 191.73L181.212 193.38C181.962 193.38 182.577 193.43 183.057 193.53C183.057 193.8 182.972 194.095 182.802 194.415H181.182C181.162 195.615 181.142 197.435 181.122 199.875C181.682 199.905 182.242 200.005 182.802 200.175L182.787 200.7C182.647 200.79 182.287 200.895 181.707 201.015C181.137 201.135 180.667 201.195 180.297 201.195C180.247 201.115 180.182 200.945 180.102 200.685C180.022 200.415 179.982 200.21 179.982 200.07ZM186.787 191.955C186.527 192.015 186.272 192.045 186.022 192.045C185.782 192.045 185.542 192.03 185.302 192C185.242 191.72 185.212 191.44 185.212 191.16C185.212 190.87 185.222 190.655 185.242 190.515C185.462 190.465 185.692 190.44 185.932 190.44C186.182 190.44 186.447 190.45 186.727 190.47C186.787 190.73 186.817 190.985 186.817 191.235C186.817 191.475 186.807 191.715 186.787 191.955ZM184.057 193.53C184.907 193.38 185.567 193.305 186.037 193.305C186.507 193.305 186.807 193.315 186.937 193.335C186.937 193.575 186.907 193.84 186.847 194.13C186.787 194.42 186.752 194.56 186.742 194.55L186.607 199.98L187.867 200.1C187.867 200.38 187.782 200.68 187.612 201H184.162L184.117 200.475C184.577 200.315 185.027 200.195 185.467 200.115C185.407 197.615 185.357 195.74 185.317 194.49C184.737 194.49 184.297 194.43 183.997 194.31L184.057 193.53ZM192.361 196.77C192.381 196.93 192.391 197.065 192.391 197.175L192.361 197.7C191.841 197.75 191.351 197.775 190.891 197.775L188.881 197.7C188.861 197.63 188.851 197.5 188.851 197.31L188.881 196.77C189.401 196.72 189.891 196.695 190.351 196.695L192.361 196.77ZM199.563 195.525C200.143 195.595 200.653 195.865 201.093 196.335C201.543 196.805 201.768 197.465 201.768 198.315C201.768 199.155 201.433 199.815 200.763 200.295C200.103 200.765 199.133 201 197.853 201H193.743L193.698 200.475C194.118 200.305 194.548 200.185 194.988 200.115C194.928 196.255 194.878 193.36 194.838 191.43C194.498 191.37 194.058 191.25 193.518 191.07C193.548 190.7 193.573 190.51 193.593 190.5H197.358C198.698 190.5 199.608 190.615 200.088 190.845C200.318 190.955 200.548 191.1 200.778 191.28C201.238 191.64 201.468 192.235 201.468 193.065C201.468 193.485 201.393 193.865 201.243 194.205C201.103 194.535 200.918 194.79 200.688 194.97C200.268 195.3 199.893 195.485 199.563 195.525ZM197.928 196.17H196.263C196.243 197.03 196.223 198.3 196.203 199.98H197.793C199.453 199.98 200.283 199.36 200.283 198.12C200.283 197.4 200.088 196.895 199.698 196.605C199.318 196.315 198.728 196.17 197.928 196.17ZM197.208 191.55L196.308 191.565C196.288 192.485 196.278 193.68 196.278 195.15H197.748C198.628 195.15 199.213 194.985 199.503 194.655C199.803 194.315 199.953 193.78 199.953 193.05C199.953 192.05 199.038 191.55 197.208 191.55Z" fill="black"/>
<path d="M224.415 190.815C224.595 190.755 225.085 190.69 225.885 190.62C226.685 190.54 227.41 190.5 228.06 190.5C228.72 190.5 229.23 190.53 229.59 190.59C229.6 190.63 229.605 190.68 229.605 190.74C229.605 190.79 229.575 190.915 229.515 191.115C229.465 191.315 229.425 191.445 229.395 191.505C229.315 191.585 229.09 191.645 228.72 191.685L231.585 199.98L233.01 200.1C233.01 200.38 232.925 200.68 232.755 201H229.305L229.26 200.475C229.49 200.355 229.825 200.25 230.265 200.16L229.5 198.015H225.315L224.61 199.98L225.825 200.1C225.825 200.38 225.74 200.68 225.57 201H222.12L222.075 200.475C222.465 200.335 222.88 200.225 223.32 200.145L226.23 191.64C225.34 191.54 224.715 191.42 224.355 191.28L224.415 190.815ZM228.315 194.67L227.52 191.73C227.46 191.72 227.375 191.715 227.265 191.715L226.455 194.775L225.585 197.055H229.23L228.315 194.67ZM238.309 193.2C239.269 193.2 239.964 193.44 240.394 193.92C240.824 194.39 241.039 195.11 241.039 196.08C241.039 196.36 240.999 197.66 240.919 199.98L242.179 200.1C242.179 200.38 242.094 200.68 241.924 201H238.474L238.429 200.475C238.889 200.315 239.339 200.195 239.779 200.115C239.719 197.495 239.664 196.04 239.614 195.75C239.574 195.45 239.504 195.19 239.404 194.97C239.304 194.75 239.154 194.595 238.954 194.505C238.754 194.415 238.489 194.37 238.159 194.37C237.499 194.37 236.859 194.53 236.239 194.85C236.179 197.13 236.139 198.84 236.119 199.98L237.379 200.1C237.379 200.38 237.294 200.68 237.124 201H233.674L233.629 200.475C234.089 200.315 234.539 200.195 234.979 200.115C234.919 197.575 234.869 195.695 234.829 194.475C234.279 194.445 233.839 194.385 233.509 194.295L233.569 193.515C234.109 193.365 234.894 193.29 235.924 193.29C236.044 193.47 236.134 193.73 236.194 194.07C236.624 193.84 237.054 193.64 237.484 193.47C237.924 193.29 238.199 193.2 238.309 193.2ZM243.982 200.07L243.862 194.415H242.707L242.662 193.89C242.762 193.82 243.052 193.69 243.532 193.5L244.762 191.58C244.962 191.6 245.117 191.65 245.227 191.73L245.212 193.38C245.962 193.38 246.577 193.43 247.057 193.53C247.057 193.8 246.972 194.095 246.802 194.415H245.182C245.162 195.615 245.142 197.435 245.122 199.875C245.682 199.905 246.242 200.005 246.802 200.175L246.787 200.7C246.647 200.79 246.287 200.895 245.707 201.015C245.137 201.135 244.667 201.195 244.297 201.195C244.247 201.115 244.182 200.945 244.102 200.685C244.022 200.415 243.982 200.21 243.982 200.07ZM250.787 191.955C250.527 192.015 250.272 192.045 250.022 192.045C249.782 192.045 249.542 192.03 249.302 192C249.242 191.72 249.212 191.44 249.212 191.16C249.212 190.87 249.222 190.655 249.242 190.515C249.462 190.465 249.692 190.44 249.932 190.44C250.182 190.44 250.447 190.45 250.727 190.47C250.787 190.73 250.817 190.985 250.817 191.235C250.817 191.475 250.807 191.715 250.787 191.955ZM248.057 193.53C248.907 193.38 249.567 193.305 250.037 193.305C250.507 193.305 250.807 193.315 250.937 193.335C250.937 193.575 250.907 193.84 250.847 194.13C250.787 194.42 250.752 194.56 250.742 194.55L250.607 199.98L251.867 200.1C251.867 200.38 251.782 200.68 251.612 201H248.162L248.117 200.475C248.577 200.315 249.027 200.195 249.467 200.115C249.407 197.615 249.357 195.74 249.317 194.49C248.737 194.49 248.297 194.43 247.997 194.31L248.057 193.53ZM256.361 196.77C256.381 196.93 256.391 197.065 256.391 197.175L256.361 197.7C255.841 197.75 255.351 197.775 254.891 197.775L252.881 197.7C252.861 197.63 252.851 197.5 252.851 197.31L252.881 196.77C253.401 196.72 253.891 196.695 254.351 196.695L256.361 196.77ZM266.473 195.51C266.473 197.77 265.958 199.305 264.928 200.115C264.498 200.455 264.033 200.69 263.533 200.82C263.033 200.94 262.378 201 261.568 201H257.758L257.713 200.475C257.753 200.445 257.958 200.38 258.328 200.28C258.698 200.18 258.918 200.13 258.988 200.13C258.928 196.23 258.878 193.33 258.838 191.43C258.388 191.37 257.948 191.25 257.518 191.07C257.538 190.73 257.563 190.54 257.593 190.5H261.373C262.413 190.5 263.233 190.595 263.833 190.785C264.443 190.975 264.973 191.325 265.423 191.835C266.123 192.605 266.473 193.83 266.473 195.51ZM265.018 195.63C265.018 194.28 264.763 193.265 264.253 192.585C263.753 191.895 262.908 191.55 261.718 191.55H260.188C260.148 193.39 260.098 196.2 260.038 199.98H261.613C262.983 199.98 263.893 199.675 264.343 199.065C264.793 198.445 265.018 197.3 265.018 195.63Z" fill="black"/>
<path d="M161.254 320.494C161.422 320.438 161.879 320.377 162.626 320.312C163.373 320.237 164.049 320.2 164.656 320.2C165.272 320.2 165.748 320.228 166.084 320.284C166.093 320.321 166.098 320.368 166.098 320.424C166.098 320.471 166.07 320.587 166.014 320.774C165.967 320.961 165.93 321.082 165.902 321.138C165.827 321.213 165.617 321.269 165.272 321.306L167.946 329.048L169.276 329.16C169.276 329.421 169.197 329.701 169.038 330H165.818L165.776 329.51C165.991 329.398 166.303 329.3 166.714 329.216L166 327.214H162.094L161.436 329.048L162.57 329.16C162.57 329.421 162.491 329.701 162.332 330H159.112L159.07 329.51C159.434 329.379 159.821 329.277 160.232 329.202L162.948 321.264C162.117 321.171 161.534 321.059 161.198 320.928L161.254 320.494ZM164.894 324.092L164.152 321.348C164.096 321.339 164.017 321.334 163.914 321.334L163.158 324.19L162.346 326.318H165.748L164.894 324.092ZM178.362 321.32C178.064 321.227 177.667 321.18 177.172 321.18H176.01L175.968 324.708L177.032 324.694C177.723 324.685 178.274 324.545 178.684 324.274C179.095 324.003 179.3 323.49 179.3 322.734C179.3 321.969 178.988 321.497 178.362 321.32ZM175.954 325.604L175.912 329.062L177.074 329.16C177.074 329.421 176.995 329.701 176.836 330H173.616L173.574 329.51C173.966 329.37 174.368 329.263 174.778 329.188C174.722 325.641 174.676 322.935 174.638 321.068C174.377 321.031 173.966 320.919 173.406 320.732C173.406 320.611 173.43 320.433 173.476 320.2H176.626C178.334 320.2 179.445 320.41 179.958 320.83C180.462 321.231 180.714 321.861 180.714 322.72C180.714 324.167 179.921 325.105 178.334 325.534L180.728 329.076L181.89 329.174C181.89 329.426 181.811 329.701 181.652 330H179.93L176.99 325.604H175.954ZM184.638 319.598C184.927 319.598 185.132 319.607 185.254 319.626C185.254 319.794 185.226 320.013 185.17 320.284C185.123 320.545 185.09 320.699 185.072 320.746C185.072 320.951 185.062 321.376 185.044 322.02C185.025 322.664 185.016 323.163 185.016 323.518C185.417 323.303 185.814 323.117 186.206 322.958C186.607 322.799 186.859 322.72 186.962 322.72C187.858 322.72 188.506 322.944 188.908 323.392C189.309 323.831 189.51 324.503 189.51 325.408C189.51 325.669 189.472 326.883 189.398 329.048L190.574 329.16C190.574 329.421 190.494 329.701 190.336 330H187.116L187.074 329.51C187.503 329.361 187.923 329.249 188.334 329.174C188.278 326.729 188.226 325.371 188.18 325.1C188.142 324.82 188.077 324.577 187.984 324.372C187.89 324.167 187.75 324.022 187.564 323.938C187.377 323.854 187.13 323.812 186.822 323.812C186.187 323.812 185.58 323.961 185.002 324.26L184.918 329.048L186.094 329.16C186.094 329.421 186.014 329.701 185.856 330H182.636L182.594 329.51C183.023 329.361 183.443 329.249 183.854 329.174L183.686 320.704C183.172 320.676 182.762 320.62 182.454 320.536L182.51 319.808C182.986 319.668 183.695 319.598 184.638 319.598ZM192.9 325.842L193.922 325.856L193.992 322.888C194.123 322.86 194.254 322.846 194.384 322.846L194.846 322.888C194.958 323.485 195.014 324.031 195.014 324.526C195.014 325.021 195.01 325.473 195 325.884L197.786 325.94C197.805 326.033 197.814 326.169 197.814 326.346L197.786 326.766C197.189 326.878 196.657 326.934 196.19 326.934C195.733 326.934 195.327 326.929 194.972 326.92L194.916 330C194.823 330.019 194.688 330.028 194.51 330.028L194.062 330C193.95 329.403 193.894 328.852 193.894 328.348C193.894 327.835 193.899 327.354 193.908 326.906L191.206 326.836C191.178 326.705 191.164 326.579 191.164 326.458L191.206 326.01C191.804 325.898 192.368 325.842 192.9 325.842Z" fill="black"/>
<path d="M166.062 384.89C166.603 384.955 167.079 385.207 167.49 385.646C167.91 386.085 168.12 386.701 168.12 387.494C168.12 388.278 167.807 388.894 167.182 389.342C166.566 389.781 165.661 390 164.466 390H160.63L160.588 389.51C160.98 389.351 161.381 389.239 161.792 389.174C161.736 385.571 161.689 382.869 161.652 381.068C161.335 381.012 160.924 380.9 160.42 380.732C160.448 380.387 160.471 380.209 160.49 380.2H164.004C165.255 380.2 166.104 380.307 166.552 380.522C166.767 380.625 166.981 380.76 167.196 380.928C167.625 381.264 167.84 381.819 167.84 382.594C167.84 382.986 167.77 383.341 167.63 383.658C167.499 383.966 167.327 384.204 167.112 384.372C166.72 384.68 166.37 384.853 166.062 384.89ZM164.536 385.492H162.982C162.963 386.295 162.945 387.48 162.926 389.048H164.41C165.959 389.048 166.734 388.469 166.734 387.312C166.734 386.64 166.552 386.169 166.188 385.898C165.833 385.627 165.283 385.492 164.536 385.492ZM163.864 381.18L163.024 381.194C163.005 382.053 162.996 383.168 162.996 384.54H164.368C165.189 384.54 165.735 384.386 166.006 384.078C166.286 383.761 166.426 383.261 166.426 382.58C166.426 381.647 165.572 381.18 163.864 381.18ZM177.831 381.32C177.532 381.227 177.136 381.18 176.641 381.18H175.479L175.437 384.708L176.501 384.694C177.192 384.685 177.742 384.545 178.153 384.274C178.564 384.003 178.769 383.49 178.769 382.734C178.769 381.969 178.456 381.497 177.831 381.32ZM175.423 385.604L175.381 389.062L176.543 389.16C176.543 389.421 176.464 389.701 176.305 390H173.085L173.043 389.51C173.435 389.37 173.836 389.263 174.247 389.188C174.191 385.641 174.144 382.935 174.107 381.068C173.846 381.031 173.435 380.919 172.875 380.732C172.875 380.611 172.898 380.433 172.945 380.2H176.095C177.803 380.2 178.914 380.41 179.427 380.83C179.931 381.231 180.183 381.861 180.183 382.72C180.183 384.167 179.39 385.105 177.803 385.534L180.197 389.076L181.359 389.174C181.359 389.426 181.28 389.701 181.121 390H179.399L176.459 385.604H175.423ZM184.107 379.598C184.396 379.598 184.601 379.607 184.723 379.626C184.723 379.794 184.695 380.013 184.639 380.284C184.592 380.545 184.559 380.699 184.541 380.746C184.541 380.951 184.531 381.376 184.513 382.02C184.494 382.664 184.485 383.163 184.485 383.518C184.886 383.303 185.283 383.117 185.675 382.958C186.076 382.799 186.328 382.72 186.431 382.72C187.327 382.72 187.975 382.944 188.377 383.392C188.778 383.831 188.979 384.503 188.979 385.408C188.979 385.669 188.941 386.883 188.867 389.048L190.043 389.16C190.043 389.421 189.963 389.701 189.805 390H186.585L186.543 389.51C186.972 389.361 187.392 389.249 187.803 389.174C187.747 386.729 187.695 385.371 187.649 385.1C187.611 384.82 187.546 384.577 187.453 384.372C187.359 384.167 187.219 384.022 187.033 383.938C186.846 383.854 186.599 383.812 186.291 383.812C185.656 383.812 185.049 383.961 184.471 384.26L184.387 389.048L185.563 389.16C185.563 389.421 185.483 389.701 185.325 390H182.105L182.063 389.51C182.492 389.361 182.912 389.249 183.323 389.174L183.155 380.704C182.641 380.676 182.231 380.62 181.923 380.536L181.979 379.808C182.455 379.668 183.164 379.598 184.107 379.598ZM192.369 385.842L193.391 385.856L193.461 382.888C193.592 382.86 193.723 382.846 193.853 382.846L194.315 382.888C194.427 383.485 194.483 384.031 194.483 384.526C194.483 385.021 194.479 385.473 194.469 385.884L197.255 385.94C197.274 386.033 197.283 386.169 197.283 386.346L197.255 386.766C196.658 386.878 196.126 386.934 195.659 386.934C195.202 386.934 194.796 386.929 194.441 386.92L194.385 390C194.292 390.019 194.157 390.028 193.979 390.028L193.531 390C193.419 389.403 193.363 388.852 193.363 388.348C193.363 387.835 193.368 387.354 193.377 386.906L190.675 386.836C190.647 386.705 190.633 386.579 190.633 386.458L190.675 386.01C191.273 385.898 191.837 385.842 192.369 385.842Z" fill="black"/>
<path d="M168.578 452.09C170.463 452.09 171.406 450.765 171.406 448.114C171.406 445.454 170.463 444.124 168.578 444.124C167.691 444.124 166.968 444.255 166.408 444.516C165.904 445.515 165.652 446.667 165.652 447.974C165.652 449.271 165.867 450.284 166.296 451.012C166.735 451.731 167.495 452.09 168.578 452.09ZM164.28 448.156C164.28 446.513 164.616 445.249 165.288 444.362C165.969 443.466 167.071 443.018 168.592 443.018C170.123 443.018 171.201 443.429 171.826 444.25C172.461 445.062 172.778 446.294 172.778 447.946C172.778 449.598 172.437 450.881 171.756 451.796C171.084 452.711 170.006 453.168 168.522 453.168C167.047 453.168 165.969 452.743 165.288 451.894C164.616 451.045 164.28 449.799 164.28 448.156ZM182.077 444.32C181.779 444.227 181.382 444.18 180.887 444.18H179.725L179.683 447.708L180.747 447.694C181.438 447.685 181.989 447.545 182.399 447.274C182.81 447.003 183.015 446.49 183.015 445.734C183.015 444.969 182.703 444.497 182.077 444.32ZM179.669 448.604L179.627 452.062L180.789 452.16C180.789 452.421 180.71 452.701 180.551 453H177.331L177.289 452.51C177.681 452.37 178.083 452.263 178.493 452.188C178.437 448.641 178.391 445.935 178.353 444.068C178.092 444.031 177.681 443.919 177.121 443.732C177.121 443.611 177.145 443.433 177.191 443.2H180.341C182.049 443.2 183.16 443.41 183.673 443.83C184.177 444.231 184.429 444.861 184.429 445.72C184.429 447.167 183.636 448.105 182.049 448.534L184.443 452.076L185.605 452.174C185.605 452.426 185.526 452.701 185.367 453H183.645L180.705 448.604H179.669ZM188.353 442.598C188.642 442.598 188.847 442.607 188.969 442.626C188.969 442.794 188.941 443.013 188.885 443.284C188.838 443.545 188.805 443.699 188.787 443.746C188.787 443.951 188.777 444.376 188.759 445.02C188.74 445.664 188.731 446.163 188.731 446.518C189.132 446.303 189.529 446.117 189.921 445.958C190.322 445.799 190.574 445.72 190.677 445.72C191.573 445.72 192.221 445.944 192.623 446.392C193.024 446.831 193.225 447.503 193.225 448.408C193.225 448.669 193.187 449.883 193.113 452.048L194.289 452.16C194.289 452.421 194.209 452.701 194.051 453H190.831L190.789 452.51C191.218 452.361 191.638 452.249 192.049 452.174C191.993 449.729 191.941 448.371 191.895 448.1C191.857 447.82 191.792 447.577 191.699 447.372C191.605 447.167 191.465 447.022 191.279 446.938C191.092 446.854 190.845 446.812 190.537 446.812C189.902 446.812 189.295 446.961 188.717 447.26L188.633 452.048L189.809 452.16C189.809 452.421 189.729 452.701 189.571 453H186.351L186.309 452.51C186.738 452.361 187.158 452.249 187.569 452.174L187.401 443.704C186.887 443.676 186.477 443.62 186.169 443.536L186.225 442.808C186.701 442.668 187.41 442.598 188.353 442.598ZM198.449 449.052C198.468 449.201 198.477 449.327 198.477 449.43L198.449 449.92C197.964 449.967 197.507 449.99 197.077 449.99L195.201 449.92C195.183 449.855 195.173 449.733 195.173 449.556L195.201 449.052C195.687 449.005 196.144 448.982 196.573 448.982L198.449 449.052Z" fill="black"/>
<path d="M30.052 452.896C29.844 452.944 29.64 452.968 29.44 452.968C29.248 452.968 29.056 452.956 28.864 452.932C28.816 452.708 28.792 452.484 28.792 452.26C28.792 452.028 28.8 451.856 28.816 451.744C28.992 451.704 29.176 451.684 29.368 451.684C29.568 451.684 29.78 451.692 30.004 451.708C30.052 451.916 30.076 452.12 30.076 452.32C30.076 452.512 30.068 452.704 30.052 452.896ZM30.052 456.976C29.844 457.024 29.64 457.048 29.44 457.048C29.248 457.048 29.056 457.036 28.864 457.012C28.816 456.788 28.792 456.564 28.792 456.34C28.792 456.108 28.8 455.936 28.816 455.824C28.992 455.784 29.176 455.764 29.368 455.764C29.568 455.764 29.78 455.772 30.004 455.788C30.052 455.996 30.076 456.22 30.076 456.46C30.076 456.7 30.068 456.872 30.052 456.976ZM37.7446 457.156C35.3926 457.156 34.2166 455.68 34.2166 452.728C34.2166 451.328 34.5006 450.264 35.0686 449.536C35.6446 448.808 36.5606 448.444 37.8166 448.444C38.8246 448.444 39.7206 448.724 40.5046 449.284C40.5046 449.732 40.4486 450.3 40.3366 450.988C40.2246 451.012 39.9926 451.024 39.6406 451.024L39.2806 449.536C38.7126 449.432 38.2566 449.38 37.9126 449.38C37.2806 449.38 36.7246 449.468 36.2446 449.644L36.0166 449.728C35.9686 449.808 35.9086 449.928 35.8366 450.088C35.7646 450.24 35.6686 450.564 35.5486 451.06C35.4366 451.556 35.3806 452.064 35.3806 452.584C35.3806 453.712 35.5646 454.608 35.9326 455.272C36.3086 455.936 36.9046 456.268 37.7206 456.268C38.3046 456.268 38.7446 456.208 39.0406 456.088C39.1206 456.048 39.2366 455.988 39.3886 455.908L39.6406 454.468L40.3366 454.504C40.4566 455.328 40.5166 455.996 40.5166 456.508C40.3486 456.636 39.9846 456.776 39.4246 456.928C38.8726 457.08 38.3126 457.156 37.7446 457.156ZM37.8886 458.476C37.8886 458.324 37.6406 458.16 37.1446 457.984C37.1446 457.776 37.2846 457.36 37.5646 456.736C37.6126 456.712 37.6766 456.7 37.7566 456.7C37.8446 456.7 37.9206 456.712 37.9846 456.736C37.8566 457.168 37.7606 457.464 37.6966 457.624C38.3366 457.896 38.6566 458.144 38.6566 458.368C38.6566 458.6 38.5446 458.84 38.3206 459.088C38.1046 459.344 37.8566 459.52 37.5766 459.616L37.4446 459.46C37.4766 459.372 37.5286 459.256 37.6006 459.112C37.7926 458.744 37.8886 458.532 37.8886 458.476ZM43.9104 449.728C43.7504 449.76 43.5784 449.776 43.3944 449.776C43.2184 449.776 43.0744 449.768 42.9624 449.752C42.9224 449.608 42.9024 449.464 42.9024 449.32C42.9024 449.168 42.9104 448.996 42.9264 448.804C43.0464 448.78 43.2104 448.768 43.4184 448.768C43.6264 448.768 43.7784 448.772 43.8744 448.78C43.9064 448.956 43.9224 449.14 43.9224 449.332C43.9224 449.516 43.9184 449.648 43.9104 449.728ZM45.8904 449.728C45.7304 449.76 45.5584 449.776 45.3744 449.776C45.1984 449.776 45.0544 449.768 44.9424 449.752C44.9024 449.608 44.8824 449.464 44.8824 449.32C44.8824 449.168 44.8904 448.996 44.9064 448.804C45.0264 448.78 45.1904 448.768 45.3984 448.768C45.6064 448.768 45.7584 448.772 45.8544 448.78C45.8864 448.956 45.9024 449.14 45.9024 449.332C45.9024 449.516 45.8984 449.648 45.8904 449.728ZM44.2704 456.424C44.9424 456.424 45.3944 456.216 45.6264 455.8C45.8664 455.376 45.9864 454.776 45.9864 454C45.9864 452.768 45.7144 451.996 45.1704 451.684C44.9464 451.556 44.6304 451.492 44.2224 451.492C43.8224 451.492 43.4424 451.576 43.0824 451.744C42.7624 452.36 42.6024 453.076 42.6024 453.892C42.6024 454.676 42.7064 455.28 42.9144 455.704C43.1544 456.184 43.6064 456.424 44.2704 456.424ZM41.4984 454C41.4984 452.984 41.7304 452.192 42.1944 451.624C42.6584 451.048 43.3744 450.76 44.3424 450.76C45.3104 450.76 46.0104 451.024 46.4424 451.552C46.8744 452.072 47.0904 452.844 47.0904 453.868C47.0904 454.892 46.8584 455.696 46.3944 456.28C45.9384 456.864 45.2424 457.156 44.3064 457.156C43.3704 457.156 42.6664 456.884 42.1944 456.34C41.7304 455.796 41.4984 455.016 41.4984 454ZM49.5754 448.012C49.8234 448.012 49.9994 448.02 50.1034 448.036C50.1034 448.284 50.0514 448.604 49.9474 448.996C49.8994 451.108 49.8754 452.704 49.8754 453.784L51.8074 451.72L50.8474 451.624C50.8474 451.4 50.9154 451.16 51.0514 450.904H54.0994L54.1354 451.432C53.9514 451.504 53.6154 451.596 53.1274 451.708L51.4834 453.196L53.5114 456.184L54.5194 456.28C54.5194 456.504 54.4514 456.744 54.3154 457H52.6714L50.7994 453.808L49.8634 454.66C49.8474 455.332 49.8394 455.84 49.8394 456.184L50.8474 456.28C50.8474 456.504 50.7794 456.744 50.6434 457H47.8834L47.8474 456.58C48.2154 456.452 48.5754 456.356 48.9274 456.292C48.8794 453.06 48.8394 450.616 48.8074 448.96C48.3674 448.936 48.0154 448.888 47.7514 448.816L47.7994 448.192C48.2074 448.072 48.7994 448.012 49.5754 448.012ZM58.0933 456.328C58.4453 456.328 58.9973 456.16 59.7493 455.824C59.9013 456.032 59.9813 456.216 59.9893 456.376C59.5813 456.616 59.1813 456.804 58.7893 456.94C58.3973 457.076 58.1173 457.144 57.9493 457.144C57.0213 457.144 56.3133 456.868 55.8253 456.316C55.3373 455.756 55.0933 454.976 55.0933 453.976C55.0933 452.976 55.3293 452.192 55.8013 451.624C56.2813 451.048 56.9973 450.76 57.9493 450.76C58.6853 450.76 59.2453 451.024 59.6293 451.552C60.0213 452.08 60.2173 452.788 60.2173 453.676C60.1533 453.788 60.1013 453.864 60.0613 453.904L56.1973 453.844C56.2053 454.652 56.3453 455.268 56.6173 455.692C56.8973 456.116 57.3893 456.328 58.0933 456.328ZM59.1253 453.16C59.1253 452.632 59.0293 452.224 58.8373 451.936C58.6453 451.64 58.3253 451.492 57.8773 451.492C57.4293 451.492 57.0293 451.576 56.6773 451.744C56.4373 452.224 56.2853 452.716 56.2213 453.22C56.8533 453.212 57.8213 453.192 59.1253 453.16ZM62.8059 448.084C63.0539 448.084 63.2299 448.092 63.3339 448.108C63.3339 448.388 63.2819 448.708 63.1779 449.068C63.1059 453.788 63.0699 456.16 63.0699 456.184L64.0779 456.28C64.0779 456.504 64.0099 456.744 63.8739 457H61.1139L61.0779 456.58C61.4459 456.452 61.8059 456.356 62.1579 456.292L62.0379 449.032C61.5979 449.008 61.2459 448.96 60.9819 448.888L61.0299 448.264C61.4379 448.144 62.0299 448.084 62.8059 448.084ZM70.545 452.104C70.577 452.36 70.593 452.656 70.593 452.992C70.593 453.328 70.561 454.392 70.497 456.184L71.505 456.28C71.505 456.504 71.437 456.744 71.301 457H68.541L68.505 456.58C68.873 456.452 69.233 456.356 69.585 456.292C69.537 454.164 69.493 452.98 69.453 452.74C69.421 452.5 69.365 452.3 69.285 452.14C69.205 451.972 69.081 451.856 68.913 451.792C68.745 451.728 68.489 451.696 68.145 451.696C67.809 451.696 67.365 451.824 66.813 452.08C66.765 453.904 66.733 455.272 66.717 456.184L67.725 456.28C67.725 456.504 67.657 456.744 67.521 457H64.761L64.725 456.58C65.093 456.452 65.453 456.356 65.805 456.292C65.797 455.716 65.777 454.904 65.745 453.856C65.713 452.8 65.693 452.108 65.685 451.78C65.245 451.756 64.893 451.708 64.629 451.636L64.677 451.012C65.109 450.892 65.737 450.832 66.561 450.832C66.673 451.032 66.745 451.24 66.777 451.456C67.129 451.272 67.477 451.112 67.821 450.976C68.165 450.832 68.381 450.76 68.469 450.76C69.357 450.76 69.977 451.032 70.329 451.576C70.697 451.376 71.077 451.192 71.469 451.024C71.869 450.848 72.109 450.76 72.189 450.76C72.917 450.76 73.461 450.94 73.821 451.3C74.189 451.652 74.373 452.232 74.373 453.04C74.373 453.28 74.341 454.328 74.277 456.184L75.285 456.28C75.285 456.504 75.217 456.744 75.081 457H72.321L72.285 456.58C72.653 456.452 73.013 456.356 73.365 456.292C73.333 455.028 73.305 454.072 73.281 453.424C73.257 452.776 73.165 452.328 73.005 452.08C72.845 451.824 72.525 451.696 72.045 451.696C71.565 451.696 71.065 451.832 70.545 452.104ZM78.8823 456.328C79.2343 456.328 79.7863 456.16 80.5383 455.824C80.6903 456.032 80.7703 456.216 80.7783 456.376C80.3703 456.616 79.9703 456.804 79.5783 456.94C79.1863 457.076 78.9063 457.144 78.7383 457.144C77.8103 457.144 77.1023 456.868 76.6143 456.316C76.1263 455.756 75.8823 454.976 75.8823 453.976C75.8823 452.976 76.1183 452.192 76.5903 451.624C77.0703 451.048 77.7863 450.76 78.7383 450.76C79.4743 450.76 80.0343 451.024 80.4183 451.552C80.8103 452.08 81.0063 452.788 81.0063 453.676C80.9423 453.788 80.8903 453.864 80.8503 453.904L76.9863 453.844C76.9943 454.652 77.1343 455.268 77.4063 455.692C77.6863 456.116 78.1783 456.328 78.8823 456.328ZM79.9143 453.16C79.9143 452.632 79.8183 452.224 79.6263 451.936C79.4343 451.64 79.1143 451.492 78.6663 451.492C78.2183 451.492 77.8183 451.576 77.4663 451.744C77.2263 452.224 77.0743 452.716 77.0103 453.22C77.6423 453.212 78.6103 453.192 79.9143 453.16ZM90.9362 451.708L88.5962 457H87.7442L85.5482 451.72L84.5402 451.624C84.5402 451.4 84.6082 451.16 84.7442 450.904H87.6482L87.6842 451.324C87.4282 451.436 87.1442 451.524 86.8322 451.588L87.9122 454.864L88.1882 455.92H88.3322L88.6322 454.852L89.7482 451.588L88.7402 451.324L88.7762 450.904H91.7162C91.8522 451.16 91.9202 451.4 91.9202 451.624C91.5922 451.664 91.2642 451.692 90.9362 451.708ZM96.9943 453.076L96.9343 456.172C97.2783 456.196 97.6223 456.252 97.9663 456.34L97.9423 456.76C97.8143 456.824 97.5823 456.896 97.2463 456.976C96.9183 457.048 96.5943 457.084 96.2743 457.084C96.1303 456.796 96.0503 456.52 96.0343 456.256C95.1223 456.856 94.4823 457.156 94.1143 457.156C93.5463 457.156 93.0903 457.004 92.7463 456.7C92.4023 456.396 92.2303 455.972 92.2303 455.428C92.2303 454.172 92.9983 453.524 94.5343 453.484C95.4303 453.46 95.8823 453.448 95.8903 453.448L95.8783 453.04C95.8623 452.488 95.7583 452.092 95.5663 451.852C95.3743 451.604 95.0303 451.48 94.5343 451.48C94.3263 451.48 94.1023 451.528 93.8623 451.624L93.5743 452.824C93.5343 452.832 93.4663 452.836 93.3703 452.836L92.8783 452.8C92.7503 452.456 92.6823 451.98 92.6743 451.372C92.8263 451.292 93.1743 451.172 93.7183 451.012C94.2623 450.844 94.6103 450.76 94.7623 450.76C95.5783 450.76 96.1543 450.94 96.4903 451.3C96.8263 451.66 96.9943 452.252 96.9943 453.076ZM94.3783 456.34C94.6103 456.34 95.1463 456.08 95.9863 455.56L95.9263 454.06C95.3823 454.108 94.9263 454.152 94.5583 454.192C94.1903 454.232 93.8943 454.34 93.6703 454.516C93.4463 454.684 93.3343 454.952 93.3343 455.32C93.3343 456 93.6823 456.34 94.3783 456.34ZM102.323 451.768C102.283 451.728 102.195 451.708 102.059 451.708C101.923 451.708 101.719 451.756 101.447 451.852C101.183 451.948 100.943 452.06 100.727 452.188C100.679 453.964 100.647 455.296 100.631 456.184L101.639 456.28C101.639 456.504 101.571 456.744 101.435 457H98.675L98.639 456.58C99.007 456.452 99.367 456.356 99.719 456.292C99.671 454.26 99.631 452.756 99.599 451.78C99.159 451.756 98.807 451.708 98.543 451.636L98.591 451.012C99.015 450.892 99.643 450.832 100.475 450.832C100.603 451.032 100.683 451.288 100.715 451.6C101.635 451.04 102.183 450.76 102.359 450.76C102.535 450.76 102.739 450.796 102.971 450.868C103.203 450.932 103.375 451.004 103.487 451.084C103.487 451.884 103.411 452.536 103.259 453.04C103.147 453.072 103.015 453.088 102.863 453.088C102.719 453.088 102.619 453.084 102.563 453.076L102.323 451.768Z" fill="black"/>
<path d="M260.052 452.896C259.844 452.944 259.64 452.968 259.44 452.968C259.248 452.968 259.056 452.956 258.864 452.932C258.816 452.708 258.792 452.484 258.792 452.26C258.792 452.028 258.8 451.856 258.816 451.744C258.992 451.704 259.176 451.684 259.368 451.684C259.568 451.684 259.78 451.692 260.004 451.708C260.052 451.916 260.076 452.12 260.076 452.32C260.076 452.512 260.068 452.704 260.052 452.896ZM260.052 456.976C259.844 457.024 259.64 457.048 259.44 457.048C259.248 457.048 259.056 457.036 258.864 457.012C258.816 456.788 258.792 456.564 258.792 456.34C258.792 456.108 258.8 455.936 258.816 455.824C258.992 455.784 259.176 455.764 259.368 455.764C259.568 455.764 259.78 455.772 260.004 455.788C260.052 455.996 260.076 456.22 260.076 456.46C260.076 456.7 260.068 456.872 260.052 456.976ZM267.745 457.156C265.393 457.156 264.217 455.68 264.217 452.728C264.217 451.328 264.501 450.264 265.069 449.536C265.645 448.808 266.561 448.444 267.817 448.444C268.825 448.444 269.721 448.724 270.505 449.284C270.505 449.732 270.449 450.3 270.337 450.988C270.225 451.012 269.993 451.024 269.641 451.024L269.281 449.536C268.713 449.432 268.257 449.38 267.913 449.38C267.281 449.38 266.725 449.468 266.245 449.644L266.017 449.728C265.969 449.808 265.909 449.928 265.837 450.088C265.765 450.24 265.669 450.564 265.549 451.06C265.437 451.556 265.381 452.064 265.381 452.584C265.381 453.712 265.565 454.608 265.933 455.272C266.309 455.936 266.905 456.268 267.721 456.268C268.305 456.268 268.745 456.208 269.041 456.088C269.121 456.048 269.237 455.988 269.389 455.908L269.641 454.468L270.337 454.504C270.457 455.328 270.517 455.996 270.517 456.508C270.349 456.636 269.985 456.776 269.425 456.928C268.873 457.08 268.313 457.156 267.745 457.156ZM267.889 458.476C267.889 458.324 267.641 458.16 267.145 457.984C267.145 457.776 267.285 457.36 267.565 456.736C267.613 456.712 267.677 456.7 267.757 456.7C267.845 456.7 267.921 456.712 267.985 456.736C267.857 457.168 267.761 457.464 267.697 457.624C268.337 457.896 268.657 458.144 268.657 458.368C268.657 458.6 268.545 458.84 268.321 459.088C268.105 459.344 267.857 459.52 267.577 459.616L267.445 459.46C267.477 459.372 267.529 459.256 267.601 459.112C267.793 458.744 267.889 458.532 267.889 458.476ZM273.91 449.728C273.75 449.76 273.578 449.776 273.394 449.776C273.218 449.776 273.074 449.768 272.962 449.752C272.922 449.608 272.902 449.464 272.902 449.32C272.902 449.168 272.91 448.996 272.926 448.804C273.046 448.78 273.21 448.768 273.418 448.768C273.626 448.768 273.778 448.772 273.874 448.78C273.906 448.956 273.922 449.14 273.922 449.332C273.922 449.516 273.918 449.648 273.91 449.728ZM275.89 449.728C275.73 449.76 275.558 449.776 275.374 449.776C275.198 449.776 275.054 449.768 274.942 449.752C274.902 449.608 274.882 449.464 274.882 449.32C274.882 449.168 274.89 448.996 274.906 448.804C275.026 448.78 275.19 448.768 275.398 448.768C275.606 448.768 275.758 448.772 275.854 448.78C275.886 448.956 275.902 449.14 275.902 449.332C275.902 449.516 275.898 449.648 275.89 449.728ZM274.27 456.424C274.942 456.424 275.394 456.216 275.626 455.8C275.866 455.376 275.986 454.776 275.986 454C275.986 452.768 275.714 451.996 275.17 451.684C274.946 451.556 274.63 451.492 274.222 451.492C273.822 451.492 273.442 451.576 273.082 451.744C272.762 452.36 272.602 453.076 272.602 453.892C272.602 454.676 272.706 455.28 272.914 455.704C273.154 456.184 273.606 456.424 274.27 456.424ZM271.498 454C271.498 452.984 271.73 452.192 272.194 451.624C272.658 451.048 273.374 450.76 274.342 450.76C275.31 450.76 276.01 451.024 276.442 451.552C276.874 452.072 277.09 452.844 277.09 453.868C277.09 454.892 276.858 455.696 276.394 456.28C275.938 456.864 275.242 457.156 274.306 457.156C273.37 457.156 272.666 456.884 272.194 456.34C271.73 455.796 271.498 455.016 271.498 454ZM279.575 448.012C279.823 448.012 279.999 448.02 280.103 448.036C280.103 448.284 280.051 448.604 279.947 448.996C279.899 451.108 279.875 452.704 279.875 453.784L281.807 451.72L280.847 451.624C280.847 451.4 280.915 451.16 281.051 450.904H284.099L284.135 451.432C283.951 451.504 283.615 451.596 283.127 451.708L281.483 453.196L283.511 456.184L284.519 456.28C284.519 456.504 284.451 456.744 284.315 457H282.671L280.799 453.808L279.863 454.66C279.847 455.332 279.839 455.84 279.839 456.184L280.847 456.28C280.847 456.504 280.779 456.744 280.643 457H277.883L277.847 456.58C278.215 456.452 278.575 456.356 278.927 456.292C278.879 453.06 278.839 450.616 278.807 448.96C278.367 448.936 278.015 448.888 277.751 448.816L277.799 448.192C278.207 448.072 278.799 448.012 279.575 448.012ZM288.093 456.328C288.445 456.328 288.997 456.16 289.749 455.824C289.901 456.032 289.981 456.216 289.989 456.376C289.581 456.616 289.181 456.804 288.789 456.94C288.397 457.076 288.117 457.144 287.949 457.144C287.021 457.144 286.313 456.868 285.825 456.316C285.337 455.756 285.093 454.976 285.093 453.976C285.093 452.976 285.329 452.192 285.801 451.624C286.281 451.048 286.997 450.76 287.949 450.76C288.685 450.76 289.245 451.024 289.629 451.552C290.021 452.08 290.217 452.788 290.217 453.676C290.153 453.788 290.101 453.864 290.061 453.904L286.197 453.844C286.205 454.652 286.345 455.268 286.617 455.692C286.897 456.116 287.389 456.328 288.093 456.328ZM289.125 453.16C289.125 452.632 289.029 452.224 288.837 451.936C288.645 451.64 288.325 451.492 287.877 451.492C287.429 451.492 287.029 451.576 286.677 451.744C286.437 452.224 286.285 452.716 286.221 453.22C286.853 453.212 287.821 453.192 289.125 453.16ZM292.806 448.084C293.054 448.084 293.23 448.092 293.334 448.108C293.334 448.388 293.282 448.708 293.178 449.068C293.106 453.788 293.07 456.16 293.07 456.184L294.078 456.28C294.078 456.504 294.01 456.744 293.874 457H291.114L291.078 456.58C291.446 456.452 291.806 456.356 292.158 456.292L292.038 449.032C291.598 449.008 291.246 448.96 290.982 448.888L291.03 448.264C291.438 448.144 292.03 448.084 292.806 448.084ZM300.545 452.104C300.577 452.36 300.593 452.656 300.593 452.992C300.593 453.328 300.561 454.392 300.497 456.184L301.505 456.28C301.505 456.504 301.437 456.744 301.301 457H298.541L298.505 456.58C298.873 456.452 299.233 456.356 299.585 456.292C299.537 454.164 299.493 452.98 299.453 452.74C299.421 452.5 299.365 452.3 299.285 452.14C299.205 451.972 299.081 451.856 298.913 451.792C298.745 451.728 298.489 451.696 298.145 451.696C297.809 451.696 297.365 451.824 296.813 452.08C296.765 453.904 296.733 455.272 296.717 456.184L297.725 456.28C297.725 456.504 297.657 456.744 297.521 457H294.761L294.725 456.58C295.093 456.452 295.453 456.356 295.805 456.292C295.797 455.716 295.777 454.904 295.745 453.856C295.713 452.8 295.693 452.108 295.685 451.78C295.245 451.756 294.893 451.708 294.629 451.636L294.677 451.012C295.109 450.892 295.737 450.832 296.561 450.832C296.673 451.032 296.745 451.24 296.777 451.456C297.129 451.272 297.477 451.112 297.821 450.976C298.165 450.832 298.381 450.76 298.469 450.76C299.357 450.76 299.977 451.032 300.329 451.576C300.697 451.376 301.077 451.192 301.469 451.024C301.869 450.848 302.109 450.76 302.189 450.76C302.917 450.76 303.461 450.94 303.821 451.3C304.189 451.652 304.373 452.232 304.373 453.04C304.373 453.28 304.341 454.328 304.277 456.184L305.285 456.28C305.285 456.504 305.217 456.744 305.081 457H302.321L302.285 456.58C302.653 456.452 303.013 456.356 303.365 456.292C303.333 455.028 303.305 454.072 303.281 453.424C303.257 452.776 303.165 452.328 303.005 452.08C302.845 451.824 302.525 451.696 302.045 451.696C301.565 451.696 301.065 451.832 300.545 452.104ZM308.882 456.328C309.234 456.328 309.786 456.16 310.538 455.824C310.69 456.032 310.77 456.216 310.778 456.376C310.37 456.616 309.97 456.804 309.578 456.94C309.186 457.076 308.906 457.144 308.738 457.144C307.81 457.144 307.102 456.868 306.614 456.316C306.126 455.756 305.882 454.976 305.882 453.976C305.882 452.976 306.118 452.192 306.59 451.624C307.07 451.048 307.786 450.76 308.738 450.76C309.474 450.76 310.034 451.024 310.418 451.552C310.81 452.08 311.006 452.788 311.006 453.676C310.942 453.788 310.89 453.864 310.85 453.904L306.986 453.844C306.994 454.652 307.134 455.268 307.406 455.692C307.686 456.116 308.178 456.328 308.882 456.328ZM309.914 453.16C309.914 452.632 309.818 452.224 309.626 451.936C309.434 451.64 309.114 451.492 308.666 451.492C308.218 451.492 307.818 451.576 307.466 451.744C307.226 452.224 307.074 452.716 307.01 453.22C307.642 453.212 308.61 453.192 309.914 453.16ZM316.34 459.232C316.644 459.232 316.94 458.94 317.228 458.356C317.524 457.772 317.692 457.32 317.732 457H317.444L315.548 451.72L314.54 451.624C314.54 451.4 314.608 451.16 314.744 450.904H317.504L317.54 451.324C317.284 451.436 317 451.524 316.688 451.588L317.732 454.864L318.008 455.92H318.128L319.568 451.588L318.56 451.324L318.596 450.904H321.296C321.432 451.16 321.5 451.4 321.5 451.624C321.172 451.664 320.844 451.692 320.516 451.708C320.308 452.316 319.996 453.224 319.58 454.432C319.172 455.64 318.848 456.576 318.608 457.24C318.376 457.904 318.144 458.444 317.912 458.86C317.68 459.276 317.448 459.552 317.216 459.688C316.992 459.832 316.74 459.904 316.46 459.904C315.964 459.904 315.5 459.808 315.068 459.616L314.852 459.508C314.908 458.596 314.944 458.096 314.96 458.008C315.024 457.984 315.256 457.972 315.656 457.972L316.064 459.196C316.136 459.22 316.228 459.232 316.34 459.232ZM324.52 456.424C325.192 456.424 325.644 456.216 325.876 455.8C326.116 455.376 326.236 454.776 326.236 454C326.236 452.768 325.964 451.996 325.42 451.684C325.196 451.556 324.88 451.492 324.472 451.492C324.072 451.492 323.692 451.576 323.332 451.744C323.012 452.36 322.852 453.076 322.852 453.892C322.852 454.676 322.956 455.28 323.164 455.704C323.404 456.184 323.856 456.424 324.52 456.424ZM321.748 454C321.748 452.984 321.98 452.192 322.444 451.624C322.908 451.048 323.624 450.76 324.592 450.76C325.56 450.76 326.26 451.024 326.692 451.552C327.124 452.072 327.34 452.844 327.34 453.868C327.34 454.892 327.108 455.696 326.644 456.28C326.188 456.864 325.492 457.156 324.556 457.156C323.62 457.156 322.916 456.884 322.444 456.34C321.98 455.796 321.748 455.016 321.748 454ZM329.825 448.012C330.073 448.012 330.249 448.02 330.353 448.036C330.353 448.284 330.301 448.604 330.197 448.996C330.149 451.108 330.125 452.704 330.125 453.784L332.057 451.72L331.097 451.624C331.097 451.4 331.165 451.16 331.301 450.904H334.349L334.385 451.432C334.201 451.504 333.865 451.596 333.377 451.708L331.733 453.196L333.761 456.184L334.769 456.28C334.769 456.504 334.701 456.744 334.565 457H332.921L331.049 453.808L330.113 454.66C330.097 455.332 330.089 455.84 330.089 456.184L331.097 456.28C331.097 456.504 331.029 456.744 330.893 457H328.133L328.097 456.58C328.465 456.452 328.825 456.356 329.177 456.292C329.129 453.06 329.089 450.616 329.057 448.96C328.617 448.936 328.265 448.888 328.001 448.816L328.049 448.192C328.457 448.072 329.049 448.012 329.825 448.012Z" fill="black"/>
<path d="M158.254 260.494C158.422 260.438 158.879 260.377 159.626 260.312C160.373 260.237 161.049 260.2 161.656 260.2C162.272 260.2 162.748 260.228 163.084 260.284C163.093 260.321 163.098 260.368 163.098 260.424C163.098 260.471 163.07 260.587 163.014 260.774C162.967 260.961 162.93 261.082 162.902 261.138C162.827 261.213 162.617 261.269 162.272 261.306L164.946 269.048L166.276 269.16C166.276 269.421 166.197 269.701 166.038 270H162.818L162.776 269.51C162.991 269.398 163.303 269.3 163.714 269.216L163 267.214H159.094L158.436 269.048L159.57 269.16C159.57 269.421 159.491 269.701 159.332 270H156.112L156.07 269.51C156.434 269.379 156.821 269.277 157.232 269.202L159.948 261.264C159.117 261.171 158.534 261.059 158.198 260.928L158.254 260.494ZM161.894 264.092L161.152 261.348C161.096 261.339 161.017 261.334 160.914 261.334L160.158 264.19L159.346 266.318H162.748L161.894 264.092ZM172.412 264.89C172.953 264.955 173.429 265.207 173.84 265.646C174.26 266.085 174.47 266.701 174.47 267.494C174.47 268.278 174.157 268.894 173.532 269.342C172.916 269.781 172.01 270 170.816 270H166.98L166.938 269.51C167.33 269.351 167.731 269.239 168.142 269.174C168.086 265.571 168.039 262.869 168.002 261.068C167.684 261.012 167.274 260.9 166.77 260.732C166.798 260.387 166.821 260.209 166.84 260.2H170.354C171.604 260.2 172.454 260.307 172.902 260.522C173.116 260.625 173.331 260.76 173.546 260.928C173.975 261.264 174.19 261.819 174.19 262.594C174.19 262.986 174.12 263.341 173.98 263.658C173.849 263.966 173.676 264.204 173.462 264.372C173.07 264.68 172.72 264.853 172.412 264.89ZM170.886 265.492H169.332C169.313 266.295 169.294 267.48 169.276 269.048H170.76C172.309 269.048 173.084 268.469 173.084 267.312C173.084 266.64 172.902 266.169 172.538 265.898C172.183 265.627 171.632 265.492 170.886 265.492ZM170.214 261.18L169.374 261.194C169.355 262.053 169.346 263.168 169.346 264.54H170.718C171.539 264.54 172.085 264.386 172.356 264.078C172.636 263.761 172.776 263.261 172.776 262.58C172.776 261.647 171.922 261.18 170.214 261.18ZM184.181 261.32C183.882 261.227 183.485 261.18 182.991 261.18H181.829L181.787 264.708L182.851 264.694C183.541 264.685 184.092 264.545 184.503 264.274C184.913 264.003 185.119 263.49 185.119 262.734C185.119 261.969 184.806 261.497 184.181 261.32ZM181.773 265.604L181.731 269.062L182.893 269.16C182.893 269.421 182.813 269.701 182.655 270H179.435L179.393 269.51C179.785 269.37 180.186 269.263 180.597 269.188C180.541 265.641 180.494 262.935 180.457 261.068C180.195 261.031 179.785 260.919 179.225 260.732C179.225 260.611 179.248 260.433 179.295 260.2H182.445C184.153 260.2 185.263 260.41 185.777 260.83C186.281 261.231 186.533 261.861 186.533 262.72C186.533 264.167 185.739 265.105 184.153 265.534L186.547 269.076L187.709 269.174C187.709 269.426 187.629 269.701 187.471 270H185.749L182.809 265.604H181.773ZM190.456 259.598C190.746 259.598 190.951 259.607 191.072 259.626C191.072 259.794 191.044 260.013 190.988 260.284C190.942 260.545 190.909 260.699 190.89 260.746C190.89 260.951 190.881 261.376 190.862 262.02C190.844 262.664 190.834 263.163 190.834 263.518C191.236 263.303 191.632 263.117 192.024 262.958C192.426 262.799 192.678 262.72 192.78 262.72C193.676 262.72 194.325 262.944 194.726 263.392C195.128 263.831 195.328 264.503 195.328 265.408C195.328 265.669 195.291 266.883 195.216 269.048L196.392 269.16C196.392 269.421 196.313 269.701 196.154 270H192.934L192.892 269.51C193.322 269.361 193.742 269.249 194.152 269.174C194.096 266.729 194.045 265.371 193.998 265.1C193.961 264.82 193.896 264.577 193.802 264.372C193.709 264.167 193.569 264.022 193.382 263.938C193.196 263.854 192.948 263.812 192.64 263.812C192.006 263.812 191.399 263.961 190.82 264.26L190.736 269.048L191.912 269.16C191.912 269.421 191.833 269.701 191.674 270H188.454L188.412 269.51C188.842 269.361 189.262 269.249 189.672 269.174L189.504 260.704C188.991 260.676 188.58 260.62 188.272 260.536L188.328 259.808C188.804 259.668 189.514 259.598 190.456 259.598ZM200.553 266.052C200.571 266.201 200.581 266.327 200.581 266.43L200.553 266.92C200.067 266.967 199.61 266.99 199.181 266.99L197.305 266.92C197.286 266.855 197.277 266.733 197.277 266.556L197.305 266.052C197.79 266.005 198.247 265.982 198.677 265.982L200.553 266.052Z" fill="black"/>
</g>
<defs>
<filter id="filter0_d_12_1398" x="0" y="0" width="343" height="483" filterUnits="userSpaceOnUse" color-interpolation-filters="sRGB">
<feFlood flood-opacity="0" result="BackgroundImageFix"/>
<feColorMatrix in="SourceAlpha" type="matrix" values="0 0 0 0 0 0 0 0 0 0 0 0 0 0 0 0 0 0 127 0" result="hardAlpha"/>
<feOffset dy="4"/>
<feGaussianBlur stdDeviation="2"/>
<feComposite in2="hardAlpha" operator="out"/>
<feColorMatrix type="matrix" values="0 0 0 0 0 0 0 0 0 0 0 0 0 0 0 0 0 0 0.25 0"/>
<feBlend mode="normal" in2="BackgroundImageFix" result="effect1_dropShadow_12_1398"/>
<feBlend mode="normal" in="SourceGraphic" in2="effect1_dropShadow_12_1398" result="shape"/>
</filter>
<filter id="filter1_d_12_1398" x="43" y="4" width="257" height="42" filterUnits="userSpaceOnUse" color-interpolation-filters="sRGB">
<feFlood flood-opacity="0" result="BackgroundImageFix"/>
<feColorMatrix in="SourceAlpha" type="matrix" values="0 0 0 0 0 0 0 0 0 0 0 0 0 0 0 0 0 0 127 0" result="hardAlpha"/>
<feOffset dy="4"/>
<feGaussianBlur stdDeviation="2"/>
<feComposite in2="hardAlpha" operator="out"/>
<feColorMatrix type="matrix" values="0 0 0 0 0 0 0 0 0 0 0 0 0 0 0 0 0 0 0.25 0"/>
<feBlend mode="normal" in2="BackgroundImageFix" result="effect1_dropShadow_12_1398"/>
<feBlend mode="normal" in="SourceGraphic" in2="effect1_dropShadow_12_1398" result="shape"/>
</filter>
</defs>
</svg>
