<svg width="343" height="483" viewBox="0 0 343 483" fill="none" xmlns="http://www.w3.org/2000/svg">
<g filter="url(#filter0_d_5_852)">
<rect x="4" width="335" height="475" rx="15" fill="white"/>
<g filter="url(#filter1_d_5_852)">
<rect x="47" y="10" width="249" height="34" rx="15" fill="#F9F3F3"/>
</g>
<path d="M113.255 19.749L115.46 31.572L117.371 31.761C117.371 32.139 117.252 32.552 117.014 33H112.184L112.121 32.265C112.541 32.083 113.059 31.936 113.675 31.824L111.428 20.043L108.656 31.992H106.577L102.755 20.001L101.054 31.572L102.839 31.74C102.839 32.132 102.72 32.552 102.482 33H97.6524L97.5894 32.265C98.2054 32.041 98.8214 31.873 99.4374 31.761L101.285 19.581C100.431 19.455 99.7524 19.308 99.2484 19.14L99.3324 18.3H104.225L107.564 29.808H107.648L110.252 18.3H114.935C115.173 18.748 115.292 19.182 115.292 19.602C114.382 19.7 113.703 19.749 113.255 19.749ZM122.216 20.337C121.852 20.421 121.495 20.463 121.145 20.463C120.809 20.463 120.473 20.442 120.137 20.4C120.053 20.008 120.011 19.616 120.011 19.224C120.011 18.818 120.025 18.517 120.053 18.321C120.361 18.251 120.683 18.216 121.019 18.216C121.369 18.216 121.74 18.23 122.132 18.258C122.216 18.622 122.258 18.979 122.258 19.329C122.258 19.665 122.244 20.001 122.216 20.337ZM118.394 22.542C119.584 22.332 120.508 22.227 121.166 22.227C121.824 22.227 122.244 22.241 122.426 22.269C122.426 22.605 122.384 22.976 122.3 23.382C122.216 23.788 122.167 23.984 122.153 23.97L121.964 31.572L123.728 31.74C123.728 32.132 123.609 32.552 123.371 33H118.541L118.478 32.265C119.122 32.041 119.752 31.873 120.368 31.761C120.284 28.261 120.214 25.636 120.158 23.886C119.346 23.886 118.73 23.802 118.31 23.634L118.394 22.542ZM126.45 31.698L126.282 23.781H124.665L124.602 23.046C124.742 22.948 125.148 22.766 125.82 22.5L127.542 19.812C127.822 19.84 128.039 19.91 128.193 20.022L128.172 22.332C129.222 22.332 130.083 22.402 130.755 22.542C130.755 22.92 130.636 23.333 130.398 23.781H128.13C128.102 25.461 128.074 28.009 128.046 31.425C128.83 31.467 129.614 31.607 130.398 31.845L130.377 32.58C130.181 32.706 129.677 32.853 128.865 33.021C128.067 33.189 127.409 33.273 126.891 33.273C126.821 33.161 126.73 32.923 126.618 32.559C126.506 32.181 126.45 31.894 126.45 31.698ZM137.047 31.992C138.223 31.992 139.014 31.628 139.42 30.9C139.84 30.158 140.05 29.108 140.05 27.75C140.05 25.594 139.574 24.243 138.622 23.697C138.23 23.473 137.677 23.361 136.963 23.361C136.263 23.361 135.598 23.508 134.968 23.802C134.408 24.88 134.128 26.133 134.128 27.561C134.128 28.933 134.31 29.99 134.674 30.732C135.094 31.572 135.885 31.992 137.047 31.992ZM132.196 27.75C132.196 25.972 132.602 24.586 133.414 23.592C134.226 22.584 135.479 22.08 137.173 22.08C138.867 22.08 140.092 22.542 140.848 23.466C141.604 24.376 141.982 25.727 141.982 27.519C141.982 29.311 141.576 30.718 140.764 31.74C139.966 32.762 138.748 33.273 137.11 33.273C135.472 33.273 134.24 32.797 133.414 31.845C132.602 30.893 132.196 29.528 132.196 27.75ZM151.644 29.64C151.84 30.452 151.938 31.173 151.938 31.803C151.938 32.419 151.924 32.818 151.896 33H143.958C143.79 32.748 143.692 32.37 143.664 31.866L149.691 23.508H146.1L145.596 25.692C145.386 25.706 145.26 25.713 145.218 25.713L144.378 25.65C144.182 24.838 144.084 24.131 144.084 23.529C144.084 22.913 144.098 22.514 144.126 22.332H151.581C151.665 22.542 151.707 22.934 151.707 23.508L145.953 31.74H149.922L150.426 29.535L151.644 29.64ZM167.481 25.335C168.293 25.433 169.007 25.811 169.623 26.469C170.253 27.127 170.568 28.051 170.568 29.241C170.568 30.417 170.099 31.341 169.161 32.013C168.237 32.671 166.879 33 165.087 33H159.333L159.27 32.265C159.858 32.027 160.46 31.859 161.076 31.761C160.992 26.357 160.922 22.304 160.866 19.602C160.39 19.518 159.774 19.35 159.018 19.098C159.06 18.58 159.095 18.314 159.123 18.3H164.394C166.27 18.3 167.544 18.461 168.216 18.783C168.538 18.937 168.86 19.14 169.182 19.392C169.826 19.896 170.148 20.729 170.148 21.891C170.148 22.479 170.043 23.011 169.833 23.487C169.637 23.949 169.378 24.306 169.056 24.558C168.468 25.02 167.943 25.279 167.481 25.335ZM165.192 26.238H162.861C162.833 27.442 162.805 29.22 162.777 31.572H165.003C167.327 31.572 168.489 30.704 168.489 28.968C168.489 27.96 168.216 27.253 167.67 26.847C167.138 26.441 166.312 26.238 165.192 26.238ZM164.184 19.77L162.924 19.791C162.896 21.079 162.882 22.752 162.882 24.81H164.94C166.172 24.81 166.991 24.579 167.397 24.117C167.817 23.641 168.027 22.892 168.027 21.87C168.027 20.47 166.746 19.77 164.184 19.77ZM176.592 20.274C176.312 20.33 176.011 20.358 175.689 20.358C175.381 20.358 175.129 20.344 174.933 20.316C174.863 20.064 174.828 19.812 174.828 19.56C174.828 19.294 174.842 18.993 174.87 18.657C175.08 18.615 175.367 18.594 175.731 18.594C176.095 18.594 176.361 18.601 176.529 18.615C176.585 18.923 176.613 19.245 176.613 19.581C176.613 19.903 176.606 20.134 176.592 20.274ZM180.057 20.274C179.777 20.33 179.476 20.358 179.154 20.358C178.846 20.358 178.594 20.344 178.398 20.316C178.328 20.064 178.293 19.812 178.293 19.56C178.293 19.294 178.307 18.993 178.335 18.657C178.545 18.615 178.832 18.594 179.196 18.594C179.56 18.594 179.826 18.601 179.994 18.615C180.05 18.923 180.078 19.245 180.078 19.581C180.078 19.903 180.071 20.134 180.057 20.274ZM177.222 31.992C178.398 31.992 179.189 31.628 179.595 30.9C180.015 30.158 180.225 29.108 180.225 27.75C180.225 25.594 179.749 24.243 178.797 23.697C178.405 23.473 177.852 23.361 177.138 23.361C176.438 23.361 175.773 23.508 175.143 23.802C174.583 24.88 174.303 26.133 174.303 27.561C174.303 28.933 174.485 29.99 174.849 30.732C175.269 31.572 176.06 31.992 177.222 31.992ZM172.371 27.75C172.371 25.972 172.777 24.586 173.589 23.592C174.401 22.584 175.654 22.08 177.348 22.08C179.042 22.08 180.267 22.542 181.023 23.466C181.779 24.376 182.157 25.727 182.157 27.519C182.157 29.311 181.751 30.718 180.939 31.74C180.141 32.762 178.923 33.273 177.285 33.273C175.647 33.273 174.415 32.797 173.589 31.845C172.777 30.893 172.371 29.528 172.371 27.75ZM186.506 17.397C186.94 17.397 187.248 17.411 187.43 17.439C187.43 17.929 187.339 18.489 187.157 19.119C187.031 27.379 186.968 31.53 186.968 31.572L188.732 31.74C188.732 32.132 188.613 32.552 188.375 33H183.545L183.482 32.265C184.126 32.041 184.756 31.873 185.372 31.761L185.162 19.056C184.392 19.014 183.776 18.93 183.314 18.804L183.398 17.712C184.112 17.502 185.148 17.397 186.506 17.397ZM194.316 20.274C194.036 20.33 193.735 20.358 193.413 20.358C193.105 20.358 192.853 20.344 192.657 20.316C192.587 20.064 192.552 19.812 192.552 19.56C192.552 19.294 192.566 18.993 192.594 18.657C192.804 18.615 193.091 18.594 193.455 18.594C193.819 18.594 194.085 18.601 194.253 18.615C194.309 18.923 194.337 19.245 194.337 19.581C194.337 19.903 194.33 20.134 194.316 20.274ZM197.781 20.274C197.501 20.33 197.2 20.358 196.878 20.358C196.57 20.358 196.318 20.344 196.122 20.316C196.052 20.064 196.017 19.812 196.017 19.56C196.017 19.294 196.031 18.993 196.059 18.657C196.269 18.615 196.556 18.594 196.92 18.594C197.284 18.594 197.55 18.601 197.718 18.615C197.774 18.923 197.802 19.245 197.802 19.581C197.802 19.903 197.795 20.134 197.781 20.274ZM195.282 31.614C195.688 31.614 196.143 31.53 196.647 31.362C197.151 31.18 197.564 30.963 197.886 30.711C197.83 27.729 197.781 25.468 197.739 23.928C196.871 23.928 196.227 23.844 195.807 23.676L195.891 22.584C197.081 22.374 198.012 22.269 198.684 22.269C199.37 22.269 199.804 22.283 199.986 22.311C199.986 22.563 199.944 22.899 199.86 23.319C199.79 23.739 199.741 23.97 199.713 24.012L199.461 31.509C200.203 31.551 200.805 31.635 201.267 31.761L201.225 32.832C200.609 33.028 200.014 33.126 199.44 33.126C198.866 33.126 198.516 33.119 198.39 33.105C198.124 32.573 197.97 32.083 197.928 31.635C197.242 32.153 196.605 32.552 196.017 32.832C195.443 33.112 195.065 33.252 194.883 33.252C193.651 33.252 192.755 32.923 192.195 32.265C191.649 31.593 191.376 30.613 191.376 29.325C191.376 29.311 191.439 27.519 191.565 23.949C190.753 23.949 190.004 23.858 189.318 23.676L189.402 22.584C190.592 22.374 191.516 22.269 192.174 22.269C192.832 22.269 193.252 22.283 193.434 22.311C193.434 22.647 193.392 23.018 193.308 23.424C193.224 23.83 193.175 24.026 193.161 24.012L193.182 28.548C193.182 29.612 193.315 30.389 193.581 30.879C193.847 31.369 194.414 31.614 195.282 31.614ZM208.906 22.08C210.25 22.08 211.223 22.416 211.825 23.088C212.427 23.746 212.728 24.754 212.728 26.112C212.728 26.504 212.672 28.324 212.56 31.572L214.324 31.74C214.324 32.132 214.205 32.552 213.967 33H209.137L209.074 32.265C209.718 32.041 210.348 31.873 210.964 31.761C210.88 28.093 210.803 26.056 210.733 25.65C210.677 25.23 210.579 24.866 210.439 24.558C210.299 24.25 210.089 24.033 209.809 23.907C209.529 23.781 209.158 23.718 208.696 23.718C207.772 23.718 206.876 23.942 206.008 24.39C205.924 27.582 205.868 29.976 205.84 31.572L207.604 31.74C207.604 32.132 207.485 32.552 207.247 33H202.417L202.354 32.265C202.998 32.041 203.628 31.873 204.244 31.761C204.16 28.205 204.09 25.573 204.034 23.865C203.264 23.823 202.648 23.739 202.186 23.613L202.27 22.521C203.026 22.311 204.125 22.206 205.567 22.206C205.735 22.458 205.861 22.822 205.945 23.298C206.547 22.976 207.149 22.696 207.751 22.458C208.367 22.206 208.752 22.08 208.906 22.08ZM225.479 24.432C225.535 24.88 225.563 25.398 225.563 25.986C225.563 26.574 225.507 28.436 225.395 31.572L227.159 31.74C227.159 32.132 227.04 32.552 226.802 33H221.972L221.909 32.265C222.553 32.041 223.183 31.873 223.799 31.761C223.715 28.037 223.638 25.965 223.568 25.545C223.512 25.125 223.414 24.775 223.274 24.495C223.134 24.201 222.917 23.998 222.623 23.886C222.329 23.774 221.881 23.718 221.279 23.718C220.691 23.718 219.914 23.942 218.948 24.39C218.864 27.582 218.808 29.976 218.78 31.572L220.544 31.74C220.544 32.132 220.425 32.552 220.187 33H215.357L215.294 32.265C215.938 32.041 216.568 31.873 217.184 31.761C217.17 30.753 217.135 29.332 217.079 27.498C217.023 25.65 216.988 24.439 216.974 23.865C216.204 23.823 215.588 23.739 215.126 23.613L215.21 22.521C215.966 22.311 217.065 22.206 218.507 22.206C218.703 22.556 218.829 22.92 218.885 23.298C219.501 22.976 220.11 22.696 220.712 22.458C221.314 22.206 221.692 22.08 221.846 22.08C223.4 22.08 224.485 22.556 225.101 23.508C225.745 23.158 226.41 22.836 227.096 22.542C227.796 22.234 228.216 22.08 228.356 22.08C229.63 22.08 230.582 22.395 231.212 23.025C231.856 23.641 232.178 24.656 232.178 26.07C232.178 26.49 232.122 28.324 232.01 31.572L233.774 31.74C233.774 32.132 233.655 32.552 233.417 33H228.587L228.524 32.265C229.168 32.041 229.798 31.873 230.414 31.761C230.358 29.549 230.309 27.876 230.267 26.742C230.225 25.608 230.064 24.824 229.784 24.39C229.504 23.942 228.944 23.718 228.104 23.718C227.264 23.718 226.389 23.956 225.479 24.432ZM240.069 31.824C240.685 31.824 241.651 31.53 242.967 30.942C243.233 31.306 243.373 31.628 243.387 31.908C242.673 32.328 241.973 32.657 241.287 32.895C240.601 33.133 240.111 33.252 239.817 33.252C238.193 33.252 236.954 32.769 236.1 31.803C235.246 30.823 234.819 29.458 234.819 27.708C234.819 25.958 235.232 24.586 236.058 23.592C236.898 22.584 238.151 22.08 239.817 22.08C241.105 22.08 242.085 22.542 242.757 23.466C243.443 24.39 243.786 25.629 243.786 27.183C243.674 27.379 243.583 27.512 243.513 27.582L236.751 27.477C236.765 28.891 237.01 29.969 237.486 30.711C237.976 31.453 238.837 31.824 240.069 31.824ZM241.875 26.28C241.875 25.356 241.707 24.642 241.371 24.138C241.035 23.62 240.475 23.361 239.691 23.361C238.907 23.361 238.207 23.508 237.591 23.802C237.171 24.642 236.905 25.503 236.793 26.385C237.899 26.371 239.593 26.336 241.875 26.28Z" fill="black"/>
<circle cx="168.5" cy="116.5" r="23.5" fill="#986D8E"/>
<circle cx="93.5" cy="195.5" r="23.5" fill="#986D8E"/>
<circle cx="46.5" cy="278.5" r="23.5" fill="#986D8E"/>
<circle cx="130.5" cy="278.5" r="23.5" fill="#986D8E"/>
<circle cx="212.5" cy="278.5" r="23.5" fill="#986D8E"/>
<circle cx="294.5" cy="278.5" r="23.5" fill="#986D8E"/>
<circle cx="249.5" cy="195.5" r="23.5" fill="#986D8E"/>
<circle cx="169" cy="117" r="16" fill="#F2E1C1"/>
<circle cx="94" cy="196" r="16" fill="#F2E1C1"/>
<circle cx="47" cy="279" r="16" fill="#F2E1C1"/>
<circle cx="131" cy="279" r="16" fill="#F2E1C1"/>
<circle cx="213" cy="279" r="16" fill="#F2E1C1"/>
<circle cx="295" cy="279" r="16" fill="#F2E1C1"/>
<circle cx="250" cy="196" r="16" fill="#F2E1C1"/>
<path d="M60.2942 357.335C61.1062 357.433 61.8202 357.811 62.4362 358.469C63.0662 359.127 63.3812 360.051 63.3812 361.241C63.3812 362.417 62.9122 363.341 61.9742 364.013C61.0502 364.671 59.6922 365 57.9002 365H52.1462L52.0832 364.265C52.6712 364.027 53.2732 363.859 53.8892 363.761C53.8052 358.357 53.7352 354.304 53.6792 351.602C53.2032 351.518 52.5872 351.35 51.8312 351.098C51.8732 350.58 51.9082 350.314 51.9362 350.3H57.2072C59.0832 350.3 60.3572 350.461 61.0292 350.783C61.3512 350.937 61.6732 351.14 61.9952 351.392C62.6392 351.896 62.9612 352.729 62.9612 353.891C62.9612 354.479 62.8562 355.011 62.6462 355.487C62.4502 355.949 62.1912 356.306 61.8692 356.558C61.2812 357.02 60.7562 357.279 60.2942 357.335ZM58.0052 358.238H55.6742C55.6462 359.442 55.6182 361.22 55.5902 363.572H57.8162C60.1402 363.572 61.3022 362.704 61.3022 360.968C61.3022 359.96 61.0292 359.253 60.4832 358.847C59.9512 358.441 59.1252 358.238 58.0052 358.238ZM56.9972 351.77L55.7372 351.791C55.7092 353.079 55.6952 354.752 55.6952 356.81H57.7532C58.9852 356.81 59.8042 356.579 60.2102 356.117C60.6302 355.641 60.8402 354.892 60.8402 353.87C60.8402 352.47 59.5592 351.77 56.9972 351.77ZM68.9647 352.337C68.6007 352.421 68.2437 352.463 67.8937 352.463C67.5577 352.463 67.2217 352.442 66.8857 352.4C66.8017 352.008 66.7597 351.616 66.7597 351.224C66.7597 350.818 66.7737 350.517 66.8017 350.321C67.1097 350.251 67.4317 350.216 67.7677 350.216C68.1177 350.216 68.4887 350.23 68.8807 350.258C68.9647 350.622 69.0067 350.979 69.0067 351.329C69.0067 351.665 68.9927 352.001 68.9647 352.337ZM65.1427 354.542C66.3327 354.332 67.2567 354.227 67.9147 354.227C68.5727 354.227 68.9927 354.241 69.1747 354.269C69.1747 354.605 69.1327 354.976 69.0487 355.382C68.9647 355.788 68.9157 355.984 68.9017 355.97L68.7127 363.572L70.4767 363.74C70.4767 364.132 70.3577 364.552 70.1197 365H65.2897L65.2267 364.265C65.8707 364.041 66.5007 363.873 67.1167 363.761C67.0327 360.261 66.9627 357.636 66.9067 355.886C66.0947 355.886 65.4787 355.802 65.0587 355.634L65.1427 354.542ZM78.0917 355.844C78.0217 355.774 77.8677 355.739 77.6297 355.739C77.3917 355.739 77.0347 355.823 76.5587 355.991C76.0967 356.159 75.6767 356.355 75.2987 356.579C75.2147 359.687 75.1587 362.018 75.1307 363.572L76.8947 363.74C76.8947 364.132 76.7757 364.552 76.5377 365H71.7077L71.6447 364.265C72.2887 364.041 72.9187 363.873 73.5347 363.761C73.4507 360.205 73.3807 357.573 73.3247 355.865C72.5547 355.823 71.9387 355.739 71.4767 355.613L71.5607 354.521C72.3027 354.311 73.4017 354.206 74.8577 354.206C75.0817 354.556 75.2217 355.004 75.2777 355.55C76.8877 354.57 77.8467 354.08 78.1547 354.08C78.4627 354.08 78.8197 354.143 79.2257 354.269C79.6317 354.381 79.9327 354.507 80.1287 354.647C80.1287 356.047 79.9957 357.188 79.7297 358.07C79.5337 358.126 79.3027 358.154 79.0367 358.154C78.7847 358.154 78.6097 358.147 78.5117 358.133L78.0917 355.844ZM157.709 356.432C157.765 356.88 157.793 357.398 157.793 357.986C157.793 358.574 157.737 360.436 157.625 363.572L159.389 363.74C159.389 364.132 159.27 364.552 159.032 365H154.202L154.139 364.265C154.783 364.041 155.413 363.873 156.029 363.761C155.945 360.037 155.868 357.965 155.798 357.545C155.742 357.125 155.644 356.775 155.504 356.495C155.364 356.201 155.147 355.998 154.853 355.886C154.559 355.774 154.111 355.718 153.509 355.718C152.921 355.718 152.144 355.942 151.178 356.39C151.094 359.582 151.038 361.976 151.01 363.572L152.774 363.74C152.774 364.132 152.655 364.552 152.417 365H147.587L147.524 364.265C148.168 364.041 148.798 363.873 149.414 363.761C149.4 362.753 149.365 361.332 149.309 359.498C149.253 357.65 149.218 356.439 149.204 355.865C148.434 355.823 147.818 355.739 147.356 355.613L147.44 354.521C148.196 354.311 149.295 354.206 150.737 354.206C150.933 354.556 151.059 354.92 151.115 355.298C151.731 354.976 152.34 354.696 152.942 354.458C153.544 354.206 153.922 354.08 154.076 354.08C155.63 354.08 156.715 354.556 157.331 355.508C157.975 355.158 158.64 354.836 159.326 354.542C160.026 354.234 160.446 354.08 160.586 354.08C161.86 354.08 162.812 354.395 163.442 355.025C164.086 355.641 164.408 356.656 164.408 358.07C164.408 358.49 164.352 360.324 164.24 363.572L166.004 363.74C166.004 364.132 165.885 364.552 165.647 365H160.817L160.754 364.265C161.398 364.041 162.028 363.873 162.644 363.761C162.588 361.549 162.539 359.876 162.497 358.742C162.455 357.608 162.294 356.824 162.014 356.39C161.734 355.942 161.174 355.718 160.334 355.718C159.494 355.718 158.619 355.956 157.709 356.432ZM170.745 352.337C170.381 352.421 170.024 352.463 169.674 352.463C169.338 352.463 169.002 352.442 168.666 352.4C168.582 352.008 168.54 351.616 168.54 351.224C168.54 350.818 168.554 350.517 168.582 350.321C168.89 350.251 169.212 350.216 169.548 350.216C169.898 350.216 170.269 350.23 170.661 350.258C170.745 350.622 170.787 350.979 170.787 351.329C170.787 351.665 170.773 352.001 170.745 352.337ZM166.923 354.542C168.113 354.332 169.037 354.227 169.695 354.227C170.353 354.227 170.773 354.241 170.955 354.269C170.955 354.605 170.913 354.976 170.829 355.382C170.745 355.788 170.696 355.984 170.682 355.97L170.493 363.572L172.257 363.74C172.257 364.132 172.138 364.552 171.9 365H167.07L167.007 364.265C167.651 364.041 168.281 363.873 168.897 363.761C168.813 360.261 168.743 357.636 168.687 355.886C167.875 355.886 167.259 355.802 166.839 355.634L166.923 354.542ZM174.979 363.698L174.811 355.781H173.194L173.131 355.046C173.271 354.948 173.677 354.766 174.349 354.5L176.071 351.812C176.351 351.84 176.568 351.91 176.722 352.022L176.701 354.332C177.751 354.332 178.612 354.402 179.284 354.542C179.284 354.92 179.165 355.333 178.927 355.781H176.659C176.631 357.461 176.603 360.009 176.575 363.425C177.359 363.467 178.143 363.607 178.927 363.845L178.906 364.58C178.71 364.706 178.206 364.853 177.394 365.021C176.596 365.189 175.938 365.273 175.42 365.273C175.35 365.161 175.259 364.923 175.147 364.559C175.035 364.181 174.979 363.894 174.979 363.698ZM185.577 363.992C186.753 363.992 187.544 363.628 187.95 362.9C188.37 362.158 188.58 361.108 188.58 359.75C188.58 357.594 188.104 356.243 187.152 355.697C186.76 355.473 186.207 355.361 185.493 355.361C184.793 355.361 184.128 355.508 183.498 355.802C182.938 356.88 182.658 358.133 182.658 359.561C182.658 360.933 182.84 361.99 183.204 362.732C183.624 363.572 184.415 363.992 185.577 363.992ZM180.726 359.75C180.726 357.972 181.132 356.586 181.944 355.592C182.756 354.584 184.009 354.08 185.703 354.08C187.397 354.08 188.622 354.542 189.378 355.466C190.134 356.376 190.512 357.727 190.512 359.519C190.512 361.311 190.106 362.718 189.294 363.74C188.496 364.762 187.278 365.273 185.64 365.273C184.002 365.273 182.77 364.797 181.944 363.845C181.132 362.893 180.726 361.528 180.726 359.75ZM200.174 361.64C200.37 362.452 200.468 363.173 200.468 363.803C200.468 364.419 200.454 364.818 200.426 365H192.488C192.32 364.748 192.222 364.37 192.194 363.866L198.221 355.508H194.63L194.126 357.692C193.916 357.706 193.79 357.713 193.748 357.713L192.908 357.65C192.712 356.838 192.614 356.131 192.614 355.529C192.614 354.913 192.628 354.514 192.656 354.332H200.111C200.195 354.542 200.237 354.934 200.237 355.508L194.483 363.74H198.452L198.956 361.535L200.174 361.64ZM48.9968 385.133L48.8918 390.551C49.4938 390.593 50.0958 390.691 50.6978 390.845L50.6558 391.58C50.4318 391.692 50.0258 391.818 49.4378 391.958C48.8638 392.084 48.2968 392.147 47.7368 392.147C47.4848 391.643 47.3448 391.16 47.3168 390.698C45.7208 391.748 44.6008 392.273 43.9568 392.273C42.9628 392.273 42.1648 392.007 41.5628 391.475C40.9608 390.943 40.6598 390.201 40.6598 389.249C40.6598 387.051 42.0038 385.917 44.6918 385.847C46.2598 385.805 47.0508 385.784 47.0648 385.784L47.0438 385.07C47.0158 384.104 46.8338 383.411 46.4978 382.991C46.1618 382.557 45.5598 382.34 44.6918 382.34C44.3278 382.34 43.9358 382.424 43.5158 382.592L43.0118 384.692C42.9418 384.706 42.8228 384.713 42.6548 384.713L41.7938 384.65C41.5698 384.048 41.4508 383.215 41.4368 382.151C41.7028 382.011 42.3118 381.801 43.2638 381.521C44.2158 381.227 44.8248 381.08 45.0908 381.08C46.5188 381.08 47.5268 381.395 48.1148 382.025C48.7028 382.655 48.9968 383.691 48.9968 385.133ZM44.4188 390.845C44.8248 390.845 45.7628 390.39 47.2328 389.48L47.1278 386.855C46.1758 386.939 45.3778 387.016 44.7338 387.086C44.0898 387.156 43.5718 387.345 43.1798 387.653C42.7878 387.947 42.5918 388.416 42.5918 389.06C42.5918 390.25 43.2008 390.845 44.4188 390.845ZM54.0591 395.906C54.5911 395.906 55.1091 395.395 55.6131 394.373C56.1311 393.351 56.4251 392.56 56.4951 392H55.9911L52.6731 382.76L50.9091 382.592C50.9091 382.2 51.0281 381.78 51.2661 381.332H56.0961L56.1591 382.067C55.7111 382.263 55.2141 382.417 54.6681 382.529L56.4951 388.262L56.9781 390.11H57.1881L59.7081 382.529L57.9441 382.067L58.0071 381.332H62.7321C62.9701 381.78 63.0891 382.2 63.0891 382.592C62.5151 382.662 61.9411 382.711 61.3671 382.739C61.0031 383.803 60.4571 385.392 59.7291 387.506C59.0151 389.62 58.4481 391.258 58.0281 392.42C57.6221 393.582 57.2161 394.527 56.8101 395.255C56.4041 395.983 55.9981 396.466 55.5921 396.704C55.2001 396.956 54.7591 397.082 54.2691 397.082C53.4011 397.082 52.5891 396.914 51.8331 396.578L51.4551 396.389C51.5531 394.793 51.6161 393.918 51.6441 393.764C51.7561 393.722 52.1621 393.701 52.8621 393.701L53.5761 395.843C53.7021 395.885 53.8631 395.906 54.0591 395.906ZM70.0756 381.08C71.4196 381.08 72.3926 381.416 72.9946 382.088C73.5966 382.746 73.8976 383.754 73.8976 385.112C73.8976 385.504 73.8416 387.324 73.7296 390.572L75.4936 390.74C75.4936 391.132 75.3746 391.552 75.1366 392H70.3066L70.2436 391.265C70.8876 391.041 71.5176 390.873 72.1336 390.761C72.0496 387.093 71.9726 385.056 71.9026 384.65C71.8466 384.23 71.7486 383.866 71.6086 383.558C71.4686 383.25 71.2586 383.033 70.9786 382.907C70.6986 382.781 70.3276 382.718 69.8656 382.718C68.9416 382.718 68.0456 382.942 67.1776 383.39C67.0936 386.582 67.0376 388.976 67.0096 390.572L68.7736 390.74C68.7736 391.132 68.6546 391.552 68.4166 392H63.5866L63.5236 391.265C64.1676 391.041 64.7976 390.873 65.4136 390.761C65.3296 387.205 65.2596 384.573 65.2036 382.865C64.4336 382.823 63.8176 382.739 63.3556 382.613L63.4396 381.521C64.1956 381.311 65.2946 381.206 66.7366 381.206C66.9046 381.458 67.0306 381.822 67.1146 382.298C67.7166 381.976 68.3186 381.696 68.9206 381.458C69.5366 381.206 69.9216 381.08 70.0756 381.08ZM76.422 381.542C77.612 381.332 78.536 381.227 79.194 381.227C79.852 381.227 80.272 381.241 80.454 381.269C80.454 381.605 80.412 381.976 80.328 382.382C80.244 382.788 80.195 382.984 80.181 382.97L79.992 390.572L81.756 390.74C81.756 391.132 81.637 391.552 81.399 392H76.569L76.506 391.265C77.15 391.041 77.78 390.873 78.396 390.761C78.312 387.261 78.242 384.636 78.186 382.886C77.374 382.886 76.758 382.802 76.338 382.634L76.422 381.542ZM300.889 388.766C300.987 388.752 301.106 388.745 301.246 388.745C301.498 388.745 301.743 388.78 301.981 388.85C302.149 389.69 302.233 390.74 302.233 392H294.883C294.715 391.706 294.631 391.447 294.631 391.223C294.631 390.985 294.638 390.838 294.652 390.782C297.55 388.024 299.111 386.526 299.335 386.288C299.559 386.036 299.783 385.665 300.007 385.175C300.245 384.685 300.364 384.195 300.364 383.705C300.364 383.201 300.168 382.739 299.776 382.319C299.398 381.899 298.817 381.689 298.033 381.689C297.599 381.689 297.228 381.731 296.92 381.815L296.416 384.398C296.276 384.412 296.122 384.419 295.954 384.419C295.786 384.419 295.534 384.391 295.198 384.335C294.974 383.733 294.855 382.9 294.841 381.836C295.191 381.5 295.688 381.185 296.332 380.891C296.99 380.583 297.613 380.429 298.201 380.429C299.433 380.429 300.42 380.744 301.162 381.374C301.918 381.99 302.296 382.669 302.296 383.411C302.296 384.363 302.093 385.189 301.687 385.889C301.295 386.589 300.637 387.331 299.713 388.115L296.899 390.509L296.962 390.761L300.637 390.74C300.707 389.788 300.791 389.13 300.889 388.766Z" fill="#FF0000"/>
<path d="M89.4733 349.397C89.9073 349.397 90.2153 349.411 90.3973 349.439C90.3973 349.691 90.3553 350.02 90.2713 350.426C90.2013 350.818 90.1523 351.049 90.1243 351.119C90.1243 351.427 90.1103 352.064 90.0823 353.03C90.0543 353.996 90.0403 354.745 90.0403 355.277C90.6423 354.955 91.2373 354.675 91.8253 354.437C92.4273 354.199 92.8053 354.08 92.9593 354.08C94.3033 354.08 95.2763 354.416 95.8783 355.088C96.4803 355.746 96.7813 356.754 96.7813 358.112C96.7813 358.504 96.7253 360.324 96.6133 363.572L98.3773 363.74C98.3773 364.132 98.2583 364.552 98.0203 365H93.1903L93.1273 364.265C93.7713 364.041 94.4013 363.873 95.0173 363.761C94.9333 360.093 94.8563 358.056 94.7863 357.65C94.7303 357.23 94.6323 356.866 94.4923 356.558C94.3523 356.25 94.1423 356.033 93.8623 355.907C93.5823 355.781 93.2113 355.718 92.7493 355.718C91.7973 355.718 90.8873 355.942 90.0193 356.39L89.8933 363.572L91.6573 363.74C91.6573 364.132 91.5383 364.552 91.3003 365H86.4703L86.4073 364.265C87.0513 364.041 87.6813 363.873 88.2973 363.761L88.0453 351.056C87.2753 351.014 86.6593 350.93 86.1973 350.804L86.2813 349.712C86.9953 349.502 88.0593 349.397 89.4733 349.397ZM103.946 352.274C103.666 352.33 103.365 352.358 103.043 352.358C102.735 352.358 102.483 352.344 102.287 352.316C102.217 352.064 102.182 351.812 102.182 351.56C102.182 351.294 102.196 350.993 102.224 350.657C102.434 350.615 102.721 350.594 103.085 350.594C103.449 350.594 103.715 350.601 103.883 350.615C103.939 350.923 103.967 351.245 103.967 351.581C103.967 351.903 103.96 352.134 103.946 352.274ZM107.411 352.274C107.131 352.33 106.83 352.358 106.508 352.358C106.2 352.358 105.948 352.344 105.752 352.316C105.682 352.064 105.647 351.812 105.647 351.56C105.647 351.294 105.661 350.993 105.689 350.657C105.899 350.615 106.186 350.594 106.55 350.594C106.914 350.594 107.18 350.601 107.348 350.615C107.404 350.923 107.432 351.245 107.432 351.581C107.432 351.903 107.425 352.134 107.411 352.274ZM104.912 363.614C105.318 363.614 105.773 363.53 106.277 363.362C106.781 363.18 107.194 362.963 107.516 362.711C107.46 359.729 107.411 357.468 107.369 355.928C106.501 355.928 105.857 355.844 105.437 355.676L105.521 354.584C106.711 354.374 107.642 354.269 108.314 354.269C109 354.269 109.434 354.283 109.616 354.311C109.616 354.563 109.574 354.899 109.49 355.319C109.42 355.739 109.371 355.97 109.343 356.012L109.091 363.509C109.833 363.551 110.435 363.635 110.897 363.761L110.855 364.832C110.239 365.028 109.644 365.126 109.07 365.126C108.496 365.126 108.146 365.119 108.02 365.105C107.754 364.573 107.6 364.083 107.558 363.635C106.872 364.153 106.235 364.552 105.647 364.832C105.073 365.112 104.695 365.252 104.513 365.252C103.281 365.252 102.385 364.923 101.825 364.265C101.279 363.593 101.006 362.613 101.006 361.325C101.006 361.311 101.069 359.519 101.195 355.949C100.383 355.949 99.6343 355.858 98.9483 355.676L99.0323 354.584C100.222 354.374 101.146 354.269 101.804 354.269C102.462 354.269 102.882 354.283 103.064 354.311C103.064 354.647 103.022 355.018 102.938 355.424C102.854 355.83 102.805 356.026 102.791 356.012L102.812 360.548C102.812 361.612 102.945 362.389 103.211 362.879C103.477 363.369 104.044 363.614 104.912 363.614ZM116.982 365.252C115.302 365.252 114.049 364.783 113.223 363.845C112.397 362.893 111.984 361.542 111.984 359.792C111.984 355.984 113.678 354.08 117.066 354.08C117.612 354.08 118.179 354.164 118.767 354.332C119.355 354.486 119.817 354.661 120.153 354.857C120.111 356.159 119.978 357.083 119.754 357.629C119.502 357.699 119.299 357.734 119.145 357.734H118.788C118.718 357.734 118.634 357.727 118.536 357.713L118.011 355.403C117.549 355.361 117.283 355.34 117.213 355.34C116.205 355.34 115.4 355.648 114.798 356.264C114.21 356.88 113.916 357.916 113.916 359.372C113.916 360.828 114.14 361.934 114.588 362.69C115.05 363.446 115.932 363.824 117.234 363.824C117.85 363.824 118.816 363.53 120.132 362.942C120.398 363.306 120.538 363.628 120.552 363.908C119.838 364.328 119.138 364.657 118.452 364.895C117.766 365.133 117.276 365.252 116.982 365.252ZM128.336 355.844C128.266 355.774 128.112 355.739 127.874 355.739C127.636 355.739 127.279 355.823 126.803 355.991C126.341 356.159 125.921 356.355 125.543 356.579C125.459 359.687 125.403 362.018 125.375 363.572L127.139 363.74C127.139 364.132 127.02 364.552 126.782 365H121.952L121.889 364.265C122.533 364.041 123.163 363.873 123.779 363.761C123.695 360.205 123.625 357.573 123.569 355.865C122.799 355.823 122.183 355.739 121.721 355.613L121.805 354.521C122.547 354.311 123.646 354.206 125.102 354.206C125.326 354.556 125.466 355.004 125.522 355.55C127.132 354.57 128.091 354.08 128.399 354.08C128.707 354.08 129.064 354.143 129.47 354.269C129.876 354.381 130.177 354.507 130.373 354.647C130.373 356.047 130.24 357.188 129.974 358.07C129.778 358.126 129.547 358.154 129.281 358.154C129.029 358.154 128.854 358.147 128.756 358.133L128.336 355.844ZM136.656 363.824C137.272 363.824 138.238 363.53 139.554 362.942C139.82 363.306 139.96 363.628 139.974 363.908C139.26 364.328 138.56 364.657 137.874 364.895C137.188 365.133 136.698 365.252 136.404 365.252C134.78 365.252 133.541 364.769 132.687 363.803C131.833 362.823 131.406 361.458 131.406 359.708C131.406 357.958 131.819 356.586 132.645 355.592C133.485 354.584 134.738 354.08 136.404 354.08C137.692 354.08 138.672 354.542 139.344 355.466C140.03 356.39 140.373 357.629 140.373 359.183C140.261 359.379 140.17 359.512 140.1 359.582L133.338 359.477C133.352 360.891 133.597 361.969 134.073 362.711C134.563 363.453 135.424 363.824 136.656 363.824ZM138.462 358.28C138.462 357.356 138.294 356.642 137.958 356.138C137.622 355.62 137.062 355.361 136.278 355.361C135.494 355.361 134.794 355.508 134.178 355.802C133.758 356.642 133.492 357.503 133.38 358.385C134.486 358.371 136.18 358.336 138.462 358.28ZM213.217 363.719L215.086 363.677C217.018 363.677 217.984 364.475 217.984 366.071C217.984 366.813 217.662 367.499 217.018 368.129C216.388 368.773 215.632 369.256 214.75 369.578C213.868 369.9 213.042 370.061 212.272 370.061C211.516 370.061 210.809 369.949 210.151 369.725C209.493 369.515 208.933 369.165 208.471 368.675C208.009 368.185 207.778 367.618 207.778 366.974C207.778 366.82 208.023 366.414 208.513 365.756C209.017 365.112 209.346 364.734 209.5 364.622C209.374 364.538 209.129 364.3 208.765 363.908C208.401 363.502 208.198 363.222 208.156 363.068C208.506 362.424 209.059 361.794 209.815 361.178C208.695 360.506 208.135 359.4 208.135 357.86C208.135 356.628 208.527 355.69 209.311 355.046C210.095 354.402 211.075 354.08 212.251 354.08C213.427 354.08 214.337 354.269 214.981 354.647C216.101 354.423 217.2 354.311 218.278 354.311C218.544 354.311 218.677 354.472 218.677 354.794C218.677 355.354 218.572 355.739 218.362 355.949L215.947 355.55C216.451 356.194 216.703 356.964 216.703 357.86C216.703 359.26 216.29 360.268 215.464 360.884C214.638 361.486 213.623 361.787 212.419 361.787C212.041 361.787 211.593 361.738 211.075 361.64C210.865 362.074 210.599 362.543 210.277 363.047C210.529 363.495 211.509 363.719 213.217 363.719ZM215.884 367.583C216.024 367.191 216.094 366.785 216.094 366.365C216.094 365.959 215.933 365.63 215.611 365.378C215.289 365.126 214.876 365 214.372 365C212.37 365 211.145 364.979 210.697 364.937C210.319 365.539 210.053 366.043 209.899 366.449C209.759 366.869 209.689 367.107 209.689 367.163C209.689 367.709 209.948 368.115 210.466 368.381C210.984 368.647 211.579 368.78 212.251 368.78C212.937 368.78 213.623 368.668 214.309 368.444C215.009 368.22 215.534 367.933 215.884 367.583ZM214.813 357.944C214.813 356.208 214.015 355.34 212.419 355.34C210.823 355.34 210.025 356.18 210.025 357.86C210.025 358.714 210.235 359.372 210.655 359.834C211.075 360.296 211.684 360.527 212.482 360.527C214.036 360.527 214.813 359.666 214.813 357.944ZM225.148 363.824C225.764 363.824 226.73 363.53 228.046 362.942C228.312 363.306 228.452 363.628 228.466 363.908C227.752 364.328 227.052 364.657 226.366 364.895C225.68 365.133 225.19 365.252 224.896 365.252C223.272 365.252 222.033 364.769 221.179 363.803C220.325 362.823 219.898 361.458 219.898 359.708C219.898 357.958 220.311 356.586 221.137 355.592C221.977 354.584 223.23 354.08 224.896 354.08C226.184 354.08 227.164 354.542 227.836 355.466C228.522 356.39 228.865 357.629 228.865 359.183C228.753 359.379 228.662 359.512 228.592 359.582L221.83 359.477C221.844 360.891 222.089 361.969 222.565 362.711C223.055 363.453 223.916 363.824 225.148 363.824ZM226.954 358.28C226.954 357.356 226.786 356.642 226.45 356.138C226.114 355.62 225.554 355.361 224.77 355.361C223.986 355.361 223.286 355.508 222.67 355.802C222.25 356.642 221.984 357.503 221.872 358.385C222.978 358.371 224.672 358.336 226.954 358.28ZM235.81 367.583C235.81 367.681 235.642 368.052 235.306 368.696C235.18 368.948 235.089 369.151 235.033 369.305L235.264 369.578C235.754 369.41 236.188 369.102 236.566 368.654C236.958 368.22 237.154 367.8 237.154 367.394C237.154 367.002 236.594 366.568 235.474 366.092C235.586 365.812 235.754 365.294 235.978 364.538C235.866 364.496 235.733 364.475 235.579 364.475C235.439 364.475 235.327 364.496 235.243 364.538C234.753 365.63 234.508 366.358 234.508 366.722C235.376 367.03 235.81 367.317 235.81 367.583ZM235.558 365.252C233.878 365.252 232.625 364.783 231.799 363.845C230.973 362.893 230.56 361.542 230.56 359.792C230.56 355.984 232.254 354.08 235.642 354.08C236.188 354.08 236.755 354.164 237.343 354.332C237.931 354.486 238.393 354.661 238.729 354.857C238.687 356.159 238.554 357.083 238.33 357.629C238.078 357.699 237.875 357.734 237.721 357.734H237.364C237.294 357.734 237.21 357.727 237.112 357.713L236.587 355.403C236.125 355.361 235.859 355.34 235.789 355.34C234.781 355.34 233.976 355.648 233.374 356.264C232.786 356.88 232.492 357.916 232.492 359.372C232.492 360.828 232.716 361.934 233.164 362.69C233.626 363.446 234.508 363.824 235.81 363.824C236.426 363.824 237.392 363.53 238.708 362.942C238.974 363.306 239.114 363.628 239.128 363.908C238.414 364.328 237.714 364.657 237.028 364.895C236.342 365.133 235.852 365.252 235.558 365.252ZM244.307 352.337C243.943 352.421 243.586 352.463 243.236 352.463C242.9 352.463 242.564 352.442 242.228 352.4C242.144 352.008 242.102 351.616 242.102 351.224C242.102 350.818 242.116 350.517 242.144 350.321C242.452 350.251 242.774 350.216 243.11 350.216C243.46 350.216 243.831 350.23 244.223 350.258C244.307 350.622 244.349 350.979 244.349 351.329C244.349 351.665 244.335 352.001 244.307 352.337ZM240.485 354.542C241.675 354.332 242.599 354.227 243.257 354.227C243.915 354.227 244.335 354.241 244.517 354.269C244.517 354.605 244.475 354.976 244.391 355.382C244.307 355.788 244.258 355.984 244.244 355.97L244.055 363.572L245.819 363.74C245.819 364.132 245.7 364.552 245.462 365H240.632L240.569 364.265C241.213 364.041 241.843 363.873 242.459 363.761C242.375 360.261 242.305 357.636 242.249 355.886C241.437 355.886 240.821 355.802 240.401 355.634L240.485 354.542ZM253.433 355.844C253.363 355.774 253.209 355.739 252.971 355.739C252.733 355.739 252.376 355.823 251.9 355.991C251.438 356.159 251.018 356.355 250.64 356.579C250.556 359.687 250.5 362.018 250.472 363.572L252.236 363.74C252.236 364.132 252.117 364.552 251.879 365H247.049L246.986 364.265C247.63 364.041 248.26 363.873 248.876 363.761C248.792 360.205 248.722 357.573 248.666 355.865C247.896 355.823 247.28 355.739 246.818 355.613L246.902 354.521C247.644 354.311 248.743 354.206 250.199 354.206C250.423 354.556 250.563 355.004 250.619 355.55C252.229 354.57 253.188 354.08 253.496 354.08C253.804 354.08 254.161 354.143 254.567 354.269C254.973 354.381 255.274 354.507 255.47 354.647C255.47 356.047 255.337 357.188 255.071 358.07C254.875 358.126 254.644 358.154 254.378 358.154C254.126 358.154 253.951 358.147 253.853 358.133L253.433 355.844ZM260.2 352.337C259.836 352.421 259.479 352.463 259.129 352.463C258.793 352.463 258.457 352.442 258.121 352.4C258.037 352.008 257.995 351.616 257.995 351.224C257.995 350.818 258.009 350.517 258.037 350.321C258.345 350.251 258.667 350.216 259.003 350.216C259.353 350.216 259.724 350.23 260.116 350.258C260.2 350.622 260.242 350.979 260.242 351.329C260.242 351.665 260.228 352.001 260.2 352.337ZM256.378 354.542C257.568 354.332 258.492 354.227 259.15 354.227C259.808 354.227 260.228 354.241 260.41 354.269C260.41 354.605 260.368 354.976 260.284 355.382C260.2 355.788 260.151 355.984 260.137 355.97L259.948 363.572L261.712 363.74C261.712 364.132 261.593 364.552 261.355 365H256.525L256.462 364.265C257.106 364.041 257.736 363.873 258.352 363.761C258.268 360.261 258.198 357.636 258.142 355.886C257.33 355.886 256.714 355.802 256.294 355.634L256.378 354.542ZM269.327 355.844C269.257 355.774 269.103 355.739 268.865 355.739C268.627 355.739 268.27 355.823 267.794 355.991C267.332 356.159 266.912 356.355 266.534 356.579C266.45 359.687 266.394 362.018 266.366 363.572L268.13 363.74C268.13 364.132 268.011 364.552 267.773 365H262.943L262.88 364.265C263.524 364.041 264.154 363.873 264.77 363.761C264.686 360.205 264.616 357.573 264.56 355.865C263.79 355.823 263.174 355.739 262.712 355.613L262.796 354.521C263.538 354.311 264.637 354.206 266.093 354.206C266.317 354.556 266.457 355.004 266.513 355.55C268.123 354.57 269.082 354.08 269.39 354.08C269.698 354.08 270.055 354.143 270.461 354.269C270.867 354.381 271.168 354.507 271.364 354.647C271.364 356.047 271.231 357.188 270.965 358.07C270.769 358.126 270.538 358.154 270.272 358.154C270.02 358.154 269.845 358.147 269.747 358.133L269.327 355.844ZM274.057 363.656C274.547 363.866 275.142 363.971 275.842 363.971C276.556 363.971 277.116 363.838 277.522 363.572C277.928 363.306 278.131 362.942 278.131 362.48C278.131 362.018 277.942 361.633 277.564 361.325C277.186 361.017 276.724 360.744 276.178 360.506C275.632 360.268 275.086 360.016 274.54 359.75C273.994 359.484 273.532 359.134 273.154 358.7C272.776 358.266 272.587 357.762 272.587 357.188C272.587 356.222 272.909 355.466 273.553 354.92C274.197 354.36 275.086 354.08 276.22 354.08C277.368 354.08 278.446 354.339 279.454 354.857C279.468 354.997 279.475 355.375 279.475 355.991C279.475 356.593 279.412 357.111 279.286 357.545C278.95 357.657 278.551 357.713 278.089 357.713L277.396 355.571C277.088 355.417 276.668 355.34 276.136 355.34C275.618 355.34 275.205 355.48 274.897 355.76C274.589 356.026 274.435 356.369 274.435 356.789C274.435 357.195 274.624 357.552 275.002 357.86C275.394 358.168 275.863 358.448 276.409 358.7C276.955 358.938 277.501 359.197 278.047 359.477C278.593 359.743 279.055 360.1 279.433 360.548C279.825 360.982 280.021 361.486 280.021 362.06C280.021 363.068 279.629 363.859 278.845 364.433C278.075 364.993 277.123 365.273 275.989 365.273C275.373 365.273 274.715 365.175 274.015 364.979C273.315 364.769 272.727 364.503 272.251 364.181C272.251 363.243 272.335 362.41 272.503 361.682C272.825 361.626 273.259 361.598 273.805 361.598L274.057 363.656ZM287.143 363.824C287.759 363.824 288.725 363.53 290.041 362.942C290.307 363.306 290.447 363.628 290.461 363.908C289.747 364.328 289.047 364.657 288.361 364.895C287.675 365.133 287.185 365.252 286.891 365.252C285.267 365.252 284.028 364.769 283.174 363.803C282.32 362.823 281.893 361.458 281.893 359.708C281.893 357.958 282.306 356.586 283.132 355.592C283.972 354.584 285.225 354.08 286.891 354.08C288.179 354.08 289.159 354.542 289.831 355.466C290.517 356.39 290.86 357.629 290.86 359.183C290.748 359.379 290.657 359.512 290.587 359.582L283.825 359.477C283.839 360.891 284.084 361.969 284.56 362.711C285.05 363.453 285.911 363.824 287.143 363.824ZM288.949 358.28C288.949 357.356 288.781 356.642 288.445 356.138C288.109 355.62 287.549 355.361 286.765 355.361C285.981 355.361 285.281 355.508 284.665 355.802C284.245 356.642 283.979 357.503 283.867 358.385C284.973 358.371 286.667 358.336 288.949 358.28ZM93.923 390.719L95.792 390.677C97.724 390.677 98.69 391.475 98.69 393.071C98.69 393.813 98.368 394.499 97.724 395.129C97.094 395.773 96.338 396.256 95.456 396.578C94.574 396.9 93.748 397.061 92.978 397.061C92.222 397.061 91.515 396.949 90.857 396.725C90.199 396.515 89.639 396.165 89.177 395.675C88.715 395.185 88.484 394.618 88.484 393.974C88.484 393.82 88.729 393.414 89.219 392.756C89.723 392.112 90.052 391.734 90.206 391.622C90.08 391.538 89.835 391.3 89.471 390.908C89.107 390.502 88.904 390.222 88.862 390.068C89.212 389.424 89.765 388.794 90.521 388.178C89.401 387.506 88.841 386.4 88.841 384.86C88.841 383.628 89.233 382.69 90.017 382.046C90.801 381.402 91.781 381.08 92.957 381.08C94.133 381.08 95.043 381.269 95.687 381.647C96.807 381.423 97.906 381.311 98.984 381.311C99.25 381.311 99.383 381.472 99.383 381.794C99.383 382.354 99.278 382.739 99.068 382.949L96.653 382.55C97.157 383.194 97.409 383.964 97.409 384.86C97.409 386.26 96.996 387.268 96.17 387.884C95.344 388.486 94.329 388.787 93.125 388.787C92.747 388.787 92.299 388.738 91.781 388.64C91.571 389.074 91.305 389.543 90.983 390.047C91.235 390.495 92.215 390.719 93.923 390.719ZM96.59 394.583C96.73 394.191 96.8 393.785 96.8 393.365C96.8 392.959 96.639 392.63 96.317 392.378C95.995 392.126 95.582 392 95.078 392C93.076 392 91.851 391.979 91.403 391.937C91.025 392.539 90.759 393.043 90.605 393.449C90.465 393.869 90.395 394.107 90.395 394.163C90.395 394.709 90.654 395.115 91.172 395.381C91.69 395.647 92.285 395.78 92.957 395.78C93.643 395.78 94.329 395.668 95.015 395.444C95.715 395.22 96.24 394.933 96.59 394.583ZM95.519 384.944C95.519 383.208 94.721 382.34 93.125 382.34C91.529 382.34 90.731 383.18 90.731 384.86C90.731 385.714 90.941 386.372 91.361 386.834C91.781 387.296 92.39 387.527 93.188 387.527C94.742 387.527 95.519 386.666 95.519 384.944ZM105.854 390.824C106.47 390.824 107.436 390.53 108.752 389.942C109.018 390.306 109.158 390.628 109.172 390.908C108.458 391.328 107.758 391.657 107.072 391.895C106.386 392.133 105.896 392.252 105.602 392.252C103.978 392.252 102.739 391.769 101.885 390.803C101.031 389.823 100.604 388.458 100.604 386.708C100.604 384.958 101.017 383.586 101.843 382.592C102.683 381.584 103.936 381.08 105.602 381.08C106.89 381.08 107.87 381.542 108.542 382.466C109.228 383.39 109.571 384.629 109.571 386.183C109.459 386.379 109.368 386.512 109.298 386.582L102.536 386.477C102.55 387.891 102.795 388.969 103.271 389.711C103.761 390.453 104.622 390.824 105.854 390.824ZM107.66 385.28C107.66 384.356 107.492 383.642 107.156 383.138C106.82 382.62 106.26 382.361 105.476 382.361C104.692 382.361 103.992 382.508 103.376 382.802C102.956 383.642 102.69 384.503 102.578 385.385C103.684 385.371 105.378 385.336 107.66 385.28ZM117.818 381.08C119.162 381.08 120.135 381.416 120.737 382.088C121.339 382.746 121.64 383.754 121.64 385.112C121.64 385.504 121.584 387.324 121.472 390.572L123.236 390.74C123.236 391.132 123.117 391.552 122.879 392H118.049L117.986 391.265C118.63 391.041 119.26 390.873 119.876 390.761C119.792 387.093 119.715 385.056 119.645 384.65C119.589 384.23 119.491 383.866 119.351 383.558C119.211 383.25 119.001 383.033 118.721 382.907C118.441 382.781 118.07 382.718 117.608 382.718C116.684 382.718 115.788 382.942 114.92 383.39C114.836 386.582 114.78 388.976 114.752 390.572L116.516 390.74C116.516 391.132 116.397 391.552 116.159 392H111.329L111.266 391.265C111.91 391.041 112.54 390.873 113.156 390.761C113.072 387.205 113.002 384.573 112.946 382.865C112.176 382.823 111.56 382.739 111.098 382.613L111.182 381.521C111.938 381.311 113.037 381.206 114.479 381.206C114.647 381.458 114.773 381.822 114.857 382.298C115.459 381.976 116.061 381.696 116.663 381.458C117.279 381.206 117.664 381.08 117.818 381.08ZM129.54 390.824C130.156 390.824 131.122 390.53 132.438 389.942C132.704 390.306 132.844 390.628 132.858 390.908C132.144 391.328 131.444 391.657 130.758 391.895C130.072 392.133 129.582 392.252 129.288 392.252C127.664 392.252 126.425 391.769 125.571 390.803C124.717 389.823 124.29 388.458 124.29 386.708C124.29 384.958 124.703 383.586 125.529 382.592C126.369 381.584 127.622 381.08 129.288 381.08C130.576 381.08 131.556 381.542 132.228 382.466C132.914 383.39 133.257 384.629 133.257 386.183C133.145 386.379 133.054 386.512 132.984 386.582L126.222 386.477C126.236 387.891 126.481 388.969 126.957 389.711C127.447 390.453 128.308 390.824 129.54 390.824ZM131.346 385.28C131.346 384.356 131.178 383.642 130.842 383.138C130.506 382.62 129.946 382.361 129.162 382.361C128.378 382.361 127.678 382.508 127.062 382.802C126.642 383.642 126.376 384.503 126.264 385.385C127.37 385.371 129.064 385.336 131.346 385.28ZM136.506 390.698L136.338 382.781H134.721L134.658 382.046C134.798 381.948 135.204 381.766 135.876 381.5L137.598 378.812C137.878 378.84 138.095 378.91 138.249 379.022L138.228 381.332C139.278 381.332 140.139 381.402 140.811 381.542C140.811 381.92 140.692 382.333 140.454 382.781H138.186C138.158 384.461 138.13 387.009 138.102 390.425C138.886 390.467 139.67 390.607 140.454 390.845L140.433 391.58C140.237 391.706 139.733 391.853 138.921 392.021C138.123 392.189 137.465 392.273 136.947 392.273C136.877 392.161 136.786 391.923 136.674 391.559C136.562 391.181 136.506 390.894 136.506 390.698ZM146.033 379.337C145.669 379.421 145.312 379.463 144.962 379.463C144.626 379.463 144.29 379.442 143.954 379.4C143.87 379.008 143.828 378.616 143.828 378.224C143.828 377.818 143.842 377.517 143.87 377.321C144.178 377.251 144.5 377.216 144.836 377.216C145.186 377.216 145.557 377.23 145.949 377.258C146.033 377.622 146.075 377.979 146.075 378.329C146.075 378.665 146.061 379.001 146.033 379.337ZM142.211 381.542C143.401 381.332 144.325 381.227 144.983 381.227C145.641 381.227 146.061 381.241 146.243 381.269C146.243 381.605 146.201 381.976 146.117 382.382C146.033 382.788 145.984 382.984 145.97 382.97L145.781 390.572L147.545 390.74C147.545 391.132 147.426 391.552 147.188 392H142.358L142.295 391.265C142.939 391.041 143.569 390.873 144.185 390.761C144.101 387.261 144.031 384.636 143.975 382.886C143.163 382.886 142.547 382.802 142.127 382.634L142.211 381.542ZM151.548 376.271C151.982 376.271 152.29 376.285 152.472 376.313C152.472 376.747 152.381 377.307 152.199 377.993C152.115 381.689 152.073 384.482 152.073 386.372L155.454 382.76L153.774 382.592C153.774 382.2 153.893 381.78 154.131 381.332H159.465L159.528 382.256C159.206 382.382 158.618 382.543 157.764 382.739L154.887 385.343L158.436 390.572L160.2 390.74C160.2 391.132 160.081 391.552 159.843 392H156.966L153.69 386.414L152.052 387.905C152.024 389.081 152.01 389.97 152.01 390.572L153.774 390.74C153.774 391.132 153.655 391.552 153.417 392H148.587L148.524 391.265C149.168 391.041 149.798 390.873 150.414 390.761C150.33 385.105 150.26 380.828 150.204 377.93C149.434 377.888 148.818 377.804 148.356 377.678L148.44 376.586C149.154 376.376 150.19 376.271 151.548 376.271ZM168.759 395.906C169.291 395.906 169.809 395.395 170.313 394.373C170.831 393.351 171.125 392.56 171.195 392H170.691L167.373 382.76L165.609 382.592C165.609 382.2 165.728 381.78 165.966 381.332H170.796L170.859 382.067C170.411 382.263 169.914 382.417 169.368 382.529L171.195 388.262L171.678 390.11H171.888L174.408 382.529L172.644 382.067L172.707 381.332H177.432C177.67 381.78 177.789 382.2 177.789 382.592C177.215 382.662 176.641 382.711 176.067 382.739C175.703 383.803 175.157 385.392 174.429 387.506C173.715 389.62 173.148 391.258 172.728 392.42C172.322 393.582 171.916 394.527 171.51 395.255C171.104 395.983 170.698 396.466 170.292 396.704C169.9 396.956 169.459 397.082 168.969 397.082C168.101 397.082 167.289 396.914 166.533 396.578L166.155 396.389C166.253 394.793 166.316 393.918 166.344 393.764C166.456 393.722 166.862 393.701 167.562 393.701L168.276 395.843C168.402 395.885 168.563 395.906 168.759 395.906ZM186.666 385.133L186.561 390.551C187.163 390.593 187.765 390.691 188.367 390.845L188.325 391.58C188.101 391.692 187.695 391.818 187.107 391.958C186.533 392.084 185.966 392.147 185.406 392.147C185.154 391.643 185.014 391.16 184.986 390.698C183.39 391.748 182.27 392.273 181.626 392.273C180.632 392.273 179.834 392.007 179.232 391.475C178.63 390.943 178.329 390.201 178.329 389.249C178.329 387.051 179.673 385.917 182.361 385.847C183.929 385.805 184.72 385.784 184.734 385.784L184.713 385.07C184.685 384.104 184.503 383.411 184.167 382.991C183.831 382.557 183.229 382.34 182.361 382.34C181.997 382.34 181.605 382.424 181.185 382.592L180.681 384.692C180.611 384.706 180.492 384.713 180.324 384.713L179.463 384.65C179.239 384.048 179.12 383.215 179.106 382.151C179.372 382.011 179.981 381.801 180.933 381.521C181.885 381.227 182.494 381.08 182.76 381.08C184.188 381.08 185.196 381.395 185.784 382.025C186.372 382.655 186.666 383.691 186.666 385.133ZM182.088 390.845C182.494 390.845 183.432 390.39 184.902 389.48L184.797 386.855C183.845 386.939 183.047 387.016 182.403 387.086C181.759 387.156 181.241 387.345 180.849 387.653C180.457 387.947 180.261 388.416 180.261 389.06C180.261 390.25 180.87 390.845 182.088 390.845ZM192.841 390.929L192.736 395.423L194.563 395.57C194.563 395.962 194.444 396.382 194.206 396.83H189.334L189.271 396.095C189.915 395.885 190.545 395.724 191.161 395.612C191.077 389.9 191.007 385.651 190.951 382.865C190.321 382.851 189.705 382.767 189.103 382.613L189.187 381.521C189.999 381.311 191.133 381.206 192.589 381.206C192.715 381.43 192.834 381.843 192.946 382.445C194.738 381.535 195.872 381.08 196.348 381.08C197.65 381.08 198.616 381.591 199.246 382.613C199.876 383.621 200.191 384.937 200.191 386.561C200.191 388.171 199.834 389.522 199.12 390.614C198.42 391.706 197.398 392.252 196.054 392.252C195.55 392.252 194.997 392.126 194.395 391.874C193.807 391.622 193.289 391.307 192.841 390.929ZM195.97 382.655C195.102 382.655 194.094 382.963 192.946 383.579C192.918 386.183 192.89 388.136 192.862 389.438C193.212 389.788 193.674 390.11 194.248 390.404C194.836 390.684 195.347 390.824 195.781 390.824C197.433 390.824 198.259 389.466 198.259 386.75C198.259 385.714 198.14 384.902 197.902 384.314C197.664 383.712 197.391 383.285 197.083 383.033C196.775 382.781 196.404 382.655 195.97 382.655ZM201.663 381.542C202.853 381.332 203.777 381.227 204.435 381.227C205.093 381.227 205.513 381.241 205.695 381.269C205.695 381.605 205.653 381.976 205.569 382.382C205.485 382.788 205.436 382.984 205.422 382.97L205.233 390.572L206.997 390.74C206.997 391.132 206.878 391.552 206.64 392H201.81L201.747 391.265C202.391 391.041 203.021 390.873 203.637 390.761C203.553 387.261 203.483 384.636 203.427 382.886C202.615 382.886 201.999 382.802 201.579 382.634L201.663 381.542ZM210.349 395.906C210.881 395.906 211.399 395.395 211.903 394.373C212.421 393.351 212.715 392.56 212.785 392H212.281L208.963 382.76L207.199 382.592C207.199 382.2 207.318 381.78 207.556 381.332H212.386L212.449 382.067C212.001 382.263 211.504 382.417 210.958 382.529L212.785 388.262L213.268 390.11H213.478L215.998 382.529L214.234 382.067L214.297 381.332H219.022C219.26 381.78 219.379 382.2 219.379 382.592C218.805 382.662 218.231 382.711 217.657 382.739C217.293 383.803 216.747 385.392 216.019 387.506C215.305 389.62 214.738 391.258 214.318 392.42C213.912 393.582 213.506 394.527 213.1 395.255C212.694 395.983 212.288 396.466 211.882 396.704C211.49 396.956 211.049 397.082 210.559 397.082C209.691 397.082 208.879 396.914 208.123 396.578L207.745 396.389C207.843 394.793 207.906 393.918 207.934 393.764C208.046 393.722 208.452 393.701 209.152 393.701L209.866 395.843C209.992 395.885 210.153 395.906 210.349 395.906ZM228.256 385.133L228.151 390.551C228.753 390.593 229.355 390.691 229.957 390.845L229.915 391.58C229.691 391.692 229.285 391.818 228.697 391.958C228.123 392.084 227.556 392.147 226.996 392.147C226.744 391.643 226.604 391.16 226.576 390.698C224.98 391.748 223.86 392.273 223.216 392.273C222.222 392.273 221.424 392.007 220.822 391.475C220.22 390.943 219.919 390.201 219.919 389.249C219.919 387.051 221.263 385.917 223.951 385.847C225.519 385.805 226.31 385.784 226.324 385.784L226.303 385.07C226.275 384.104 226.093 383.411 225.757 382.991C225.421 382.557 224.819 382.34 223.951 382.34C223.587 382.34 223.195 382.424 222.775 382.592L222.271 384.692C222.201 384.706 222.082 384.713 221.914 384.713L221.053 384.65C220.829 384.048 220.71 383.215 220.696 382.151C220.962 382.011 221.571 381.801 222.523 381.521C223.475 381.227 224.084 381.08 224.35 381.08C225.778 381.08 226.786 381.395 227.374 382.025C227.962 382.655 228.256 383.691 228.256 385.133ZM223.678 390.845C224.084 390.845 225.022 390.39 226.492 389.48L226.387 386.855C225.435 386.939 224.637 387.016 223.993 387.086C223.349 387.156 222.831 387.345 222.439 387.653C222.047 387.947 221.851 388.416 221.851 389.06C221.851 390.25 222.46 390.845 223.678 390.845ZM238.332 390.656C238.822 390.866 239.417 390.971 240.117 390.971C240.831 390.971 241.391 390.838 241.797 390.572C242.203 390.306 242.406 389.942 242.406 389.48C242.406 389.018 242.217 388.633 241.839 388.325C241.461 388.017 240.999 387.744 240.453 387.506C239.907 387.268 239.361 387.016 238.815 386.75C238.269 386.484 237.807 386.134 237.429 385.7C237.051 385.266 236.862 384.762 236.862 384.188C236.862 383.222 237.184 382.466 237.828 381.92C238.472 381.36 239.361 381.08 240.495 381.08C241.643 381.08 242.721 381.339 243.729 381.857C243.743 381.997 243.75 382.375 243.75 382.991C243.75 383.593 243.687 384.111 243.561 384.545C243.225 384.657 242.826 384.713 242.364 384.713L241.671 382.571C241.363 382.417 240.943 382.34 240.411 382.34C239.893 382.34 239.48 382.48 239.172 382.76C238.864 383.026 238.71 383.369 238.71 383.789C238.71 384.195 238.899 384.552 239.277 384.86C239.669 385.168 240.138 385.448 240.684 385.7C241.23 385.938 241.776 386.197 242.322 386.477C242.868 386.743 243.33 387.1 243.708 387.548C244.1 387.982 244.296 388.486 244.296 389.06C244.296 390.068 243.904 390.859 243.12 391.433C242.35 391.993 241.398 392.273 240.264 392.273C239.648 392.273 238.99 392.175 238.29 391.979C237.59 391.769 237.002 391.503 236.526 391.181C236.526 390.243 236.61 389.41 236.778 388.682C237.1 388.626 237.534 388.598 238.08 388.598L238.332 390.656ZM254.526 385.133L254.421 390.551C255.023 390.593 255.625 390.691 256.227 390.845L256.185 391.58C255.961 391.692 255.555 391.818 254.967 391.958C254.393 392.084 253.826 392.147 253.266 392.147C253.014 391.643 252.874 391.16 252.846 390.698C251.25 391.748 250.13 392.273 249.486 392.273C248.492 392.273 247.694 392.007 247.092 391.475C246.49 390.943 246.189 390.201 246.189 389.249C246.189 387.051 247.533 385.917 250.221 385.847C251.789 385.805 252.58 385.784 252.594 385.784L252.573 385.07C252.545 384.104 252.363 383.411 252.027 382.991C251.691 382.557 251.089 382.34 250.221 382.34C249.857 382.34 249.465 382.424 249.045 382.592L248.541 384.692C248.471 384.706 248.352 384.713 248.184 384.713L247.323 384.65C247.099 384.048 246.98 383.215 246.966 382.151C247.232 382.011 247.841 381.801 248.793 381.521C249.745 381.227 250.354 381.08 250.62 381.08C252.048 381.08 253.056 381.395 253.644 382.025C254.232 382.655 254.526 383.691 254.526 385.133ZM249.948 390.845C250.354 390.845 251.292 390.39 252.762 389.48L252.657 386.855C251.705 386.939 250.907 387.016 250.263 387.086C249.619 387.156 249.101 387.345 248.709 387.653C248.317 387.947 248.121 388.416 248.121 389.06C248.121 390.25 248.73 390.845 249.948 390.845ZM260.344 376.397C260.778 376.397 261.086 376.411 261.268 376.439C261.268 376.691 261.226 377.02 261.142 377.426C261.072 377.818 261.023 378.049 260.995 378.119C260.995 378.427 260.981 379.064 260.953 380.03C260.925 380.996 260.911 381.745 260.911 382.277C261.513 381.955 262.108 381.675 262.696 381.437C263.298 381.199 263.676 381.08 263.83 381.08C265.174 381.08 266.147 381.416 266.749 382.088C267.351 382.746 267.652 383.754 267.652 385.112C267.652 385.504 267.596 387.324 267.484 390.572L269.248 390.74C269.248 391.132 269.129 391.552 268.891 392H264.061L263.998 391.265C264.642 391.041 265.272 390.873 265.888 390.761C265.804 387.093 265.727 385.056 265.657 384.65C265.601 384.23 265.503 383.866 265.363 383.558C265.223 383.25 265.013 383.033 264.733 382.907C264.453 382.781 264.082 382.718 263.62 382.718C262.668 382.718 261.758 382.942 260.89 383.39L260.764 390.572L262.528 390.74C262.528 391.132 262.409 391.552 262.171 392H257.341L257.278 391.265C257.922 391.041 258.552 390.873 259.168 390.761L258.916 378.056C258.146 378.014 257.53 377.93 257.068 377.804L257.152 376.712C257.866 376.502 258.93 376.397 260.344 376.397ZM274.145 379.337C273.781 379.421 273.424 379.463 273.074 379.463C272.738 379.463 272.402 379.442 272.066 379.4C271.982 379.008 271.94 378.616 271.94 378.224C271.94 377.818 271.954 377.517 271.982 377.321C272.29 377.251 272.612 377.216 272.948 377.216C273.298 377.216 273.669 377.23 274.061 377.258C274.145 377.622 274.187 377.979 274.187 378.329C274.187 378.665 274.173 379.001 274.145 379.337ZM270.323 381.542C271.513 381.332 272.437 381.227 273.095 381.227C273.753 381.227 274.173 381.241 274.355 381.269C274.355 381.605 274.313 381.976 274.229 382.382C274.145 382.788 274.096 382.984 274.082 382.97L273.893 390.572L275.657 390.74C275.657 391.132 275.538 391.552 275.3 392H270.47L270.407 391.265C271.051 391.041 271.681 390.873 272.297 390.761C272.213 387.261 272.143 384.636 272.087 382.886C271.275 382.886 270.659 382.802 270.239 382.634L270.323 381.542ZM280.122 390.929L280.017 395.423L281.844 395.57C281.844 395.962 281.725 396.382 281.487 396.83H276.615L276.552 396.095C277.196 395.885 277.826 395.724 278.442 395.612C278.358 389.9 278.288 385.651 278.232 382.865C277.602 382.851 276.986 382.767 276.384 382.613L276.468 381.521C277.28 381.311 278.414 381.206 279.87 381.206C279.996 381.43 280.115 381.843 280.227 382.445C282.019 381.535 283.153 381.08 283.629 381.08C284.931 381.08 285.897 381.591 286.527 382.613C287.157 383.621 287.472 384.937 287.472 386.561C287.472 388.171 287.115 389.522 286.401 390.614C285.701 391.706 284.679 392.252 283.335 392.252C282.831 392.252 282.278 392.126 281.676 391.874C281.088 391.622 280.57 391.307 280.122 390.929ZM283.251 382.655C282.383 382.655 281.375 382.963 280.227 383.579C280.199 386.183 280.171 388.136 280.143 389.438C280.493 389.788 280.955 390.11 281.529 390.404C282.117 390.684 282.628 390.824 283.062 390.824C284.714 390.824 285.54 389.466 285.54 386.75C285.54 385.714 285.421 384.902 285.183 384.314C284.945 383.712 284.672 383.285 284.364 383.033C284.056 382.781 283.685 382.655 283.251 382.655ZM111.54 403.397C111.974 403.397 112.282 403.411 112.464 403.439C112.464 403.691 112.422 404.02 112.338 404.426C112.268 404.818 112.219 405.049 112.191 405.119C112.191 405.427 112.177 406.064 112.149 407.03C112.121 407.996 112.107 408.745 112.107 409.277C112.709 408.955 113.304 408.675 113.892 408.437C114.494 408.199 114.872 408.08 115.026 408.08C116.37 408.08 117.343 408.416 117.945 409.088C118.547 409.746 118.848 410.754 118.848 412.112C118.848 412.504 118.792 414.324 118.68 417.572L120.444 417.74C120.444 418.132 120.325 418.552 120.087 419H115.257L115.194 418.265C115.838 418.041 116.468 417.873 117.084 417.761C117 414.093 116.923 412.056 116.853 411.65C116.797 411.23 116.699 410.866 116.559 410.558C116.419 410.25 116.209 410.033 115.929 409.907C115.649 409.781 115.278 409.718 114.816 409.718C113.864 409.718 112.954 409.942 112.086 410.39L111.96 417.572L113.724 417.74C113.724 418.132 113.605 418.552 113.367 419H108.537L108.474 418.265C109.118 418.041 109.748 417.873 110.364 417.761L110.112 405.056C109.342 405.014 108.726 404.93 108.264 404.804L108.348 403.712C109.062 403.502 110.126 403.397 111.54 403.397ZM126.013 406.274C125.733 406.33 125.432 406.358 125.11 406.358C124.802 406.358 124.55 406.344 124.354 406.316C124.284 406.064 124.249 405.812 124.249 405.56C124.249 405.294 124.263 404.993 124.291 404.657C124.501 404.615 124.788 404.594 125.152 404.594C125.516 404.594 125.782 404.601 125.95 404.615C126.006 404.923 126.034 405.245 126.034 405.581C126.034 405.903 126.027 406.134 126.013 406.274ZM129.478 406.274C129.198 406.33 128.897 406.358 128.575 406.358C128.267 406.358 128.015 406.344 127.819 406.316C127.749 406.064 127.714 405.812 127.714 405.56C127.714 405.294 127.728 404.993 127.756 404.657C127.966 404.615 128.253 404.594 128.617 404.594C128.981 404.594 129.247 404.601 129.415 404.615C129.471 404.923 129.499 405.245 129.499 405.581C129.499 405.903 129.492 406.134 129.478 406.274ZM126.979 417.614C127.385 417.614 127.84 417.53 128.344 417.362C128.848 417.18 129.261 416.963 129.583 416.711C129.527 413.729 129.478 411.468 129.436 409.928C128.568 409.928 127.924 409.844 127.504 409.676L127.588 408.584C128.778 408.374 129.709 408.269 130.381 408.269C131.067 408.269 131.501 408.283 131.683 408.311C131.683 408.563 131.641 408.899 131.557 409.319C131.487 409.739 131.438 409.97 131.41 410.012L131.158 417.509C131.9 417.551 132.502 417.635 132.964 417.761L132.922 418.832C132.306 419.028 131.711 419.126 131.137 419.126C130.563 419.126 130.213 419.119 130.087 419.105C129.821 418.573 129.667 418.083 129.625 417.635C128.939 418.153 128.302 418.552 127.714 418.832C127.14 419.112 126.762 419.252 126.58 419.252C125.348 419.252 124.452 418.923 123.892 418.265C123.346 417.593 123.073 416.613 123.073 415.325C123.073 415.311 123.136 413.519 123.262 409.949C122.45 409.949 121.701 409.858 121.015 409.676L121.099 408.584C122.289 408.374 123.213 408.269 123.871 408.269C124.529 408.269 124.949 408.283 125.131 408.311C125.131 408.647 125.089 409.018 125.005 409.424C124.921 409.83 124.872 410.026 124.858 410.012L124.879 414.548C124.879 415.612 125.012 416.389 125.278 416.879C125.544 417.369 126.111 417.614 126.979 417.614ZM139.048 419.252C137.368 419.252 136.115 418.783 135.289 417.845C134.463 416.893 134.05 415.542 134.05 413.792C134.05 409.984 135.744 408.08 139.132 408.08C139.678 408.08 140.245 408.164 140.833 408.332C141.421 408.486 141.883 408.661 142.219 408.857C142.177 410.159 142.044 411.083 141.82 411.629C141.568 411.699 141.365 411.734 141.211 411.734H140.854C140.784 411.734 140.7 411.727 140.602 411.713L140.077 409.403C139.615 409.361 139.349 409.34 139.279 409.34C138.271 409.34 137.466 409.648 136.864 410.264C136.276 410.88 135.982 411.916 135.982 413.372C135.982 414.828 136.206 415.934 136.654 416.69C137.116 417.446 137.998 417.824 139.3 417.824C139.916 417.824 140.882 417.53 142.198 416.942C142.464 417.306 142.604 417.628 142.618 417.908C141.904 418.328 141.204 418.657 140.518 418.895C139.832 419.133 139.342 419.252 139.048 419.252ZM150.402 409.844C150.332 409.774 150.178 409.739 149.94 409.739C149.702 409.739 149.345 409.823 148.869 409.991C148.407 410.159 147.987 410.355 147.609 410.579C147.525 413.687 147.469 416.018 147.441 417.572L149.205 417.74C149.205 418.132 149.086 418.552 148.848 419H144.018L143.955 418.265C144.599 418.041 145.229 417.873 145.845 417.761C145.761 414.205 145.691 411.573 145.635 409.865C144.865 409.823 144.249 409.739 143.787 409.613L143.871 408.521C144.613 408.311 145.712 408.206 147.168 408.206C147.392 408.556 147.532 409.004 147.588 409.55C149.198 408.57 150.157 408.08 150.465 408.08C150.773 408.08 151.13 408.143 151.536 408.269C151.942 408.381 152.243 408.507 152.439 408.647C152.439 410.047 152.306 411.188 152.04 412.07C151.844 412.126 151.613 412.154 151.347 412.154C151.095 412.154 150.92 412.147 150.822 412.133L150.402 409.844ZM158.723 417.824C159.339 417.824 160.305 417.53 161.621 416.942C161.887 417.306 162.027 417.628 162.041 417.908C161.327 418.328 160.627 418.657 159.941 418.895C159.255 419.133 158.765 419.252 158.471 419.252C156.847 419.252 155.608 418.769 154.754 417.803C153.9 416.823 153.473 415.458 153.473 413.708C153.473 411.958 153.886 410.586 154.712 409.592C155.552 408.584 156.805 408.08 158.471 408.08C159.759 408.08 160.739 408.542 161.411 409.466C162.097 410.39 162.44 411.629 162.44 413.183C162.328 413.379 162.237 413.512 162.167 413.582L155.405 413.477C155.419 414.891 155.664 415.969 156.14 416.711C156.63 417.453 157.491 417.824 158.723 417.824ZM160.529 412.28C160.529 411.356 160.361 410.642 160.025 410.138C159.689 409.62 159.129 409.361 158.345 409.361C157.561 409.361 156.861 409.508 156.245 409.802C155.825 410.642 155.559 411.503 155.447 412.385C156.553 412.371 158.247 412.336 160.529 412.28ZM174.441 417.992C175.617 417.992 176.408 417.628 176.814 416.9C177.234 416.158 177.444 415.108 177.444 413.75C177.444 411.594 176.968 410.243 176.016 409.697C175.624 409.473 175.071 409.361 174.357 409.361C173.657 409.361 172.992 409.508 172.362 409.802C171.802 410.88 171.522 412.133 171.522 413.561C171.522 414.933 171.704 415.99 172.068 416.732C172.488 417.572 173.279 417.992 174.441 417.992ZM169.59 413.75C169.59 411.972 169.996 410.586 170.808 409.592C171.62 408.584 172.873 408.08 174.567 408.08C176.261 408.08 177.486 408.542 178.242 409.466C178.998 410.376 179.376 411.727 179.376 413.519C179.376 415.311 178.97 416.718 178.158 417.74C177.36 418.762 176.142 419.273 174.504 419.273C172.866 419.273 171.634 418.797 170.808 417.845C169.996 416.893 169.59 415.528 169.59 413.75ZM183.725 403.397C184.159 403.397 184.467 403.411 184.649 403.439C184.649 403.929 184.558 404.489 184.376 405.119C184.25 413.379 184.187 417.53 184.187 417.572L185.951 417.74C185.951 418.132 185.832 418.552 185.594 419H180.764L180.701 418.265C181.345 418.041 181.975 417.873 182.591 417.761L182.381 405.056C181.611 405.014 180.995 404.93 180.533 404.804L180.617 403.712C181.331 403.502 182.367 403.397 183.725 403.397ZM192.501 417.614C192.907 417.614 193.362 417.53 193.866 417.362C194.37 417.18 194.783 416.963 195.105 416.711C195.049 413.729 195 411.468 194.958 409.928C194.09 409.928 193.446 409.844 193.026 409.676L193.11 408.584C194.3 408.374 195.231 408.269 195.903 408.269C196.589 408.269 197.023 408.283 197.205 408.311C197.205 408.563 197.163 408.899 197.079 409.319C197.009 409.739 196.96 409.97 196.932 410.012L196.68 417.509C197.422 417.551 198.024 417.635 198.486 417.761L198.444 418.832C197.828 419.028 197.233 419.126 196.659 419.126C196.085 419.126 195.735 419.119 195.609 419.105C195.343 418.573 195.189 418.083 195.147 417.635C194.461 418.153 193.824 418.552 193.236 418.832C192.662 419.112 192.284 419.252 192.102 419.252C190.87 419.252 189.974 418.923 189.414 418.265C188.868 417.593 188.595 416.613 188.595 415.325C188.595 415.311 188.658 413.519 188.784 409.949C187.972 409.949 187.223 409.858 186.537 409.676L186.621 408.584C187.811 408.374 188.735 408.269 189.393 408.269C190.051 408.269 190.471 408.283 190.653 408.311C190.653 408.647 190.611 409.018 190.527 409.424C190.443 409.83 190.394 410.026 190.38 410.012L190.401 414.548C190.401 415.612 190.534 416.389 190.8 416.879C191.066 417.369 191.633 417.614 192.501 417.614ZM207.93 415.892C207.93 416.62 207.748 417.229 207.384 417.719C207.02 418.209 206.502 418.58 205.83 418.832C205.158 419.084 204.36 419.21 203.436 419.21C202.652 419.21 201.973 419.147 201.399 419.021C200.839 418.895 200.342 418.72 199.908 418.496V416.816C200.356 417.04 200.895 417.25 201.525 417.446C202.169 417.628 202.82 417.719 203.478 417.719C204.416 417.719 205.095 417.572 205.515 417.278C205.935 416.97 206.145 416.564 206.145 416.06C206.145 415.78 206.068 415.528 205.914 415.304C205.76 415.08 205.48 414.856 205.074 414.632C204.682 414.408 204.115 414.156 203.373 413.876C202.645 413.596 202.022 413.316 201.504 413.036C200.986 412.756 200.587 412.42 200.307 412.028C200.027 411.636 199.887 411.132 199.887 410.516C199.887 409.564 200.272 408.829 201.042 408.311C201.826 407.793 202.848 407.534 204.108 407.534C204.794 407.534 205.431 407.604 206.019 407.744C206.621 407.87 207.181 408.052 207.699 408.29L207.069 409.76C206.761 409.62 206.432 409.501 206.082 409.403C205.746 409.291 205.403 409.207 205.053 409.151C204.703 409.081 204.346 409.046 203.982 409.046C203.226 409.046 202.645 409.172 202.239 409.424C201.847 409.662 201.651 409.991 201.651 410.411C201.651 410.719 201.742 410.985 201.924 411.209C202.106 411.419 202.407 411.629 202.827 411.839C203.261 412.035 203.835 412.273 204.549 412.553C205.263 412.819 205.872 413.092 206.376 413.372C206.88 413.652 207.265 413.995 207.531 414.401C207.797 414.793 207.93 415.29 207.93 415.892ZM205.935 421.919C205.935 422.367 205.816 422.745 205.578 423.053C205.354 423.375 205.011 423.62 204.549 423.788C204.087 423.956 203.513 424.04 202.827 424.04C202.617 424.04 202.414 424.026 202.218 423.998C202.036 423.984 201.889 423.963 201.777 423.935V422.78C201.903 422.808 202.071 422.829 202.281 422.843C202.491 422.871 202.694 422.885 202.89 422.885C203.394 422.885 203.779 422.815 204.045 422.675C204.311 422.549 204.444 422.311 204.444 421.961C204.444 421.597 204.255 421.331 203.877 421.163C203.513 420.995 203.065 420.876 202.533 420.806L203.436 419H204.654L204.108 420.113C204.444 420.183 204.752 420.288 205.032 420.428C205.312 420.582 205.529 420.778 205.683 421.016C205.851 421.254 205.935 421.555 205.935 421.919ZM215.039 417.614C215.445 417.614 215.9 417.53 216.404 417.362C216.908 417.18 217.321 416.963 217.643 416.711C217.587 413.729 217.538 411.468 217.496 409.928C216.628 409.928 215.984 409.844 215.564 409.676L215.648 408.584C216.838 408.374 217.769 408.269 218.441 408.269C219.127 408.269 219.561 408.283 219.743 408.311C219.743 408.563 219.701 408.899 219.617 409.319C219.547 409.739 219.498 409.97 219.47 410.012L219.218 417.509C219.96 417.551 220.562 417.635 221.024 417.761L220.982 418.832C220.366 419.028 219.771 419.126 219.197 419.126C218.623 419.126 218.273 419.119 218.147 419.105C217.881 418.573 217.727 418.083 217.685 417.635C216.999 418.153 216.362 418.552 215.774 418.832C215.2 419.112 214.822 419.252 214.64 419.252C213.408 419.252 212.512 418.923 211.952 418.265C211.406 417.593 211.133 416.613 211.133 415.325C211.133 415.311 211.196 413.519 211.322 409.949C210.51 409.949 209.761 409.858 209.075 409.676L209.159 408.584C210.349 408.374 211.273 408.269 211.931 408.269C212.589 408.269 213.009 408.283 213.191 408.311C213.191 408.647 213.149 409.018 213.065 409.424C212.981 409.83 212.932 410.026 212.918 410.012L212.939 414.548C212.939 415.612 213.072 416.389 213.338 416.879C213.604 417.369 214.171 417.614 215.039 417.614ZM228.557 409.844C228.487 409.774 228.333 409.739 228.095 409.739C227.857 409.739 227.5 409.823 227.024 409.991C226.562 410.159 226.142 410.355 225.764 410.579C225.68 413.687 225.624 416.018 225.596 417.572L227.36 417.74C227.36 418.132 227.241 418.552 227.003 419H222.173L222.11 418.265C222.754 418.041 223.384 417.873 224 417.761C223.916 414.205 223.846 411.573 223.79 409.865C223.02 409.823 222.404 409.739 221.942 409.613L222.026 408.521C222.768 408.311 223.867 408.206 225.323 408.206C225.547 408.556 225.687 409.004 225.743 409.55C227.353 408.57 228.312 408.08 228.62 408.08C228.928 408.08 229.285 408.143 229.691 408.269C230.097 408.381 230.398 408.507 230.594 408.647C230.594 410.047 230.461 411.188 230.195 412.07C229.999 412.126 229.768 412.154 229.502 412.154C229.25 412.154 229.075 412.147 228.977 412.133L228.557 409.844ZM234.064 418.937C233.7 419.021 233.343 419.063 232.993 419.063C232.657 419.063 232.321 419.042 231.985 419C231.901 418.608 231.859 418.216 231.859 417.824C231.859 417.418 231.873 417.117 231.901 416.921C232.209 416.851 232.531 416.816 232.867 416.816C233.217 416.816 233.588 416.83 233.98 416.858C234.064 417.222 234.106 417.579 234.106 417.929C234.106 418.265 234.092 418.601 234.064 418.937Z" fill="black"/>
<path d="M116.5 169.018C116.51 169.294 116.742 169.51 117.018 169.5L121.515 169.339C121.791 169.329 122.007 169.098 121.997 168.822C121.987 168.546 121.755 168.33 121.479 168.34L117.482 168.482L117.339 164.485C117.329 164.209 117.098 163.993 116.822 164.003C116.546 164.013 116.33 164.245 116.34 164.521L116.5 169.018ZM143.634 139.659L116.634 168.659L117.366 169.341L144.366 140.341L143.634 139.659Z" fill="black"/>
<path d="M229.008 169.5C229.285 169.495 229.505 169.268 229.5 168.992L229.424 164.492C229.419 164.216 229.191 163.996 228.915 164.001C228.639 164.005 228.419 164.233 228.424 164.509L228.492 168.509L224.492 168.576C224.216 168.581 223.996 168.809 224.001 169.085C224.005 169.361 224.233 169.581 224.509 169.576L229.008 169.5ZM198.652 140.359L228.652 169.359L229.348 168.641L199.348 139.641L198.652 140.359Z" fill="black"/>
<path d="M58.5097 251.098C58.5639 251.369 58.8273 251.544 59.0981 251.49L63.5107 250.608C63.7815 250.554 63.9571 250.29 63.9029 250.019C63.8487 249.749 63.5853 249.573 63.3146 249.627L59.3922 250.412L58.6078 246.489C58.5536 246.219 58.2902 246.043 58.0194 246.097C57.7486 246.151 57.573 246.415 57.6272 246.685L58.5097 251.098ZM76.584 223.723L58.584 250.723L59.416 251.277L77.416 224.277L76.584 223.723Z" fill="black"/>
<path d="M217.51 251.098C217.564 251.369 217.827 251.544 218.098 251.49L222.511 250.608C222.781 250.554 222.957 250.29 222.903 250.019C222.849 249.749 222.585 249.573 222.315 249.627L218.392 250.412L217.608 246.489C217.554 246.219 217.29 246.043 217.019 246.097C216.749 246.151 216.573 246.415 216.627 246.685L217.51 251.098ZM235.584 223.723L217.584 250.723L218.416 251.277L236.416 224.277L235.584 223.723Z" fill="black"/>
<path d="M122.889 251.488C123.158 251.549 123.426 251.38 123.488 251.111L124.485 246.723C124.546 246.453 124.377 246.186 124.108 246.124C123.839 246.063 123.571 246.232 123.51 246.501L122.623 250.402L118.723 249.515C118.453 249.454 118.186 249.623 118.124 249.892C118.063 250.161 118.232 250.429 118.501 250.49L122.889 251.488ZM105.577 224.266L122.577 251.266L123.423 250.734L106.423 223.734L105.577 224.266Z" fill="black"/>
<path d="M284.889 251.488C285.158 251.549 285.426 251.38 285.488 251.111L286.485 246.723C286.546 246.453 286.377 246.186 286.108 246.124C285.839 246.063 285.571 246.232 285.51 246.501L284.623 250.402L280.723 249.515C280.453 249.454 280.186 249.623 280.124 249.892C280.063 250.161 280.232 250.429 280.501 250.49L284.889 251.488ZM267.577 224.266L284.577 251.266L285.423 250.734L268.423 223.734L267.577 224.266Z" fill="black"/>
<circle cx="250" cy="196" r="10" fill="#716F81"/>
<circle cx="169" cy="117" r="10" fill="#716F81"/>
<circle cx="94" cy="196" r="10" fill="#716F81"/>
<circle cx="47" cy="279" r="10" fill="#716F81"/>
<circle cx="131" cy="279" r="10" fill="#716F81"/>
<circle cx="213" cy="279" r="10" fill="#716F81"/>
<circle cx="295" cy="279" r="10" fill="#716F81"/>
</g>
<defs>
<filter id="filter0_d_5_852" x="0" y="0" width="343" height="483" filterUnits="userSpaceOnUse" color-interpolation-filters="sRGB">
<feFlood flood-opacity="0" result="BackgroundImageFix"/>
<feColorMatrix in="SourceAlpha" type="matrix" values="0 0 0 0 0 0 0 0 0 0 0 0 0 0 0 0 0 0 127 0" result="hardAlpha"/>
<feOffset dy="4"/>
<feGaussianBlur stdDeviation="2"/>
<feComposite in2="hardAlpha" operator="out"/>
<feColorMatrix type="matrix" values="0 0 0 0 0 0 0 0 0 0 0 0 0 0 0 0 0 0 0.25 0"/>
<feBlend mode="normal" in2="BackgroundImageFix" result="effect1_dropShadow_5_852"/>
<feBlend mode="normal" in="SourceGraphic" in2="effect1_dropShadow_5_852" result="shape"/>
</filter>
<filter id="filter1_d_5_852" x="43" y="10" width="257" height="42" filterUnits="userSpaceOnUse" color-interpolation-filters="sRGB">
<feFlood flood-opacity="0" result="BackgroundImageFix"/>
<feColorMatrix in="SourceAlpha" type="matrix" values="0 0 0 0 0 0 0 0 0 0 0 0 0 0 0 0 0 0 127 0" result="hardAlpha"/>
<feOffset dy="4"/>
<feGaussianBlur stdDeviation="2"/>
<feComposite in2="hardAlpha" operator="out"/>
<feColorMatrix type="matrix" values="0 0 0 0 0 0 0 0 0 0 0 0 0 0 0 0 0 0 0.25 0"/>
<feBlend mode="normal" in2="BackgroundImageFix" result="effect1_dropShadow_5_852"/>
<feBlend mode="normal" in="SourceGraphic" in2="effect1_dropShadow_5_852" result="shape"/>
</filter>
</defs>
</svg>
