<svg width="343" height="483" viewBox="0 0 343 483" fill="none" xmlns="http://www.w3.org/2000/svg">
<g filter="url(#filter0_d_146_980)">
<rect x="4" width="335" height="475" rx="15" fill="white"/>
<g filter="url(#filter1_d_146_980)">
<rect x="19" y="13" width="305" height="35" rx="2" fill="#A0BCC2"/>
</g>
<path d="M87.9934 27.22C87.9934 27.38 87.9267 30 87.7934 35.08L89.4534 35.26C89.4534 35.8467 89.3001 36.4267 88.9934 37H83.4334L83.2534 35.9C84.2401 35.5267 84.9867 35.2867 85.4934 35.18C85.3734 30.9933 85.3134 28.88 85.3134 28.84C84.4867 29.16 83.8401 29.3467 83.3734 29.4C83.0267 28.7867 82.8467 28.2 82.8334 27.64L87.0534 26.18C87.5201 26.4333 87.8334 26.78 87.9934 27.22ZM93.3004 34.46C93.4204 34.94 93.4804 35.3533 93.4804 35.7C93.4804 36.0333 93.4604 36.4133 93.4204 36.84C92.9671 36.96 92.5338 37.02 92.1204 37.02C91.7071 37.02 91.2538 37 90.7604 36.96C90.6271 36.4267 90.5604 36.04 90.5604 35.8C90.5604 35.5467 90.5871 35.14 90.6404 34.58C91.0804 34.46 91.5004 34.4 91.9004 34.4C92.3138 34.4 92.7804 34.42 93.3004 34.46ZM106.967 35.12C109.181 35.12 110.287 33.42 110.287 30.02C110.287 26.62 109.181 24.92 106.967 24.92C106.007 24.92 105.167 25.0667 104.447 25.36C103.834 26.64 103.527 28.1267 103.527 29.82C103.527 31.5 103.781 32.8067 104.287 33.74C104.794 34.66 105.687 35.12 106.967 35.12ZM106.967 22.76C109.194 22.76 110.761 23.3467 111.667 24.52C112.574 25.68 113.027 27.46 113.027 29.86C113.027 31.3667 112.834 32.6533 112.447 33.72C112.061 34.7867 111.407 35.64 110.487 36.28C109.567 36.92 108.394 37.24 106.967 37.24C104.794 37.24 103.214 36.6333 102.227 35.42C101.254 34.2067 100.767 32.44 100.767 30.12C100.767 25.2133 102.834 22.76 106.967 22.76ZM119.836 28.76C119.81 28.6933 119.676 28.66 119.436 28.66C119.196 28.66 118.783 28.84 118.196 29.2C118.143 31.8133 118.11 33.7733 118.096 35.08L119.656 35.28C119.656 35.8533 119.503 36.4267 119.196 37H114.216L114.036 35.9C114.863 35.5933 115.463 35.3933 115.836 35.3L115.616 28.82C114.923 28.7667 114.343 28.6667 113.876 28.52L114.016 27.08C114.376 26.92 115.676 26.8133 117.916 26.76C118.036 26.88 118.096 27.1133 118.096 27.46C119.27 26.8867 120.01 26.6 120.316 26.6C120.636 26.6 121.023 26.68 121.476 26.84C121.943 26.9867 122.296 27.1467 122.536 27.32V27.66C122.536 28.7533 122.403 29.7667 122.136 30.7C121.91 30.7933 121.61 30.84 121.236 30.84C120.863 30.84 120.516 30.82 120.196 30.78C120.156 30.6067 120.036 29.9333 119.836 28.76ZM130.981 33.54C130.541 33.82 130.074 34.0267 129.581 34.16C129.087 34.28 128.607 34.34 128.141 34.34C127.687 34.34 127.287 34.2933 126.941 34.2C126.794 34.5467 126.654 34.8067 126.521 34.98C126.627 35.14 127.747 35.22 129.881 35.22C131.214 35.22 132.154 35.4267 132.701 35.84C132.954 36.0133 133.174 36.2867 133.361 36.66C133.561 37.0333 133.661 37.5133 133.661 38.1C133.661 38.7 133.367 39.3 132.781 39.9C132.194 40.5 131.461 40.9733 130.581 41.32C129.701 41.6667 128.827 41.84 127.961 41.84C126.521 41.84 125.354 41.5533 124.461 40.98C123.567 40.42 123.121 39.72 123.121 38.88C123.121 38.72 123.354 38.3267 123.821 37.7C124.287 37.0867 124.594 36.7333 124.741 36.64C124.607 36.5733 124.374 36.3533 124.041 35.98C123.707 35.5933 123.521 35.32 123.481 35.16C123.654 34.68 124.187 34.08 125.081 33.36C124.041 32.7333 123.521 31.68 123.521 30.2C123.521 29.0267 123.921 28.1333 124.721 27.52C125.534 26.9067 126.601 26.6 127.921 26.6C129.254 26.6 130.261 26.78 130.941 27.14C132.074 26.94 132.874 26.84 133.341 26.84C133.821 26.84 134.134 26.8467 134.281 26.86C134.281 27.18 134.201 27.5467 134.041 27.96C133.894 28.36 133.754 28.64 133.621 28.8L131.901 28.4C132.234 28.88 132.401 29.5 132.401 30.26C132.401 31.02 132.274 31.6867 132.021 32.26C131.767 32.82 131.421 33.2467 130.981 33.54ZM130.881 39.26C130.974 39.0067 131.021 38.7133 131.021 38.38C131.021 38.0467 130.874 37.8 130.581 37.64C130.287 37.4933 129.941 37.42 129.541 37.42C127.981 37.42 126.947 37.4067 126.441 37.38C126.334 37.6067 126.201 37.9267 126.041 38.34C125.881 38.7667 125.801 39.02 125.801 39.1C125.801 39.18 125.854 39.2933 125.961 39.44C126.067 39.6 126.294 39.7667 126.641 39.94C127.001 40.1133 127.434 40.2 127.941 40.2C128.461 40.2 129.067 40.08 129.761 39.84C130.454 39.6 130.827 39.4067 130.881 39.26ZM129.261 28.64C128.954 28.28 128.521 28.1 127.961 28.1C127.401 28.1 126.961 28.28 126.641 28.64C126.334 29 126.181 29.5267 126.181 30.22C126.181 30.9 126.341 31.4333 126.661 31.82C126.981 32.2067 127.414 32.4 127.961 32.4C129.147 32.4 129.741 31.6667 129.741 30.2C129.741 29.52 129.581 29 129.261 28.64ZM138.243 37.24C137.11 37.24 136.23 37.0067 135.603 36.54C134.99 36.0733 134.683 35.2867 134.683 34.18C134.683 33.1267 135.05 32.2667 135.783 31.6C136.21 31.2133 136.803 30.9867 137.563 30.92C138.323 30.8533 139.37 30.82 140.703 30.82V30.5C140.703 29.6867 140.57 29.0933 140.303 28.72C140.05 28.3333 139.597 28.14 138.943 28.14C138.61 28.14 138.31 28.2067 138.043 28.34L137.563 30.08L136.083 30.04C135.75 29.5333 135.57 28.7267 135.543 27.62C135.81 27.4867 136.437 27.2867 137.423 27.02C138.41 26.74 139.043 26.6 139.323 26.6C140.763 26.6 141.81 26.9 142.463 27.5C143.117 28.0867 143.443 29.0267 143.443 30.32C143.443 31.6 143.383 33.2933 143.263 35.4C144.023 35.4667 144.61 35.58 145.023 35.74C145.037 35.9 145.043 36.0933 145.043 36.32L145.023 36.76C144.063 37.08 143.097 37.24 142.123 37.24C141.87 37.24 141.683 37.2333 141.563 37.22C141.363 36.82 141.243 36.34 141.203 35.78H141.103C140.85 36.02 140.403 36.3267 139.763 36.7C139.137 37.06 138.63 37.24 138.243 37.24ZM137.243 34.3C137.243 34.74 137.377 35.0667 137.643 35.28C137.923 35.48 138.237 35.58 138.583 35.58C138.93 35.58 139.343 35.4267 139.823 35.12C140.303 34.8 140.69 34.5133 140.983 34.26L140.883 32.42C139.83 32.4733 139.037 32.5733 138.503 32.72C137.663 32.8933 137.243 33.42 137.243 34.3ZM151.925 26.6C153.258 26.6 154.225 26.9267 154.825 27.58C155.425 28.2333 155.725 29.1467 155.725 30.32C155.725 31.4933 155.658 33.08 155.525 35.08L157.105 35.26C157.105 35.8067 156.951 36.3867 156.645 37H151.665L151.485 35.9C152.111 35.6467 152.691 35.4467 153.225 35.3C153.185 33.7667 153.145 32.48 153.105 31.44C153.065 30.3867 152.965 29.6733 152.805 29.3C152.645 28.9267 152.291 28.74 151.745 28.74C150.918 28.74 150.178 28.8867 149.525 29.18C149.511 29.7533 149.471 30.6933 149.405 32C149.351 33.2933 149.318 34.32 149.305 35.08L150.865 35.26C150.865 35.8067 150.711 36.3867 150.405 37H145.425L145.245 35.9C145.911 35.6467 146.511 35.4467 147.045 35.3C147.031 34.5 146.985 33.3933 146.905 31.98C146.838 30.5667 146.798 29.52 146.785 28.84C146.291 28.7867 145.765 28.6867 145.205 28.54L145.305 27.1C146.238 26.8467 147.291 26.72 148.465 26.72C148.611 26.8133 148.811 27.1 149.065 27.58C149.518 27.3533 150.071 27.1333 150.725 26.92C151.378 26.7067 151.778 26.6 151.925 26.6ZM161.749 26.76C162.002 26.76 162.162 26.7667 162.229 26.78C162.229 27.4333 162.115 28.04 161.889 28.6C161.835 31.48 161.802 33.64 161.789 35.08L163.349 35.26C163.349 35.8067 163.195 36.3867 162.889 37H157.909L157.729 35.9C158.555 35.5933 159.155 35.3933 159.529 35.3L159.309 28.82C158.522 28.74 157.942 28.64 157.569 28.52C157.569 28.1867 157.615 27.7067 157.709 27.08C158.495 26.8667 159.842 26.76 161.749 26.76ZM161.749 22.98C161.869 23.58 161.929 24.04 161.929 24.36C161.929 24.6667 161.902 25.0133 161.849 25.4C161.315 25.52 160.862 25.58 160.489 25.58C160.129 25.58 159.689 25.56 159.169 25.52C159.049 24.92 158.989 24.4667 158.989 24.16C158.989 23.84 159.015 23.4867 159.069 23.1C159.602 22.98 160.049 22.92 160.409 22.92C160.782 22.92 161.229 22.94 161.749 22.98ZM167.741 33.54L167.721 35.08L169.281 35.26C169.281 35.8067 169.128 36.3867 168.821 37H163.841L163.661 35.9C164.488 35.5933 165.088 35.3933 165.461 35.3L165.081 24.2C164.454 24.1333 163.928 24.0333 163.501 23.9C163.501 23.4067 163.548 22.9267 163.641 22.46C164.428 22.2467 165.774 22.14 167.681 22.14C167.934 22.14 168.094 22.1467 168.161 22.16C168.161 22.8533 168.074 23.46 167.901 23.98C167.821 27.18 167.781 29.5533 167.781 31.1L170.161 28.74L168.921 28.58C168.921 28.0333 169.074 27.4533 169.381 26.84H174.361L174.541 27.94C173.714 28.2467 173.114 28.4467 172.741 28.54L170.541 30.74L173.341 35.08L174.901 35.26C174.901 35.8067 174.748 36.3867 174.441 37H171.881L168.921 32.36L167.741 33.54ZM186.113 35.16C188.179 35.16 189.213 34.42 189.213 32.94C189.213 31.86 188.959 31.18 188.453 30.9C187.959 30.6067 186.839 30.46 185.093 30.46L185.013 35.12C185.466 35.1467 185.833 35.16 186.113 35.16ZM185.993 28.82C187.019 28.7933 187.746 28.66 188.173 28.42C188.599 28.18 188.813 27.68 188.813 26.92C188.813 26.1467 188.566 25.6333 188.073 25.38C187.579 25.1267 186.833 25 185.833 25H185.113C185.086 26.68 185.073 27.9467 185.073 28.8L185.993 28.82ZM186.013 37.02H181.073L180.893 35.92C181.586 35.64 182.146 35.4467 182.573 35.34C182.573 35.3 182.513 31.7733 182.393 24.76C182.179 24.7067 181.626 24.5333 180.733 24.24L180.893 23.02H186.433C188.019 23.02 189.253 23.3267 190.133 23.94C191.013 24.5533 191.453 25.44 191.453 26.6C191.453 27.16 191.299 27.7667 190.993 28.42C190.699 29.0733 190.359 29.46 189.973 29.58C190.559 29.9 191.019 30.3467 191.353 30.92C191.686 31.4933 191.853 32.1533 191.853 32.9C191.853 34.1267 191.353 35.12 190.353 35.88C189.353 36.64 187.906 37.02 186.013 37.02ZM197.51 26.76C197.764 26.76 197.924 26.7667 197.99 26.78C197.99 27.4333 197.877 28.04 197.65 28.6C197.597 31.48 197.564 33.64 197.55 35.08L199.11 35.26C199.11 35.8067 198.957 36.3867 198.65 37H193.67L193.49 35.9C194.317 35.5933 194.917 35.3933 195.29 35.3L195.07 28.82C194.284 28.74 193.704 28.64 193.33 28.52C193.33 28.1867 193.377 27.7067 193.47 27.08C194.257 26.8667 195.604 26.76 197.51 26.76ZM197.51 22.98C197.63 23.58 197.69 24.04 197.69 24.36C197.69 24.6667 197.664 25.0133 197.61 25.4C197.077 25.52 196.624 25.58 196.25 25.58C195.89 25.58 195.45 25.56 194.93 25.52C194.81 24.92 194.75 24.4667 194.75 24.16C194.75 23.84 194.777 23.4867 194.83 23.1C195.364 22.98 195.81 22.92 196.17 22.92C196.544 22.92 196.99 22.94 197.51 22.98ZM203.443 22.14C203.696 22.14 203.856 22.1467 203.923 22.16C203.923 22.8533 203.836 23.46 203.663 23.98C203.649 24.8067 203.629 25.9733 203.603 27.48C203.549 30.7867 203.509 33.32 203.483 35.08L205.043 35.26C205.043 35.8067 204.889 36.3867 204.583 37H199.603L199.423 35.9C200.249 35.5933 200.849 35.3933 201.223 35.3L200.843 24.2C200.216 24.1333 199.689 24.0333 199.263 23.9C199.263 23.4067 199.309 22.9267 199.403 22.46C200.189 22.2467 201.536 22.14 203.443 22.14ZM210.721 35.28C211.175 35.28 212.095 34.9667 213.481 34.34C213.775 34.7667 213.995 35.26 214.141 35.82C213.408 36.2733 212.688 36.6267 211.981 36.88C211.288 37.12 210.795 37.24 210.501 37.24C208.888 37.24 207.661 36.7933 206.821 35.9C205.995 35.0067 205.581 33.74 205.581 32.1C205.581 30.4467 205.995 29.12 206.821 28.12C207.648 27.1067 208.875 26.6 210.501 26.6C211.795 26.6 212.781 27.02 213.461 27.86C214.141 28.7 214.481 29.7933 214.481 31.14C214.481 31.42 214.321 31.74 214.001 32.1L208.241 32C208.268 33.0667 208.468 33.88 208.841 34.44C209.215 35 209.841 35.28 210.721 35.28ZM210.321 28.26C209.815 28.26 209.341 28.36 208.901 28.56C208.595 29.2 208.401 29.7933 208.321 30.34C209.361 30.3 210.541 30.2733 211.861 30.26C211.795 28.9267 211.281 28.26 210.321 28.26ZM224.196 33.76C224.196 34.4933 224.022 35.12 223.676 35.64C223.329 36.1467 222.809 36.5333 222.116 36.8C221.422 37.0667 220.562 37.2 219.536 37.2C218.776 37.2 218.122 37.1467 217.576 37.04C217.029 36.9467 216.482 36.7867 215.936 36.56V34.1C216.522 34.3667 217.156 34.5867 217.836 34.76C218.516 34.9333 219.116 35.02 219.636 35.02C220.222 35.02 220.636 34.9333 220.876 34.76C221.129 34.5867 221.256 34.36 221.256 34.08C221.256 33.8933 221.202 33.7267 221.096 33.58C221.002 33.4333 220.789 33.2667 220.456 33.08C220.122 32.8933 219.602 32.6533 218.896 32.36C218.216 32.0667 217.656 31.78 217.216 31.5C216.776 31.2067 216.449 30.86 216.236 30.46C216.022 30.0467 215.916 29.5333 215.916 28.92C215.916 27.9067 216.309 27.1467 217.096 26.64C217.882 26.1333 218.929 25.88 220.236 25.88C220.916 25.88 221.562 25.9467 222.176 26.08C222.789 26.2133 223.422 26.4333 224.076 26.74L223.176 28.88C222.816 28.72 222.469 28.58 222.136 28.46C221.802 28.34 221.476 28.2467 221.156 28.18C220.849 28.1133 220.529 28.08 220.196 28.08C219.756 28.08 219.422 28.14 219.196 28.26C218.982 28.38 218.876 28.56 218.876 28.8C218.876 28.9733 218.929 29.1333 219.036 29.28C219.156 29.4133 219.376 29.56 219.696 29.72C220.029 29.88 220.516 30.0933 221.156 30.36C221.782 30.6133 222.322 30.88 222.776 31.16C223.229 31.4267 223.576 31.7667 223.816 32.18C224.069 32.58 224.196 33.1067 224.196 33.76ZM222.216 39.44C222.216 39.9333 222.122 40.3533 221.936 40.7C221.749 41.06 221.436 41.3333 220.996 41.52C220.556 41.7067 219.956 41.8 219.196 41.8C218.902 41.8 218.636 41.78 218.396 41.74C218.169 41.7 217.962 41.6533 217.776 41.6V39.96C217.962 40.0133 218.189 40.06 218.456 40.1C218.736 40.14 218.976 40.16 219.176 40.16C219.362 40.16 219.522 40.1133 219.656 40.02C219.802 39.94 219.876 39.7867 219.876 39.56C219.876 39.32 219.756 39.1067 219.516 38.92C219.276 38.7333 218.856 38.5933 218.256 38.5L219.016 37H220.896L220.636 37.6C220.902 37.68 221.156 37.8 221.396 37.96C221.636 38.1333 221.829 38.34 221.976 38.58C222.136 38.82 222.216 39.1067 222.216 39.44ZM230.897 35.28C231.35 35.28 232.27 34.9667 233.657 34.34C233.95 34.7667 234.17 35.26 234.317 35.82C233.584 36.2733 232.864 36.6267 232.157 36.88C231.464 37.12 230.97 37.24 230.677 37.24C229.064 37.24 227.837 36.7933 226.997 35.9C226.17 35.0067 225.757 33.74 225.757 32.1C225.757 30.4467 226.17 29.12 226.997 28.12C227.824 27.1067 229.05 26.6 230.677 26.6C231.97 26.6 232.957 27.02 233.637 27.86C234.317 28.7 234.657 29.7933 234.657 31.14C234.657 31.42 234.497 31.74 234.177 32.1L228.417 32C228.444 33.0667 228.644 33.88 229.017 34.44C229.39 35 230.017 35.28 230.897 35.28ZM230.497 28.26C229.99 28.26 229.517 28.36 229.077 28.56C228.77 29.2 228.577 29.7933 228.497 30.34C229.537 30.3 230.717 30.2733 232.037 30.26C231.97 28.9267 231.457 28.26 230.497 28.26ZM242.471 26.6C243.805 26.6 244.771 26.9267 245.371 27.58C245.971 28.2333 246.271 29.1467 246.271 30.32C246.271 31.4933 246.205 33.08 246.071 35.08L247.651 35.26C247.651 35.8067 247.498 36.3867 247.191 37H242.211L242.031 35.9C242.658 35.6467 243.238 35.4467 243.771 35.3C243.731 33.7667 243.691 32.48 243.651 31.44C243.611 30.3867 243.511 29.6733 243.351 29.3C243.191 28.9267 242.838 28.74 242.291 28.74C241.465 28.74 240.725 28.8867 240.071 29.18C240.058 29.7533 240.018 30.6933 239.951 32C239.898 33.2933 239.865 34.32 239.851 35.08L241.411 35.26C241.411 35.8067 241.258 36.3867 240.951 37H235.971L235.791 35.9C236.458 35.6467 237.058 35.4467 237.591 35.3C237.578 34.5 237.531 33.3933 237.451 31.98C237.385 30.5667 237.345 29.52 237.331 28.84C236.838 28.7867 236.311 28.6867 235.751 28.54L235.851 27.1C236.785 26.8467 237.838 26.72 239.011 26.72C239.158 26.8133 239.358 27.1 239.611 27.58C240.065 27.3533 240.618 27.1333 241.271 26.92C241.925 26.7067 242.325 26.6 242.471 26.6ZM252.076 22.14C252.329 22.14 252.489 22.1467 252.556 22.16C252.556 22.8533 252.469 23.46 252.296 23.98C252.282 24.8067 252.262 25.9733 252.236 27.48C252.182 30.7867 252.142 33.32 252.116 35.08L253.676 35.26C253.676 35.8067 253.522 36.3867 253.216 37H248.236L248.056 35.9C248.882 35.5933 249.482 35.3933 249.856 35.3L249.476 24.2C248.849 24.1333 248.322 24.0333 247.896 23.9C247.896 23.4067 247.942 22.9267 248.036 22.46C248.822 22.2467 250.169 22.14 252.076 22.14ZM259.354 35.28C259.807 35.28 260.727 34.9667 262.114 34.34C262.407 34.7667 262.627 35.26 262.774 35.82C262.041 36.2733 261.321 36.6267 260.614 36.88C259.921 37.12 259.427 37.24 259.134 37.24C257.521 37.24 256.294 36.7933 255.454 35.9C254.627 35.0067 254.214 33.74 254.214 32.1C254.214 30.4467 254.627 29.12 255.454 28.12C256.281 27.1067 257.507 26.6 259.134 26.6C260.427 26.6 261.414 27.02 262.094 27.86C262.774 28.7 263.114 29.7933 263.114 31.14C263.114 31.42 262.954 31.74 262.634 32.1L256.874 32C256.901 33.0667 257.101 33.88 257.474 34.44C257.847 35 258.474 35.28 259.354 35.28ZM258.954 28.26C258.447 28.26 257.974 28.36 257.534 28.56C257.227 29.2 257.034 29.7933 256.954 30.34C257.994 30.3 259.174 30.2733 260.494 30.26C260.427 28.9267 259.914 28.26 258.954 28.26ZM270.168 28.76C270.142 28.6933 270.008 28.66 269.768 28.66C269.528 28.66 269.115 28.84 268.528 29.2C268.475 31.8133 268.442 33.7733 268.428 35.08L269.988 35.28C269.988 35.8533 269.835 36.4267 269.528 37H264.548L264.368 35.9C265.195 35.5933 265.795 35.3933 266.168 35.3L265.948 28.82C265.255 28.7667 264.675 28.6667 264.208 28.52L264.348 27.08C264.708 26.92 266.008 26.8133 268.248 26.76C268.368 26.88 268.428 27.1133 268.428 27.46C269.602 26.8867 270.342 26.6 270.648 26.6C270.968 26.6 271.355 26.68 271.808 26.84C272.275 26.9867 272.628 27.1467 272.868 27.32V27.66C272.868 28.7533 272.735 29.7667 272.468 30.7C272.242 30.7933 271.942 30.84 271.568 30.84C271.195 30.84 270.848 30.82 270.528 30.78C270.488 30.6067 270.368 29.9333 270.168 28.76Z" fill="white"/>
<g filter="url(#filter2_d_146_980)">
<path d="M10 97C10 95.8954 10.8954 95 12 95H163C164.105 95 165 95.8954 165 97V137C165 138.105 164.105 139 163 139H12C10.8954 139 10 138.105 10 137V97Z" fill="#856C8B"/>
</g>
<g filter="url(#filter3_d_146_980)">
<rect x="172" y="95" width="155" height="44" rx="2" fill="#F6D4A5"/>
</g>
<g filter="url(#filter4_d_146_980)">
<path d="M10 183C10 181.895 10.8954 181 12 181H163C164.105 181 165 181.895 165 183V223C165 224.105 164.105 225 163 225H12C10.8954 225 10 224.105 10 223V183Z" fill="#424874"/>
</g>
<g filter="url(#filter5_d_146_980)">
<rect x="174" y="181" width="155" height="44" rx="2" fill="#6C816D"/>
</g>
<g filter="url(#filter6_d_146_980)">
<path d="M10 263C10 261.895 10.8954 261 12 261H163C164.105 261 165 261.895 165 263V303C165 304.105 164.105 305 163 305H87.5H12C10.8954 305 10 304.105 10 303V263Z" fill="#87A8A4"/>
</g>
<g filter="url(#filter7_d_146_980)">
<path d="M174 263C174 261.895 174.895 261 176 261H327C328.105 261 329 261.895 329 263V303C329 304.105 328.105 305 327 305H251.5H176C174.895 305 174 304.105 174 303V263Z" fill="#B97A95"/>
</g>
<g filter="url(#filter8_d_146_980)">
<path d="M10 343C10 341.895 10.8954 341 12 341H163C164.105 341 165 341.895 165 343V383C165 384.105 164.105 385 163 385H87.5H12C10.8954 385 10 384.105 10 383V343Z" fill="#EBBBA6"/>
</g>
<g filter="url(#filter9_d_146_980)">
<path d="M172 343C172 341.895 172.895 341 174 341H325C326.105 341 327 341.895 327 343V383C327 384.105 326.105 385 325 385H249.5H174C172.895 385 172 384.105 172 383V343Z" fill="#7C96AB"/>
</g>
<path d="M20.7849 118.7L20.7249 121.64L22.4049 121.8C22.4049 122.173 22.2916 122.573 22.0649 123H17.4649L17.4049 122.3C18.0316 122.087 18.6449 121.927 19.2449 121.82C19.1116 116.647 19.0049 112.767 18.9249 110.18C18.4316 110.087 17.8383 109.927 17.1449 109.7L17.2049 109H22.2049C22.4316 109.427 22.5449 109.827 22.5449 110.2C21.8783 110.253 21.3449 110.28 20.9449 110.28C20.9183 111.667 20.8916 112.92 20.8649 114.04C20.8516 115.16 20.8383 115.947 20.8249 116.4L25.6049 110.36L24.0049 110.2C24.0049 109.827 24.1183 109.427 24.3449 109H29.4249L29.4849 109.88C28.8716 110.093 28.2716 110.253 27.6849 110.36L23.7449 115.1L28.3449 121.64L30.0249 121.8C30.0249 122.173 29.9116 122.573 29.6849 123H27.1849L22.6449 116.46L20.7849 118.7ZM39.1526 116.46L39.0526 121.62C39.6259 121.66 40.1992 121.753 40.7726 121.9L40.7326 122.6C40.5192 122.707 40.1326 122.827 39.5726 122.96C39.0259 123.08 38.4859 123.14 37.9526 123.14C37.7126 122.66 37.5792 122.2 37.5526 121.76C36.0326 122.76 34.9659 123.26 34.3526 123.26C33.4059 123.26 32.6459 123.007 32.0726 122.5C31.4992 121.993 31.2126 121.287 31.2126 120.38C31.2126 118.287 32.4926 117.207 35.0526 117.14C36.5459 117.1 37.2992 117.08 37.3126 117.08L37.2926 116.4C37.2659 115.48 37.0926 114.82 36.7726 114.42C36.4526 114.007 35.8792 113.8 35.0526 113.8C34.7059 113.8 34.3326 113.88 33.9326 114.04L33.4526 116.04C33.3859 116.053 33.2726 116.06 33.1126 116.06L32.2926 116C32.0792 115.427 31.9659 114.633 31.9526 113.62C32.2059 113.487 32.7859 113.287 33.6926 113.02C34.5992 112.74 35.1792 112.6 35.4326 112.6C36.7926 112.6 37.7526 112.9 38.3126 113.5C38.8726 114.1 39.1526 115.087 39.1526 116.46ZM34.7926 121.9C35.1792 121.9 36.0726 121.467 37.4726 120.6L37.3726 118.1C36.4659 118.18 35.7059 118.253 35.0926 118.32C34.4792 118.387 33.9859 118.567 33.6126 118.86C33.2392 119.14 33.0526 119.587 33.0526 120.2C33.0526 121.333 33.6326 121.9 34.7926 121.9ZM48.0338 114.28C47.9672 114.213 47.8205 114.18 47.5938 114.18C47.3672 114.18 47.0272 114.26 46.5738 114.42C46.1338 114.58 45.7338 114.767 45.3738 114.98C45.2938 117.94 45.2405 120.16 45.2138 121.64L46.8938 121.8C46.8938 122.173 46.7805 122.573 46.5538 123H41.9538L41.8938 122.3C42.5072 122.087 43.1072 121.927 43.6938 121.82C43.6138 118.433 43.5472 115.927 43.4938 114.3C42.7605 114.26 42.1738 114.18 41.7338 114.06L41.8138 113.02C42.5205 112.82 43.5672 112.72 44.9538 112.72C45.1672 113.053 45.3005 113.48 45.3538 114C46.8872 113.067 47.8005 112.6 48.0938 112.6C48.3872 112.6 48.7272 112.66 49.1138 112.78C49.5005 112.887 49.7872 113.007 49.9738 113.14C49.9738 114.473 49.8472 115.56 49.5938 116.4C49.4072 116.453 49.1872 116.48 48.9338 116.48C48.6938 116.48 48.5272 116.473 48.4338 116.46L48.0338 114.28ZM56.7582 114.1C55.8915 114.1 54.9382 114.38 53.8982 114.94C53.8715 116.167 53.8449 117.307 53.8182 118.36C53.8049 119.4 53.7915 120.127 53.7782 120.54C54.1115 120.873 54.5582 121.18 55.1182 121.46C55.6782 121.74 56.1649 121.88 56.5782 121.88C58.1515 121.88 58.9382 120.587 58.9382 118C58.9382 117.013 58.8249 116.24 58.5982 115.68C58.3715 115.107 58.1115 114.7 57.8182 114.46C57.5249 114.22 57.1715 114.1 56.7582 114.1ZM53.3382 108.14C53.7515 108.14 54.0449 108.153 54.2182 108.18C54.2182 108.58 54.1315 109.113 53.9582 109.78C53.9582 110.087 53.9515 110.52 53.9382 111.08C53.9115 112.173 53.8982 113.1 53.8982 113.86C55.5515 113.02 56.6249 112.6 57.1182 112.6C58.3582 112.6 59.2782 113.087 59.8782 114.06C60.4782 115.02 60.7782 116.273 60.7782 117.82C60.7782 119.353 60.4382 120.64 59.7582 121.68C59.0915 122.72 58.1182 123.24 56.8382 123.24C56.3182 123.24 55.7449 123.093 55.1182 122.8C54.5049 122.507 53.9782 122.16 53.5382 121.76C53.4849 122.253 53.3782 122.707 53.2182 123.12C53.1649 123.133 53.0649 123.14 52.9182 123.14C52.7715 123.14 52.5582 123.12 52.2782 123.08L52.0582 109.74C51.3915 109.7 50.8049 109.613 50.2982 109.48L50.3782 108.44C51.0582 108.24 52.0449 108.14 53.3382 108.14ZM66.8459 122.04C67.9659 122.04 68.7192 121.693 69.1059 121C69.5059 120.293 69.7059 119.293 69.7059 118C69.7059 115.947 69.2525 114.66 68.3459 114.14C67.9725 113.927 67.4459 113.82 66.7659 113.82C66.0992 113.82 65.4659 113.96 64.8659 114.24C64.3325 115.267 64.0659 116.46 64.0659 117.82C64.0659 119.127 64.2392 120.133 64.5859 120.84C64.9859 121.64 65.7392 122.04 66.8459 122.04ZM62.2259 118C62.2259 116.307 62.6125 114.987 63.3859 114.04C64.1592 113.08 65.3525 112.6 66.9659 112.6C68.5792 112.6 69.7459 113.04 70.4659 113.92C71.1859 114.787 71.5459 116.073 71.5459 117.78C71.5459 119.487 71.1592 120.827 70.3859 121.8C69.6259 122.773 68.4659 123.26 66.9059 123.26C65.3459 123.26 64.1725 122.807 63.3859 121.9C62.6125 120.993 62.2259 119.693 62.2259 118ZM75.7876 108.14C76.2009 108.14 76.4942 108.153 76.6676 108.18C76.6676 108.42 76.6276 108.733 76.5476 109.12C76.4809 109.493 76.4342 109.713 76.4076 109.78C76.4076 110.073 76.3942 110.68 76.3676 111.6C76.3409 112.52 76.3276 113.233 76.3276 113.74C76.9009 113.433 77.4676 113.167 78.0276 112.94C78.6009 112.713 78.9609 112.6 79.1076 112.6C80.3876 112.6 81.3142 112.92 81.8876 113.56C82.4609 114.187 82.7476 115.147 82.7476 116.44C82.7476 116.813 82.6942 118.547 82.5876 121.64L84.2676 121.8C84.2676 122.173 84.1542 122.573 83.9276 123H79.3276L79.2676 122.3C79.8809 122.087 80.4809 121.927 81.0676 121.82C80.9876 118.327 80.9142 116.387 80.8476 116C80.7942 115.6 80.7009 115.253 80.5676 114.96C80.4342 114.667 80.2342 114.46 79.9676 114.34C79.7009 114.22 79.3476 114.16 78.9076 114.16C78.0009 114.16 77.1342 114.373 76.3076 114.8L76.1876 121.64L77.8676 121.8C77.8676 122.173 77.7542 122.573 77.5276 123H72.9276L72.8676 122.3C73.4809 122.087 74.0809 121.927 74.6676 121.82L74.4276 109.72C73.6942 109.68 73.1076 109.6 72.6676 109.48L72.7476 108.44C73.4276 108.24 74.4409 108.14 75.7876 108.14ZM88.9313 110.94C88.5847 111.02 88.2447 111.06 87.9113 111.06C87.5913 111.06 87.2713 111.04 86.9513 111C86.8713 110.627 86.8313 110.253 86.8313 109.88C86.8313 109.493 86.8447 109.207 86.8713 109.02C87.1647 108.953 87.4713 108.92 87.7913 108.92C88.1247 108.92 88.478 108.933 88.8513 108.96C88.9313 109.307 88.9713 109.647 88.9713 109.98C88.9713 110.3 88.958 110.62 88.9313 110.94ZM85.2913 113.04C86.4247 112.84 87.3047 112.74 87.9313 112.74C88.558 112.74 88.958 112.753 89.1313 112.78C89.1313 113.1 89.0913 113.453 89.0113 113.84C88.9313 114.227 88.8847 114.413 88.8713 114.4L88.6913 121.64L90.3713 121.8C90.3713 122.173 90.258 122.573 90.0313 123H85.4313L85.3713 122.3C85.9847 122.087 86.5847 121.927 87.1713 121.82C87.0913 118.487 87.0247 115.987 86.9713 114.32C86.198 114.32 85.6113 114.24 85.2113 114.08L85.2913 113.04ZM98.3637 113.74L98.3037 109.74C97.5703 109.7 96.9837 109.62 96.5437 109.5L96.6237 108.46C97.3037 108.26 98.2903 108.16 99.5837 108.16C99.997 108.16 100.29 108.173 100.464 108.2C100.464 108.44 100.424 108.76 100.344 109.16C100.277 109.547 100.23 109.76 100.204 109.8L100.024 121.62C100.57 121.647 101.15 121.74 101.764 121.9L101.724 122.6C100.804 123.027 99.9903 123.24 99.2837 123.24C99.137 123.24 99.0237 123.233 98.9437 123.22C98.837 123.02 98.7037 122.56 98.5437 121.84C97.0103 122.707 95.937 123.173 95.3237 123.24C94.0437 123.24 93.0837 122.753 92.4437 121.78C91.8037 120.807 91.4837 119.56 91.4837 118.04C91.4837 116.507 91.8037 115.22 92.4437 114.18C93.097 113.127 94.057 112.6 95.3237 112.6C96.3103 112.6 97.3237 112.98 98.3637 113.74ZM95.6637 113.96C94.1037 113.96 93.3237 115.24 93.3237 117.8C93.3237 118.8 93.4837 119.667 93.8037 120.4C93.9637 120.8 94.197 121.12 94.5037 121.36C94.8237 121.6 95.1903 121.72 95.6037 121.72C96.017 121.72 96.497 121.627 97.0437 121.44C97.6037 121.253 98.0837 121.04 98.4837 120.8L98.3637 115.1C98.0037 114.793 97.5637 114.527 97.0437 114.3C96.5237 114.073 96.0637 113.96 95.6637 113.96ZM108.932 114.28C108.866 114.213 108.719 114.18 108.492 114.18C108.266 114.18 107.926 114.26 107.472 114.42C107.032 114.58 106.632 114.767 106.272 114.98C106.192 117.94 106.139 120.16 106.112 121.64L107.792 121.8C107.792 122.173 107.679 122.573 107.452 123H102.852L102.792 122.3C103.406 122.087 104.006 121.927 104.592 121.82C104.512 118.433 104.446 115.927 104.392 114.3C103.659 114.26 103.072 114.18 102.632 114.06L102.712 113.02C103.419 112.82 104.466 112.72 105.852 112.72C106.066 113.053 106.199 113.48 106.252 114C107.786 113.067 108.699 112.6 108.992 112.6C109.286 112.6 109.626 112.66 110.012 112.78C110.399 112.887 110.686 113.007 110.872 113.14C110.872 114.473 110.746 115.56 110.492 116.4C110.306 116.453 110.086 116.48 109.832 116.48C109.592 116.48 109.426 116.473 109.332 116.46L108.932 114.28ZM119.817 116.46L119.717 121.62C120.29 121.66 120.863 121.753 121.437 121.9L121.397 122.6C121.183 122.707 120.797 122.827 120.237 122.96C119.69 123.08 119.15 123.14 118.617 123.14C118.377 122.66 118.243 122.2 118.217 121.76C116.697 122.76 115.63 123.26 115.017 123.26C114.07 123.26 113.31 123.007 112.737 122.5C112.163 121.993 111.877 121.287 111.877 120.38C111.877 118.287 113.157 117.207 115.717 117.14C117.21 117.1 117.963 117.08 117.977 117.08L117.957 116.4C117.93 115.48 117.757 114.82 117.437 114.42C117.117 114.007 116.543 113.8 115.717 113.8C115.37 113.8 114.997 113.88 114.597 114.04L114.117 116.04C114.05 116.053 113.937 116.06 113.777 116.06L112.957 116C112.743 115.427 112.63 114.633 112.617 113.62C112.87 113.487 113.45 113.287 114.357 113.02C115.263 112.74 115.843 112.6 116.097 112.6C117.457 112.6 118.417 112.9 118.977 113.5C119.537 114.1 119.817 115.087 119.817 116.46ZM115.457 121.9C115.843 121.9 116.737 121.467 118.137 120.6L118.037 118.1C117.13 118.18 116.37 118.253 115.757 118.32C115.143 118.387 114.65 118.567 114.277 118.86C113.903 119.14 113.717 119.587 113.717 120.2C113.717 121.333 114.297 121.9 115.457 121.9ZM124.038 121.76L123.878 114.22H122.338L122.278 113.52C122.411 113.427 122.798 113.253 123.438 113L125.078 110.44C125.345 110.467 125.551 110.533 125.698 110.64L125.678 112.84C126.678 112.84 127.498 112.907 128.138 113.04C128.138 113.4 128.025 113.793 127.798 114.22H125.638C125.611 115.82 125.585 118.247 125.558 121.5C126.305 121.54 127.051 121.673 127.798 121.9L127.778 122.6C127.591 122.72 127.111 122.86 126.338 123.02C125.578 123.18 124.951 123.26 124.458 123.26C124.391 123.153 124.305 122.927 124.198 122.58C124.091 122.22 124.038 121.947 124.038 121.76ZM132.211 108.14C132.624 108.14 132.918 108.153 133.091 108.18C133.091 108.647 133.004 109.18 132.831 109.78C132.711 117.647 132.651 121.6 132.651 121.64L134.331 121.8C134.331 122.173 134.218 122.573 133.991 123H129.391L129.331 122.3C129.944 122.087 130.544 121.927 131.131 121.82L130.931 109.72C130.198 109.68 129.611 109.6 129.171 109.48L129.251 108.44C129.931 108.24 130.918 108.14 132.211 108.14ZM143.449 116.46L143.349 121.62C143.923 121.66 144.496 121.753 145.069 121.9L145.029 122.6C144.816 122.707 144.429 122.827 143.869 122.96C143.323 123.08 142.783 123.14 142.249 123.14C142.009 122.66 141.876 122.2 141.849 121.76C140.329 122.76 139.263 123.26 138.649 123.26C137.703 123.26 136.943 123.007 136.369 122.5C135.796 121.993 135.509 121.287 135.509 120.38C135.509 118.287 136.789 117.207 139.349 117.14C140.843 117.1 141.596 117.08 141.609 117.08L141.589 116.4C141.563 115.48 141.389 114.82 141.069 114.42C140.749 114.007 140.176 113.8 139.349 113.8C139.003 113.8 138.629 113.88 138.229 114.04L137.749 116.04C137.683 116.053 137.569 116.06 137.409 116.06L136.589 116C136.376 115.427 136.263 114.633 136.249 113.62C136.503 113.487 137.083 113.287 137.989 113.02C138.896 112.74 139.476 112.6 139.729 112.6C141.089 112.6 142.049 112.9 142.609 113.5C143.169 114.1 143.449 115.087 143.449 116.46ZM139.089 121.9C139.476 121.9 140.369 121.467 141.769 120.6L141.669 118.1C140.763 118.18 140.003 118.253 139.389 118.32C138.776 118.387 138.283 118.567 137.909 118.86C137.536 119.14 137.349 119.587 137.349 120.2C137.349 121.333 137.929 121.9 139.089 121.9ZM152.331 114.28C152.264 114.213 152.117 114.18 151.891 114.18C151.664 114.18 151.324 114.26 150.871 114.42C150.431 114.58 150.031 114.767 149.671 114.98C149.591 117.94 149.537 120.16 149.511 121.64L151.191 121.8C151.191 122.173 151.077 122.573 150.851 123H146.251L146.191 122.3C146.804 122.087 147.404 121.927 147.991 121.82C147.911 118.433 147.844 115.927 147.791 114.3C147.057 114.26 146.471 114.18 146.031 114.06L146.111 113.02C146.817 112.82 147.864 112.72 149.251 112.72C149.464 113.053 149.597 113.48 149.651 114C151.184 113.067 152.097 112.6 152.391 112.6C152.684 112.6 153.024 112.66 153.411 112.78C153.797 112.887 154.084 113.007 154.271 113.14C154.271 114.473 154.144 115.56 153.891 116.4C153.704 116.453 153.484 116.48 153.231 116.48C152.991 116.48 152.824 116.473 152.731 116.46L152.331 114.28Z" fill="white"/>
<path d="M211.584 109C213.278 109 214.531 109.28 215.344 109.84C216.171 110.387 216.584 111.36 216.584 112.76C216.584 114.16 216.178 115.273 215.364 116.1C214.551 116.913 213.238 117.32 211.424 117.32H209.744L209.684 121.66L211.244 121.8C211.244 122.173 211.131 122.573 210.904 123H206.404L206.344 122.32C206.904 122.107 207.478 121.947 208.064 121.84C207.984 116.64 207.918 112.773 207.864 110.24C207.504 110.173 206.918 110.013 206.104 109.76L206.204 109H211.584ZM211.224 116.02C212.371 116.007 213.244 115.72 213.844 115.16C214.444 114.587 214.744 113.833 214.744 112.9C214.744 111.967 214.451 111.32 213.864 110.96C213.278 110.587 212.338 110.4 211.044 110.4C210.804 110.4 210.398 110.407 209.824 110.42C209.824 110.433 209.804 112.307 209.764 116.04L211.224 116.02ZM223.848 114.28C223.782 114.213 223.635 114.18 223.408 114.18C223.182 114.18 222.842 114.26 222.388 114.42C221.948 114.58 221.548 114.767 221.188 114.98C221.108 117.94 221.055 120.16 221.028 121.64L222.708 121.8C222.708 122.173 222.595 122.573 222.368 123H217.768L217.708 122.3C218.322 122.087 218.922 121.927 219.508 121.82C219.428 118.433 219.362 115.927 219.308 114.3C218.575 114.26 217.988 114.18 217.548 114.06L217.628 113.02C218.335 112.82 219.382 112.72 220.768 112.72C220.982 113.053 221.115 113.48 221.168 114C222.702 113.067 223.615 112.6 223.908 112.6C224.202 112.6 224.542 112.66 224.928 112.78C225.315 112.887 225.602 113.007 225.788 113.14C225.788 114.473 225.662 115.56 225.408 116.4C225.222 116.453 225.002 116.48 224.748 116.48C224.508 116.48 224.342 116.473 224.248 116.46L223.848 114.28ZM231.313 122.04C232.433 122.04 233.186 121.693 233.573 121C233.973 120.293 234.173 119.293 234.173 118C234.173 115.947 233.719 114.66 232.813 114.14C232.439 113.927 231.913 113.82 231.233 113.82C230.566 113.82 229.933 113.96 229.333 114.24C228.799 115.267 228.533 116.46 228.533 117.82C228.533 119.127 228.706 120.133 229.053 120.84C229.453 121.64 230.206 122.04 231.313 122.04ZM226.693 118C226.693 116.307 227.079 114.987 227.853 114.04C228.626 113.08 229.819 112.6 231.433 112.6C233.046 112.6 234.213 113.04 234.933 113.92C235.653 114.787 236.013 116.073 236.013 117.78C236.013 119.487 235.626 120.827 234.853 121.8C234.093 122.773 232.933 123.26 231.373 123.26C229.813 123.26 228.639 122.807 227.853 121.9C227.079 120.993 226.693 119.693 226.693 118ZM238.934 121.76L238.774 114.22H237.234L237.174 113.52C237.308 113.427 237.694 113.253 238.334 113L239.974 110.44C240.241 110.467 240.448 110.533 240.594 110.64L240.574 112.84C241.574 112.84 242.394 112.907 243.034 113.04C243.034 113.4 242.921 113.793 242.694 114.22H240.534C240.508 115.82 240.481 118.247 240.454 121.5C241.201 121.54 241.948 121.673 242.694 121.9L242.674 122.6C242.488 122.72 242.008 122.86 241.234 123.02C240.474 123.18 239.848 123.26 239.354 123.26C239.288 123.153 239.201 122.927 239.094 122.58C238.988 122.22 238.934 121.947 238.934 121.76ZM249.488 121.88C250.074 121.88 250.994 121.6 252.248 121.04C252.501 121.387 252.634 121.693 252.648 121.96C251.968 122.36 251.301 122.673 250.648 122.9C249.994 123.127 249.528 123.24 249.248 123.24C247.701 123.24 246.521 122.78 245.708 121.86C244.894 120.927 244.488 119.627 244.488 117.96C244.488 116.293 244.881 114.987 245.668 114.04C246.468 113.08 247.661 112.6 249.248 112.6C250.474 112.6 251.408 113.04 252.048 113.92C252.701 114.8 253.028 115.98 253.028 117.46C252.921 117.647 252.834 117.773 252.768 117.84L246.327 117.74C246.341 119.087 246.574 120.113 247.028 120.82C247.494 121.527 248.314 121.88 249.488 121.88ZM251.208 116.6C251.208 115.72 251.048 115.04 250.728 114.56C250.408 114.067 249.874 113.82 249.128 113.82C248.381 113.82 247.714 113.96 247.128 114.24C246.728 115.04 246.474 115.86 246.368 116.7C247.421 116.687 249.034 116.653 251.208 116.6ZM258.242 110.94C257.895 111.02 257.555 111.06 257.222 111.06C256.902 111.06 256.582 111.04 256.262 111C256.182 110.627 256.142 110.253 256.142 109.88C256.142 109.493 256.155 109.207 256.182 109.02C256.475 108.953 256.782 108.92 257.102 108.92C257.435 108.92 257.789 108.933 258.162 108.96C258.242 109.307 258.282 109.647 258.282 109.98C258.282 110.3 258.269 110.62 258.242 110.94ZM254.602 113.04C255.735 112.84 256.615 112.74 257.242 112.74C257.869 112.74 258.269 112.753 258.442 112.78C258.442 113.1 258.402 113.453 258.322 113.84C258.242 114.227 258.195 114.413 258.182 114.4L258.002 121.64L259.682 121.8C259.682 122.173 259.569 122.573 259.342 123H254.742L254.682 122.3C255.295 122.087 255.895 121.927 256.482 121.82C256.402 118.487 256.335 115.987 256.282 114.32C255.509 114.32 254.922 114.24 254.522 114.08L254.602 113.04ZM267.034 112.6C268.314 112.6 269.241 112.92 269.814 113.56C270.388 114.187 270.674 115.147 270.674 116.44C270.674 116.813 270.621 118.547 270.514 121.64L272.194 121.8C272.194 122.173 272.081 122.573 271.854 123H267.254L267.194 122.3C267.808 122.087 268.408 121.927 268.994 121.82C268.914 118.327 268.841 116.387 268.774 116C268.721 115.6 268.628 115.253 268.494 114.96C268.361 114.667 268.161 114.46 267.894 114.34C267.628 114.22 267.274 114.16 266.834 114.16C265.954 114.16 265.101 114.373 264.274 114.8C264.194 117.84 264.141 120.12 264.114 121.64L265.794 121.8C265.794 122.173 265.681 122.573 265.454 123H260.854L260.794 122.3C261.408 122.087 262.008 121.927 262.594 121.82C262.514 118.433 262.448 115.927 262.394 114.3C261.661 114.26 261.074 114.18 260.634 114.06L260.714 113.02C261.434 112.82 262.481 112.72 263.854 112.72C264.014 112.96 264.134 113.307 264.214 113.76C264.788 113.453 265.361 113.187 265.934 112.96C266.521 112.72 266.888 112.6 267.034 112.6ZM275.818 108.14C276.232 108.14 276.525 108.153 276.698 108.18C276.698 108.647 276.612 109.18 276.438 109.78C276.318 117.647 276.258 121.6 276.258 121.64L277.938 121.8C277.938 122.173 277.825 122.573 277.598 123H272.998L272.938 122.3C273.552 122.087 274.152 121.927 274.738 121.82L274.538 109.72C273.805 109.68 273.218 109.6 272.778 109.48L272.858 108.44C273.538 108.24 274.525 108.14 275.818 108.14ZM284.097 121.88C284.684 121.88 285.604 121.6 286.857 121.04C287.11 121.387 287.244 121.693 287.257 121.96C286.577 122.36 285.91 122.673 285.257 122.9C284.604 123.127 284.137 123.24 283.857 123.24C282.31 123.24 281.13 122.78 280.317 121.86C279.504 120.927 279.097 119.627 279.097 117.96C279.097 116.293 279.49 114.987 280.277 114.04C281.077 113.08 282.27 112.6 283.857 112.6C285.084 112.6 286.017 113.04 286.657 113.92C287.31 114.8 287.637 115.98 287.637 117.46C287.53 117.647 287.444 117.773 287.377 117.84L280.937 117.74C280.95 119.087 281.184 120.113 281.637 120.82C282.104 121.527 282.924 121.88 284.097 121.88ZM285.817 116.6C285.817 115.72 285.657 115.04 285.337 114.56C285.017 114.067 284.484 113.82 283.737 113.82C282.99 113.82 282.324 113.96 281.737 114.24C281.337 115.04 281.084 115.86 280.977 116.7C282.03 116.687 283.644 116.653 285.817 116.6ZM295.391 114.28C295.325 114.213 295.178 114.18 294.951 114.18C294.725 114.18 294.385 114.26 293.931 114.42C293.491 114.58 293.091 114.767 292.731 114.98C292.651 117.94 292.598 120.16 292.571 121.64L294.251 121.8C294.251 122.173 294.138 122.573 293.911 123H289.311L289.251 122.3C289.865 122.087 290.465 121.927 291.051 121.82C290.971 118.433 290.905 115.927 290.851 114.3C290.118 114.26 289.531 114.18 289.091 114.06L289.171 113.02C289.878 112.82 290.925 112.72 292.311 112.72C292.525 113.053 292.658 113.48 292.711 114C294.245 113.067 295.158 112.6 295.451 112.6C295.745 112.6 296.085 112.66 296.471 112.78C296.858 112.887 297.145 113.007 297.331 113.14C297.331 114.473 297.205 115.56 296.951 116.4C296.765 116.453 296.545 116.48 296.291 116.48C296.051 116.48 295.885 116.473 295.791 116.46L295.391 114.28Z" fill="white"/>
<path d="M21.4791 279.48L21.2791 289.64L22.9591 289.8C22.9591 290.173 22.8458 290.573 22.6191 291H18.0191L17.9591 290.3C18.6791 290.06 19.2925 289.9 19.7991 289.82C19.7725 288.953 19.7258 287.167 19.6591 284.46C19.6058 281.753 19.5591 279.66 19.5191 278.18C19.0125 278.1 18.4125 277.94 17.7191 277.7L17.7791 277H21.7391L29.0391 288.66L28.6991 278.18C28.2058 278.087 27.6125 277.927 26.9191 277.7L26.9791 277H31.9791C32.2058 277.427 32.3191 277.827 32.3191 278.2C31.6525 278.253 31.1191 278.28 30.7191 278.28L30.5191 291H28.5791L21.4791 279.48ZM37.7823 278.88C37.5156 278.933 37.2289 278.96 36.9223 278.96C36.6289 278.96 36.3889 278.947 36.2023 278.92C36.1356 278.68 36.1023 278.44 36.1023 278.2C36.1023 277.947 36.1156 277.66 36.1423 277.34C36.3423 277.3 36.6156 277.28 36.9623 277.28C37.3089 277.28 37.5623 277.287 37.7223 277.3C37.7756 277.593 37.8023 277.9 37.8023 278.22C37.8023 278.527 37.7956 278.747 37.7823 278.88ZM41.0823 278.88C40.8156 278.933 40.5289 278.96 40.2223 278.96C39.9289 278.96 39.6889 278.947 39.5023 278.92C39.4356 278.68 39.4023 278.44 39.4023 278.2C39.4023 277.947 39.4156 277.66 39.4423 277.34C39.6423 277.3 39.9156 277.28 40.2623 277.28C40.6089 277.28 40.8623 277.287 41.0223 277.3C41.0756 277.593 41.1023 277.9 41.1023 278.22C41.1023 278.527 41.0956 278.747 41.0823 278.88ZM38.7023 289.68C39.0889 289.68 39.5223 289.6 40.0023 289.44C40.4823 289.267 40.8756 289.06 41.1823 288.82C41.1289 285.98 41.0823 283.827 41.0423 282.36C40.2156 282.36 39.6023 282.28 39.2023 282.12L39.2823 281.08C40.4156 280.88 41.3023 280.78 41.9423 280.78C42.5956 280.78 43.0089 280.793 43.1823 280.82C43.1823 281.06 43.1423 281.38 43.0623 281.78C42.9956 282.18 42.9489 282.4 42.9223 282.44L42.6823 289.58C43.3889 289.62 43.9623 289.7 44.4023 289.82L44.3623 290.84C43.7756 291.027 43.2089 291.12 42.6623 291.12C42.1156 291.12 41.7823 291.113 41.6623 291.1C41.4089 290.593 41.2623 290.127 41.2223 289.7C40.5689 290.193 39.9623 290.573 39.4023 290.84C38.8556 291.107 38.4956 291.24 38.3223 291.24C37.1489 291.24 36.2956 290.927 35.7623 290.3C35.2423 289.66 34.9823 288.727 34.9823 287.5C34.9823 287.487 35.0423 285.78 35.1623 282.38C34.3889 282.38 33.6756 282.293 33.0223 282.12L33.1023 281.08C34.2356 280.88 35.1156 280.78 35.7423 280.78C36.3689 280.78 36.7689 280.793 36.9423 280.82C36.9423 281.14 36.9023 281.493 36.8223 281.88C36.7423 282.267 36.6956 282.453 36.6823 282.44L36.7023 286.76C36.7023 287.773 36.8289 288.513 37.0823 288.98C37.3356 289.447 37.8756 289.68 38.7023 289.68ZM48.1368 276.02C48.5501 276.02 48.8435 276.033 49.0168 276.06C49.0168 276.473 48.9301 277.007 48.7568 277.66C48.6768 281.18 48.6368 283.84 48.6368 285.64L51.8568 282.2L50.2568 282.04C50.2568 281.667 50.3701 281.267 50.5968 280.84H55.6768L55.7368 281.72C55.4301 281.84 54.8701 281.993 54.0568 282.18L51.3168 284.66L54.6968 289.64L56.3768 289.8C56.3768 290.173 56.2635 290.573 56.0368 291H53.2968L50.1768 285.68L48.6168 287.1C48.5901 288.22 48.5768 289.067 48.5768 289.64L50.2568 289.8C50.2568 290.173 50.1435 290.573 49.9168 291H45.3168L45.2568 290.3C45.8701 290.087 46.4701 289.927 47.0568 289.82C46.9768 284.433 46.9101 280.36 46.8568 277.6C46.1235 277.56 45.5368 277.48 45.0968 277.36L45.1768 276.32C45.8568 276.12 46.8435 276.02 48.1368 276.02ZM59.9532 276.14C60.3665 276.14 60.6599 276.153 60.8332 276.18C60.8332 276.647 60.7465 277.18 60.5732 277.78C60.4532 285.647 60.3932 289.6 60.3932 289.64L62.0732 289.8C62.0732 290.173 61.9599 290.573 61.7332 291H57.1332L57.0732 290.3C57.6865 290.087 58.2865 289.927 58.8732 289.82L58.6732 277.72C57.9399 277.68 57.3532 277.6 56.9132 277.48L56.9932 276.44C57.6732 276.24 58.6599 276.14 59.9532 276.14ZM68.2316 289.88C68.8183 289.88 69.7383 289.6 70.9916 289.04C71.245 289.387 71.3783 289.693 71.3916 289.96C70.7116 290.36 70.045 290.673 69.3916 290.9C68.7383 291.127 68.2716 291.24 67.9916 291.24C66.445 291.24 65.265 290.78 64.4516 289.86C63.6383 288.927 63.2316 287.627 63.2316 285.96C63.2316 284.293 63.625 282.987 64.4116 282.04C65.2116 281.08 66.405 280.6 67.9916 280.6C69.2183 280.6 70.1516 281.04 70.7916 281.92C71.445 282.8 71.7716 283.98 71.7716 285.46C71.665 285.647 71.5783 285.773 71.5116 285.84L65.0716 285.74C65.085 287.087 65.3183 288.113 65.7716 288.82C66.2383 289.527 67.0583 289.88 68.2316 289.88ZM69.9516 284.6C69.9516 283.72 69.7916 283.04 69.4716 282.56C69.1516 282.067 68.6183 281.82 67.8716 281.82C67.125 281.82 66.4583 281.96 65.8716 282.24C65.4716 283.04 65.2183 283.86 65.1116 284.7C66.165 284.687 67.7783 284.653 69.9516 284.6ZM76.986 278.94C76.6393 279.02 76.2993 279.06 75.966 279.06C75.646 279.06 75.326 279.04 75.006 279C74.926 278.627 74.886 278.253 74.886 277.88C74.886 277.493 74.8993 277.207 74.926 277.02C75.2193 276.953 75.526 276.92 75.846 276.92C76.1793 276.92 76.5327 276.933 76.906 276.96C76.986 277.307 77.026 277.647 77.026 277.98C77.026 278.3 77.0127 278.62 76.986 278.94ZM73.346 281.04C74.4793 280.84 75.3593 280.74 75.986 280.74C76.6127 280.74 77.0127 280.753 77.186 280.78C77.186 281.1 77.146 281.453 77.066 281.84C76.986 282.227 76.9393 282.413 76.926 282.4L76.746 289.64L78.426 289.8C78.426 290.173 78.3127 290.573 78.086 291H73.486L73.426 290.3C74.0393 290.087 74.6393 289.927 75.226 289.82C75.146 286.487 75.0793 283.987 75.026 282.32C74.2527 282.32 73.666 282.24 73.266 282.08L73.346 281.04ZM82.2384 276.02C82.6517 276.02 82.945 276.033 83.1184 276.06C83.1184 276.473 83.0317 277.007 82.8584 277.66C82.7784 281.18 82.7384 283.84 82.7384 285.64L85.9584 282.2L84.3584 282.04C84.3584 281.667 84.4717 281.267 84.6984 280.84H89.7784L89.8384 281.72C89.5317 281.84 88.9717 281.993 88.1584 282.18L85.4184 284.66L88.7984 289.64L90.4784 289.8C90.4784 290.173 90.365 290.573 90.1384 291H87.3984L84.2784 285.68L82.7184 287.1C82.6917 288.22 82.6784 289.067 82.6784 289.64L84.3584 289.8C84.3584 290.173 84.245 290.573 84.0184 291H79.4184L79.3584 290.3C79.9717 290.087 80.5717 289.927 81.1584 289.82C81.0784 284.433 81.0117 280.36 80.9584 277.6C80.225 277.56 79.6384 277.48 79.1984 277.36L79.2784 276.32C79.9584 276.12 80.945 276.02 82.2384 276.02ZM99.0501 277.42C99.2901 277.34 99.9434 277.253 101.01 277.16C102.077 277.053 103.043 277 103.91 277C104.79 277 105.47 277.04 105.95 277.12C105.963 277.173 105.97 277.24 105.97 277.32C105.97 277.387 105.93 277.553 105.85 277.82C105.783 278.087 105.73 278.26 105.69 278.34C105.583 278.447 105.283 278.527 104.79 278.58L108.61 289.64L110.51 289.8C110.51 290.173 110.397 290.573 110.17 291H105.57L105.51 290.3C105.817 290.14 106.263 290 106.85 289.88L105.83 287.02H100.25L99.3101 289.64L100.93 289.8C100.93 290.173 100.817 290.573 100.59 291H95.9901L95.9301 290.3C96.4501 290.113 97.0034 289.967 97.5901 289.86L101.47 278.52C100.283 278.387 99.4501 278.227 98.9701 278.04L99.0501 277.42ZM104.25 282.56L103.19 278.64C103.11 278.627 102.997 278.62 102.85 278.62L101.77 282.7L100.61 285.74H105.47L104.25 282.56ZM112.995 289.72C113.462 289.92 114.029 290.02 114.695 290.02C115.375 290.02 115.909 289.893 116.295 289.64C116.682 289.387 116.875 289.04 116.875 288.6C116.875 288.16 116.695 287.793 116.335 287.5C115.975 287.207 115.535 286.947 115.015 286.72C114.495 286.493 113.975 286.253 113.455 286C112.935 285.747 112.495 285.413 112.135 285C111.775 284.587 111.595 284.107 111.595 283.56C111.595 282.64 111.902 281.92 112.515 281.4C113.129 280.867 113.975 280.6 115.055 280.6C116.149 280.6 117.175 280.847 118.135 281.34C118.149 281.473 118.155 281.833 118.155 282.42C118.155 282.993 118.095 283.487 117.975 283.9C117.655 284.007 117.275 284.06 116.835 284.06L116.175 282.02C115.882 281.873 115.482 281.8 114.975 281.8C114.482 281.8 114.089 281.933 113.795 282.2C113.502 282.453 113.355 282.78 113.355 283.18C113.355 283.567 113.535 283.907 113.895 284.2C114.269 284.493 114.715 284.76 115.235 285C115.755 285.227 116.275 285.473 116.795 285.74C117.315 285.993 117.755 286.333 118.115 286.76C118.489 287.173 118.675 287.653 118.675 288.2C118.675 289.16 118.302 289.913 117.555 290.46C116.822 290.993 115.915 291.26 114.835 291.26C114.249 291.26 113.622 291.167 112.955 290.98C112.289 290.78 111.729 290.527 111.275 290.22C111.275 289.327 111.355 288.533 111.515 287.84C111.822 287.787 112.235 287.76 112.755 287.76L112.995 289.72ZM123.978 278.94C123.632 279.02 123.292 279.06 122.958 279.06C122.638 279.06 122.318 279.04 121.998 279C121.918 278.627 121.878 278.253 121.878 277.88C121.878 277.493 121.892 277.207 121.918 277.02C122.212 276.953 122.518 276.92 122.838 276.92C123.172 276.92 123.525 276.933 123.898 276.96C123.978 277.307 124.018 277.647 124.018 277.98C124.018 278.3 124.005 278.62 123.978 278.94ZM120.338 281.04C121.472 280.84 122.352 280.74 122.978 280.74C123.605 280.74 124.005 280.753 124.178 280.78C124.178 281.1 124.138 281.453 124.058 281.84C123.978 282.227 123.932 282.413 123.918 282.4L123.738 289.64L125.418 289.8C125.418 290.173 125.305 290.573 125.078 291H120.478L120.418 290.3C121.032 290.087 121.632 289.927 122.218 289.82C122.138 286.487 122.072 283.987 122.018 282.32C121.245 282.32 120.658 282.24 120.258 282.08L120.338 281.04ZM128.011 289.76L127.851 282.22H126.311L126.251 281.52C126.384 281.427 126.771 281.253 127.411 281L129.051 278.44C129.317 278.467 129.524 278.533 129.671 278.64L129.651 280.84C130.651 280.84 131.471 280.907 132.111 281.04C132.111 281.4 131.997 281.793 131.771 282.22H129.611C129.584 283.82 129.557 286.247 129.531 289.5C130.277 289.54 131.024 289.673 131.771 289.9L131.751 290.6C131.564 290.72 131.084 290.86 130.311 291.02C129.551 291.18 128.924 291.26 128.431 291.26C128.364 291.153 128.277 290.927 128.171 290.58C128.064 290.22 128.011 289.947 128.011 289.76ZM136.184 276.14C136.597 276.14 136.89 276.153 137.064 276.18C137.064 276.647 136.977 277.18 136.804 277.78C136.684 285.647 136.624 289.6 136.624 289.64L138.304 289.8C138.304 290.173 138.19 290.573 137.964 291H133.364L133.304 290.3C133.917 290.087 134.517 289.927 135.104 289.82L134.904 277.72C134.17 277.68 133.584 277.6 133.144 277.48L133.224 276.44C133.904 276.24 134.89 276.14 136.184 276.14ZM144.462 289.88C145.049 289.88 145.969 289.6 147.222 289.04C147.475 289.387 147.609 289.693 147.622 289.96C146.942 290.36 146.275 290.673 145.622 290.9C144.969 291.127 144.502 291.24 144.222 291.24C142.675 291.24 141.495 290.78 140.682 289.86C139.869 288.927 139.462 287.627 139.462 285.96C139.462 284.293 139.855 282.987 140.642 282.04C141.442 281.08 142.635 280.6 144.222 280.6C145.449 280.6 146.382 281.04 147.022 281.92C147.675 282.8 148.002 283.98 148.002 285.46C147.895 285.647 147.809 285.773 147.742 285.84L141.302 285.74C141.315 287.087 141.549 288.113 142.002 288.82C142.469 289.527 143.289 289.88 144.462 289.88ZM146.182 284.6C146.182 283.72 146.022 283.04 145.702 282.56C145.382 282.067 144.849 281.82 144.102 281.82C143.355 281.82 142.689 281.96 142.102 282.24C141.702 283.04 141.449 283.86 141.342 284.7C142.395 284.687 144.009 284.653 146.182 284.6ZM155.756 282.28C155.69 282.213 155.543 282.18 155.316 282.18C155.09 282.18 154.75 282.26 154.296 282.42C153.856 282.58 153.456 282.767 153.096 282.98C153.016 285.94 152.963 288.16 152.936 289.64L154.616 289.8C154.616 290.173 154.503 290.573 154.276 291H149.676L149.616 290.3C150.23 290.087 150.83 289.927 151.416 289.82C151.336 286.433 151.27 283.927 151.216 282.3C150.483 282.26 149.896 282.18 149.456 282.06L149.536 281.02C150.243 280.82 151.29 280.72 152.676 280.72C152.89 281.053 153.023 281.48 153.076 282C154.61 281.067 155.523 280.6 155.816 280.6C156.11 280.6 156.45 280.66 156.836 280.78C157.223 280.887 157.51 281.007 157.696 281.14C157.696 282.473 157.57 283.56 157.316 284.4C157.13 284.453 156.91 284.48 156.656 284.48C156.416 284.48 156.25 284.473 156.156 284.46L155.756 282.28Z" fill="white"/>
<path d="M40.8127 361.98L47.3327 362C47.3061 360.373 47.2661 358.767 47.2127 357.18C46.7194 357.087 46.1261 356.927 45.4327 356.7L45.4927 356H50.4927C50.7194 356.427 50.8327 356.827 50.8327 357.2C50.1661 357.253 49.6327 357.28 49.2327 357.28L49.0127 368.64L50.6927 368.8C50.6927 369.173 50.5794 369.573 50.3527 370H45.7527L45.6927 369.3C46.3194 369.087 46.9327 368.927 47.5327 368.82L47.3727 363.26H40.7727C40.7461 365.66 40.7327 367.453 40.7327 368.64L42.4127 368.8C42.4127 369.173 42.2994 369.573 42.0727 370H37.4727L37.4127 369.3C38.0394 369.087 38.6527 368.927 39.2527 368.82C39.1194 363.647 39.0127 359.767 38.9327 357.18C38.4394 357.087 37.8461 356.927 37.1527 356.7L37.2127 356H42.2127C42.4394 356.427 42.5527 356.827 42.5527 357.2C41.8861 357.253 41.3527 357.28 40.9527 357.28C40.9127 358.293 40.8661 359.86 40.8127 361.98ZM56.7755 369.04C57.8955 369.04 58.6489 368.693 59.0355 368C59.4355 367.293 59.6355 366.293 59.6355 365C59.6355 362.947 59.1822 361.66 58.2755 361.14C57.9022 360.927 57.3755 360.82 56.6955 360.82C56.0289 360.82 55.3955 360.96 54.7955 361.24C54.2622 362.267 53.9955 363.46 53.9955 364.82C53.9955 366.127 54.1689 367.133 54.5155 367.84C54.9155 368.64 55.6689 369.04 56.7755 369.04ZM52.1555 365C52.1555 363.307 52.5422 361.987 53.3155 361.04C54.0889 360.08 55.2822 359.6 56.8955 359.6C58.5089 359.6 59.6755 360.04 60.3955 360.92C61.1155 361.787 61.4755 363.073 61.4755 364.78C61.4755 366.487 61.0889 367.827 60.3155 368.8C59.5555 369.773 58.3955 370.26 56.8355 370.26C55.2755 370.26 54.1022 369.807 53.3155 368.9C52.5422 367.993 52.1555 366.693 52.1555 365ZM69.0573 361.28C68.9906 361.213 68.8439 361.18 68.6173 361.18C68.3906 361.18 68.0506 361.26 67.5973 361.42C67.1573 361.58 66.7573 361.767 66.3973 361.98C66.3173 364.94 66.2639 367.16 66.2373 368.64L67.9173 368.8C67.9173 369.173 67.8039 369.573 67.5773 370H62.9773L62.9173 369.3C63.5306 369.087 64.1306 368.927 64.7173 368.82C64.6373 365.433 64.5706 362.927 64.5173 361.3C63.7839 361.26 63.1973 361.18 62.7573 361.06L62.8373 360.02C63.5439 359.82 64.5906 359.72 65.9773 359.72C66.1906 360.053 66.3239 360.48 66.3773 361C67.9106 360.067 68.8239 359.6 69.1173 359.6C69.4106 359.6 69.7506 359.66 70.1373 359.78C70.5239 359.887 70.8106 360.007 70.9973 360.14C70.9973 361.473 70.8706 362.56 70.6173 363.4C70.4306 363.453 70.2106 363.48 69.9573 363.48C69.7173 363.48 69.5506 363.473 69.4573 363.46L69.0573 361.28ZM81.6016 361.84C81.655 362.267 81.6816 362.76 81.6816 363.32C81.6816 363.88 81.6283 365.653 81.5216 368.64L83.2016 368.8C83.2016 369.173 83.0883 369.573 82.8616 370H78.2616L78.2016 369.3C78.815 369.087 79.415 368.927 80.0016 368.82C79.9216 365.273 79.8483 363.3 79.7816 362.9C79.7283 362.5 79.635 362.167 79.5016 361.9C79.3683 361.62 79.1616 361.427 78.8816 361.32C78.6016 361.213 78.175 361.16 77.6016 361.16C77.0416 361.16 76.3016 361.373 75.3816 361.8C75.3016 364.84 75.2483 367.12 75.2216 368.64L76.9016 368.8C76.9016 369.173 76.7883 369.573 76.5616 370H71.9616L71.9016 369.3C72.515 369.087 73.115 368.927 73.7016 368.82C73.6883 367.86 73.655 366.507 73.6016 364.76C73.5483 363 73.515 361.847 73.5016 361.3C72.7683 361.26 72.1816 361.18 71.7416 361.06L71.8216 360.02C72.5416 359.82 73.5883 359.72 74.9616 359.72C75.1483 360.053 75.2683 360.4 75.3216 360.76C75.9083 360.453 76.4883 360.187 77.0616 359.96C77.635 359.72 77.995 359.6 78.1416 359.6C79.6216 359.6 80.655 360.053 81.2416 360.96C81.855 360.627 82.4883 360.32 83.1416 360.04C83.8083 359.747 84.2083 359.6 84.3416 359.6C85.555 359.6 86.4616 359.9 87.0616 360.5C87.675 361.087 87.9816 362.053 87.9816 363.4C87.9816 363.8 87.9283 365.547 87.8216 368.64L89.5016 368.8C89.5016 369.173 89.3883 369.573 89.1616 370H84.5616L84.5016 369.3C85.115 369.087 85.715 368.927 86.3016 368.82C86.2483 366.713 86.2016 365.12 86.1616 364.04C86.1216 362.96 85.9683 362.213 85.7016 361.8C85.435 361.373 84.9016 361.16 84.1016 361.16C83.3016 361.16 82.4683 361.387 81.6016 361.84ZM95.0373 369.04C96.1573 369.04 96.9106 368.693 97.2973 368C97.6973 367.293 97.8973 366.293 97.8973 365C97.8973 362.947 97.4439 361.66 96.5373 361.14C96.1639 360.927 95.6373 360.82 94.9573 360.82C94.2906 360.82 93.6573 360.96 93.0573 361.24C92.5239 362.267 92.2573 363.46 92.2573 364.82C92.2573 366.127 92.4306 367.133 92.7773 367.84C93.1773 368.64 93.9306 369.04 95.0373 369.04ZM90.4173 365C90.4173 363.307 90.8039 361.987 91.5773 361.04C92.3506 360.08 93.5439 359.6 95.1573 359.6C96.7706 359.6 97.9373 360.04 98.6573 360.92C99.3773 361.787 99.7373 363.073 99.7373 364.78C99.7373 366.487 99.3506 367.827 98.5773 368.8C97.8173 369.773 96.6573 370.26 95.0973 370.26C93.5373 370.26 92.3639 369.807 91.5773 368.9C90.8039 367.993 90.4173 366.693 90.4173 365ZM107.419 359.6C108.699 359.6 109.626 359.92 110.199 360.56C110.772 361.187 111.059 362.147 111.059 363.44C111.059 363.813 111.006 365.547 110.899 368.64L112.579 368.8C112.579 369.173 112.466 369.573 112.239 370H107.639L107.579 369.3C108.192 369.087 108.792 368.927 109.379 368.82C109.299 365.327 109.226 363.387 109.159 363C109.106 362.6 109.012 362.253 108.879 361.96C108.746 361.667 108.546 361.46 108.279 361.34C108.012 361.22 107.659 361.16 107.219 361.16C106.339 361.16 105.486 361.373 104.659 361.8C104.579 364.84 104.526 367.12 104.499 368.64L106.179 368.8C106.179 369.173 106.066 369.573 105.839 370H101.239L101.179 369.3C101.792 369.087 102.392 368.927 102.979 368.82C102.899 365.433 102.832 362.927 102.779 361.3C102.046 361.26 101.459 361.18 101.019 361.06L101.099 360.02C101.819 359.82 102.866 359.72 104.239 359.72C104.399 359.96 104.519 360.307 104.599 360.76C105.172 360.453 105.746 360.187 106.319 359.96C106.906 359.72 107.272 359.6 107.419 359.6ZM116.203 355.14C116.617 355.14 116.91 355.153 117.083 355.18C117.083 355.647 116.997 356.18 116.823 356.78C116.703 364.647 116.643 368.6 116.643 368.64L118.323 368.8C118.323 369.173 118.21 369.573 117.983 370H113.383L113.323 369.3C113.937 369.087 114.537 368.927 115.123 368.82L114.923 356.72C114.19 356.68 113.603 356.6 113.163 356.48L113.243 355.44C113.923 355.24 114.91 355.14 116.203 355.14ZM127.442 363.46L127.342 368.62C127.915 368.66 128.488 368.753 129.062 368.9L129.022 369.6C128.808 369.707 128.422 369.827 127.862 369.96C127.315 370.08 126.775 370.14 126.242 370.14C126.002 369.66 125.868 369.2 125.842 368.76C124.322 369.76 123.255 370.26 122.642 370.26C121.695 370.26 120.935 370.007 120.362 369.5C119.788 368.993 119.502 368.287 119.502 367.38C119.502 365.287 120.782 364.207 123.342 364.14C124.835 364.1 125.588 364.08 125.602 364.08L125.582 363.4C125.555 362.48 125.382 361.82 125.062 361.42C124.742 361.007 124.168 360.8 123.342 360.8C122.995 360.8 122.622 360.88 122.222 361.04L121.742 363.04C121.675 363.053 121.562 363.06 121.402 363.06L120.582 363C120.368 362.427 120.255 361.633 120.242 360.62C120.495 360.487 121.075 360.287 121.982 360.02C122.888 359.74 123.468 359.6 123.722 359.6C125.082 359.6 126.042 359.9 126.602 360.5C127.162 361.1 127.442 362.087 127.442 363.46ZM123.082 368.9C123.468 368.9 124.362 368.467 125.762 367.6L125.662 365.1C124.755 365.18 123.995 365.253 123.382 365.32C122.768 365.387 122.275 365.567 121.902 365.86C121.528 366.14 121.342 366.587 121.342 367.2C121.342 368.333 121.922 368.9 123.082 368.9ZM136.323 361.28C136.256 361.213 136.11 361.18 135.883 361.18C135.656 361.18 135.316 361.26 134.863 361.42C134.423 361.58 134.023 361.767 133.663 361.98C133.583 364.94 133.53 367.16 133.503 368.64L135.183 368.8C135.183 369.173 135.07 369.573 134.843 370H130.243L130.183 369.3C130.796 369.087 131.396 368.927 131.983 368.82C131.903 365.433 131.836 362.927 131.783 361.3C131.05 361.26 130.463 361.18 130.023 361.06L130.103 360.02C130.81 359.82 131.856 359.72 133.243 359.72C133.456 360.053 133.59 360.48 133.643 361C135.176 360.067 136.09 359.6 136.383 359.6C136.676 359.6 137.016 359.66 137.403 359.78C137.79 359.887 138.076 360.007 138.263 360.14C138.263 361.473 138.136 362.56 137.883 363.4C137.696 363.453 137.476 363.48 137.223 363.48C136.983 363.48 136.816 363.473 136.723 363.46L136.323 361.28Z" fill="white"/>
<path d="M212.005 357.38L211.905 362.2H215.065L215.225 360.76C215.598 360.76 215.998 360.873 216.425 361.1V364.9L215.725 364.96C215.525 364.387 215.391 363.907 215.325 363.52H211.905C211.878 364.68 211.851 366.393 211.825 368.66H216.405L216.885 366.78L218.045 366.86C218.231 367.62 218.325 368.293 218.325 368.88C218.325 369.453 218.311 369.827 218.285 370H208.565L208.505 369.3C209.091 369.087 209.658 368.933 210.205 368.84C210.125 363.64 210.058 359.773 210.005 357.24C209.711 357.213 209.125 357.053 208.245 356.76L208.345 356H217.985C218.011 356.173 218.025 356.44 218.025 356.8C218.025 357.533 217.931 358.327 217.745 359.18C217.451 359.247 217.065 359.28 216.585 359.28L216.105 357.38H212.005ZM226.499 359.6C227.779 359.6 228.706 359.92 229.279 360.56C229.852 361.187 230.139 362.147 230.139 363.44C230.139 363.813 230.086 365.547 229.979 368.64L231.659 368.8C231.659 369.173 231.546 369.573 231.319 370H226.719L226.659 369.3C227.272 369.087 227.872 368.927 228.459 368.82C228.379 365.327 228.306 363.387 228.239 363C228.186 362.6 228.092 362.253 227.959 361.96C227.826 361.667 227.626 361.46 227.359 361.34C227.092 361.22 226.739 361.16 226.299 361.16C225.419 361.16 224.566 361.373 223.739 361.8C223.659 364.84 223.606 367.12 223.579 368.64L225.259 368.8C225.259 369.173 225.146 369.573 224.919 370H220.319L220.259 369.3C220.872 369.087 221.472 368.927 222.059 368.82C221.979 365.433 221.912 362.927 221.859 361.3C221.126 361.26 220.539 361.18 220.099 361.06L220.179 360.02C220.899 359.82 221.946 359.72 223.319 359.72C223.479 359.96 223.599 360.307 223.679 360.76C224.252 360.453 224.826 360.187 225.399 359.96C225.986 359.72 226.352 359.6 226.499 359.6ZM240.343 366.8C240.53 367.573 240.623 368.26 240.623 368.86C240.623 369.447 240.61 369.827 240.583 370H233.023C232.863 369.76 232.77 369.4 232.743 368.92L238.483 360.96H235.063L234.583 363.04C234.383 363.053 234.263 363.06 234.223 363.06L233.423 363C233.237 362.227 233.143 361.553 233.143 360.98C233.143 360.393 233.157 360.013 233.183 359.84H240.283C240.363 360.04 240.403 360.413 240.403 360.96L234.923 368.8H238.703L239.183 366.7L240.343 366.8ZM245.89 357.94C245.544 358.02 245.204 358.06 244.87 358.06C244.55 358.06 244.23 358.04 243.91 358C243.83 357.627 243.79 357.253 243.79 356.88C243.79 356.493 243.804 356.207 243.83 356.02C244.124 355.953 244.43 355.92 244.75 355.92C245.084 355.92 245.437 355.933 245.81 355.96C245.89 356.307 245.93 356.647 245.93 356.98C245.93 357.3 245.917 357.62 245.89 357.94ZM242.25 360.04C243.384 359.84 244.264 359.74 244.89 359.74C245.517 359.74 245.917 359.753 246.09 359.78C246.09 360.1 246.05 360.453 245.97 360.84C245.89 361.227 245.844 361.413 245.83 361.4L245.65 368.64L247.33 368.8C247.33 369.173 247.217 369.573 246.99 370H242.39L242.33 369.3C242.944 369.087 243.544 368.927 244.13 368.82C244.05 365.487 243.984 362.987 243.93 361.32C243.157 361.32 242.57 361.24 242.17 361.08L242.25 360.04ZM258.143 361.84C258.196 362.267 258.223 362.76 258.223 363.32C258.223 363.88 258.169 365.653 258.063 368.64L259.743 368.8C259.743 369.173 259.629 369.573 259.403 370H254.803L254.743 369.3C255.356 369.087 255.956 368.927 256.543 368.82C256.463 365.273 256.389 363.3 256.323 362.9C256.269 362.5 256.176 362.167 256.043 361.9C255.909 361.62 255.703 361.427 255.423 361.32C255.143 361.213 254.716 361.16 254.143 361.16C253.583 361.16 252.843 361.373 251.923 361.8C251.843 364.84 251.789 367.12 251.763 368.64L253.443 368.8C253.443 369.173 253.329 369.573 253.103 370H248.503L248.443 369.3C249.056 369.087 249.656 368.927 250.243 368.82C250.229 367.86 250.196 366.507 250.143 364.76C250.089 363 250.056 361.847 250.043 361.3C249.309 361.26 248.723 361.18 248.283 361.06L248.363 360.02C249.083 359.82 250.129 359.72 251.503 359.72C251.689 360.053 251.809 360.4 251.863 360.76C252.449 360.453 253.029 360.187 253.603 359.96C254.176 359.72 254.536 359.6 254.683 359.6C256.163 359.6 257.196 360.053 257.783 360.96C258.396 360.627 259.029 360.32 259.683 360.04C260.349 359.747 260.749 359.6 260.883 359.6C262.096 359.6 263.003 359.9 263.603 360.5C264.216 361.087 264.523 362.053 264.523 363.4C264.523 363.8 264.469 365.547 264.363 368.64L266.043 368.8C266.043 369.173 265.929 369.573 265.703 370H261.103L261.043 369.3C261.656 369.087 262.256 368.927 262.843 368.82C262.789 366.713 262.743 365.12 262.703 364.04C262.663 362.96 262.509 362.213 262.243 361.8C261.976 361.373 261.443 361.16 260.643 361.16C259.843 361.16 259.009 361.387 258.143 361.84ZM269.658 355.14C270.072 355.14 270.365 355.153 270.538 355.18C270.538 355.647 270.452 356.18 270.278 356.78C270.158 364.647 270.098 368.6 270.098 368.64L271.778 368.8C271.778 369.173 271.665 369.573 271.438 370H266.838L266.778 369.3C267.392 369.087 267.992 368.927 268.578 368.82L268.378 356.72C267.645 356.68 267.058 356.6 266.618 356.48L266.698 355.44C267.378 355.24 268.365 355.14 269.658 355.14ZM277.937 368.88C278.523 368.88 279.443 368.6 280.697 368.04C280.95 368.387 281.083 368.693 281.097 368.96C280.417 369.36 279.75 369.673 279.097 369.9C278.443 370.127 277.977 370.24 277.697 370.24C276.15 370.24 274.97 369.78 274.157 368.86C273.343 367.927 272.937 366.627 272.937 364.96C272.937 363.293 273.33 361.987 274.117 361.04C274.917 360.08 276.11 359.6 277.697 359.6C278.923 359.6 279.857 360.04 280.497 360.92C281.15 361.8 281.477 362.98 281.477 364.46C281.37 364.647 281.283 364.773 281.217 364.84L274.777 364.74C274.79 366.087 275.023 367.113 275.477 367.82C275.943 368.527 276.763 368.88 277.937 368.88ZM279.657 363.6C279.657 362.72 279.497 362.04 279.177 361.56C278.857 361.067 278.323 360.82 277.577 360.82C276.83 360.82 276.163 360.96 275.577 361.24C275.177 362.04 274.923 362.86 274.817 363.7C275.87 363.687 277.483 363.653 279.657 363.6ZM289.231 361.28C289.164 361.213 289.018 361.18 288.791 361.18C288.564 361.18 288.224 361.26 287.771 361.42C287.331 361.58 286.931 361.767 286.571 361.98C286.491 364.94 286.438 367.16 286.411 368.64L288.091 368.8C288.091 369.173 287.978 369.573 287.751 370H283.151L283.091 369.3C283.704 369.087 284.304 368.927 284.891 368.82C284.811 365.433 284.744 362.927 284.691 361.3C283.958 361.26 283.371 361.18 282.931 361.06L283.011 360.02C283.718 359.82 284.764 359.72 286.151 359.72C286.364 360.053 286.498 360.48 286.551 361C288.084 360.067 288.998 359.6 289.291 359.6C289.584 359.6 289.924 359.66 290.311 359.78C290.698 359.887 290.984 360.007 291.171 360.14C291.171 361.473 291.044 362.56 290.791 363.4C290.604 363.453 290.384 363.48 290.131 363.48C289.891 363.48 289.724 363.473 289.631 363.46L289.231 361.28Z" fill="white"/>
<path d="M212.377 198.32L208.257 211H206.177L201.597 198.18C201.064 198.073 200.464 197.913 199.797 197.7L199.857 197H205.057C205.284 197.427 205.397 197.827 205.397 198.2C204.744 198.24 204.144 198.28 203.597 198.32L207.137 208.9H207.237C207.531 207.9 208.644 204.327 210.577 198.18C210.044 198.1 209.417 197.94 208.697 197.7L208.757 197H213.777C214.004 197.427 214.117 197.827 214.117 198.2C213.504 198.24 212.924 198.28 212.377 198.32ZM218.627 198.94C218.28 199.02 217.94 199.06 217.607 199.06C217.287 199.06 216.967 199.04 216.647 199C216.567 198.627 216.527 198.253 216.527 197.88C216.527 197.493 216.54 197.207 216.567 197.02C216.86 196.953 217.167 196.92 217.487 196.92C217.82 196.92 218.173 196.933 218.547 196.96C218.627 197.307 218.667 197.647 218.667 197.98C218.667 198.3 218.653 198.62 218.627 198.94ZM214.987 201.04C216.12 200.84 217 200.74 217.627 200.74C218.253 200.74 218.653 200.753 218.827 200.78C218.827 201.1 218.787 201.453 218.707 201.84C218.627 202.227 218.58 202.413 218.567 202.4L218.387 209.64L220.067 209.8C220.067 210.173 219.953 210.573 219.727 211H215.127L215.067 210.3C215.68 210.087 216.28 209.927 216.867 209.82C216.787 206.487 216.72 203.987 216.667 202.32C215.893 202.32 215.307 202.24 214.907 202.08L214.987 201.04ZM222.659 209.76L222.499 202.22H220.959L220.899 201.52C221.032 201.427 221.419 201.253 222.059 201L223.699 198.44C223.966 198.467 224.172 198.533 224.319 198.64L224.299 200.84C225.299 200.84 226.119 200.907 226.759 201.04C226.759 201.4 226.646 201.793 226.419 202.22H224.259C224.232 203.82 224.206 206.247 224.179 209.5C224.926 209.54 225.672 209.673 226.419 209.9L226.399 210.6C226.212 210.72 225.732 210.86 224.959 211.02C224.199 211.18 223.572 211.26 223.079 211.26C223.012 211.153 222.926 210.927 222.819 210.58C222.712 210.22 222.659 209.947 222.659 209.76ZM236.172 204.46L236.072 209.62C236.645 209.66 237.219 209.753 237.792 209.9L237.752 210.6C237.539 210.707 237.152 210.827 236.592 210.96C236.045 211.08 235.505 211.14 234.972 211.14C234.732 210.66 234.599 210.2 234.572 209.76C233.052 210.76 231.985 211.26 231.372 211.26C230.425 211.26 229.665 211.007 229.092 210.5C228.519 209.993 228.232 209.287 228.232 208.38C228.232 206.287 229.512 205.207 232.072 205.14C233.565 205.1 234.319 205.08 234.332 205.08L234.312 204.4C234.285 203.48 234.112 202.82 233.792 202.42C233.472 202.007 232.899 201.8 232.072 201.8C231.725 201.8 231.352 201.88 230.952 202.04L230.472 204.04C230.405 204.053 230.292 204.06 230.132 204.06L229.312 204C229.099 203.427 228.985 202.633 228.972 201.62C229.225 201.487 229.805 201.287 230.712 201.02C231.619 200.74 232.199 200.6 232.452 200.6C233.812 200.6 234.772 200.9 235.332 201.5C235.892 202.1 236.172 203.087 236.172 204.46ZM231.812 209.9C232.199 209.9 233.092 209.467 234.492 208.6L234.392 206.1C233.485 206.18 232.725 206.253 232.112 206.32C231.499 206.387 231.005 206.567 230.632 206.86C230.259 207.14 230.072 207.587 230.072 208.2C230.072 209.333 230.652 209.9 231.812 209.9ZM248.613 202.84C248.667 203.267 248.693 203.76 248.693 204.32C248.693 204.88 248.64 206.653 248.533 209.64L250.213 209.8C250.213 210.173 250.1 210.573 249.873 211H245.273L245.213 210.3C245.827 210.087 246.427 209.927 247.013 209.82C246.933 206.273 246.86 204.3 246.793 203.9C246.74 203.5 246.647 203.167 246.513 202.9C246.38 202.62 246.173 202.427 245.893 202.32C245.613 202.213 245.187 202.16 244.613 202.16C244.053 202.16 243.313 202.373 242.393 202.8C242.313 205.84 242.26 208.12 242.233 209.64L243.913 209.8C243.913 210.173 243.8 210.573 243.573 211H238.973L238.913 210.3C239.527 210.087 240.127 209.927 240.713 209.82C240.7 208.86 240.667 207.507 240.613 205.76C240.56 204 240.527 202.847 240.513 202.3C239.78 202.26 239.193 202.18 238.753 202.06L238.833 201.02C239.553 200.82 240.6 200.72 241.973 200.72C242.16 201.053 242.28 201.4 242.333 201.76C242.92 201.453 243.5 201.187 244.073 200.96C244.647 200.72 245.007 200.6 245.153 200.6C246.633 200.6 247.667 201.053 248.253 201.96C248.867 201.627 249.5 201.32 250.153 201.04C250.82 200.747 251.22 200.6 251.353 200.6C252.567 200.6 253.473 200.9 254.073 201.5C254.687 202.087 254.993 203.053 254.993 204.4C254.993 204.8 254.94 206.547 254.833 209.64L256.513 209.8C256.513 210.173 256.4 210.573 256.173 211H251.573L251.513 210.3C252.127 210.087 252.727 209.927 253.313 209.82C253.26 207.713 253.213 206.12 253.173 205.04C253.133 203.96 252.98 203.213 252.713 202.8C252.447 202.373 251.913 202.16 251.113 202.16C250.313 202.16 249.48 202.387 248.613 202.84ZM261.029 198.94C260.682 199.02 260.342 199.06 260.009 199.06C259.689 199.06 259.369 199.04 259.049 199C258.969 198.627 258.929 198.253 258.929 197.88C258.929 197.493 258.942 197.207 258.969 197.02C259.262 196.953 259.569 196.92 259.889 196.92C260.222 196.92 260.576 196.933 260.949 196.96C261.029 197.307 261.069 197.647 261.069 197.98C261.069 198.3 261.056 198.62 261.029 198.94ZM257.389 201.04C258.522 200.84 259.402 200.74 260.029 200.74C260.656 200.74 261.056 200.753 261.229 200.78C261.229 201.1 261.189 201.453 261.109 201.84C261.029 202.227 260.982 202.413 260.969 202.4L260.789 209.64L262.469 209.8C262.469 210.173 262.356 210.573 262.129 211H257.529L257.469 210.3C258.082 210.087 258.682 209.927 259.269 209.82C259.189 206.487 259.122 203.987 259.069 202.32C258.296 202.32 257.709 202.24 257.309 202.08L257.389 201.04ZM269.821 200.6C271.101 200.6 272.028 200.92 272.601 201.56C273.175 202.187 273.461 203.147 273.461 204.44C273.461 204.813 273.408 206.547 273.301 209.64L274.981 209.8C274.981 210.173 274.868 210.573 274.641 211H270.041L269.981 210.3C270.595 210.087 271.195 209.927 271.781 209.82C271.701 206.327 271.628 204.387 271.561 204C271.508 203.6 271.415 203.253 271.281 202.96C271.148 202.667 270.948 202.46 270.681 202.34C270.415 202.22 270.061 202.16 269.621 202.16C268.741 202.16 267.888 202.373 267.061 202.8C266.981 205.84 266.928 208.12 266.901 209.64L268.581 209.8C268.581 210.173 268.468 210.573 268.241 211H263.641L263.581 210.3C264.195 210.087 264.795 209.927 265.381 209.82C265.301 206.433 265.235 203.927 265.181 202.3C264.448 202.26 263.861 202.18 263.421 202.06L263.501 201.02C264.221 200.82 265.268 200.72 266.641 200.72C266.801 200.96 266.921 201.307 267.001 201.76C267.575 201.453 268.148 201.187 268.721 200.96C269.308 200.72 269.675 200.6 269.821 200.6ZM278.606 196.14C279.019 196.14 279.312 196.153 279.486 196.18C279.486 196.647 279.399 197.18 279.226 197.78C279.106 205.647 279.046 209.6 279.046 209.64L280.726 209.8C280.726 210.173 280.612 210.573 280.386 211H275.786L275.726 210.3C276.339 210.087 276.939 209.927 277.526 209.82L277.326 197.72C276.592 197.68 276.006 197.6 275.566 197.48L275.646 196.44C276.326 196.24 277.312 196.14 278.606 196.14ZM286.884 209.88C287.471 209.88 288.391 209.6 289.644 209.04C289.897 209.387 290.031 209.693 290.044 209.96C289.364 210.36 288.697 210.673 288.044 210.9C287.391 211.127 286.924 211.24 286.644 211.24C285.097 211.24 283.917 210.78 283.104 209.86C282.291 208.927 281.884 207.627 281.884 205.96C281.884 204.293 282.277 202.987 283.064 202.04C283.864 201.08 285.057 200.6 286.644 200.6C287.871 200.6 288.804 201.04 289.444 201.92C290.097 202.8 290.424 203.98 290.424 205.46C290.317 205.647 290.231 205.773 290.164 205.84L283.724 205.74C283.737 207.087 283.971 208.113 284.424 208.82C284.891 209.527 285.711 209.88 286.884 209.88ZM288.604 204.6C288.604 203.72 288.444 203.04 288.124 202.56C287.804 202.067 287.271 201.82 286.524 201.82C285.777 201.82 285.111 201.96 284.524 202.24C284.124 203.04 283.871 203.86 283.764 204.7C284.817 204.687 286.431 204.653 288.604 204.6ZM298.178 202.28C298.112 202.213 297.965 202.18 297.738 202.18C297.512 202.18 297.172 202.26 296.718 202.42C296.278 202.58 295.878 202.767 295.518 202.98C295.438 205.94 295.385 208.16 295.358 209.64L297.038 209.8C297.038 210.173 296.925 210.573 296.698 211H292.098L292.038 210.3C292.652 210.087 293.252 209.927 293.838 209.82C293.758 206.433 293.692 203.927 293.638 202.3C292.905 202.26 292.318 202.18 291.878 202.06L291.958 201.02C292.665 200.82 293.712 200.72 295.098 200.72C295.312 201.053 295.445 201.48 295.498 202C297.032 201.067 297.945 200.6 298.238 200.6C298.532 200.6 298.872 200.66 299.258 200.78C299.645 200.887 299.932 201.007 300.118 201.14C300.118 202.473 299.992 203.56 299.738 204.4C299.552 204.453 299.332 204.48 299.078 204.48C298.838 204.48 298.672 204.473 298.578 204.46L298.178 202.28Z" fill="white"/>
<path d="M234.616 276.42C234.856 276.34 235.51 276.253 236.576 276.16C237.643 276.053 238.61 276 239.476 276C240.356 276 241.036 276.04 241.516 276.12C241.53 276.173 241.536 276.24 241.536 276.32C241.536 276.387 241.496 276.553 241.416 276.82C241.35 277.087 241.296 277.26 241.256 277.34C241.15 277.447 240.85 277.527 240.356 277.58L244.176 288.64L246.076 288.8C246.076 289.173 245.963 289.573 245.736 290H241.136L241.076 289.3C241.383 289.14 241.83 289 242.416 288.88L241.396 286.02H235.816L234.876 288.64L236.496 288.8C236.496 289.173 236.383 289.573 236.156 290H231.556L231.496 289.3C232.016 289.113 232.57 288.967 233.156 288.86L237.036 277.52C235.85 277.387 235.016 277.227 234.536 277.04L234.616 276.42ZM239.816 281.56L238.756 277.64C238.676 277.627 238.563 277.62 238.416 277.62L237.336 281.7L236.176 284.74H241.036L239.816 281.56ZM251.958 277.24C251.891 279.48 251.818 283.28 251.738 288.64L253.418 288.8C253.418 289.173 253.304 289.573 253.078 290H248.478L248.418 289.3C249.191 289.02 249.804 288.86 250.258 288.82C250.124 283.673 250.018 279.813 249.938 277.24H247.018L246.538 279.28L245.378 279.2C245.178 278.387 245.078 277.56 245.078 276.72C245.078 276.56 245.091 276.32 245.118 276H256.638C256.664 276.173 256.678 276.44 256.678 276.8C256.678 277.52 256.584 278.307 256.398 279.16C256.104 279.24 255.718 279.28 255.238 279.28L254.738 277.24H251.958ZM263.2 276C264.893 276 266.146 276.28 266.96 276.84C267.786 277.387 268.2 278.36 268.2 279.76C268.2 281.16 267.793 282.273 266.98 283.1C266.166 283.913 264.853 284.32 263.04 284.32H261.36L261.3 288.66L262.86 288.8C262.86 289.173 262.746 289.573 262.52 290H258.02L257.96 289.32C258.52 289.107 259.093 288.947 259.68 288.84C259.6 283.64 259.533 279.773 259.48 277.24C259.12 277.173 258.533 277.013 257.72 276.76L257.82 276H263.2ZM262.84 283.02C263.986 283.007 264.86 282.72 265.46 282.16C266.06 281.587 266.36 280.833 266.36 279.9C266.36 278.967 266.066 278.32 265.48 277.96C264.893 277.587 263.953 277.4 262.66 277.4C262.42 277.4 262.013 277.407 261.44 277.42C261.44 277.433 261.42 279.307 261.38 283.04L262.84 283.02Z" fill="white"/>
<path d="M66.0835 207.86C66.1235 207.94 66.1768 208.247 66.2435 208.78C66.3235 209.313 66.3635 209.767 66.3635 210.14C66.3635 210.5 66.3435 210.787 66.3035 211H56.8035L56.7435 210.3C57.3702 210.073 57.9368 209.92 58.4435 209.84C58.3635 204.587 58.2968 200.713 58.2435 198.22C57.8968 198.167 57.3102 198.007 56.4835 197.74L56.5835 197H61.4035C61.6302 197.373 61.7435 197.767 61.7435 198.18C61.0235 198.207 60.5035 198.227 60.1835 198.24C60.1568 200.8 60.1302 203.133 60.1035 205.24C60.0902 207.333 60.0768 208.807 60.0635 209.66H64.4435L64.9235 207.76C65.5902 207.76 65.9768 207.793 66.0835 207.86ZM71.2595 198.94C70.9128 199.02 70.5728 199.06 70.2395 199.06C69.9195 199.06 69.5995 199.04 69.2795 199C69.1995 198.627 69.1595 198.253 69.1595 197.88C69.1595 197.493 69.1728 197.207 69.1995 197.02C69.4928 196.953 69.7995 196.92 70.1195 196.92C70.4528 196.92 70.8061 196.933 71.1795 196.96C71.2595 197.307 71.2995 197.647 71.2995 197.98C71.2995 198.3 71.2861 198.62 71.2595 198.94ZM67.6195 201.04C68.7528 200.84 69.6328 200.74 70.2595 200.74C70.8861 200.74 71.2861 200.753 71.4595 200.78C71.4595 201.1 71.4195 201.453 71.3395 201.84C71.2595 202.227 71.2128 202.413 71.1995 202.4L71.0195 209.64L72.6995 209.8C72.6995 210.173 72.5861 210.573 72.3595 211H67.7595L67.6995 210.3C68.3128 210.087 68.9128 209.927 69.4995 209.82C69.4195 206.487 69.3528 203.987 69.2995 202.32C68.5261 202.32 67.9395 202.24 67.5395 202.08L67.6195 201.04ZM76.9518 209.98L76.8518 214.26L78.5918 214.4C78.5918 214.773 78.4785 215.173 78.2518 215.6H73.6118L73.5518 214.9C74.1651 214.7 74.7651 214.547 75.3518 214.44C75.2718 209 75.2051 204.953 75.1518 202.3C74.5518 202.287 73.9651 202.207 73.3918 202.06L73.4718 201.02C74.2451 200.82 75.3251 200.72 76.7118 200.72C76.8318 200.933 76.9451 201.327 77.0518 201.9C78.7585 201.033 79.8385 200.6 80.2918 200.6C81.5318 200.6 82.4518 201.087 83.0518 202.06C83.6518 203.02 83.9518 204.273 83.9518 205.82C83.9518 207.353 83.6118 208.64 82.9318 209.68C82.2651 210.72 81.2918 211.24 80.0118 211.24C79.5318 211.24 79.0051 211.12 78.4318 210.88C77.8718 210.64 77.3785 210.34 76.9518 209.98ZM79.9318 202.1C79.1051 202.1 78.1451 202.393 77.0518 202.98C77.0251 205.46 76.9985 207.32 76.9718 208.56C77.3051 208.893 77.7451 209.2 78.2918 209.48C78.8518 209.747 79.3385 209.88 79.7518 209.88C81.3251 209.88 82.1118 208.587 82.1118 206C82.1118 205.013 81.9985 204.24 81.7718 203.68C81.5451 203.107 81.2851 202.7 80.9918 202.46C80.6985 202.22 80.3451 202.1 79.9318 202.1ZM88.9938 198.94C88.6472 199.02 88.3072 199.06 87.9738 199.06C87.6538 199.06 87.3338 199.04 87.0138 199C86.9338 198.627 86.8938 198.253 86.8938 197.88C86.8938 197.493 86.9072 197.207 86.9338 197.02C87.2272 196.953 87.5338 196.92 87.8538 196.92C88.1872 196.92 88.5405 196.933 88.9138 196.96C88.9938 197.307 89.0338 197.647 89.0338 197.98C89.0338 198.3 89.0205 198.62 88.9938 198.94ZM85.3538 201.04C86.4872 200.84 87.3672 200.74 87.9938 200.74C88.6205 200.74 89.0205 200.753 89.1938 200.78C89.1938 201.1 89.1538 201.453 89.0738 201.84C88.9938 202.227 88.9472 202.413 88.9338 202.4L88.7538 209.64L90.4338 209.8C90.4338 210.173 90.3205 210.573 90.0938 211H85.4938L85.4338 210.3C86.0472 210.087 86.6472 209.927 87.2338 209.82C87.1538 206.487 87.0872 203.987 87.0338 202.32C86.2605 202.32 85.6738 202.24 85.2738 202.08L85.3538 201.04ZM93.0262 209.76L92.8662 202.22H91.3262L91.2662 201.52C91.3995 201.427 91.7862 201.253 92.4262 201L94.0662 198.44C94.3328 198.467 94.5395 198.533 94.6862 198.64L94.6662 200.84C95.6662 200.84 96.4862 200.907 97.1262 201.04C97.1262 201.4 97.0128 201.793 96.7862 202.22H94.6262C94.5995 203.82 94.5728 206.247 94.5462 209.5C95.2928 209.54 96.0395 209.673 96.7862 209.9L96.7662 210.6C96.5795 210.72 96.0995 210.86 95.3262 211.02C94.5662 211.18 93.9395 211.26 93.4462 211.26C93.3795 211.153 93.2928 210.927 93.1862 210.58C93.0795 210.22 93.0262 209.947 93.0262 209.76ZM101.199 196.14C101.613 196.14 101.906 196.153 102.079 196.18C102.079 196.647 101.993 197.18 101.819 197.78C101.699 205.647 101.639 209.6 101.639 209.64L103.319 209.8C103.319 210.173 103.206 210.573 102.979 211H98.3793L98.3193 210.3C98.9326 210.087 99.5326 209.927 100.119 209.82L99.9193 197.72C99.186 197.68 98.5993 197.6 98.1593 197.48L98.2393 196.44C98.9193 196.24 99.906 196.14 101.199 196.14ZM109.478 209.88C110.064 209.88 110.984 209.6 112.238 209.04C112.491 209.387 112.624 209.693 112.638 209.96C111.958 210.36 111.291 210.673 110.638 210.9C109.984 211.127 109.518 211.24 109.238 211.24C107.691 211.24 106.511 210.78 105.698 209.86C104.884 208.927 104.478 207.627 104.478 205.96C104.478 204.293 104.871 202.987 105.658 202.04C106.458 201.08 107.651 200.6 109.238 200.6C110.464 200.6 111.398 201.04 112.038 201.92C112.691 202.8 113.018 203.98 113.018 205.46C112.911 205.647 112.824 205.773 112.758 205.84L106.318 205.74C106.331 207.087 106.564 208.113 107.018 208.82C107.484 209.527 108.304 209.88 109.478 209.88ZM111.198 204.6C111.198 203.72 111.038 203.04 110.718 202.56C110.398 202.067 109.864 201.82 109.118 201.82C108.371 201.82 107.704 201.96 107.118 202.24C106.718 203.04 106.464 203.86 106.358 204.7C107.411 204.687 109.024 204.653 111.198 204.6ZM120.772 202.28C120.705 202.213 120.559 202.18 120.332 202.18C120.105 202.18 119.765 202.26 119.312 202.42C118.872 202.58 118.472 202.767 118.112 202.98C118.032 205.94 117.979 208.16 117.952 209.64L119.632 209.8C119.632 210.173 119.519 210.573 119.292 211H114.692L114.632 210.3C115.245 210.087 115.845 209.927 116.432 209.82C116.352 206.433 116.285 203.927 116.232 202.3C115.499 202.26 114.912 202.18 114.472 202.06L114.552 201.02C115.259 200.82 116.305 200.72 117.692 200.72C117.905 201.053 118.039 201.48 118.092 202C119.625 201.067 120.539 200.6 120.832 200.6C121.125 200.6 121.465 200.66 121.852 200.78C122.239 200.887 122.525 201.007 122.712 201.14C122.712 202.473 122.585 203.56 122.332 204.4C122.145 204.453 121.925 204.48 121.672 204.48C121.432 204.48 121.265 204.473 121.172 204.46L120.772 202.28Z" fill="white"/>
</g>
<defs>
<filter id="filter0_d_146_980" x="0" y="0" width="343" height="483" filterUnits="userSpaceOnUse" color-interpolation-filters="sRGB">
<feFlood flood-opacity="0" result="BackgroundImageFix"/>
<feColorMatrix in="SourceAlpha" type="matrix" values="0 0 0 0 0 0 0 0 0 0 0 0 0 0 0 0 0 0 127 0" result="hardAlpha"/>
<feOffset dy="4"/>
<feGaussianBlur stdDeviation="2"/>
<feComposite in2="hardAlpha" operator="out"/>
<feColorMatrix type="matrix" values="0 0 0 0 0 0 0 0 0 0 0 0 0 0 0 0 0 0 0.25 0"/>
<feBlend mode="normal" in2="BackgroundImageFix" result="effect1_dropShadow_146_980"/>
<feBlend mode="normal" in="SourceGraphic" in2="effect1_dropShadow_146_980" result="shape"/>
</filter>
<filter id="filter1_d_146_980" x="15" y="13" width="313" height="43" filterUnits="userSpaceOnUse" color-interpolation-filters="sRGB">
<feFlood flood-opacity="0" result="BackgroundImageFix"/>
<feColorMatrix in="SourceAlpha" type="matrix" values="0 0 0 0 0 0 0 0 0 0 0 0 0 0 0 0 0 0 127 0" result="hardAlpha"/>
<feOffset dy="4"/>
<feGaussianBlur stdDeviation="2"/>
<feComposite in2="hardAlpha" operator="out"/>
<feColorMatrix type="matrix" values="0 0 0 0 0 0 0 0 0 0 0 0 0 0 0 0 0 0 0.25 0"/>
<feBlend mode="normal" in2="BackgroundImageFix" result="effect1_dropShadow_146_980"/>
<feBlend mode="normal" in="SourceGraphic" in2="effect1_dropShadow_146_980" result="shape"/>
</filter>
<filter id="filter2_d_146_980" x="6" y="95" width="163" height="52" filterUnits="userSpaceOnUse" color-interpolation-filters="sRGB">
<feFlood flood-opacity="0" result="BackgroundImageFix"/>
<feColorMatrix in="SourceAlpha" type="matrix" values="0 0 0 0 0 0 0 0 0 0 0 0 0 0 0 0 0 0 127 0" result="hardAlpha"/>
<feOffset dy="4"/>
<feGaussianBlur stdDeviation="2"/>
<feComposite in2="hardAlpha" operator="out"/>
<feColorMatrix type="matrix" values="0 0 0 0 0 0 0 0 0 0 0 0 0 0 0 0 0 0 0.25 0"/>
<feBlend mode="normal" in2="BackgroundImageFix" result="effect1_dropShadow_146_980"/>
<feBlend mode="normal" in="SourceGraphic" in2="effect1_dropShadow_146_980" result="shape"/>
</filter>
<filter id="filter3_d_146_980" x="168" y="95" width="163" height="52" filterUnits="userSpaceOnUse" color-interpolation-filters="sRGB">
<feFlood flood-opacity="0" result="BackgroundImageFix"/>
<feColorMatrix in="SourceAlpha" type="matrix" values="0 0 0 0 0 0 0 0 0 0 0 0 0 0 0 0 0 0 127 0" result="hardAlpha"/>
<feOffset dy="4"/>
<feGaussianBlur stdDeviation="2"/>
<feComposite in2="hardAlpha" operator="out"/>
<feColorMatrix type="matrix" values="0 0 0 0 0 0 0 0 0 0 0 0 0 0 0 0 0 0 0.25 0"/>
<feBlend mode="normal" in2="BackgroundImageFix" result="effect1_dropShadow_146_980"/>
<feBlend mode="normal" in="SourceGraphic" in2="effect1_dropShadow_146_980" result="shape"/>
</filter>
<filter id="filter4_d_146_980" x="6" y="181" width="163" height="52" filterUnits="userSpaceOnUse" color-interpolation-filters="sRGB">
<feFlood flood-opacity="0" result="BackgroundImageFix"/>
<feColorMatrix in="SourceAlpha" type="matrix" values="0 0 0 0 0 0 0 0 0 0 0 0 0 0 0 0 0 0 127 0" result="hardAlpha"/>
<feOffset dy="4"/>
<feGaussianBlur stdDeviation="2"/>
<feComposite in2="hardAlpha" operator="out"/>
<feColorMatrix type="matrix" values="0 0 0 0 0 0 0 0 0 0 0 0 0 0 0 0 0 0 0.25 0"/>
<feBlend mode="normal" in2="BackgroundImageFix" result="effect1_dropShadow_146_980"/>
<feBlend mode="normal" in="SourceGraphic" in2="effect1_dropShadow_146_980" result="shape"/>
</filter>
<filter id="filter5_d_146_980" x="170" y="181" width="163" height="52" filterUnits="userSpaceOnUse" color-interpolation-filters="sRGB">
<feFlood flood-opacity="0" result="BackgroundImageFix"/>
<feColorMatrix in="SourceAlpha" type="matrix" values="0 0 0 0 0 0 0 0 0 0 0 0 0 0 0 0 0 0 127 0" result="hardAlpha"/>
<feOffset dy="4"/>
<feGaussianBlur stdDeviation="2"/>
<feComposite in2="hardAlpha" operator="out"/>
<feColorMatrix type="matrix" values="0 0 0 0 0 0 0 0 0 0 0 0 0 0 0 0 0 0 0.25 0"/>
<feBlend mode="normal" in2="BackgroundImageFix" result="effect1_dropShadow_146_980"/>
<feBlend mode="normal" in="SourceGraphic" in2="effect1_dropShadow_146_980" result="shape"/>
</filter>
<filter id="filter6_d_146_980" x="6" y="261" width="163" height="52" filterUnits="userSpaceOnUse" color-interpolation-filters="sRGB">
<feFlood flood-opacity="0" result="BackgroundImageFix"/>
<feColorMatrix in="SourceAlpha" type="matrix" values="0 0 0 0 0 0 0 0 0 0 0 0 0 0 0 0 0 0 127 0" result="hardAlpha"/>
<feOffset dy="4"/>
<feGaussianBlur stdDeviation="2"/>
<feComposite in2="hardAlpha" operator="out"/>
<feColorMatrix type="matrix" values="0 0 0 0 0 0 0 0 0 0 0 0 0 0 0 0 0 0 0.25 0"/>
<feBlend mode="normal" in2="BackgroundImageFix" result="effect1_dropShadow_146_980"/>
<feBlend mode="normal" in="SourceGraphic" in2="effect1_dropShadow_146_980" result="shape"/>
</filter>
<filter id="filter7_d_146_980" x="170" y="261" width="163" height="52" filterUnits="userSpaceOnUse" color-interpolation-filters="sRGB">
<feFlood flood-opacity="0" result="BackgroundImageFix"/>
<feColorMatrix in="SourceAlpha" type="matrix" values="0 0 0 0 0 0 0 0 0 0 0 0 0 0 0 0 0 0 127 0" result="hardAlpha"/>
<feOffset dy="4"/>
<feGaussianBlur stdDeviation="2"/>
<feComposite in2="hardAlpha" operator="out"/>
<feColorMatrix type="matrix" values="0 0 0 0 0 0 0 0 0 0 0 0 0 0 0 0 0 0 0.25 0"/>
<feBlend mode="normal" in2="BackgroundImageFix" result="effect1_dropShadow_146_980"/>
<feBlend mode="normal" in="SourceGraphic" in2="effect1_dropShadow_146_980" result="shape"/>
</filter>
<filter id="filter8_d_146_980" x="6" y="341" width="163" height="52" filterUnits="userSpaceOnUse" color-interpolation-filters="sRGB">
<feFlood flood-opacity="0" result="BackgroundImageFix"/>
<feColorMatrix in="SourceAlpha" type="matrix" values="0 0 0 0 0 0 0 0 0 0 0 0 0 0 0 0 0 0 127 0" result="hardAlpha"/>
<feOffset dy="4"/>
<feGaussianBlur stdDeviation="2"/>
<feComposite in2="hardAlpha" operator="out"/>
<feColorMatrix type="matrix" values="0 0 0 0 0 0 0 0 0 0 0 0 0 0 0 0 0 0 0.25 0"/>
<feBlend mode="normal" in2="BackgroundImageFix" result="effect1_dropShadow_146_980"/>
<feBlend mode="normal" in="SourceGraphic" in2="effect1_dropShadow_146_980" result="shape"/>
</filter>
<filter id="filter9_d_146_980" x="168" y="341" width="163" height="52" filterUnits="userSpaceOnUse" color-interpolation-filters="sRGB">
<feFlood flood-opacity="0" result="BackgroundImageFix"/>
<feColorMatrix in="SourceAlpha" type="matrix" values="0 0 0 0 0 0 0 0 0 0 0 0 0 0 0 0 0 0 127 0" result="hardAlpha"/>
<feOffset dy="4"/>
<feGaussianBlur stdDeviation="2"/>
<feComposite in2="hardAlpha" operator="out"/>
<feColorMatrix type="matrix" values="0 0 0 0 0 0 0 0 0 0 0 0 0 0 0 0 0 0 0.25 0"/>
<feBlend mode="normal" in2="BackgroundImageFix" result="effect1_dropShadow_146_980"/>
<feBlend mode="normal" in="SourceGraphic" in2="effect1_dropShadow_146_980" result="shape"/>
</filter>
</defs>
</svg>
