<svg width="343" height="483" viewBox="0 0 343 483" fill="none" xmlns="http://www.w3.org/2000/svg">
<g filter="url(#filter0_d_1_67)">
<rect x="4" width="335" height="475" rx="15" fill="white"/>
<g filter="url(#filter1_d_1_67)">
<rect x="47" y="12" width="249" height="34" rx="15" fill="#F9F3F3"/>
</g>
<path d="M85.0594 26.579L91.9054 26.6C91.8774 24.892 91.8354 23.205 91.7794 21.539C91.2614 21.441 90.6384 21.273 89.9104 21.035L89.9734 20.3H95.2234C95.4614 20.748 95.5804 21.168 95.5804 21.56C94.8804 21.616 94.3204 21.644 93.9004 21.644L93.6694 33.572L95.4334 33.74C95.4334 34.132 95.3144 34.552 95.0764 35H90.2464L90.1834 34.265C90.8414 34.041 91.4854 33.873 92.1154 33.761L91.9474 27.923H85.0174C84.9894 30.443 84.9754 32.326 84.9754 33.572L86.7394 33.74C86.7394 34.132 86.6204 34.552 86.3824 35H81.5524L81.4894 34.265C82.1474 34.041 82.7914 33.873 83.4214 33.761C83.2814 28.329 83.1694 24.255 83.0854 21.539C82.5674 21.441 81.9444 21.273 81.2164 21.035L81.2794 20.3H86.5294C86.7674 20.748 86.8864 21.168 86.8864 21.56C86.1864 21.616 85.6264 21.644 85.2064 21.644C85.1644 22.708 85.1154 24.353 85.0594 26.579ZM101.421 22.274C101.141 22.33 100.84 22.358 100.518 22.358C100.21 22.358 99.9584 22.344 99.7624 22.316C99.6924 22.064 99.6574 21.812 99.6574 21.56C99.6574 21.294 99.6714 20.993 99.6994 20.657C99.9094 20.615 100.196 20.594 100.56 20.594C100.924 20.594 101.19 20.601 101.358 20.615C101.414 20.923 101.442 21.245 101.442 21.581C101.442 21.903 101.435 22.134 101.421 22.274ZM104.886 22.274C104.606 22.33 104.305 22.358 103.983 22.358C103.675 22.358 103.423 22.344 103.227 22.316C103.157 22.064 103.122 21.812 103.122 21.56C103.122 21.294 103.136 20.993 103.164 20.657C103.374 20.615 103.661 20.594 104.025 20.594C104.389 20.594 104.655 20.601 104.823 20.615C104.879 20.923 104.907 21.245 104.907 21.581C104.907 21.903 104.9 22.134 104.886 22.274ZM102.387 33.614C102.793 33.614 103.248 33.53 103.752 33.362C104.256 33.18 104.669 32.963 104.991 32.711C104.935 29.729 104.886 27.468 104.844 25.928C103.976 25.928 103.332 25.844 102.912 25.676L102.996 24.584C104.186 24.374 105.117 24.269 105.789 24.269C106.475 24.269 106.909 24.283 107.091 24.311C107.091 24.563 107.049 24.899 106.965 25.319C106.895 25.739 106.846 25.97 106.818 26.012L106.566 33.509C107.308 33.551 107.91 33.635 108.372 33.761L108.33 34.832C107.714 35.028 107.119 35.126 106.545 35.126C105.971 35.126 105.621 35.119 105.495 35.105C105.229 34.573 105.075 34.083 105.033 33.635C104.347 34.153 103.71 34.552 103.122 34.832C102.548 35.112 102.17 35.252 101.988 35.252C100.756 35.252 99.8604 34.923 99.3004 34.265C98.7544 33.593 98.4814 32.613 98.4814 31.325C98.4814 31.311 98.5444 29.519 98.6704 25.949C97.8584 25.949 97.1094 25.858 96.4234 25.676L96.5074 24.584C97.6974 24.374 98.6214 24.269 99.2794 24.269C99.9374 24.269 100.357 24.283 100.539 24.311C100.539 24.647 100.497 25.018 100.413 25.424C100.329 25.83 100.28 26.026 100.266 26.012L100.287 30.548C100.287 31.612 100.42 32.389 100.686 32.879C100.952 33.369 101.519 33.614 102.387 33.614ZM114.457 35.252C112.777 35.252 111.524 34.783 110.698 33.845C109.872 32.893 109.459 31.542 109.459 29.792C109.459 25.984 111.153 24.08 114.541 24.08C115.087 24.08 115.654 24.164 116.242 24.332C116.83 24.486 117.292 24.661 117.628 24.857C117.586 26.159 117.453 27.083 117.229 27.629C116.977 27.699 116.774 27.734 116.62 27.734H116.263C116.193 27.734 116.109 27.727 116.011 27.713L115.486 25.403C115.024 25.361 114.758 25.34 114.688 25.34C113.68 25.34 112.875 25.648 112.273 26.264C111.685 26.88 111.391 27.916 111.391 29.372C111.391 30.828 111.615 31.934 112.063 32.69C112.525 33.446 113.407 33.824 114.709 33.824C115.325 33.824 116.291 33.53 117.607 32.942C117.873 33.306 118.013 33.628 118.027 33.908C117.313 34.328 116.613 34.657 115.927 34.895C115.241 35.133 114.751 35.252 114.457 35.252ZM125.811 25.844C125.741 25.774 125.587 25.739 125.349 25.739C125.111 25.739 124.754 25.823 124.278 25.991C123.816 26.159 123.396 26.355 123.018 26.579C122.934 29.687 122.878 32.018 122.85 33.572L124.614 33.74C124.614 34.132 124.495 34.552 124.257 35H119.427L119.364 34.265C120.008 34.041 120.638 33.873 121.254 33.761C121.17 30.205 121.1 27.573 121.044 25.865C120.274 25.823 119.658 25.739 119.196 25.613L119.28 24.521C120.022 24.311 121.121 24.206 122.577 24.206C122.801 24.556 122.941 25.004 122.997 25.55C124.607 24.57 125.566 24.08 125.874 24.08C126.182 24.08 126.539 24.143 126.945 24.269C127.351 24.381 127.652 24.507 127.848 24.647C127.848 26.047 127.715 27.188 127.449 28.07C127.253 28.126 127.022 28.154 126.756 28.154C126.504 28.154 126.329 28.147 126.231 28.133L125.811 25.844ZM134.132 33.824C134.748 33.824 135.714 33.53 137.03 32.942C137.296 33.306 137.436 33.628 137.45 33.908C136.736 34.328 136.036 34.657 135.35 34.895C134.664 35.133 134.174 35.252 133.88 35.252C132.256 35.252 131.017 34.769 130.163 33.803C129.309 32.823 128.882 31.458 128.882 29.708C128.882 27.958 129.295 26.586 130.121 25.592C130.961 24.584 132.214 24.08 133.88 24.08C135.168 24.08 136.148 24.542 136.82 25.466C137.506 26.39 137.849 27.629 137.849 29.183C137.737 29.379 137.646 29.512 137.576 29.582L130.814 29.477C130.828 30.891 131.073 31.969 131.549 32.711C132.039 33.453 132.9 33.824 134.132 33.824ZM135.938 28.28C135.938 27.356 135.77 26.642 135.434 26.138C135.098 25.62 134.538 25.361 133.754 25.361C132.97 25.361 132.27 25.508 131.654 25.802C131.234 26.642 130.968 27.503 130.856 28.385C131.962 28.371 133.656 28.336 135.938 28.28ZM153.336 27.335C154.148 27.433 154.862 27.811 155.478 28.469C156.108 29.127 156.423 30.051 156.423 31.241C156.423 32.417 155.954 33.341 155.016 34.013C154.092 34.671 152.734 35 150.942 35H145.188L145.125 34.265C145.713 34.027 146.315 33.859 146.931 33.761C146.847 28.357 146.777 24.304 146.721 21.602C146.245 21.518 145.629 21.35 144.873 21.098C144.915 20.58 144.95 20.314 144.978 20.3H150.249C152.125 20.3 153.399 20.461 154.071 20.783C154.393 20.937 154.715 21.14 155.037 21.392C155.681 21.896 156.003 22.729 156.003 23.891C156.003 24.479 155.898 25.011 155.688 25.487C155.492 25.949 155.233 26.306 154.911 26.558C154.323 27.02 153.798 27.279 153.336 27.335ZM151.047 28.238H148.716C148.688 29.442 148.66 31.22 148.632 33.572H150.858C153.182 33.572 154.344 32.704 154.344 30.968C154.344 29.96 154.071 29.253 153.525 28.847C152.993 28.441 152.167 28.238 151.047 28.238ZM150.039 21.77L148.779 21.791C148.751 23.079 148.737 24.752 148.737 26.81H150.795C152.027 26.81 152.846 26.579 153.252 26.117C153.672 25.641 153.882 24.892 153.882 23.87C153.882 22.47 152.601 21.77 150.039 21.77ZM162.447 22.274C162.167 22.33 161.866 22.358 161.544 22.358C161.236 22.358 160.984 22.344 160.788 22.316C160.718 22.064 160.683 21.812 160.683 21.56C160.683 21.294 160.697 20.993 160.725 20.657C160.935 20.615 161.222 20.594 161.586 20.594C161.95 20.594 162.216 20.601 162.384 20.615C162.44 20.923 162.468 21.245 162.468 21.581C162.468 21.903 162.461 22.134 162.447 22.274ZM165.912 22.274C165.632 22.33 165.331 22.358 165.009 22.358C164.701 22.358 164.449 22.344 164.253 22.316C164.183 22.064 164.148 21.812 164.148 21.56C164.148 21.294 164.162 20.993 164.19 20.657C164.4 20.615 164.687 20.594 165.051 20.594C165.415 20.594 165.681 20.601 165.849 20.615C165.905 20.923 165.933 21.245 165.933 21.581C165.933 21.903 165.926 22.134 165.912 22.274ZM163.077 33.992C164.253 33.992 165.044 33.628 165.45 32.9C165.87 32.158 166.08 31.108 166.08 29.75C166.08 27.594 165.604 26.243 164.652 25.697C164.26 25.473 163.707 25.361 162.993 25.361C162.293 25.361 161.628 25.508 160.998 25.802C160.438 26.88 160.158 28.133 160.158 29.561C160.158 30.933 160.34 31.99 160.704 32.732C161.124 33.572 161.915 33.992 163.077 33.992ZM158.226 29.75C158.226 27.972 158.632 26.586 159.444 25.592C160.256 24.584 161.509 24.08 163.203 24.08C164.897 24.08 166.122 24.542 166.878 25.466C167.634 26.376 168.012 27.727 168.012 29.519C168.012 31.311 167.606 32.718 166.794 33.74C165.996 34.762 164.778 35.273 163.14 35.273C161.502 35.273 160.27 34.797 159.444 33.845C158.632 32.893 158.226 31.528 158.226 29.75ZM172.361 19.397C172.795 19.397 173.103 19.411 173.285 19.439C173.285 19.929 173.194 20.489 173.012 21.119C172.886 29.379 172.823 33.53 172.823 33.572L174.587 33.74C174.587 34.132 174.468 34.552 174.23 35H169.4L169.337 34.265C169.981 34.041 170.611 33.873 171.227 33.761L171.017 21.056C170.247 21.014 169.631 20.93 169.169 20.804L169.253 19.712C169.967 19.502 171.003 19.397 172.361 19.397ZM180.171 22.274C179.891 22.33 179.59 22.358 179.268 22.358C178.96 22.358 178.708 22.344 178.512 22.316C178.442 22.064 178.407 21.812 178.407 21.56C178.407 21.294 178.421 20.993 178.449 20.657C178.659 20.615 178.946 20.594 179.31 20.594C179.674 20.594 179.94 20.601 180.108 20.615C180.164 20.923 180.192 21.245 180.192 21.581C180.192 21.903 180.185 22.134 180.171 22.274ZM183.636 22.274C183.356 22.33 183.055 22.358 182.733 22.358C182.425 22.358 182.173 22.344 181.977 22.316C181.907 22.064 181.872 21.812 181.872 21.56C181.872 21.294 181.886 20.993 181.914 20.657C182.124 20.615 182.411 20.594 182.775 20.594C183.139 20.594 183.405 20.601 183.573 20.615C183.629 20.923 183.657 21.245 183.657 21.581C183.657 21.903 183.65 22.134 183.636 22.274ZM181.137 33.614C181.543 33.614 181.998 33.53 182.502 33.362C183.006 33.18 183.419 32.963 183.741 32.711C183.685 29.729 183.636 27.468 183.594 25.928C182.726 25.928 182.082 25.844 181.662 25.676L181.746 24.584C182.936 24.374 183.867 24.269 184.539 24.269C185.225 24.269 185.659 24.283 185.841 24.311C185.841 24.563 185.799 24.899 185.715 25.319C185.645 25.739 185.596 25.97 185.568 26.012L185.316 33.509C186.058 33.551 186.66 33.635 187.122 33.761L187.08 34.832C186.464 35.028 185.869 35.126 185.295 35.126C184.721 35.126 184.371 35.119 184.245 35.105C183.979 34.573 183.825 34.083 183.783 33.635C183.097 34.153 182.46 34.552 181.872 34.832C181.298 35.112 180.92 35.252 180.738 35.252C179.506 35.252 178.61 34.923 178.05 34.265C177.504 33.593 177.231 32.613 177.231 31.325C177.231 31.311 177.294 29.519 177.42 25.949C176.608 25.949 175.859 25.858 175.173 25.676L175.257 24.584C176.447 24.374 177.371 24.269 178.029 24.269C178.687 24.269 179.107 24.283 179.289 24.311C179.289 24.647 179.247 25.018 179.163 25.424C179.079 25.83 179.03 26.026 179.016 26.012L179.037 30.548C179.037 31.612 179.17 32.389 179.436 32.879C179.702 33.369 180.269 33.614 181.137 33.614ZM194.761 24.08C196.105 24.08 197.078 24.416 197.68 25.088C198.282 25.746 198.583 26.754 198.583 28.112C198.583 28.504 198.527 30.324 198.415 33.572L200.179 33.74C200.179 34.132 200.06 34.552 199.822 35H194.992L194.929 34.265C195.573 34.041 196.203 33.873 196.819 33.761C196.735 30.093 196.658 28.056 196.588 27.65C196.532 27.23 196.434 26.866 196.294 26.558C196.154 26.25 195.944 26.033 195.664 25.907C195.384 25.781 195.013 25.718 194.551 25.718C193.627 25.718 192.731 25.942 191.863 26.39C191.779 29.582 191.723 31.976 191.695 33.572L193.459 33.74C193.459 34.132 193.34 34.552 193.102 35H188.272L188.209 34.265C188.853 34.041 189.483 33.873 190.099 33.761C190.015 30.205 189.945 27.573 189.889 25.865C189.119 25.823 188.503 25.739 188.041 25.613L188.125 24.521C188.881 24.311 189.98 24.206 191.422 24.206C191.59 24.458 191.716 24.822 191.8 25.298C192.402 24.976 193.004 24.696 193.606 24.458C194.222 24.206 194.607 24.08 194.761 24.08ZM211.334 26.432C211.39 26.88 211.418 27.398 211.418 27.986C211.418 28.574 211.362 30.436 211.25 33.572L213.014 33.74C213.014 34.132 212.895 34.552 212.657 35H207.827L207.764 34.265C208.408 34.041 209.038 33.873 209.654 33.761C209.57 30.037 209.493 27.965 209.423 27.545C209.367 27.125 209.269 26.775 209.129 26.495C208.989 26.201 208.772 25.998 208.478 25.886C208.184 25.774 207.736 25.718 207.134 25.718C206.546 25.718 205.769 25.942 204.803 26.39C204.719 29.582 204.663 31.976 204.635 33.572L206.399 33.74C206.399 34.132 206.28 34.552 206.042 35H201.212L201.149 34.265C201.793 34.041 202.423 33.873 203.039 33.761C203.025 32.753 202.99 31.332 202.934 29.498C202.878 27.65 202.843 26.439 202.829 25.865C202.059 25.823 201.443 25.739 200.981 25.613L201.065 24.521C201.821 24.311 202.92 24.206 204.362 24.206C204.558 24.556 204.684 24.92 204.74 25.298C205.356 24.976 205.965 24.696 206.567 24.458C207.169 24.206 207.547 24.08 207.701 24.08C209.255 24.08 210.34 24.556 210.956 25.508C211.6 25.158 212.265 24.836 212.951 24.542C213.651 24.234 214.071 24.08 214.211 24.08C215.485 24.08 216.437 24.395 217.067 25.025C217.711 25.641 218.033 26.656 218.033 28.07C218.033 28.49 217.977 30.324 217.865 33.572L219.629 33.74C219.629 34.132 219.51 34.552 219.272 35H214.442L214.379 34.265C215.023 34.041 215.653 33.873 216.269 33.761C216.213 31.549 216.164 29.876 216.122 28.742C216.08 27.608 215.919 26.824 215.639 26.39C215.359 25.942 214.799 25.718 213.959 25.718C213.119 25.718 212.244 25.956 211.334 26.432ZM225.924 33.824C226.54 33.824 227.506 33.53 228.822 32.942C229.088 33.306 229.228 33.628 229.242 33.908C228.528 34.328 227.828 34.657 227.142 34.895C226.456 35.133 225.966 35.252 225.672 35.252C224.048 35.252 222.809 34.769 221.955 33.803C221.101 32.823 220.674 31.458 220.674 29.708C220.674 27.958 221.087 26.586 221.913 25.592C222.753 24.584 224.006 24.08 225.672 24.08C226.96 24.08 227.94 24.542 228.612 25.466C229.298 26.39 229.641 27.629 229.641 29.183C229.529 29.379 229.438 29.512 229.368 29.582L222.606 29.477C222.62 30.891 222.865 31.969 223.341 32.711C223.831 33.453 224.692 33.824 225.924 33.824ZM227.73 28.28C227.73 27.356 227.562 26.642 227.226 26.138C226.89 25.62 226.33 25.361 225.546 25.361C224.762 25.361 224.062 25.508 223.446 25.802C223.026 26.642 222.76 27.503 222.648 28.385C223.754 28.371 225.448 28.336 227.73 28.28ZM234.172 19.397C234.606 19.397 234.914 19.411 235.096 19.439C235.096 19.929 235.005 20.489 234.823 21.119C234.697 29.379 234.634 33.53 234.634 33.572L236.398 33.74C236.398 34.132 236.279 34.552 236.041 35H231.211L231.148 34.265C231.792 34.041 232.422 33.873 233.038 33.761L232.828 21.056C232.058 21.014 231.442 20.93 230.98 20.804L231.064 19.712C231.778 19.502 232.814 19.397 234.172 19.397ZM242.864 33.824C243.48 33.824 244.446 33.53 245.762 32.942C246.028 33.306 246.168 33.628 246.182 33.908C245.468 34.328 244.768 34.657 244.082 34.895C243.396 35.133 242.906 35.252 242.612 35.252C240.988 35.252 239.749 34.769 238.895 33.803C238.041 32.823 237.614 31.458 237.614 29.708C237.614 27.958 238.027 26.586 238.853 25.592C239.693 24.584 240.946 24.08 242.612 24.08C243.9 24.08 244.88 24.542 245.552 25.466C246.238 26.39 246.581 27.629 246.581 29.183C246.469 29.379 246.378 29.512 246.308 29.582L239.546 29.477C239.56 30.891 239.805 31.969 240.281 32.711C240.771 33.453 241.632 33.824 242.864 33.824ZM244.67 28.28C244.67 27.356 244.502 26.642 244.166 26.138C243.83 25.62 243.27 25.361 242.486 25.361C241.702 25.361 241.002 25.508 240.386 25.802C239.966 26.642 239.7 27.503 239.588 28.385C240.694 28.371 242.388 28.336 244.67 28.28ZM254.723 25.844C254.653 25.774 254.499 25.739 254.261 25.739C254.023 25.739 253.666 25.823 253.19 25.991C252.728 26.159 252.308 26.355 251.93 26.579C251.846 29.687 251.79 32.018 251.762 33.572L253.526 33.74C253.526 34.132 253.407 34.552 253.169 35H248.339L248.276 34.265C248.92 34.041 249.55 33.873 250.166 33.761C250.082 30.205 250.012 27.573 249.956 25.865C249.186 25.823 248.57 25.739 248.108 25.613L248.192 24.521C248.934 24.311 250.033 24.206 251.489 24.206C251.713 24.556 251.853 25.004 251.909 25.55C253.519 24.57 254.478 24.08 254.786 24.08C255.094 24.08 255.451 24.143 255.857 24.269C256.263 24.381 256.564 24.507 256.76 24.647C256.76 26.047 256.627 27.188 256.361 28.07C256.165 28.126 255.934 28.154 255.668 28.154C255.416 28.154 255.241 28.147 255.143 28.133L254.723 25.844ZM261.49 22.337C261.126 22.421 260.769 22.463 260.419 22.463C260.083 22.463 259.747 22.442 259.411 22.4C259.327 22.008 259.285 21.616 259.285 21.224C259.285 20.818 259.299 20.517 259.327 20.321C259.635 20.251 259.957 20.216 260.293 20.216C260.643 20.216 261.014 20.23 261.406 20.258C261.49 20.622 261.532 20.979 261.532 21.329C261.532 21.665 261.518 22.001 261.49 22.337ZM257.668 24.542C258.858 24.332 259.782 24.227 260.44 24.227C261.098 24.227 261.518 24.241 261.7 24.269C261.7 24.605 261.658 24.976 261.574 25.382C261.49 25.788 261.441 25.984 261.427 25.97L261.238 33.572L263.002 33.74C263.002 34.132 262.883 34.552 262.645 35H257.815L257.752 34.265C258.396 34.041 259.026 33.873 259.642 33.761C259.558 30.261 259.488 27.636 259.432 25.886C258.62 25.886 258.004 25.802 257.584 25.634L257.668 24.542Z" fill="black"/>
<circle cx="91.5" cy="211.5" r="20.5" fill="#D291BC"/>
<circle cx="242.5" cy="206.5" r="20.5" fill="#D291BC"/>
<rect x="53" y="95" width="28" height="111" rx="14" fill="#804674"/>
<rect x="53" y="211" width="28" height="111" rx="14" fill="#804674"/>
<rect x="98" y="94" width="28" height="111" rx="14" fill="#804674"/>
<rect x="248" y="94" width="28" height="111" rx="14" fill="#804674"/>
<rect x="209" y="94" width="28" height="111" rx="14" fill="#804674"/>
<rect x="209" y="211" width="28" height="111" rx="14" fill="#804674"/>
<rect x="248" y="210" width="28" height="111" rx="14" fill="#804674"/>
<rect x="98" y="210" width="28" height="111" rx="14" fill="#804674"/>
<line x1="71.5" y1="352" x2="71.5" y2="338" stroke="black" stroke-width="3"/>
<line x1="269.5" y1="352" x2="269.5" y2="338" stroke="black" stroke-width="3"/>
<path d="M171.646 359.354C171.842 359.549 172.158 359.549 172.354 359.354L175.536 356.172C175.731 355.976 175.731 355.66 175.536 355.464C175.34 355.269 175.024 355.269 174.828 355.464L172 358.293L169.172 355.464C168.976 355.269 168.66 355.269 168.464 355.464C168.269 355.66 168.269 355.976 168.464 356.172L171.646 359.354ZM171.5 352V359H172.5V352H171.5Z" fill="black"/>
<path d="M63.6468 376.579L70.4928 376.6C70.4648 374.892 70.4228 373.205 70.3668 371.539C69.8488 371.441 69.2258 371.273 68.4978 371.035L68.5608 370.3H73.8108C74.0488 370.748 74.1678 371.168 74.1678 371.56C73.4678 371.616 72.9078 371.644 72.4878 371.644L72.2568 383.572L74.0208 383.74C74.0208 384.132 73.9018 384.552 73.6638 385H68.8338L68.7708 384.265C69.4288 384.041 70.0728 383.873 70.7028 383.761L70.5348 377.923H63.6048C63.5768 380.443 63.5628 382.326 63.5628 383.572L65.3268 383.74C65.3268 384.132 65.2078 384.552 64.9698 385H60.1398L60.0768 384.265C60.7348 384.041 61.3788 383.873 62.0088 383.761C61.8688 378.329 61.7568 374.255 61.6728 371.539C61.1548 371.441 60.5318 371.273 59.8038 371.035L59.8668 370.3H65.1168C65.3548 370.748 65.4738 371.168 65.4738 371.56C64.7738 371.616 64.2138 371.644 63.7938 371.644C63.7518 372.708 63.7028 374.353 63.6468 376.579ZM80.4078 383.992C81.5838 383.992 82.3748 383.628 82.7808 382.9C83.2008 382.158 83.4108 381.108 83.4108 379.75C83.4108 377.594 82.9348 376.243 81.9828 375.697C81.5908 375.473 81.0378 375.361 80.3238 375.361C79.6238 375.361 78.9588 375.508 78.3288 375.802C77.7688 376.88 77.4888 378.133 77.4888 379.561C77.4888 380.933 77.6708 381.99 78.0348 382.732C78.4548 383.572 79.2458 383.992 80.4078 383.992ZM75.5568 379.75C75.5568 377.972 75.9628 376.586 76.7748 375.592C77.5868 374.584 78.8398 374.08 80.5338 374.08C82.2278 374.08 83.4528 374.542 84.2088 375.466C84.9648 376.376 85.3428 377.727 85.3428 379.519C85.3428 381.311 84.9368 382.718 84.1248 383.74C83.3268 384.762 82.1088 385.273 80.4708 385.273C78.8328 385.273 77.6008 384.797 76.7748 383.845C75.9628 382.893 75.5568 381.528 75.5568 379.75ZM97.0416 376.432C97.0976 376.88 97.1256 377.398 97.1256 377.986C97.1256 378.574 97.0696 380.436 96.9576 383.572L98.7216 383.74C98.7216 384.132 98.6026 384.552 98.3646 385H93.5346L93.4716 384.265C94.1156 384.041 94.7456 383.873 95.3616 383.761C95.2776 380.037 95.2006 377.965 95.1306 377.545C95.0746 377.125 94.9766 376.775 94.8366 376.495C94.6966 376.201 94.4796 375.998 94.1856 375.886C93.8916 375.774 93.4436 375.718 92.8416 375.718C92.2536 375.718 91.4766 375.942 90.5106 376.39C90.4266 379.582 90.3706 381.976 90.3426 383.572L92.1066 383.74C92.1066 384.132 91.9876 384.552 91.7496 385H86.9196L86.8566 384.265C87.5006 384.041 88.1306 383.873 88.7466 383.761C88.7326 382.753 88.6976 381.332 88.6416 379.498C88.5856 377.65 88.5506 376.439 88.5366 375.865C87.7666 375.823 87.1506 375.739 86.6886 375.613L86.7726 374.521C87.5286 374.311 88.6276 374.206 90.0696 374.206C90.2656 374.556 90.3916 374.92 90.4476 375.298C91.0636 374.976 91.6726 374.696 92.2746 374.458C92.8766 374.206 93.2546 374.08 93.4086 374.08C94.9626 374.08 96.0476 374.556 96.6636 375.508C97.3076 375.158 97.9726 374.836 98.6586 374.542C99.3586 374.234 99.7786 374.08 99.9186 374.08C101.193 374.08 102.145 374.395 102.775 375.025C103.419 375.641 103.741 376.656 103.741 378.07C103.741 378.49 103.685 380.324 103.573 383.572L105.337 383.74C105.337 384.132 105.218 384.552 104.98 385H100.15L100.087 384.265C100.731 384.041 101.361 383.873 101.977 383.761C101.921 381.549 101.872 379.876 101.83 378.742C101.788 377.608 101.627 376.824 101.347 376.39C101.067 375.942 100.507 375.718 99.6666 375.718C98.8266 375.718 97.9516 375.956 97.0416 376.432ZM111.149 383.992C112.325 383.992 113.116 383.628 113.522 382.9C113.942 382.158 114.152 381.108 114.152 379.75C114.152 377.594 113.676 376.243 112.724 375.697C112.332 375.473 111.779 375.361 111.065 375.361C110.365 375.361 109.7 375.508 109.07 375.802C108.51 376.88 108.23 378.133 108.23 379.561C108.23 380.933 108.412 381.99 108.776 382.732C109.196 383.572 109.987 383.992 111.149 383.992ZM106.298 379.75C106.298 377.972 106.704 376.586 107.516 375.592C108.328 374.584 109.581 374.08 111.275 374.08C112.969 374.08 114.194 374.542 114.95 375.466C115.706 376.376 116.084 377.727 116.084 379.519C116.084 381.311 115.678 382.718 114.866 383.74C114.068 384.762 112.85 385.273 111.212 385.273C109.574 385.273 108.342 384.797 107.516 383.845C106.704 382.893 106.298 381.528 106.298 379.75ZM120.433 369.397C120.867 369.397 121.175 369.411 121.357 369.439C121.357 369.929 121.266 370.489 121.084 371.119C120.958 379.379 120.895 383.53 120.895 383.572L122.659 383.74C122.659 384.132 122.54 384.552 122.302 385H117.472L117.409 384.265C118.053 384.041 118.683 383.873 119.299 383.761L119.089 371.056C118.319 371.014 117.703 370.93 117.241 370.804L117.325 369.712C118.039 369.502 119.075 369.397 120.433 369.397ZM128.642 383.992C129.818 383.992 130.609 383.628 131.015 382.9C131.435 382.158 131.645 381.108 131.645 379.75C131.645 377.594 131.169 376.243 130.217 375.697C129.825 375.473 129.272 375.361 128.558 375.361C127.858 375.361 127.193 375.508 126.563 375.802C126.003 376.88 125.723 378.133 125.723 379.561C125.723 380.933 125.905 381.99 126.269 382.732C126.689 383.572 127.48 383.992 128.642 383.992ZM123.791 379.75C123.791 377.972 124.197 376.586 125.009 375.592C125.821 374.584 127.074 374.08 128.768 374.08C130.462 374.08 131.687 374.542 132.443 375.466C133.199 376.376 133.577 377.727 133.577 379.519C133.577 381.311 133.171 382.718 132.359 383.74C131.561 384.762 130.343 385.273 128.705 385.273C127.067 385.273 125.835 384.797 125.009 383.845C124.197 382.893 123.791 381.528 123.791 379.75ZM140.635 383.719L142.504 383.677C144.436 383.677 145.402 384.475 145.402 386.071C145.402 386.813 145.08 387.499 144.436 388.129C143.806 388.773 143.05 389.256 142.168 389.578C141.286 389.9 140.46 390.061 139.69 390.061C138.934 390.061 138.227 389.949 137.569 389.725C136.911 389.515 136.351 389.165 135.889 388.675C135.427 388.185 135.196 387.618 135.196 386.974C135.196 386.82 135.441 386.414 135.931 385.756C136.435 385.112 136.764 384.734 136.918 384.622C136.792 384.538 136.547 384.3 136.183 383.908C135.819 383.502 135.616 383.222 135.574 383.068C135.924 382.424 136.477 381.794 137.233 381.178C136.113 380.506 135.553 379.4 135.553 377.86C135.553 376.628 135.945 375.69 136.729 375.046C137.513 374.402 138.493 374.08 139.669 374.08C140.845 374.08 141.755 374.269 142.399 374.647C143.519 374.423 144.618 374.311 145.696 374.311C145.962 374.311 146.095 374.472 146.095 374.794C146.095 375.354 145.99 375.739 145.78 375.949L143.365 375.55C143.869 376.194 144.121 376.964 144.121 377.86C144.121 379.26 143.708 380.268 142.882 380.884C142.056 381.486 141.041 381.787 139.837 381.787C139.459 381.787 139.011 381.738 138.493 381.64C138.283 382.074 138.017 382.543 137.695 383.047C137.947 383.495 138.927 383.719 140.635 383.719ZM143.302 387.583C143.442 387.191 143.512 386.785 143.512 386.365C143.512 385.959 143.351 385.63 143.029 385.378C142.707 385.126 142.294 385 141.79 385C139.788 385 138.563 384.979 138.115 384.937C137.737 385.539 137.471 386.043 137.317 386.449C137.177 386.869 137.107 387.107 137.107 387.163C137.107 387.709 137.366 388.115 137.884 388.381C138.402 388.647 138.997 388.78 139.669 388.78C140.355 388.78 141.041 388.668 141.727 388.444C142.427 388.22 142.952 387.933 143.302 387.583ZM142.231 377.944C142.231 376.208 141.433 375.34 139.837 375.34C138.241 375.34 137.443 376.18 137.443 377.86C137.443 378.714 137.653 379.372 138.073 379.834C138.493 380.296 139.102 380.527 139.9 380.527C141.454 380.527 142.231 379.666 142.231 377.944ZM156.383 380.485L156.32 383.572L158.084 383.74C158.084 384.132 157.965 384.552 157.727 385H152.897L152.834 384.265C153.492 384.041 154.136 383.873 154.766 383.761C154.626 378.329 154.514 374.255 154.43 371.539C153.912 371.441 153.289 371.273 152.561 371.035L152.624 370.3H157.874C158.112 370.748 158.231 371.168 158.231 371.56C157.531 371.616 156.971 371.644 156.551 371.644C156.523 373.1 156.495 374.416 156.467 375.592C156.453 376.768 156.439 377.594 156.425 378.07L161.444 371.728L159.764 371.56C159.764 371.168 159.883 370.748 160.121 370.3H165.455L165.518 371.224C164.874 371.448 164.244 371.616 163.628 371.728L159.491 376.705L164.321 383.572L166.085 383.74C166.085 384.132 165.966 384.552 165.728 385H163.103L158.336 378.133L156.383 380.485ZM173.674 375.844C173.604 375.774 173.45 375.739 173.212 375.739C172.974 375.739 172.617 375.823 172.141 375.991C171.679 376.159 171.259 376.355 170.881 376.579C170.797 379.687 170.741 382.018 170.713 383.572L172.477 383.74C172.477 384.132 172.358 384.552 172.12 385H167.29L167.227 384.265C167.871 384.041 168.501 383.873 169.117 383.761C169.033 380.205 168.963 377.573 168.907 375.865C168.137 375.823 167.521 375.739 167.059 375.613L167.143 374.521C167.885 374.311 168.984 374.206 170.44 374.206C170.664 374.556 170.804 375.004 170.86 375.55C172.47 374.57 173.429 374.08 173.737 374.08C174.045 374.08 174.402 374.143 174.808 374.269C175.214 374.381 175.515 374.507 175.711 374.647C175.711 376.047 175.578 377.188 175.312 378.07C175.116 378.126 174.885 378.154 174.619 378.154C174.367 378.154 174.192 378.147 174.094 378.133L173.674 375.844ZM181.511 383.992C182.687 383.992 183.478 383.628 183.884 382.9C184.304 382.158 184.514 381.108 184.514 379.75C184.514 377.594 184.038 376.243 183.086 375.697C182.694 375.473 182.141 375.361 181.427 375.361C180.727 375.361 180.062 375.508 179.432 375.802C178.872 376.88 178.592 378.133 178.592 379.561C178.592 380.933 178.774 381.99 179.138 382.732C179.558 383.572 180.349 383.992 181.511 383.992ZM176.66 379.75C176.66 377.972 177.066 376.586 177.878 375.592C178.69 374.584 179.943 374.08 181.637 374.08C183.331 374.08 184.556 374.542 185.312 375.466C186.068 376.376 186.446 377.727 186.446 379.519C186.446 381.311 186.04 382.718 185.228 383.74C184.43 384.762 183.212 385.273 181.574 385.273C179.936 385.273 178.704 384.797 177.878 383.845C177.066 382.893 176.66 381.528 176.66 379.75ZM198.145 376.432C198.201 376.88 198.229 377.398 198.229 377.986C198.229 378.574 198.173 380.436 198.061 383.572L199.825 383.74C199.825 384.132 199.706 384.552 199.468 385H194.638L194.575 384.265C195.219 384.041 195.849 383.873 196.465 383.761C196.381 380.037 196.304 377.965 196.234 377.545C196.178 377.125 196.08 376.775 195.94 376.495C195.8 376.201 195.583 375.998 195.289 375.886C194.995 375.774 194.547 375.718 193.945 375.718C193.357 375.718 192.58 375.942 191.614 376.39C191.53 379.582 191.474 381.976 191.446 383.572L193.21 383.74C193.21 384.132 193.091 384.552 192.853 385H188.023L187.96 384.265C188.604 384.041 189.234 383.873 189.85 383.761C189.836 382.753 189.801 381.332 189.745 379.498C189.689 377.65 189.654 376.439 189.64 375.865C188.87 375.823 188.254 375.739 187.792 375.613L187.876 374.521C188.632 374.311 189.731 374.206 191.173 374.206C191.369 374.556 191.495 374.92 191.551 375.298C192.167 374.976 192.776 374.696 193.378 374.458C193.98 374.206 194.358 374.08 194.512 374.08C196.066 374.08 197.151 374.556 197.767 375.508C198.411 375.158 199.076 374.836 199.762 374.542C200.462 374.234 200.882 374.08 201.022 374.08C202.296 374.08 203.248 374.395 203.878 375.025C204.522 375.641 204.844 376.656 204.844 378.07C204.844 378.49 204.788 380.324 204.676 383.572L206.44 383.74C206.44 384.132 206.321 384.552 206.083 385H201.253L201.19 384.265C201.834 384.041 202.464 383.873 203.08 383.761C203.024 381.549 202.975 379.876 202.933 378.742C202.891 377.608 202.73 376.824 202.45 376.39C202.17 375.942 201.61 375.718 200.77 375.718C199.93 375.718 199.055 375.956 198.145 376.432ZM212.253 383.992C213.429 383.992 214.22 383.628 214.626 382.9C215.046 382.158 215.256 381.108 215.256 379.75C215.256 377.594 214.78 376.243 213.828 375.697C213.436 375.473 212.883 375.361 212.169 375.361C211.469 375.361 210.804 375.508 210.174 375.802C209.614 376.88 209.334 378.133 209.334 379.561C209.334 380.933 209.516 381.99 209.88 382.732C210.3 383.572 211.091 383.992 212.253 383.992ZM207.402 379.75C207.402 377.972 207.808 376.586 208.62 375.592C209.432 374.584 210.685 374.08 212.379 374.08C214.073 374.08 215.298 374.542 216.054 375.466C216.81 376.376 217.188 377.727 217.188 379.519C217.188 381.311 216.782 382.718 215.97 383.74C215.172 384.762 213.954 385.273 212.316 385.273C210.678 385.273 209.446 384.797 208.62 383.845C207.808 382.893 207.402 381.528 207.402 379.75ZM226.849 381.64C227.045 382.452 227.143 383.173 227.143 383.803C227.143 384.419 227.129 384.818 227.101 385H219.163C218.995 384.748 218.897 384.37 218.869 383.866L224.896 375.508H221.305L220.801 377.692C220.591 377.706 220.465 377.713 220.423 377.713L219.583 377.65C219.387 376.838 219.289 376.131 219.289 375.529C219.289 374.913 219.303 374.514 219.331 374.332H226.786C226.87 374.542 226.912 374.934 226.912 375.508L221.158 383.74H225.127L225.631 381.535L226.849 381.64ZM233.745 383.992C234.921 383.992 235.712 383.628 236.118 382.9C236.538 382.158 236.748 381.108 236.748 379.75C236.748 377.594 236.272 376.243 235.32 375.697C234.928 375.473 234.375 375.361 233.661 375.361C232.961 375.361 232.296 375.508 231.666 375.802C231.106 376.88 230.826 378.133 230.826 379.561C230.826 380.933 231.008 381.99 231.372 382.732C231.792 383.572 232.583 383.992 233.745 383.992ZM228.894 379.75C228.894 377.972 229.3 376.586 230.112 375.592C230.924 374.584 232.177 374.08 233.871 374.08C235.565 374.08 236.79 374.542 237.546 375.466C238.302 376.376 238.68 377.727 238.68 379.519C238.68 381.311 238.274 382.718 237.462 383.74C236.664 384.762 235.446 385.273 233.808 385.273C232.17 385.273 230.938 384.797 230.112 383.845C229.3 382.893 228.894 381.528 228.894 379.75ZM250.379 376.432C250.435 376.88 250.463 377.398 250.463 377.986C250.463 378.574 250.407 380.436 250.295 383.572L252.059 383.74C252.059 384.132 251.94 384.552 251.702 385H246.872L246.809 384.265C247.453 384.041 248.083 383.873 248.699 383.761C248.615 380.037 248.538 377.965 248.468 377.545C248.412 377.125 248.314 376.775 248.174 376.495C248.034 376.201 247.817 375.998 247.523 375.886C247.229 375.774 246.781 375.718 246.179 375.718C245.591 375.718 244.814 375.942 243.848 376.39C243.764 379.582 243.708 381.976 243.68 383.572L245.444 383.74C245.444 384.132 245.325 384.552 245.087 385H240.257L240.194 384.265C240.838 384.041 241.468 383.873 242.084 383.761C242.07 382.753 242.035 381.332 241.979 379.498C241.923 377.65 241.888 376.439 241.874 375.865C241.104 375.823 240.488 375.739 240.026 375.613L240.11 374.521C240.866 374.311 241.965 374.206 243.407 374.206C243.603 374.556 243.729 374.92 243.785 375.298C244.401 374.976 245.01 374.696 245.611 374.458C246.214 374.206 246.592 374.08 246.746 374.08C248.3 374.08 249.385 374.556 250.001 375.508C250.645 375.158 251.31 374.836 251.996 374.542C252.696 374.234 253.116 374.08 253.256 374.08C254.53 374.08 255.482 374.395 256.112 375.025C256.756 375.641 257.078 376.656 257.078 378.07C257.078 378.49 257.022 380.324 256.91 383.572L258.674 383.74C258.674 384.132 258.555 384.552 258.317 385H253.487L253.424 384.265C254.068 384.041 254.698 383.873 255.314 383.761C255.258 381.549 255.209 379.876 255.167 378.742C255.125 377.608 254.964 376.824 254.684 376.39C254.404 375.942 253.844 375.718 253.004 375.718C252.164 375.718 251.289 375.956 250.379 376.432ZM262.47 369.397C262.904 369.397 263.212 369.411 263.394 369.439C263.394 369.929 263.303 370.489 263.121 371.119C262.995 379.379 262.932 383.53 262.932 383.572L264.696 383.74C264.696 384.132 264.577 384.552 264.339 385H259.509L259.446 384.265C260.09 384.041 260.72 383.873 261.336 383.761L261.126 371.056C260.356 371.014 259.74 370.93 259.278 370.804L259.362 369.712C260.076 369.502 261.112 369.397 262.47 369.397ZM274.27 378.133L274.165 383.551C274.767 383.593 275.369 383.691 275.971 383.845L275.929 384.58C275.705 384.692 275.299 384.818 274.711 384.958C274.137 385.084 273.57 385.147 273.01 385.147C272.758 384.643 272.618 384.16 272.59 383.698C270.994 384.748 269.874 385.273 269.23 385.273C268.236 385.273 267.438 385.007 266.836 384.475C266.234 383.943 265.933 383.201 265.933 382.249C265.933 380.051 267.277 378.917 269.965 378.847C271.533 378.805 272.324 378.784 272.338 378.784L272.317 378.07C272.289 377.104 272.107 376.411 271.771 375.991C271.435 375.557 270.833 375.34 269.965 375.34C269.601 375.34 269.209 375.424 268.789 375.592L268.285 377.692C268.215 377.706 268.096 377.713 267.928 377.713L267.067 377.65C266.843 377.048 266.724 376.215 266.71 375.151C266.976 375.011 267.585 374.801 268.537 374.521C269.489 374.227 270.098 374.08 270.364 374.08C271.792 374.08 272.8 374.395 273.388 375.025C273.976 375.655 274.27 376.691 274.27 378.133ZM269.692 383.845C270.098 383.845 271.036 383.39 272.506 382.48L272.401 379.855C271.449 379.939 270.651 380.016 270.007 380.086C269.363 380.156 268.845 380.345 268.453 380.653C268.061 380.947 267.865 381.416 267.865 382.06C267.865 383.25 268.474 383.845 269.692 383.845ZM283.596 375.844C283.526 375.774 283.372 375.739 283.134 375.739C282.896 375.739 282.539 375.823 282.063 375.991C281.601 376.159 281.181 376.355 280.803 376.579C280.719 379.687 280.663 382.018 280.635 383.572L282.399 383.74C282.399 384.132 282.28 384.552 282.042 385H277.212L277.149 384.265C277.793 384.041 278.423 383.873 279.039 383.761C278.955 380.205 278.885 377.573 278.829 375.865C278.059 375.823 277.443 375.739 276.981 375.613L277.065 374.521C277.807 374.311 278.906 374.206 280.362 374.206C280.586 374.556 280.726 375.004 280.782 375.55C282.392 374.57 283.351 374.08 283.659 374.08C283.967 374.08 284.324 374.143 284.73 374.269C285.136 374.381 285.437 374.507 285.633 374.647C285.633 376.047 285.5 377.188 285.234 378.07C285.038 378.126 284.807 378.154 284.541 378.154C284.289 378.154 284.114 378.147 284.016 378.133L283.596 375.844Z" fill="black"/>
<line x1="47" y1="82.5" x2="126" y2="82.5" stroke="black"/>
<line x1="203" y1="82.5" x2="280" y2="82.5" stroke="black"/>
<line x1="47.5" y1="83" x2="47.5" y2="87" stroke="black"/>
<line x1="125.5" y1="83" x2="125.5" y2="87" stroke="black"/>
<line x1="203.5" y1="83" x2="203.5" y2="87" stroke="black"/>
<line x1="280.5" y1="82" x2="280.5" y2="86" stroke="black"/>
<path d="M87.3536 76.6464C87.1583 76.4512 86.8417 76.4512 86.6464 76.6464L83.4645 79.8284C83.2692 80.0237 83.2692 80.3403 83.4645 80.5355C83.6597 80.7308 83.9763 80.7308 84.1716 80.5355L87 77.7071L89.8284 80.5355C90.0237 80.7308 90.3403 80.7308 90.5355 80.5355C90.7308 80.3403 90.7308 80.0237 90.5355 79.8284L87.3536 76.6464ZM87.5 82V77H86.5V82H87.5Z" fill="black"/>
<path d="M243.354 76.6464C243.158 76.4512 242.842 76.4512 242.646 76.6464L239.464 79.8284C239.269 80.0237 239.269 80.3403 239.464 80.5355C239.66 80.7308 239.976 80.7308 240.172 80.5355L243 77.7071L245.828 80.5355C246.024 80.7308 246.34 80.7308 246.536 80.5355C246.731 80.3403 246.731 80.0237 246.536 79.8284L243.354 76.6464ZM243.5 82V77H242.5V82H243.5Z" fill="black"/>
<path d="M31.9162 67.205L31.8772 69.116L32.9692 69.22C32.9692 69.4627 32.8955 69.7227 32.7482 70H29.7582L29.7192 69.545C30.1265 69.4063 30.5252 69.3023 30.9152 69.233C30.8285 65.8703 30.7592 63.3483 30.7072 61.667C30.3865 61.6063 30.0008 61.5023 29.5502 61.355L29.5892 60.9H32.8392C32.9865 61.1773 33.0602 61.4373 33.0602 61.68C32.6268 61.7147 32.2802 61.732 32.0202 61.732C32.0028 62.6333 31.9855 63.448 31.9682 64.176C31.9595 64.904 31.9508 65.4153 31.9422 65.71L35.0492 61.784L34.0092 61.68C34.0092 61.4373 34.0828 61.1773 34.2302 60.9H37.5322L37.5712 61.472C37.1725 61.6107 36.7825 61.7147 36.4012 61.784L33.8402 64.865L36.8302 69.116L37.9222 69.22C37.9222 69.4627 37.8485 69.7227 37.7012 70H36.0762L33.1252 65.749L31.9162 67.205ZM43.8551 65.749L43.7901 69.103C44.1628 69.129 44.5355 69.1897 44.9081 69.285L44.8821 69.74C44.7435 69.8093 44.4921 69.8873 44.1281 69.974C43.7728 70.052 43.4218 70.091 43.0751 70.091C42.9191 69.779 42.8325 69.48 42.8151 69.194C41.8271 69.844 41.1338 70.169 40.7351 70.169C40.1198 70.169 39.6258 70.0043 39.2531 69.675C38.8805 69.3457 38.6941 68.8863 38.6941 68.297C38.6941 66.9363 39.5261 66.2343 41.1901 66.191C42.1608 66.165 42.6505 66.152 42.6591 66.152L42.6461 65.71C42.6288 65.112 42.5161 64.683 42.3081 64.423C42.1001 64.1543 41.7275 64.02 41.1901 64.02C40.9648 64.02 40.7221 64.072 40.4621 64.176L40.1501 65.476C40.1068 65.4847 40.0331 65.489 39.9291 65.489L39.3961 65.45C39.2575 65.0773 39.1838 64.5617 39.1751 63.903C39.3398 63.8163 39.7168 63.6863 40.3061 63.513C40.8955 63.331 41.2725 63.24 41.4371 63.24C42.3211 63.24 42.9451 63.435 43.3091 63.825C43.6731 64.215 43.8551 64.8563 43.8551 65.749ZM41.0211 69.285C41.2725 69.285 41.8531 69.0033 42.7631 68.44L42.6981 66.815C42.1088 66.867 41.6148 66.9147 41.2161 66.958C40.8175 67.0013 40.4968 67.1183 40.2541 67.309C40.0115 67.491 39.8901 67.7813 39.8901 68.18C39.8901 68.9167 40.2671 69.285 41.0211 69.285ZM49.6279 64.332C49.5846 64.2887 49.4893 64.267 49.3419 64.267C49.1946 64.267 48.9736 64.319 48.6789 64.423C48.3929 64.527 48.1329 64.6483 47.8989 64.787C47.8469 66.711 47.8123 68.154 47.7949 69.116L48.8869 69.22C48.8869 69.4627 48.8133 69.7227 48.6659 70H45.6759L45.6369 69.545C46.0356 69.4063 46.4256 69.3023 46.8069 69.233C46.7549 67.0317 46.7116 65.4023 46.6769 64.345C46.2003 64.319 45.8189 64.267 45.5329 64.189L45.5849 63.513C46.0443 63.383 46.7246 63.318 47.6259 63.318C47.7646 63.5347 47.8513 63.812 47.8859 64.15C48.8826 63.5433 49.4763 63.24 49.6669 63.24C49.8576 63.24 50.0786 63.279 50.3299 63.357C50.5813 63.4263 50.7676 63.5043 50.8889 63.591C50.8889 64.4577 50.8066 65.164 50.6419 65.71C50.5206 65.7447 50.3776 65.762 50.2129 65.762C50.0569 65.762 49.9486 65.7577 49.8879 65.749L49.6279 64.332ZM55.9488 63.981L55.9098 61.381C55.4331 61.355 55.0518 61.303 54.7658 61.225L54.8178 60.549C55.2598 60.419 55.9011 60.354 56.7418 60.354C57.0105 60.354 57.2011 60.3627 57.3138 60.38C57.3138 60.536 57.2878 60.744 57.2358 61.004C57.1925 61.2553 57.1621 61.394 57.1448 61.42L57.0278 69.103C57.3831 69.1203 57.7601 69.181 58.1588 69.285L58.1328 69.74C57.5348 70.0173 57.0061 70.156 56.5468 70.156C56.4515 70.156 56.3778 70.1517 56.3258 70.143C56.2565 70.013 56.1698 69.714 56.0658 69.246C55.0691 69.8093 54.3715 70.1127 53.9728 70.156C53.1408 70.156 52.5168 69.8397 52.1008 69.207C51.6848 68.5743 51.4768 67.764 51.4768 66.776C51.4768 65.7793 51.6848 64.943 52.1008 64.267C52.5255 63.5823 53.1495 63.24 53.9728 63.24C54.6141 63.24 55.2728 63.487 55.9488 63.981ZM54.1938 64.124C53.1798 64.124 52.6728 64.956 52.6728 66.62C52.6728 67.27 52.7768 67.8333 52.9848 68.31C53.0888 68.57 53.2405 68.778 53.4398 68.934C53.6478 69.09 53.8861 69.168 54.1548 69.168C54.4235 69.168 54.7355 69.1073 55.0908 68.986C55.4548 68.8647 55.7668 68.726 56.0268 68.57L55.9488 64.865C55.7148 64.6657 55.4288 64.4923 55.0908 64.345C54.7528 64.1977 54.4538 64.124 54.1938 64.124ZM62.1294 69.272C62.5107 69.272 63.1087 69.09 63.9234 68.726C64.088 68.9513 64.1747 69.1507 64.1834 69.324C63.7414 69.584 63.308 69.7877 62.8834 69.935C62.4587 70.0823 62.1554 70.156 61.9734 70.156C60.968 70.156 60.201 69.857 59.6724 69.259C59.1437 68.6523 58.8794 67.8073 58.8794 66.724C58.8794 65.6407 59.135 64.7913 59.6464 64.176C60.1664 63.552 60.942 63.24 61.9734 63.24C62.7707 63.24 63.3774 63.526 63.7934 64.098C64.218 64.67 64.4304 65.437 64.4304 66.399C64.361 66.5203 64.3047 66.6027 64.2614 66.646L60.0754 66.581C60.084 67.4563 60.2357 68.1237 60.5304 68.583C60.8337 69.0423 61.3667 69.272 62.1294 69.272ZM63.2474 65.84C63.2474 65.268 63.1434 64.826 62.9354 64.514C62.7274 64.1933 62.3807 64.033 61.8954 64.033C61.41 64.033 60.9767 64.124 60.5954 64.306C60.3354 64.826 60.1707 65.359 60.1014 65.905C60.786 65.8963 61.8347 65.8747 63.2474 65.84ZM70.6537 68.076C70.6537 68.5267 70.5411 68.9037 70.3157 69.207C70.0904 69.5103 69.7697 69.74 69.3537 69.896C68.9377 70.052 68.4437 70.13 67.8717 70.13C67.3864 70.13 66.9661 70.091 66.6107 70.013C66.2641 69.935 65.9564 69.8267 65.6877 69.688V68.648C65.9651 68.7867 66.2987 68.9167 66.6887 69.038C67.0874 69.1507 67.4904 69.207 67.8977 69.207C68.4784 69.207 68.8987 69.116 69.1587 68.934C69.4187 68.7433 69.5487 68.492 69.5487 68.18C69.5487 68.0067 69.5011 67.8507 69.4057 67.712C69.3104 67.5733 69.1371 67.4347 68.8857 67.296C68.6431 67.1573 68.2921 67.0013 67.8327 66.828C67.3821 66.6547 66.9964 66.4813 66.6757 66.308C66.3551 66.1347 66.1081 65.9267 65.9347 65.684C65.7614 65.4413 65.6747 65.1293 65.6747 64.748C65.6747 64.1587 65.9131 63.7037 66.3897 63.383C66.8751 63.0623 67.5077 62.902 68.2877 62.902C68.7124 62.902 69.1067 62.9453 69.4707 63.032C69.8434 63.11 70.1901 63.2227 70.5107 63.37L70.1207 64.28C69.9301 64.1933 69.7264 64.1197 69.5097 64.059C69.3017 63.9897 69.0894 63.9377 68.8727 63.903C68.6561 63.8597 68.4351 63.838 68.2097 63.838C67.7417 63.838 67.3821 63.916 67.1307 64.072C66.8881 64.2193 66.7667 64.423 66.7667 64.683C66.7667 64.8737 66.8231 65.0383 66.9357 65.177C67.0484 65.307 67.2347 65.437 67.4947 65.567C67.7634 65.6883 68.1187 65.8357 68.5607 66.009C69.0027 66.1737 69.3797 66.3427 69.6917 66.516C70.0037 66.6893 70.2421 66.9017 70.4067 67.153C70.5714 67.3957 70.6537 67.7033 70.6537 68.076ZM69.4187 71.807C69.4187 72.0843 69.3451 72.3183 69.1977 72.509C69.0591 72.7083 68.8467 72.86 68.5607 72.964C68.2747 73.068 67.9194 73.12 67.4947 73.12C67.3647 73.12 67.2391 73.1113 67.1177 73.094C67.0051 73.0853 66.9141 73.0723 66.8447 73.055V72.34C66.9227 72.3573 67.0267 72.3703 67.1567 72.379C67.2867 72.3963 67.4124 72.405 67.5337 72.405C67.8457 72.405 68.0841 72.3617 68.2487 72.275C68.4134 72.197 68.4957 72.0497 68.4957 71.833C68.4957 71.6077 68.3787 71.443 68.1447 71.339C67.9194 71.235 67.6421 71.1613 67.3127 71.118L67.8717 70H68.6257L68.2877 70.689C68.4957 70.7323 68.6864 70.7973 68.8597 70.884C69.0331 70.9793 69.1674 71.1007 69.2627 71.248C69.3667 71.3953 69.4187 71.5817 69.4187 71.807ZM77.3654 67.205L77.3264 69.116L78.4184 69.22C78.4184 69.4627 78.3447 69.7227 78.1974 70H75.2074L75.1684 69.545C75.5757 69.4063 75.9744 69.3023 76.3644 69.233C76.2777 65.8703 76.2084 63.3483 76.1564 61.667C75.8357 61.6063 75.45 61.5023 74.9994 61.355L75.0384 60.9H78.2884C78.4357 61.1773 78.5094 61.4373 78.5094 61.68C78.076 61.7147 77.7294 61.732 77.4694 61.732C77.452 62.6333 77.4347 63.448 77.4174 64.176C77.4087 64.904 77.4 65.4153 77.3914 65.71L80.4984 61.784L79.4584 61.68C79.4584 61.4373 79.532 61.1773 79.6794 60.9H82.9814L83.0204 61.472C82.6217 61.6107 82.2317 61.7147 81.8504 61.784L79.2894 64.865L82.2794 69.116L83.3714 69.22C83.3714 69.4627 83.2977 69.7227 83.1504 70H81.5254L78.5744 65.749L77.3654 67.205ZM88.0694 64.332C88.026 64.2887 87.9307 64.267 87.7834 64.267C87.636 64.267 87.415 64.319 87.1204 64.423C86.8344 64.527 86.5744 64.6483 86.3404 64.787C86.2884 66.711 86.2537 68.154 86.2364 69.116L87.3284 69.22C87.3284 69.4627 87.2547 69.7227 87.1074 70H84.1174L84.0784 69.545C84.477 69.4063 84.867 69.3023 85.2484 69.233C85.1964 67.0317 85.153 65.4023 85.1184 64.345C84.6417 64.319 84.2604 64.267 83.9744 64.189L84.0264 63.513C84.4857 63.383 85.166 63.318 86.0674 63.318C86.206 63.5347 86.2927 63.812 86.3274 64.15C87.324 63.5433 87.9177 63.24 88.1084 63.24C88.299 63.24 88.52 63.279 88.7714 63.357C89.0227 63.4263 89.209 63.5043 89.3304 63.591C89.3304 64.4577 89.248 65.164 89.0834 65.71C88.962 65.7447 88.819 65.762 88.6544 65.762C88.4984 65.762 88.39 65.7577 88.3294 65.749L88.0694 64.332ZM92.9212 69.376C93.6492 69.376 94.1389 69.1507 94.3902 68.7C94.6502 68.2407 94.7802 67.5907 94.7802 66.75C94.7802 65.4153 94.4855 64.579 93.8962 64.241C93.6535 64.1023 93.3112 64.033 92.8692 64.033C92.4359 64.033 92.0242 64.124 91.6342 64.306C91.2875 64.9733 91.1142 65.749 91.1142 66.633C91.1142 67.4823 91.2269 68.1367 91.4522 68.596C91.7122 69.116 92.2019 69.376 92.9212 69.376ZM89.9182 66.75C89.9182 65.6493 90.1695 64.7913 90.6722 64.176C91.1749 63.552 91.9505 63.24 92.9992 63.24C94.0479 63.24 94.8062 63.526 95.2742 64.098C95.7422 64.6613 95.9762 65.4977 95.9762 66.607C95.9762 67.7163 95.7249 68.5873 95.2222 69.22C94.7282 69.8527 93.9742 70.169 92.9602 70.169C91.9462 70.169 91.1835 69.8743 90.6722 69.285C90.1695 68.6957 89.9182 67.8507 89.9182 66.75ZM103.218 64.696C103.253 64.9733 103.27 65.294 103.27 65.658C103.27 66.022 103.236 67.1747 103.166 69.116L104.258 69.22C104.258 69.4627 104.185 69.7227 104.037 70H101.047L101.008 69.545C101.407 69.4063 101.797 69.3023 102.178 69.233C102.126 66.9277 102.079 65.645 102.035 65.385C102.001 65.125 101.94 64.9083 101.853 64.735C101.767 64.553 101.632 64.4273 101.45 64.358C101.268 64.2887 100.991 64.254 100.618 64.254C100.254 64.254 99.7733 64.3927 99.1753 64.67C99.1233 66.646 99.0886 68.128 99.0713 69.116L100.163 69.22C100.163 69.4627 100.09 69.7227 99.9423 70H96.9523L96.9133 69.545C97.312 69.4063 97.702 69.3023 98.0833 69.233C98.0746 68.609 98.053 67.7293 98.0183 66.594C97.9836 65.45 97.962 64.7003 97.9533 64.345C97.4766 64.319 97.0953 64.267 96.8093 64.189L96.8613 63.513C97.3293 63.383 98.0096 63.318 98.9023 63.318C99.0236 63.5347 99.1016 63.76 99.1363 63.994C99.5176 63.7947 99.8946 63.6213 100.267 63.474C100.64 63.318 100.874 63.24 100.969 63.24C101.931 63.24 102.603 63.5347 102.984 64.124C103.383 63.9073 103.795 63.708 104.219 63.526C104.653 63.3353 104.913 63.24 104.999 63.24C105.788 63.24 106.377 63.435 106.767 63.825C107.166 64.2063 107.365 64.8347 107.365 65.71C107.365 65.97 107.331 67.1053 107.261 69.116L108.353 69.22C108.353 69.4627 108.28 69.7227 108.132 70H105.142L105.103 69.545C105.502 69.4063 105.892 69.3023 106.273 69.233C106.239 67.8637 106.208 66.828 106.182 66.126C106.156 65.424 106.057 64.9387 105.883 64.67C105.71 64.3927 105.363 64.254 104.843 64.254C104.323 64.254 103.782 64.4013 103.218 64.696ZM111.951 69.376C112.679 69.376 113.169 69.1507 113.42 68.7C113.68 68.2407 113.81 67.5907 113.81 66.75C113.81 65.4153 113.516 64.579 112.926 64.241C112.684 64.1023 112.341 64.033 111.899 64.033C111.466 64.033 111.054 64.124 110.664 64.306C110.318 64.9733 110.144 65.749 110.144 66.633C110.144 67.4823 110.257 68.1367 110.482 68.596C110.742 69.116 111.232 69.376 111.951 69.376ZM108.948 66.75C108.948 65.6493 109.2 64.7913 109.702 64.176C110.205 63.552 110.981 63.24 112.029 63.24C113.078 63.24 113.836 63.526 114.304 64.098C114.772 64.6613 115.006 65.4977 115.006 66.607C115.006 67.7163 114.755 68.5873 114.252 69.22C113.758 69.8527 113.004 70.169 111.99 70.169C110.976 70.169 110.214 69.8743 109.702 69.285C109.2 68.6957 108.948 67.8507 108.948 66.75ZM116.906 69.194L116.802 64.293H115.801L115.762 63.838C115.848 63.7773 116.1 63.6647 116.516 63.5L117.582 61.836C117.755 61.8533 117.889 61.8967 117.985 61.966L117.972 63.396C118.622 63.396 119.155 63.4393 119.571 63.526C119.571 63.76 119.497 64.0157 119.35 64.293H117.946C117.928 65.333 117.911 66.9103 117.894 69.025C118.379 69.051 118.864 69.1377 119.35 69.285L119.337 69.74C119.215 69.818 118.903 69.909 118.401 70.013C117.907 70.117 117.499 70.169 117.179 70.169C117.135 70.0997 117.079 69.9523 117.01 69.727C116.94 69.493 116.906 69.3153 116.906 69.194ZM122.803 62.161C122.578 62.213 122.357 62.239 122.14 62.239C121.932 62.239 121.724 62.226 121.516 62.2C121.464 61.9573 121.438 61.7147 121.438 61.472C121.438 61.2207 121.447 61.0343 121.464 60.913C121.655 60.8697 121.854 60.848 122.062 60.848C122.279 60.848 122.508 60.8567 122.751 60.874C122.803 61.0993 122.829 61.3203 122.829 61.537C122.829 61.745 122.82 61.953 122.803 62.161ZM120.437 63.526C121.174 63.396 121.746 63.331 122.153 63.331C122.56 63.331 122.82 63.3397 122.933 63.357C122.933 63.565 122.907 63.7947 122.855 64.046C122.803 64.2973 122.773 64.4187 122.764 64.41L122.647 69.116L123.739 69.22C123.739 69.4627 123.665 69.7227 123.518 70H120.528L120.489 69.545C120.888 69.4063 121.278 69.3023 121.659 69.233C121.607 67.0663 121.564 65.4413 121.529 64.358C121.026 64.358 120.645 64.306 120.385 64.202L120.437 63.526ZM125.424 69.194L125.32 64.293H124.319L124.28 63.838C124.367 63.7773 124.618 63.6647 125.034 63.5L126.1 61.836C126.273 61.8533 126.408 61.8967 126.503 61.966L126.49 63.396C127.14 63.396 127.673 63.4393 128.089 63.526C128.089 63.76 128.015 64.0157 127.868 64.293H126.464C126.447 65.333 126.429 66.9103 126.412 69.025C126.897 69.051 127.383 69.1377 127.868 69.285L127.855 69.74C127.734 69.818 127.422 69.909 126.919 70.013C126.425 70.117 126.018 70.169 125.697 70.169C125.654 70.0997 125.597 69.9523 125.528 69.727C125.459 69.493 125.424 69.3153 125.424 69.194ZM130.737 60.341C131.005 60.341 131.196 60.3497 131.309 60.367C131.309 60.6703 131.252 61.017 131.14 61.407C131.062 66.5203 131.023 69.09 131.023 69.116L132.115 69.22C132.115 69.4627 132.041 69.7227 131.894 70H128.904L128.865 69.545C129.263 69.4063 129.653 69.3023 130.035 69.233L129.905 61.368C129.428 61.342 129.047 61.29 128.761 61.212L128.813 60.536C129.255 60.406 129.896 60.341 130.737 60.341ZM136.118 69.272C136.499 69.272 137.097 69.09 137.912 68.726C138.076 68.9513 138.163 69.1507 138.172 69.324C137.73 69.584 137.296 69.7877 136.872 69.935C136.447 70.0823 136.144 70.156 135.962 70.156C134.956 70.156 134.189 69.857 133.661 69.259C133.132 68.6523 132.868 67.8073 132.868 66.724C132.868 65.6407 133.123 64.7913 133.635 64.176C134.155 63.552 134.93 63.24 135.962 63.24C136.759 63.24 137.366 63.526 137.782 64.098C138.206 64.67 138.419 65.437 138.419 66.399C138.349 66.5203 138.293 66.6027 138.25 66.646L134.064 66.581C134.072 67.4563 134.224 68.1237 134.519 68.583C134.822 69.0423 135.355 69.272 136.118 69.272ZM137.236 65.84C137.236 65.268 137.132 64.826 136.924 64.514C136.716 64.1933 136.369 64.033 135.884 64.033C135.398 64.033 134.965 64.124 134.584 64.306C134.324 64.826 134.159 65.359 134.09 65.905C134.774 65.8963 135.823 65.8747 137.236 65.84ZM143.459 64.332C143.416 64.2887 143.32 64.267 143.173 64.267C143.026 64.267 142.805 64.319 142.51 64.423C142.224 64.527 141.964 64.6483 141.73 64.787C141.678 66.711 141.643 68.154 141.626 69.116L142.718 69.22C142.718 69.4627 142.644 69.7227 142.497 70H139.507L139.468 69.545C139.867 69.4063 140.257 69.3023 140.638 69.233C140.586 67.0317 140.543 65.4023 140.508 64.345C140.031 64.319 139.65 64.267 139.364 64.189L139.416 63.513C139.875 63.383 140.556 63.318 141.457 63.318C141.596 63.5347 141.682 63.812 141.717 64.15C142.714 63.5433 143.307 63.24 143.498 63.24C143.689 63.24 143.91 63.279 144.161 63.357C144.412 63.4263 144.599 63.5043 144.72 63.591C144.72 64.4577 144.638 65.164 144.473 65.71C144.352 65.7447 144.209 65.762 144.044 65.762C143.888 65.762 143.78 65.7577 143.719 65.749L143.459 64.332Z" fill="black"/>
<path d="M187.916 65.205L187.877 67.116L188.969 67.22C188.969 67.4627 188.895 67.7227 188.748 68H185.758L185.719 67.545C186.126 67.4063 186.525 67.3023 186.915 67.233C186.828 63.8703 186.759 61.3483 186.707 59.667C186.386 59.6063 186.001 59.5023 185.55 59.355L185.589 58.9H188.839C188.986 59.1773 189.06 59.4373 189.06 59.68C188.627 59.7147 188.28 59.732 188.02 59.732C188.003 60.6333 187.985 61.448 187.968 62.176C187.959 62.904 187.951 63.4153 187.942 63.71L191.049 59.784L190.009 59.68C190.009 59.4373 190.083 59.1773 190.23 58.9H193.532L193.571 59.472C193.172 59.6107 192.782 59.7147 192.401 59.784L189.84 62.865L192.83 67.116L193.922 67.22C193.922 67.4627 193.848 67.7227 193.701 68H192.076L189.125 63.749L187.916 65.205ZM199.855 63.749L199.79 67.103C200.163 67.129 200.535 67.1897 200.908 67.285L200.882 67.74C200.743 67.8093 200.492 67.8873 200.128 67.974C199.773 68.052 199.422 68.091 199.075 68.091C198.919 67.779 198.832 67.48 198.815 67.194C197.827 67.844 197.134 68.169 196.735 68.169C196.12 68.169 195.626 68.0043 195.253 67.675C194.88 67.3457 194.694 66.8863 194.694 66.297C194.694 64.9363 195.526 64.2343 197.19 64.191C198.161 64.165 198.65 64.152 198.659 64.152L198.646 63.71C198.629 63.112 198.516 62.683 198.308 62.423C198.1 62.1543 197.727 62.02 197.19 62.02C196.965 62.02 196.722 62.072 196.462 62.176L196.15 63.476C196.107 63.4847 196.033 63.489 195.929 63.489L195.396 63.45C195.257 63.0773 195.184 62.5617 195.175 61.903C195.34 61.8163 195.717 61.6863 196.306 61.513C196.895 61.331 197.272 61.24 197.437 61.24C198.321 61.24 198.945 61.435 199.309 61.825C199.673 62.215 199.855 62.8563 199.855 63.749ZM197.021 67.285C197.272 67.285 197.853 67.0033 198.763 66.44L198.698 64.815C198.109 64.867 197.615 64.9147 197.216 64.958C196.817 65.0013 196.497 65.1183 196.254 65.309C196.011 65.491 195.89 65.7813 195.89 66.18C195.89 66.9167 196.267 67.285 197.021 67.285ZM205.628 62.332C205.585 62.2887 205.489 62.267 205.342 62.267C205.195 62.267 204.974 62.319 204.679 62.423C204.393 62.527 204.133 62.6483 203.899 62.787C203.847 64.711 203.812 66.154 203.795 67.116L204.887 67.22C204.887 67.4627 204.813 67.7227 204.666 68H201.676L201.637 67.545C202.036 67.4063 202.426 67.3023 202.807 67.233C202.755 65.0317 202.712 63.4023 202.677 62.345C202.2 62.319 201.819 62.267 201.533 62.189L201.585 61.513C202.044 61.383 202.725 61.318 203.626 61.318C203.765 61.5347 203.851 61.812 203.886 62.15C204.883 61.5433 205.476 61.24 205.667 61.24C205.858 61.24 206.079 61.279 206.33 61.357C206.581 61.4263 206.768 61.5043 206.889 61.591C206.889 62.4577 206.807 63.164 206.642 63.71C206.521 63.7447 206.378 63.762 206.213 63.762C206.057 63.762 205.949 63.7577 205.888 63.749L205.628 62.332ZM211.949 61.981L211.91 59.381C211.433 59.355 211.052 59.303 210.766 59.225L210.818 58.549C211.26 58.419 211.901 58.354 212.742 58.354C213.01 58.354 213.201 58.3627 213.314 58.38C213.314 58.536 213.288 58.744 213.236 59.004C213.192 59.2553 213.162 59.394 213.145 59.42L213.028 67.103C213.383 67.1203 213.76 67.181 214.159 67.285L214.133 67.74C213.535 68.0173 213.006 68.156 212.547 68.156C212.451 68.156 212.378 68.1517 212.326 68.143C212.256 68.013 212.17 67.714 212.066 67.246C211.069 67.8093 210.371 68.1127 209.973 68.156C209.141 68.156 208.517 67.8397 208.101 67.207C207.685 66.5743 207.477 65.764 207.477 64.776C207.477 63.7793 207.685 62.943 208.101 62.267C208.525 61.5823 209.149 61.24 209.973 61.24C210.614 61.24 211.273 61.487 211.949 61.981ZM210.194 62.124C209.18 62.124 208.673 62.956 208.673 64.62C208.673 65.27 208.777 65.8333 208.985 66.31C209.089 66.57 209.24 66.778 209.44 66.934C209.648 67.09 209.886 67.168 210.155 67.168C210.423 67.168 210.735 67.1073 211.091 66.986C211.455 66.8647 211.767 66.726 212.027 66.57L211.949 62.865C211.715 62.6657 211.429 62.4923 211.091 62.345C210.753 62.1977 210.454 62.124 210.194 62.124ZM218.129 67.272C218.511 67.272 219.109 67.09 219.923 66.726C220.088 66.9513 220.175 67.1507 220.183 67.324C219.741 67.584 219.308 67.7877 218.883 67.935C218.459 68.0823 218.155 68.156 217.973 68.156C216.968 68.156 216.201 67.857 215.672 67.259C215.144 66.6523 214.879 65.8073 214.879 64.724C214.879 63.6407 215.135 62.7913 215.646 62.176C216.166 61.552 216.942 61.24 217.973 61.24C218.771 61.24 219.377 61.526 219.793 62.098C220.218 62.67 220.43 63.437 220.43 64.399C220.361 64.5203 220.305 64.6027 220.261 64.646L216.075 64.581C216.084 65.4563 216.236 66.1237 216.53 66.583C216.834 67.0423 217.367 67.272 218.129 67.272ZM219.247 63.84C219.247 63.268 219.143 62.826 218.935 62.514C218.727 62.1933 218.381 62.033 217.895 62.033C217.41 62.033 216.977 62.124 216.595 62.306C216.335 62.826 216.171 63.359 216.101 63.905C216.786 63.8963 217.835 63.8747 219.247 63.84ZM226.654 66.076C226.654 66.5267 226.541 66.9037 226.316 67.207C226.09 67.5103 225.77 67.74 225.354 67.896C224.938 68.052 224.444 68.13 223.872 68.13C223.386 68.13 222.966 68.091 222.611 68.013C222.264 67.935 221.956 67.8267 221.688 67.688V66.648C221.965 66.7867 222.299 66.9167 222.689 67.038C223.087 67.1507 223.49 67.207 223.898 67.207C224.478 67.207 224.899 67.116 225.159 66.934C225.419 66.7433 225.549 66.492 225.549 66.18C225.549 66.0067 225.501 65.8507 225.406 65.712C225.31 65.5733 225.137 65.4347 224.886 65.296C224.643 65.1573 224.292 65.0013 223.833 64.828C223.382 64.6547 222.996 64.4813 222.676 64.308C222.355 64.1347 222.108 63.9267 221.935 63.684C221.761 63.4413 221.675 63.1293 221.675 62.748C221.675 62.1587 221.913 61.7037 222.39 61.383C222.875 61.0623 223.508 60.902 224.288 60.902C224.712 60.902 225.107 60.9453 225.471 61.032C225.843 61.11 226.19 61.2227 226.511 61.37L226.121 62.28C225.93 62.1933 225.726 62.1197 225.51 62.059C225.302 61.9897 225.089 61.9377 224.873 61.903C224.656 61.8597 224.435 61.838 224.21 61.838C223.742 61.838 223.382 61.916 223.131 62.072C222.888 62.2193 222.767 62.423 222.767 62.683C222.767 62.8737 222.823 63.0383 222.936 63.177C223.048 63.307 223.235 63.437 223.495 63.567C223.763 63.6883 224.119 63.8357 224.561 64.009C225.003 64.1737 225.38 64.3427 225.692 64.516C226.004 64.6893 226.242 64.9017 226.407 65.153C226.571 65.3957 226.654 65.7033 226.654 66.076ZM225.419 69.807C225.419 70.0843 225.345 70.3183 225.198 70.509C225.059 70.7083 224.847 70.86 224.561 70.964C224.275 71.068 223.919 71.12 223.495 71.12C223.365 71.12 223.239 71.1113 223.118 71.094C223.005 71.0853 222.914 71.0723 222.845 71.055V70.34C222.923 70.3573 223.027 70.3703 223.157 70.379C223.287 70.3963 223.412 70.405 223.534 70.405C223.846 70.405 224.084 70.3617 224.249 70.275C224.413 70.197 224.496 70.0497 224.496 69.833C224.496 69.6077 224.379 69.443 224.145 69.339C223.919 69.235 223.642 69.1613 223.313 69.118L223.872 68H224.626L224.288 68.689C224.496 68.7323 224.686 68.7973 224.86 68.884C225.033 68.9793 225.167 69.1007 225.263 69.248C225.367 69.3953 225.419 69.5817 225.419 69.807ZM233.365 65.205L233.326 67.116L234.418 67.22C234.418 67.4627 234.345 67.7227 234.197 68H231.207L231.168 67.545C231.576 67.4063 231.974 67.3023 232.364 67.233C232.278 63.8703 232.208 61.3483 232.156 59.667C231.836 59.6063 231.45 59.5023 230.999 59.355L231.038 58.9H234.288C234.436 59.1773 234.509 59.4373 234.509 59.68C234.076 59.7147 233.729 59.732 233.469 59.732C233.452 60.6333 233.435 61.448 233.417 62.176C233.409 62.904 233.4 63.4153 233.391 63.71L236.498 59.784L235.458 59.68C235.458 59.4373 235.532 59.1773 235.679 58.9H238.981L239.02 59.472C238.622 59.6107 238.232 59.7147 237.85 59.784L235.289 62.865L238.279 67.116L239.371 67.22C239.371 67.4627 239.298 67.7227 239.15 68H237.525L234.574 63.749L233.365 65.205ZM244.069 62.332C244.026 62.2887 243.931 62.267 243.783 62.267C243.636 62.267 243.415 62.319 243.12 62.423C242.834 62.527 242.574 62.6483 242.34 62.787C242.288 64.711 242.254 66.154 242.236 67.116L243.328 67.22C243.328 67.4627 243.255 67.7227 243.107 68H240.117L240.078 67.545C240.477 67.4063 240.867 67.3023 241.248 67.233C241.196 65.0317 241.153 63.4023 241.118 62.345C240.642 62.319 240.26 62.267 239.974 62.189L240.026 61.513C240.486 61.383 241.166 61.318 242.067 61.318C242.206 61.5347 242.293 61.812 242.327 62.15C243.324 61.5433 243.918 61.24 244.108 61.24C244.299 61.24 244.52 61.279 244.771 61.357C245.023 61.4263 245.209 61.5043 245.33 61.591C245.33 62.4577 245.248 63.164 245.083 63.71C244.962 63.7447 244.819 63.762 244.654 63.762C244.498 63.762 244.39 63.7577 244.329 63.749L244.069 62.332ZM248.921 67.376C249.649 67.376 250.139 67.1507 250.39 66.7C250.65 66.2407 250.78 65.5907 250.78 64.75C250.78 63.4153 250.486 62.579 249.896 62.241C249.654 62.1023 249.311 62.033 248.869 62.033C248.436 62.033 248.024 62.124 247.634 62.306C247.288 62.9733 247.114 63.749 247.114 64.633C247.114 65.4823 247.227 66.1367 247.452 66.596C247.712 67.116 248.202 67.376 248.921 67.376ZM245.918 64.75C245.918 63.6493 246.17 62.7913 246.672 62.176C247.175 61.552 247.951 61.24 248.999 61.24C250.048 61.24 250.806 61.526 251.274 62.098C251.742 62.6613 251.976 63.4977 251.976 64.607C251.976 65.7163 251.725 66.5873 251.222 67.22C250.728 67.8527 249.974 68.169 248.96 68.169C247.946 68.169 247.184 67.8743 246.672 67.285C246.17 66.6957 245.918 65.8507 245.918 64.75ZM259.218 62.696C259.253 62.9733 259.27 63.294 259.27 63.658C259.27 64.022 259.236 65.1747 259.166 67.116L260.258 67.22C260.258 67.4627 260.185 67.7227 260.037 68H257.047L257.008 67.545C257.407 67.4063 257.797 67.3023 258.178 67.233C258.126 64.9277 258.079 63.645 258.035 63.385C258.001 63.125 257.94 62.9083 257.853 62.735C257.767 62.553 257.632 62.4273 257.45 62.358C257.268 62.2887 256.991 62.254 256.618 62.254C256.254 62.254 255.773 62.3927 255.175 62.67C255.123 64.646 255.089 66.128 255.071 67.116L256.163 67.22C256.163 67.4627 256.09 67.7227 255.942 68H252.952L252.913 67.545C253.312 67.4063 253.702 67.3023 254.083 67.233C254.075 66.609 254.053 65.7293 254.018 64.594C253.984 63.45 253.962 62.7003 253.953 62.345C253.477 62.319 253.095 62.267 252.809 62.189L252.861 61.513C253.329 61.383 254.01 61.318 254.902 61.318C255.024 61.5347 255.102 61.76 255.136 61.994C255.518 61.7947 255.895 61.6213 256.267 61.474C256.64 61.318 256.874 61.24 256.969 61.24C257.931 61.24 258.603 61.5347 258.984 62.124C259.383 61.9073 259.795 61.708 260.219 61.526C260.653 61.3353 260.913 61.24 260.999 61.24C261.788 61.24 262.377 61.435 262.767 61.825C263.166 62.2063 263.365 62.8347 263.365 63.71C263.365 63.97 263.331 65.1053 263.261 67.116L264.353 67.22C264.353 67.4627 264.28 67.7227 264.132 68H261.142L261.103 67.545C261.502 67.4063 261.892 67.3023 262.273 67.233C262.239 65.8637 262.208 64.828 262.182 64.126C262.156 63.424 262.057 62.9387 261.883 62.67C261.71 62.3927 261.363 62.254 260.843 62.254C260.323 62.254 259.782 62.4013 259.218 62.696ZM267.951 67.376C268.679 67.376 269.169 67.1507 269.42 66.7C269.68 66.2407 269.81 65.5907 269.81 64.75C269.81 63.4153 269.516 62.579 268.926 62.241C268.684 62.1023 268.341 62.033 267.899 62.033C267.466 62.033 267.054 62.124 266.664 62.306C266.318 62.9733 266.144 63.749 266.144 64.633C266.144 65.4823 266.257 66.1367 266.482 66.596C266.742 67.116 267.232 67.376 267.951 67.376ZM264.948 64.75C264.948 63.6493 265.2 62.7913 265.702 62.176C266.205 61.552 266.981 61.24 268.029 61.24C269.078 61.24 269.836 61.526 270.304 62.098C270.772 62.6613 271.006 63.4977 271.006 64.607C271.006 65.7163 270.755 66.5873 270.252 67.22C269.758 67.8527 269.004 68.169 267.99 68.169C266.976 68.169 266.214 67.8743 265.702 67.285C265.2 66.6957 264.948 65.8507 264.948 64.75ZM272.906 67.194L272.802 62.293H271.801L271.762 61.838C271.848 61.7773 272.1 61.6647 272.516 61.5L273.582 59.836C273.755 59.8533 273.889 59.8967 273.985 59.966L273.972 61.396C274.622 61.396 275.155 61.4393 275.571 61.526C275.571 61.76 275.497 62.0157 275.35 62.293H273.946C273.928 63.333 273.911 64.9103 273.894 67.025C274.379 67.051 274.864 67.1377 275.35 67.285L275.337 67.74C275.215 67.818 274.903 67.909 274.401 68.013C273.907 68.117 273.499 68.169 273.179 68.169C273.135 68.0997 273.079 67.9523 273.01 67.727C272.94 67.493 272.906 67.3153 272.906 67.194ZM278.803 60.161C278.578 60.213 278.357 60.239 278.14 60.239C277.932 60.239 277.724 60.226 277.516 60.2C277.464 59.9573 277.438 59.7147 277.438 59.472C277.438 59.2207 277.447 59.0343 277.464 58.913C277.655 58.8697 277.854 58.848 278.062 58.848C278.279 58.848 278.508 58.8567 278.751 58.874C278.803 59.0993 278.829 59.3203 278.829 59.537C278.829 59.745 278.82 59.953 278.803 60.161ZM276.437 61.526C277.174 61.396 277.746 61.331 278.153 61.331C278.56 61.331 278.82 61.3397 278.933 61.357C278.933 61.565 278.907 61.7947 278.855 62.046C278.803 62.2973 278.773 62.4187 278.764 62.41L278.647 67.116L279.739 67.22C279.739 67.4627 279.665 67.7227 279.518 68H276.528L276.489 67.545C276.888 67.4063 277.278 67.3023 277.659 67.233C277.607 65.0663 277.564 63.4413 277.529 62.358C277.026 62.358 276.645 62.306 276.385 62.202L276.437 61.526ZM281.424 67.194L281.32 62.293H280.319L280.28 61.838C280.367 61.7773 280.618 61.6647 281.034 61.5L282.1 59.836C282.273 59.8533 282.408 59.8967 282.503 59.966L282.49 61.396C283.14 61.396 283.673 61.4393 284.089 61.526C284.089 61.76 284.015 62.0157 283.868 62.293H282.464C282.447 63.333 282.429 64.9103 282.412 67.025C282.897 67.051 283.383 67.1377 283.868 67.285L283.855 67.74C283.734 67.818 283.422 67.909 282.919 68.013C282.425 68.117 282.018 68.169 281.697 68.169C281.654 68.0997 281.597 67.9523 281.528 67.727C281.459 67.493 281.424 67.3153 281.424 67.194ZM286.737 58.341C287.005 58.341 287.196 58.3497 287.309 58.367C287.309 58.6703 287.252 59.017 287.14 59.407C287.062 64.5203 287.023 67.09 287.023 67.116L288.115 67.22C288.115 67.4627 288.041 67.7227 287.894 68H284.904L284.865 67.545C285.263 67.4063 285.653 67.3023 286.035 67.233L285.905 59.368C285.428 59.342 285.047 59.29 284.761 59.212L284.813 58.536C285.255 58.406 285.896 58.341 286.737 58.341ZM292.118 67.272C292.499 67.272 293.097 67.09 293.912 66.726C294.076 66.9513 294.163 67.1507 294.172 67.324C293.73 67.584 293.296 67.7877 292.872 67.935C292.447 68.0823 292.144 68.156 291.962 68.156C290.956 68.156 290.189 67.857 289.661 67.259C289.132 66.6523 288.868 65.8073 288.868 64.724C288.868 63.6407 289.123 62.7913 289.635 62.176C290.155 61.552 290.93 61.24 291.962 61.24C292.759 61.24 293.366 61.526 293.782 62.098C294.206 62.67 294.419 63.437 294.419 64.399C294.349 64.5203 294.293 64.6027 294.25 64.646L290.064 64.581C290.072 65.4563 290.224 66.1237 290.519 66.583C290.822 67.0423 291.355 67.272 292.118 67.272ZM293.236 63.84C293.236 63.268 293.132 62.826 292.924 62.514C292.716 62.1933 292.369 62.033 291.884 62.033C291.398 62.033 290.965 62.124 290.584 62.306C290.324 62.826 290.159 63.359 290.09 63.905C290.774 63.8963 291.823 63.8747 293.236 63.84ZM299.459 62.332C299.416 62.2887 299.32 62.267 299.173 62.267C299.026 62.267 298.805 62.319 298.51 62.423C298.224 62.527 297.964 62.6483 297.73 62.787C297.678 64.711 297.643 66.154 297.626 67.116L298.718 67.22C298.718 67.4627 298.644 67.7227 298.497 68H295.507L295.468 67.545C295.867 67.4063 296.257 67.3023 296.638 67.233C296.586 65.0317 296.543 63.4023 296.508 62.345C296.031 62.319 295.65 62.267 295.364 62.189L295.416 61.513C295.875 61.383 296.556 61.318 297.457 61.318C297.596 61.5347 297.682 61.812 297.717 62.15C298.714 61.5433 299.307 61.24 299.498 61.24C299.689 61.24 299.91 61.279 300.161 61.357C300.412 61.4263 300.599 61.5043 300.72 61.591C300.72 62.4577 300.638 63.164 300.473 63.71C300.352 63.7447 300.209 63.762 300.044 63.762C299.888 63.762 299.78 63.7577 299.719 63.749L299.459 62.332Z" fill="black"/>
<line x1="73" y1="350.5" x2="271" y2="350.5" stroke="black" stroke-width="3"/>
</g>
<defs>
<filter id="filter0_d_1_67" x="0" y="0" width="343" height="483" filterUnits="userSpaceOnUse" color-interpolation-filters="sRGB">
<feFlood flood-opacity="0" result="BackgroundImageFix"/>
<feColorMatrix in="SourceAlpha" type="matrix" values="0 0 0 0 0 0 0 0 0 0 0 0 0 0 0 0 0 0 127 0" result="hardAlpha"/>
<feOffset dy="4"/>
<feGaussianBlur stdDeviation="2"/>
<feComposite in2="hardAlpha" operator="out"/>
<feColorMatrix type="matrix" values="0 0 0 0 0 0 0 0 0 0 0 0 0 0 0 0 0 0 0.25 0"/>
<feBlend mode="normal" in2="BackgroundImageFix" result="effect1_dropShadow_1_67"/>
<feBlend mode="normal" in="SourceGraphic" in2="effect1_dropShadow_1_67" result="shape"/>
</filter>
<filter id="filter1_d_1_67" x="43" y="12" width="257" height="42" filterUnits="userSpaceOnUse" color-interpolation-filters="sRGB">
<feFlood flood-opacity="0" result="BackgroundImageFix"/>
<feColorMatrix in="SourceAlpha" type="matrix" values="0 0 0 0 0 0 0 0 0 0 0 0 0 0 0 0 0 0 127 0" result="hardAlpha"/>
<feOffset dy="4"/>
<feGaussianBlur stdDeviation="2"/>
<feComposite in2="hardAlpha" operator="out"/>
<feColorMatrix type="matrix" values="0 0 0 0 0 0 0 0 0 0 0 0 0 0 0 0 0 0 0.25 0"/>
<feBlend mode="normal" in2="BackgroundImageFix" result="effect1_dropShadow_1_67"/>
<feBlend mode="normal" in="SourceGraphic" in2="effect1_dropShadow_1_67" result="shape"/>
</filter>
</defs>
</svg>
