<svg width="343" height="483" viewBox="0 0 343 483" fill="none" xmlns="http://www.w3.org/2000/svg">
<g filter="url(#filter0_d_1_298)">
<rect x="4" width="335" height="475" rx="15" fill="white"/>
<g filter="url(#filter1_d_1_298)">
<rect x="47" y="11" width="249" height="34" rx="15" fill="#F9F3F3"/>
</g>
<path d="M132.614 31.7C135.308 31.7 136.654 29.8067 136.654 26.02C136.654 22.22 135.308 20.32 132.614 20.32C131.348 20.32 130.314 20.5067 129.514 20.88C128.794 22.3067 128.434 23.9533 128.434 25.82C128.434 27.6733 128.741 29.12 129.354 30.16C129.981 31.1867 131.068 31.7 132.614 31.7ZM126.474 26.08C126.474 23.7333 126.954 21.9267 127.914 20.66C128.888 19.38 130.461 18.74 132.634 18.74C134.821 18.74 136.361 19.3267 137.254 20.5C138.161 21.66 138.614 23.42 138.614 25.78C138.614 28.14 138.128 29.9733 137.154 31.28C136.194 32.5867 134.654 33.24 132.534 33.24C130.428 33.24 128.888 32.6333 127.914 31.42C126.954 30.2067 126.474 28.4267 126.474 26.08ZM145.883 24.28C145.817 24.2133 145.67 24.18 145.443 24.18C145.217 24.18 144.877 24.26 144.423 24.42C143.983 24.58 143.583 24.7667 143.223 24.98C143.143 27.94 143.09 30.16 143.063 31.64L144.743 31.8C144.743 32.1733 144.63 32.5733 144.403 33H139.803L139.743 32.3C140.357 32.0867 140.957 31.9267 141.543 31.82C141.463 28.4333 141.397 25.9267 141.343 24.3C140.61 24.26 140.023 24.18 139.583 24.06L139.663 23.02C140.37 22.82 141.417 22.72 142.803 22.72C143.017 23.0533 143.15 23.48 143.203 24C144.737 23.0667 145.65 22.6 145.943 22.6C146.237 22.6 146.577 22.66 146.963 22.78C147.35 22.8867 147.637 23.0067 147.823 23.14C147.823 24.4733 147.697 25.56 147.443 26.4C147.257 26.4533 147.037 26.48 146.783 26.48C146.543 26.48 146.377 26.4733 146.283 26.46L145.883 24.28ZM154.008 31.78L155.788 31.74C157.628 31.74 158.548 32.5 158.548 34.02C158.548 34.7267 158.241 35.38 157.628 35.98C157.028 36.5933 156.308 37.0533 155.468 37.36C154.628 37.6667 153.841 37.82 153.108 37.82C152.388 37.82 151.714 37.7133 151.088 37.5C150.461 37.3 149.928 36.9667 149.488 36.5C149.048 36.0333 148.828 35.4933 148.828 34.88C148.828 34.7333 149.061 34.3467 149.528 33.72C150.008 33.1067 150.321 32.7467 150.468 32.64C150.348 32.56 150.114 32.3333 149.768 31.96C149.421 31.5733 149.228 31.3067 149.188 31.16C149.521 30.5467 150.048 29.9467 150.768 29.36C149.701 28.72 149.168 27.6667 149.168 26.2C149.168 25.0267 149.541 24.1333 150.288 23.52C151.034 22.9067 151.968 22.6 153.088 22.6C154.208 22.6 155.074 22.78 155.688 23.14C156.754 22.9267 157.801 22.82 158.828 22.82C159.081 22.82 159.208 22.9733 159.208 23.28C159.208 23.8133 159.108 24.18 158.908 24.38L156.608 24C157.088 24.6133 157.328 25.3467 157.328 26.2C157.328 27.5333 156.934 28.4933 156.148 29.08C155.361 29.6533 154.394 29.94 153.248 29.94C152.888 29.94 152.461 29.8933 151.968 29.8C151.768 30.2133 151.514 30.66 151.208 31.14C151.448 31.5667 152.381 31.78 154.008 31.78ZM156.548 35.46C156.681 35.0867 156.748 34.7 156.748 34.3C156.748 33.9133 156.594 33.6 156.288 33.36C155.981 33.12 155.588 33 155.108 33C153.201 33 152.034 32.98 151.608 32.94C151.248 33.5133 150.994 33.9933 150.848 34.38C150.714 34.78 150.648 35.0067 150.648 35.06C150.648 35.58 150.894 35.9667 151.388 36.22C151.881 36.4733 152.448 36.6 153.088 36.6C153.741 36.6 154.394 36.4933 155.048 36.28C155.714 36.0667 156.214 35.7933 156.548 35.46ZM155.528 26.28C155.528 24.6267 154.768 23.8 153.248 23.8C151.728 23.8 150.968 24.6 150.968 26.2C150.968 27.0133 151.168 27.64 151.568 28.08C151.968 28.52 152.548 28.74 153.308 28.74C154.788 28.74 155.528 27.92 155.528 26.28ZM168.33 26.46L168.23 31.62C168.804 31.66 169.377 31.7533 169.95 31.9L169.91 32.6C169.697 32.7067 169.31 32.8267 168.75 32.96C168.204 33.08 167.664 33.14 167.13 33.14C166.89 32.66 166.757 32.2 166.73 31.76C165.21 32.76 164.144 33.26 163.53 33.26C162.584 33.26 161.824 33.0067 161.25 32.5C160.677 31.9933 160.39 31.2867 160.39 30.38C160.39 28.2867 161.67 27.2067 164.23 27.14C165.724 27.1 166.477 27.08 166.49 27.08L166.47 26.4C166.444 25.48 166.27 24.82 165.95 24.42C165.63 24.0067 165.057 23.8 164.23 23.8C163.884 23.8 163.51 23.88 163.11 24.04L162.63 26.04C162.564 26.0533 162.45 26.06 162.29 26.06L161.47 26C161.257 25.4267 161.144 24.6333 161.13 23.62C161.384 23.4867 161.964 23.2867 162.87 23.02C163.777 22.74 164.357 22.6 164.61 22.6C165.97 22.6 166.93 22.9 167.49 23.5C168.05 24.1 168.33 25.0867 168.33 26.46ZM163.97 31.9C164.357 31.9 165.25 31.4667 166.65 30.6L166.55 28.1C165.644 28.18 164.884 28.2533 164.27 28.32C163.657 28.3867 163.164 28.5667 162.79 28.86C162.417 29.14 162.23 29.5867 162.23 30.2C162.23 31.3333 162.81 31.9 163.97 31.9ZM177.312 22.6C178.592 22.6 179.518 22.92 180.092 23.56C180.665 24.1867 180.952 25.1467 180.952 26.44C180.952 26.8133 180.898 28.5467 180.792 31.64L182.472 31.8C182.472 32.1733 182.358 32.5733 182.132 33H177.532L177.472 32.3C178.085 32.0867 178.685 31.9267 179.272 31.82C179.192 28.3267 179.118 26.3867 179.052 26C178.998 25.6 178.905 25.2533 178.772 24.96C178.638 24.6667 178.438 24.46 178.172 24.34C177.905 24.22 177.552 24.16 177.112 24.16C176.232 24.16 175.378 24.3733 174.552 24.8C174.472 27.84 174.418 30.12 174.392 31.64L176.072 31.8C176.072 32.1733 175.958 32.5733 175.732 33H171.132L171.072 32.3C171.685 32.0867 172.285 31.9267 172.872 31.82C172.792 28.4333 172.725 25.9267 172.672 24.3C171.938 24.26 171.352 24.18 170.912 24.06L170.992 23.02C171.712 22.82 172.758 22.72 174.132 22.72C174.292 22.96 174.412 23.3067 174.492 23.76C175.065 23.4533 175.638 23.1867 176.212 22.96C176.798 22.72 177.165 22.6 177.312 22.6ZM188.476 31.88C189.062 31.88 189.982 31.6 191.236 31.04C191.489 31.3867 191.622 31.6933 191.636 31.96C190.956 32.36 190.289 32.6733 189.636 32.9C188.982 33.1267 188.516 33.24 188.236 33.24C186.689 33.24 185.509 32.78 184.696 31.86C183.882 30.9267 183.476 29.6267 183.476 27.96C183.476 26.2933 183.869 24.9867 184.656 24.04C185.456 23.08 186.649 22.6 188.236 22.6C189.462 22.6 190.396 23.04 191.036 23.92C191.689 24.8 192.016 25.98 192.016 27.46C191.909 27.6467 191.822 27.7733 191.756 27.84L185.316 27.74C185.329 29.0867 185.562 30.1133 186.016 30.82C186.482 31.5267 187.302 31.88 188.476 31.88ZM190.196 26.6C190.196 25.72 190.036 25.04 189.716 24.56C189.396 24.0667 188.862 23.82 188.116 23.82C187.369 23.82 186.702 23.96 186.116 24.24C185.716 25.04 185.462 25.86 185.356 26.7C186.409 26.6867 188.022 26.6533 190.196 26.6ZM196.33 18.14C196.743 18.14 197.037 18.1533 197.21 18.18C197.21 18.6467 197.123 19.18 196.95 19.78C196.83 27.6467 196.77 31.6 196.77 31.64L198.45 31.8C198.45 32.1733 198.337 32.5733 198.11 33H193.51L193.45 32.3C194.063 32.0867 194.663 31.9267 195.25 31.82L195.05 19.72C194.317 19.68 193.73 19.6 193.29 19.48L193.37 18.44C194.05 18.24 195.037 18.14 196.33 18.14ZM202.229 18.14C202.642 18.14 202.935 18.1533 203.109 18.18C203.109 18.6467 203.022 19.18 202.849 19.78C202.729 27.6467 202.669 31.6 202.669 31.64L204.349 31.8C204.349 32.1733 204.235 32.5733 204.009 33H199.409L199.349 32.3C199.962 32.0867 200.562 31.9267 201.149 31.82L200.949 19.72C200.215 19.68 199.629 19.6 199.189 19.48L199.269 18.44C199.949 18.24 200.935 18.14 202.229 18.14ZM210.507 31.88C211.094 31.88 212.014 31.6 213.267 31.04C213.52 31.3867 213.654 31.6933 213.667 31.96C212.987 32.36 212.32 32.6733 211.667 32.9C211.014 33.1267 210.547 33.24 210.267 33.24C208.72 33.24 207.54 32.78 206.727 31.86C205.914 30.9267 205.507 29.6267 205.507 27.96C205.507 26.2933 205.9 24.9867 206.687 24.04C207.487 23.08 208.68 22.6 210.267 22.6C211.494 22.6 212.427 23.04 213.067 23.92C213.72 24.8 214.047 25.98 214.047 27.46C213.94 27.6467 213.854 27.7733 213.787 27.84L207.347 27.74C207.36 29.0867 207.594 30.1133 208.047 30.82C208.514 31.5267 209.334 31.88 210.507 31.88ZM212.227 26.6C212.227 25.72 212.067 25.04 211.747 24.56C211.427 24.0667 210.894 23.82 210.147 23.82C209.4 23.82 208.734 23.96 208.147 24.24C207.747 25.04 207.494 25.86 207.387 26.7C208.44 26.6867 210.054 26.6533 212.227 26.6ZM221.801 24.28C221.735 24.2133 221.588 24.18 221.361 24.18C221.135 24.18 220.795 24.26 220.341 24.42C219.901 24.58 219.501 24.7667 219.141 24.98C219.061 27.94 219.008 30.16 218.981 31.64L220.661 31.8C220.661 32.1733 220.548 32.5733 220.321 33H215.721L215.661 32.3C216.275 32.0867 216.875 31.9267 217.461 31.82C217.381 28.4333 217.315 25.9267 217.261 24.3C216.528 24.26 215.941 24.18 215.501 24.06L215.581 23.02C216.288 22.82 217.335 22.72 218.721 22.72C218.935 23.0533 219.068 23.48 219.121 24C220.655 23.0667 221.568 22.6 221.861 22.6C222.155 22.6 222.495 22.66 222.881 22.78C223.268 22.8867 223.555 23.0067 223.741 23.14C223.741 24.4733 223.615 25.56 223.361 26.4C223.175 26.4533 222.955 26.48 222.701 26.48C222.461 26.48 222.295 26.4733 222.201 26.46L221.801 24.28Z" fill="black"/>
<rect x="18" y="85" width="103" height="45" rx="8" fill="#D9D7F1"/>
<rect x="223" y="182" width="103" height="45" rx="8" fill="#9D9D9D"/>
<rect x="26" y="286" width="103" height="45" rx="8" fill="#F7ECDE"/>
<rect x="226" y="389" width="103" height="45" rx="8" fill="#DEECFC"/>
<rect x="142" y="85" width="190" height="45" rx="8" fill="#FFE5B9"/>
<rect x="17" y="181" width="190" height="45" rx="8" fill="#97C4B8"/>
<rect x="139" y="286" width="190" height="45" rx="8" fill="#ACB1D6"/>
<rect x="18" y="390" width="190" height="45" rx="8" fill="#D291BC"/>
<path d="M203.994 102.6C203.568 102.467 203.001 102.4 202.294 102.4H200.634L200.574 107.44L202.094 107.42C203.081 107.407 203.868 107.207 204.454 106.82C205.041 106.433 205.334 105.7 205.334 104.62C205.334 103.527 204.888 102.853 203.994 102.6ZM200.554 108.72L200.494 113.66L202.154 113.8C202.154 114.173 202.041 114.573 201.814 115H197.214L197.154 114.3C197.714 114.1 198.288 113.947 198.874 113.84C198.794 108.773 198.728 104.907 198.674 102.24C198.301 102.187 197.714 102.027 196.914 101.76C196.914 101.587 196.948 101.333 197.014 101H201.514C203.954 101 205.541 101.3 206.274 101.9C206.994 102.473 207.354 103.373 207.354 104.6C207.354 106.667 206.221 108.007 203.954 108.62L207.374 113.68L209.034 113.82C209.034 114.18 208.921 114.573 208.694 115H206.234L202.034 108.72H200.554ZM213.759 102.94C213.413 103.02 213.073 103.06 212.739 103.06C212.419 103.06 212.099 103.04 211.779 103C211.699 102.627 211.659 102.253 211.659 101.88C211.659 101.493 211.673 101.207 211.699 101.02C211.993 100.953 212.299 100.92 212.619 100.92C212.953 100.92 213.306 100.933 213.679 100.96C213.759 101.307 213.799 101.647 213.799 101.98C213.799 102.3 213.786 102.62 213.759 102.94ZM210.119 105.04C211.253 104.84 212.133 104.74 212.759 104.74C213.386 104.74 213.786 104.753 213.959 104.78C213.959 105.1 213.919 105.453 213.839 105.84C213.759 106.227 213.713 106.413 213.699 106.4L213.519 113.64L215.199 113.8C215.199 114.173 215.086 114.573 214.859 115H210.259L210.199 114.3C210.813 114.087 211.413 113.927 211.999 113.82C211.919 110.487 211.853 107.987 211.799 106.32C211.026 106.32 210.439 106.24 210.039 106.08L210.119 105.04ZM222.192 106.1C221.325 106.1 220.372 106.38 219.332 106.94C219.305 108.167 219.278 109.307 219.252 110.36C219.238 111.4 219.225 112.127 219.212 112.54C219.545 112.873 219.992 113.18 220.552 113.46C221.112 113.74 221.598 113.88 222.012 113.88C223.585 113.88 224.372 112.587 224.372 110C224.372 109.013 224.258 108.24 224.032 107.68C223.805 107.107 223.545 106.7 223.252 106.46C222.958 106.22 222.605 106.1 222.192 106.1ZM218.772 100.14C219.185 100.14 219.478 100.153 219.652 100.18C219.652 100.58 219.565 101.113 219.392 101.78C219.392 102.087 219.385 102.52 219.372 103.08C219.345 104.173 219.332 105.1 219.332 105.86C220.985 105.02 222.058 104.6 222.552 104.6C223.792 104.6 224.712 105.087 225.312 106.06C225.912 107.02 226.212 108.273 226.212 109.82C226.212 111.353 225.872 112.64 225.192 113.68C224.525 114.72 223.552 115.24 222.272 115.24C221.752 115.24 221.178 115.093 220.552 114.8C219.938 114.507 219.412 114.16 218.972 113.76C218.918 114.253 218.812 114.707 218.652 115.12C218.598 115.133 218.498 115.14 218.352 115.14C218.205 115.14 217.992 115.12 217.712 115.08L217.492 101.74C216.825 101.7 216.238 101.613 215.732 101.48L215.812 100.44C216.492 100.24 217.478 100.14 218.772 100.14ZM232.279 114.04C233.399 114.04 234.153 113.693 234.539 113C234.939 112.293 235.139 111.293 235.139 110C235.139 107.947 234.686 106.66 233.779 106.14C233.406 105.927 232.879 105.82 232.199 105.82C231.533 105.82 230.899 105.96 230.299 106.24C229.766 107.267 229.499 108.46 229.499 109.82C229.499 111.127 229.673 112.133 230.019 112.84C230.419 113.64 231.173 114.04 232.279 114.04ZM227.659 110C227.659 108.307 228.046 106.987 228.819 106.04C229.593 105.08 230.786 104.6 232.399 104.6C234.013 104.6 235.179 105.04 235.899 105.92C236.619 106.787 236.979 108.073 236.979 109.78C236.979 111.487 236.593 112.827 235.819 113.8C235.059 114.773 233.899 115.26 232.339 115.26C230.779 115.26 229.606 114.807 228.819 113.9C228.046 112.993 227.659 111.693 227.659 110ZM246.181 111.8C246.368 112.573 246.461 113.26 246.461 113.86C246.461 114.447 246.448 114.827 246.421 115H238.861C238.701 114.76 238.608 114.4 238.581 113.92L244.321 105.96H240.901L240.421 108.04C240.221 108.053 240.101 108.06 240.061 108.06L239.261 108C239.075 107.227 238.981 106.553 238.981 105.98C238.981 105.393 238.995 105.013 239.021 104.84H246.121C246.201 105.04 246.241 105.413 246.241 105.96L240.761 113.8H244.541L245.021 111.7L246.181 111.8ZM252.748 114.04C253.868 114.04 254.622 113.693 255.008 113C255.408 112.293 255.608 111.293 255.608 110C255.608 107.947 255.155 106.66 254.248 106.14C253.875 105.927 253.348 105.82 252.668 105.82C252.002 105.82 251.368 105.96 250.768 106.24C250.235 107.267 249.968 108.46 249.968 109.82C249.968 111.127 250.142 112.133 250.488 112.84C250.888 113.64 251.642 114.04 252.748 114.04ZM248.128 110C248.128 108.307 248.515 106.987 249.288 106.04C250.062 105.08 251.255 104.6 252.868 104.6C254.482 104.6 255.648 105.04 256.368 105.92C257.088 106.787 257.448 108.073 257.448 109.78C257.448 111.487 257.062 112.827 256.288 113.8C255.528 114.773 254.368 115.26 252.808 115.26C251.248 115.26 250.075 114.807 249.288 113.9C248.515 112.993 248.128 111.693 248.128 110ZM268.59 106.84C268.643 107.267 268.67 107.76 268.67 108.32C268.67 108.88 268.617 110.653 268.51 113.64L270.19 113.8C270.19 114.173 270.077 114.573 269.85 115H265.25L265.19 114.3C265.803 114.087 266.403 113.927 266.99 113.82C266.91 110.273 266.837 108.3 266.77 107.9C266.717 107.5 266.623 107.167 266.49 106.9C266.357 106.62 266.15 106.427 265.87 106.32C265.59 106.213 265.163 106.16 264.59 106.16C264.03 106.16 263.29 106.373 262.37 106.8C262.29 109.84 262.237 112.12 262.21 113.64L263.89 113.8C263.89 114.173 263.777 114.573 263.55 115H258.95L258.89 114.3C259.503 114.087 260.103 113.927 260.69 113.82C260.677 112.86 260.643 111.507 260.59 109.76C260.537 108 260.503 106.847 260.49 106.3C259.757 106.26 259.17 106.18 258.73 106.06L258.81 105.02C259.53 104.82 260.577 104.72 261.95 104.72C262.137 105.053 262.257 105.4 262.31 105.76C262.897 105.453 263.477 105.187 264.05 104.96C264.623 104.72 264.983 104.6 265.13 104.6C266.61 104.6 267.643 105.053 268.23 105.96C268.843 105.627 269.477 105.32 270.13 105.04C270.797 104.747 271.197 104.6 271.33 104.6C272.543 104.6 273.45 104.9 274.05 105.5C274.663 106.087 274.97 107.053 274.97 108.4C274.97 108.8 274.917 110.547 274.81 113.64L276.49 113.8C276.49 114.173 276.377 114.573 276.15 115H271.55L271.49 114.3C272.103 114.087 272.703 113.927 273.29 113.82C273.237 111.713 273.19 110.12 273.15 109.04C273.11 107.96 272.957 107.213 272.69 106.8C272.423 106.373 271.89 106.16 271.09 106.16C270.29 106.16 269.457 106.387 268.59 106.84Z" fill="white"/>
<path d="M73.8958 199.38L75.9958 210.64L77.8158 210.82C77.8158 211.18 77.7024 211.573 77.4758 212H72.8758L72.8158 211.3C73.2158 211.127 73.7091 210.987 74.2958 210.88L72.1558 199.66L69.5158 211.04H67.5358L63.8958 199.62L62.2758 210.64L63.9758 210.8C63.9758 211.173 63.8624 211.573 63.6358 212H59.0358L58.9758 211.3C59.5624 211.087 60.1491 210.927 60.7358 210.82L62.4958 199.22C61.6824 199.1 61.0358 198.96 60.5558 198.8L60.6358 198H65.2958L68.4758 208.96H68.5558L71.0358 198H75.4958C75.7224 198.427 75.8358 198.84 75.8358 199.24C74.9691 199.333 74.3224 199.38 73.8958 199.38ZM82.4294 199.94C82.0827 200.02 81.7427 200.06 81.4094 200.06C81.0894 200.06 80.7694 200.04 80.4494 200C80.3694 199.627 80.3294 199.253 80.3294 198.88C80.3294 198.493 80.3427 198.207 80.3694 198.02C80.6627 197.953 80.9694 197.92 81.2894 197.92C81.6227 197.92 81.976 197.933 82.3494 197.96C82.4294 198.307 82.4694 198.647 82.4694 198.98C82.4694 199.3 82.456 199.62 82.4294 199.94ZM78.7894 202.04C79.9227 201.84 80.8027 201.74 81.4294 201.74C82.056 201.74 82.456 201.753 82.6294 201.78C82.6294 202.1 82.5894 202.453 82.5094 202.84C82.4294 203.227 82.3827 203.413 82.3694 203.4L82.1894 210.64L83.8694 210.8C83.8694 211.173 83.756 211.573 83.5294 212H78.9294L78.8694 211.3C79.4827 211.087 80.0827 210.927 80.6694 210.82C80.5894 207.487 80.5227 204.987 80.4694 203.32C79.696 203.32 79.1094 203.24 78.7094 203.08L78.7894 202.04ZM86.4617 210.76L86.3017 203.22H84.7617L84.7017 202.52C84.8351 202.427 85.2217 202.253 85.8617 202L87.5017 199.44C87.7684 199.467 87.9751 199.533 88.1217 199.64L88.1017 201.84C89.1017 201.84 89.9217 201.907 90.5617 202.04C90.5617 202.4 90.4484 202.793 90.2217 203.22H88.0617C88.0351 204.82 88.0084 207.247 87.9817 210.5C88.7284 210.54 89.4751 210.673 90.2217 210.9L90.2017 211.6C90.0151 211.72 89.5351 211.86 88.7617 212.02C88.0017 212.18 87.3751 212.26 86.8817 212.26C86.8151 212.153 86.7284 211.927 86.6217 211.58C86.5151 211.22 86.4617 210.947 86.4617 210.76ZM96.5548 211.04C97.6748 211.04 98.4282 210.693 98.8148 210C99.2148 209.293 99.4148 208.293 99.4148 207C99.4148 204.947 98.9615 203.66 98.0548 203.14C97.6815 202.927 97.1548 202.82 96.4748 202.82C95.8082 202.82 95.1748 202.96 94.5748 203.24C94.0415 204.267 93.7748 205.46 93.7748 206.82C93.7748 208.127 93.9482 209.133 94.2948 209.84C94.6948 210.64 95.4482 211.04 96.5548 211.04ZM91.9348 207C91.9348 205.307 92.3215 203.987 93.0948 203.04C93.8682 202.08 95.0615 201.6 96.6748 201.6C98.2882 201.6 99.4548 202.04 100.175 202.92C100.895 203.787 101.255 205.073 101.255 206.78C101.255 208.487 100.868 209.827 100.095 210.8C99.3348 211.773 98.1748 212.26 96.6148 212.26C95.0548 212.26 93.8815 211.807 93.0948 210.9C92.3215 209.993 91.9348 208.693 91.9348 207ZM105.397 197.02C105.81 197.02 106.103 197.033 106.277 197.06C106.277 197.473 106.19 198.007 106.017 198.66C105.937 202.18 105.897 204.84 105.897 206.64L109.117 203.2L107.517 203.04C107.517 202.667 107.63 202.267 107.857 201.84H112.937L112.997 202.72C112.69 202.84 112.13 202.993 111.317 203.18L108.577 205.66L111.957 210.64L113.637 210.8C113.637 211.173 113.523 211.573 113.297 212H110.557L107.437 206.68L105.877 208.1C105.85 209.22 105.837 210.067 105.837 210.64L107.517 210.8C107.517 211.173 107.403 211.573 107.177 212H102.577L102.517 211.3C103.13 211.087 103.73 210.927 104.317 210.82C104.237 205.433 104.17 201.36 104.117 198.6C103.383 198.56 102.797 198.48 102.357 198.36L102.437 197.32C103.117 197.12 104.103 197.02 105.397 197.02ZM119.133 211.04C120.253 211.04 121.006 210.693 121.393 210C121.793 209.293 121.993 208.293 121.993 207C121.993 204.947 121.54 203.66 120.633 203.14C120.26 202.927 119.733 202.82 119.053 202.82C118.386 202.82 117.753 202.96 117.153 203.24C116.62 204.267 116.353 205.46 116.353 206.82C116.353 208.127 116.526 209.133 116.873 209.84C117.273 210.64 118.026 211.04 119.133 211.04ZM114.513 207C114.513 205.307 114.9 203.987 115.673 203.04C116.446 202.08 117.64 201.6 119.253 201.6C120.866 201.6 122.033 202.04 122.753 202.92C123.473 203.787 123.833 205.073 123.833 206.78C123.833 208.487 123.446 209.827 122.673 210.8C121.913 211.773 120.753 212.26 119.193 212.26C117.633 212.26 116.46 211.807 115.673 210.9C114.9 209.993 114.513 208.693 114.513 207ZM131.515 201.6C132.795 201.6 133.721 201.92 134.295 202.56C134.868 203.187 135.155 204.147 135.155 205.44C135.155 205.813 135.101 207.547 134.995 210.64L136.675 210.8C136.675 211.173 136.561 211.573 136.335 212H131.735L131.675 211.3C132.288 211.087 132.888 210.927 133.475 210.82C133.395 207.327 133.321 205.387 133.255 205C133.201 204.6 133.108 204.253 132.975 203.96C132.841 203.667 132.641 203.46 132.375 203.34C132.108 203.22 131.755 203.16 131.315 203.16C130.435 203.16 129.581 203.373 128.755 203.8C128.675 206.84 128.621 209.12 128.595 210.64L130.275 210.8C130.275 211.173 130.161 211.573 129.935 212H125.335L125.275 211.3C125.888 211.087 126.488 210.927 127.075 210.82C126.995 207.433 126.928 204.927 126.875 203.3C126.141 203.26 125.555 203.18 125.115 203.06L125.195 202.02C125.915 201.82 126.961 201.72 128.335 201.72C128.495 201.96 128.615 202.307 128.695 202.76C129.268 202.453 129.841 202.187 130.415 201.96C131.001 201.72 131.368 201.6 131.515 201.6ZM144.479 202.74L144.419 198.74C143.686 198.7 143.099 198.62 142.659 198.5L142.739 197.46C143.419 197.26 144.406 197.16 145.699 197.16C146.112 197.16 146.406 197.173 146.579 197.2C146.579 197.44 146.539 197.76 146.459 198.16C146.392 198.547 146.346 198.76 146.319 198.8L146.139 210.62C146.686 210.647 147.266 210.74 147.879 210.9L147.839 211.6C146.919 212.027 146.106 212.24 145.399 212.24C145.252 212.24 145.139 212.233 145.059 212.22C144.952 212.02 144.819 211.56 144.659 210.84C143.126 211.707 142.052 212.173 141.439 212.24C140.159 212.24 139.199 211.753 138.559 210.78C137.919 209.807 137.599 208.56 137.599 207.04C137.599 205.507 137.919 204.22 138.559 203.18C139.212 202.127 140.172 201.6 141.439 201.6C142.426 201.6 143.439 201.98 144.479 202.74ZM141.779 202.96C140.219 202.96 139.439 204.24 139.439 206.8C139.439 207.8 139.599 208.667 139.919 209.4C140.079 209.8 140.312 210.12 140.619 210.36C140.939 210.6 141.306 210.72 141.719 210.72C142.132 210.72 142.612 210.627 143.159 210.44C143.719 210.253 144.199 210.04 144.599 209.8L144.479 204.1C144.119 203.793 143.679 203.527 143.159 203.3C142.639 203.073 142.179 202.96 141.779 202.96ZM155.048 203.28C154.981 203.213 154.834 203.18 154.608 203.18C154.381 203.18 154.041 203.26 153.588 203.42C153.148 203.58 152.748 203.767 152.388 203.98C152.308 206.94 152.254 209.16 152.228 210.64L153.908 210.8C153.908 211.173 153.794 211.573 153.568 212H148.968L148.908 211.3C149.521 211.087 150.121 210.927 150.708 210.82C150.628 207.433 150.561 204.927 150.508 203.3C149.774 203.26 149.188 203.18 148.748 203.06L148.828 202.02C149.534 201.82 150.581 201.72 151.968 201.72C152.181 202.053 152.314 202.48 152.368 203C153.901 202.067 154.814 201.6 155.108 201.6C155.401 201.6 155.741 201.66 156.128 201.78C156.514 201.887 156.801 202.007 156.988 202.14C156.988 203.473 156.861 204.56 156.608 205.4C156.421 205.453 156.201 205.48 155.948 205.48C155.708 205.48 155.541 205.473 155.448 205.46L155.048 203.28ZM161.492 199.94C161.145 200.02 160.805 200.06 160.472 200.06C160.152 200.06 159.832 200.04 159.512 200C159.432 199.627 159.392 199.253 159.392 198.88C159.392 198.493 159.405 198.207 159.432 198.02C159.725 197.953 160.032 197.92 160.352 197.92C160.685 197.92 161.039 197.933 161.412 197.96C161.492 198.307 161.532 198.647 161.532 198.98C161.532 199.3 161.519 199.62 161.492 199.94ZM157.852 202.04C158.985 201.84 159.865 201.74 160.492 201.74C161.119 201.74 161.519 201.753 161.692 201.78C161.692 202.1 161.652 202.453 161.572 202.84C161.492 203.227 161.445 203.413 161.432 203.4L161.252 210.64L162.932 210.8C162.932 211.173 162.819 211.573 162.592 212H157.992L157.932 211.3C158.545 211.087 159.145 210.927 159.732 210.82C159.652 207.487 159.585 204.987 159.532 203.32C158.759 203.32 158.172 203.24 157.772 203.08L157.852 202.04Z" fill="white"/>
<path d="M66.8665 418.66C68.8532 418.66 69.8465 417.853 69.8465 416.24C69.8465 415.453 69.3598 414.787 68.3865 414.24C67.9465 413.987 67.4598 413.747 66.9265 413.52C66.4065 413.293 65.8798 413.047 65.3465 412.78C64.8132 412.513 64.3265 412.227 63.8865 411.92C63.4598 411.613 63.1065 411.227 62.8265 410.76C62.5598 410.293 62.4265 409.767 62.4265 409.18C62.4265 408.22 62.8132 407.407 63.5865 406.74C64.3732 406.06 65.4465 405.72 66.8065 405.72C68.1665 405.72 69.5998 406.133 71.1065 406.96C71.1065 407.72 71.0132 408.673 70.8265 409.82C70.5332 409.86 70.1465 409.88 69.6665 409.88L69.0665 407.56C68.9065 407.48 68.5865 407.4 68.1065 407.32C67.6398 407.24 67.2265 407.2 66.8665 407.2C66.0932 407.2 65.4932 407.367 65.0665 407.7C64.6398 408.02 64.4265 408.473 64.4265 409.06C64.4265 409.633 64.6732 410.153 65.1665 410.62C65.6732 411.073 66.2798 411.467 66.9865 411.8C67.7065 412.12 68.4198 412.453 69.1265 412.8C69.8465 413.147 70.4532 413.6 70.9465 414.16C71.4532 414.707 71.7065 415.347 71.7065 416.08C71.7065 417.413 71.2598 418.447 70.3665 419.18C69.4732 419.9 68.3065 420.26 66.8665 420.26C66.0798 420.26 65.2265 420.14 64.3065 419.9C63.3998 419.647 62.6465 419.327 62.0465 418.94C62.0732 418.047 62.1732 417.013 62.3465 415.84C62.6398 415.8 63.0265 415.78 63.5065 415.78L63.9265 418.18C64.2198 418.3 64.6598 418.413 65.2465 418.52C65.8465 418.613 66.3865 418.66 66.8665 418.66ZM78.4113 418.88C78.998 418.88 79.918 418.6 81.1713 418.04C81.4247 418.387 81.558 418.693 81.5713 418.96C80.8913 419.36 80.2247 419.673 79.5713 419.9C78.918 420.127 78.4513 420.24 78.1713 420.24C76.6247 420.24 75.4447 419.78 74.6313 418.86C73.818 417.927 73.4113 416.627 73.4113 414.96C73.4113 413.293 73.8047 411.987 74.5913 411.04C75.3913 410.08 76.5847 409.6 78.1713 409.6C79.398 409.6 80.3313 410.04 80.9713 410.92C81.6247 411.8 81.9513 412.98 81.9513 414.46C81.8447 414.647 81.758 414.773 81.6913 414.84L75.2513 414.74C75.2647 416.087 75.498 417.113 75.9513 417.82C76.418 418.527 77.238 418.88 78.4113 418.88ZM80.1313 413.6C80.1313 412.72 79.9713 412.04 79.6513 411.56C79.3313 411.067 78.798 410.82 78.0513 410.82C77.3047 410.82 76.638 410.96 76.0513 411.24C75.6513 412.04 75.398 412.86 75.2913 413.7C76.3447 413.687 77.958 413.653 80.1313 413.6ZM89.8057 409.6C91.0857 409.6 92.0124 409.92 92.5857 410.56C93.159 411.187 93.4457 412.147 93.4457 413.44C93.4457 413.813 93.3924 415.547 93.2857 418.64L94.9657 418.8C94.9657 419.173 94.8524 419.573 94.6257 420H90.0257L89.9657 419.3C90.579 419.087 91.179 418.927 91.7657 418.82C91.6857 415.327 91.6124 413.387 91.5457 413C91.4924 412.6 91.399 412.253 91.2657 411.96C91.1324 411.667 90.9324 411.46 90.6657 411.34C90.399 411.22 90.0457 411.16 89.6057 411.16C88.7257 411.16 87.8724 411.373 87.0457 411.8C86.9657 414.84 86.9124 417.12 86.8857 418.64L88.5657 418.8C88.5657 419.173 88.4524 419.573 88.2257 420H83.6257L83.5657 419.3C84.179 419.087 84.779 418.927 85.3657 418.82C85.2857 415.433 85.219 412.927 85.1657 411.3C84.4324 411.26 83.8457 411.18 83.4057 411.06L83.4857 410.02C84.2057 409.82 85.2524 409.72 86.6257 409.72C86.7857 409.96 86.9057 410.307 86.9857 410.76C87.559 410.453 88.1324 410.187 88.7057 409.96C89.2924 409.72 89.659 409.6 89.8057 409.6ZM97.3699 418.76L97.2099 411.22H95.6699L95.6099 410.52C95.7433 410.427 96.1299 410.253 96.7699 410L98.4099 407.44C98.6766 407.467 98.8833 407.533 99.0299 407.64L99.0099 409.84C100.01 409.84 100.83 409.907 101.47 410.04C101.47 410.4 101.357 410.793 101.13 411.22H98.9699C98.9433 412.82 98.9166 415.247 98.8899 418.5C99.6366 418.54 100.383 418.673 101.13 418.9L101.11 419.6C100.923 419.72 100.443 419.86 99.6699 420.02C98.9099 420.18 98.2833 420.26 97.7899 420.26C97.7233 420.153 97.6366 419.927 97.5299 419.58C97.4233 419.22 97.3699 418.947 97.3699 418.76ZM108.983 411.28C108.916 411.213 108.77 411.18 108.543 411.18C108.316 411.18 107.976 411.26 107.523 411.42C107.083 411.58 106.683 411.767 106.323 411.98C106.243 414.94 106.19 417.16 106.163 418.64L107.843 418.8C107.843 419.173 107.73 419.573 107.503 420H102.903L102.843 419.3C103.456 419.087 104.056 418.927 104.643 418.82C104.563 415.433 104.496 412.927 104.443 411.3C103.71 411.26 103.123 411.18 102.683 411.06L102.763 410.02C103.47 409.82 104.516 409.72 105.903 409.72C106.116 410.053 106.25 410.48 106.303 411C107.836 410.067 108.75 409.6 109.043 409.6C109.336 409.6 109.676 409.66 110.063 409.78C110.45 409.887 110.736 410.007 110.923 410.14C110.923 411.473 110.796 412.56 110.543 413.4C110.356 413.453 110.136 413.48 109.883 413.48C109.643 413.48 109.476 413.473 109.383 413.46L108.983 411.28ZM116.447 419.04C117.567 419.04 118.321 418.693 118.707 418C119.107 417.293 119.307 416.293 119.307 415C119.307 412.947 118.854 411.66 117.947 411.14C117.574 410.927 117.047 410.82 116.367 410.82C115.701 410.82 115.067 410.96 114.467 411.24C113.934 412.267 113.667 413.46 113.667 414.82C113.667 416.127 113.841 417.133 114.187 417.84C114.587 418.64 115.341 419.04 116.447 419.04ZM111.827 415C111.827 413.307 112.214 411.987 112.987 411.04C113.761 410.08 114.954 409.6 116.567 409.6C118.181 409.6 119.347 410.04 120.067 410.92C120.787 411.787 121.147 413.073 121.147 414.78C121.147 416.487 120.761 417.827 119.987 418.8C119.227 419.773 118.067 420.26 116.507 420.26C114.947 420.26 113.774 419.807 112.987 418.9C112.214 417.993 111.827 416.693 111.827 415ZM130.349 416.8C130.536 417.573 130.629 418.26 130.629 418.86C130.629 419.447 130.616 419.827 130.589 420H123.029C122.869 419.76 122.776 419.4 122.749 418.92L128.489 410.96H125.069L124.589 413.04C124.389 413.053 124.269 413.06 124.229 413.06L123.429 413C123.242 412.227 123.149 411.553 123.149 410.98C123.149 410.393 123.162 410.013 123.189 409.84H130.289C130.369 410.04 130.409 410.413 130.409 410.96L124.929 418.8H128.709L129.189 416.7L130.349 416.8ZM136.916 419.04C138.036 419.04 138.79 418.693 139.176 418C139.576 417.293 139.776 416.293 139.776 415C139.776 412.947 139.323 411.66 138.416 411.14C138.043 410.927 137.516 410.82 136.836 410.82C136.17 410.82 135.536 410.96 134.936 411.24C134.403 412.267 134.136 413.46 134.136 414.82C134.136 416.127 134.31 417.133 134.656 417.84C135.056 418.64 135.81 419.04 136.916 419.04ZM132.296 415C132.296 413.307 132.683 411.987 133.456 411.04C134.23 410.08 135.423 409.6 137.036 409.6C138.65 409.6 139.816 410.04 140.536 410.92C141.256 411.787 141.616 413.073 141.616 414.78C141.616 416.487 141.23 417.827 140.456 418.8C139.696 419.773 138.536 420.26 136.976 420.26C135.416 420.26 134.243 419.807 133.456 418.9C132.683 417.993 132.296 416.693 132.296 415ZM152.758 411.84C152.811 412.267 152.838 412.76 152.838 413.32C152.838 413.88 152.785 415.653 152.678 418.64L154.358 418.8C154.358 419.173 154.245 419.573 154.018 420H149.418L149.358 419.3C149.971 419.087 150.571 418.927 151.158 418.82C151.078 415.273 151.005 413.3 150.938 412.9C150.885 412.5 150.791 412.167 150.658 411.9C150.525 411.62 150.318 411.427 150.038 411.32C149.758 411.213 149.331 411.16 148.758 411.16C148.198 411.16 147.458 411.373 146.538 411.8C146.458 414.84 146.405 417.12 146.378 418.64L148.058 418.8C148.058 419.173 147.945 419.573 147.718 420H143.118L143.058 419.3C143.671 419.087 144.271 418.927 144.858 418.82C144.845 417.86 144.811 416.507 144.758 414.76C144.705 413 144.671 411.847 144.658 411.3C143.925 411.26 143.338 411.18 142.898 411.06L142.978 410.02C143.698 409.82 144.745 409.72 146.118 409.72C146.305 410.053 146.425 410.4 146.478 410.76C147.065 410.453 147.645 410.187 148.218 409.96C148.791 409.72 149.151 409.6 149.298 409.6C150.778 409.6 151.811 410.053 152.398 410.96C153.011 410.627 153.645 410.32 154.298 410.04C154.965 409.747 155.365 409.6 155.498 409.6C156.711 409.6 157.618 409.9 158.218 410.5C158.831 411.087 159.138 412.053 159.138 413.4C159.138 413.8 159.085 415.547 158.978 418.64L160.658 418.8C160.658 419.173 160.545 419.573 160.318 420H155.718L155.658 419.3C156.271 419.087 156.871 418.927 157.458 418.82C157.405 416.713 157.358 415.12 157.318 414.04C157.278 412.96 157.125 412.213 156.858 411.8C156.591 411.373 156.058 411.16 155.258 411.16C154.458 411.16 153.625 411.387 152.758 411.84Z" fill="white"/>
<path d="M186.59 291.642L186.5 295.98H189.344L189.488 294.684C189.824 294.684 190.184 294.786 190.568 294.99V298.41L189.938 298.464C189.758 297.948 189.638 297.516 189.578 297.168H186.5C186.476 298.212 186.452 299.754 186.428 301.794H190.55L190.982 300.102L192.026 300.174C192.194 300.858 192.278 301.464 192.278 301.992C192.278 302.508 192.266 302.844 192.242 303H183.494L183.44 302.37C183.968 302.178 184.478 302.04 184.97 301.956C184.898 297.276 184.838 293.796 184.79 291.516C184.526 291.492 183.998 291.348 183.206 291.084L183.296 290.4H191.972C191.996 290.556 192.008 290.796 192.008 291.12C192.008 291.78 191.924 292.494 191.756 293.262C191.492 293.322 191.144 293.352 190.712 293.352L190.28 291.642H186.59ZM199.635 293.64C200.787 293.64 201.621 293.928 202.137 294.504C202.653 295.068 202.911 295.932 202.911 297.096C202.911 297.432 202.863 298.992 202.767 301.776L204.279 301.92C204.279 302.256 204.177 302.616 203.973 303H199.833L199.779 302.37C200.331 302.178 200.871 302.034 201.399 301.938C201.327 298.794 201.261 297.048 201.201 296.7C201.153 296.34 201.069 296.028 200.949 295.764C200.829 295.5 200.649 295.314 200.409 295.206C200.169 295.098 199.851 295.044 199.455 295.044C198.663 295.044 197.895 295.236 197.151 295.62C197.079 298.356 197.031 300.408 197.007 301.776L198.519 301.92C198.519 302.256 198.417 302.616 198.213 303H194.073L194.019 302.37C194.571 302.178 195.111 302.034 195.639 301.938C195.567 298.89 195.507 296.634 195.459 295.17C194.799 295.134 194.271 295.062 193.875 294.954L193.947 294.018C194.595 293.838 195.537 293.748 196.773 293.748C196.917 293.964 197.025 294.276 197.097 294.684C197.613 294.408 198.129 294.168 198.645 293.964C199.173 293.748 199.503 293.64 199.635 293.64ZM211.303 294.666L211.249 291.066C210.589 291.03 210.061 290.958 209.665 290.85L209.737 289.914C210.349 289.734 211.237 289.644 212.401 289.644C212.773 289.644 213.037 289.656 213.193 289.68C213.193 289.896 213.157 290.184 213.085 290.544C213.025 290.892 212.983 291.084 212.959 291.12L212.797 301.758C213.289 301.782 213.811 301.866 214.363 302.01L214.327 302.64C213.499 303.024 212.767 303.216 212.131 303.216C211.999 303.216 211.897 303.21 211.825 303.198C211.729 303.018 211.609 302.604 211.465 301.956C210.085 302.736 209.119 303.156 208.567 303.216C207.415 303.216 206.551 302.778 205.975 301.902C205.399 301.026 205.111 299.904 205.111 298.536C205.111 297.156 205.399 295.998 205.975 295.062C206.563 294.114 207.427 293.64 208.567 293.64C209.455 293.64 210.367 293.982 211.303 294.666ZM208.873 294.864C207.469 294.864 206.767 296.016 206.767 298.32C206.767 299.22 206.911 300 207.199 300.66C207.343 301.02 207.553 301.308 207.829 301.524C208.117 301.74 208.447 301.848 208.819 301.848C209.191 301.848 209.623 301.764 210.115 301.596C210.619 301.428 211.051 301.236 211.411 301.02L211.303 295.89C210.979 295.614 210.583 295.374 210.115 295.17C209.647 294.966 209.233 294.864 208.873 294.864ZM219.447 302.136C220.455 302.136 221.133 301.824 221.481 301.2C221.841 300.564 222.021 299.664 222.021 298.5C222.021 296.652 221.613 295.494 220.797 295.026C220.461 294.834 219.987 294.738 219.375 294.738C218.775 294.738 218.205 294.864 217.665 295.116C217.185 296.04 216.945 297.114 216.945 298.338C216.945 299.514 217.101 300.42 217.413 301.056C217.773 301.776 218.451 302.136 219.447 302.136ZM215.289 298.5C215.289 296.976 215.637 295.788 216.333 294.936C217.029 294.072 218.103 293.64 219.555 293.64C221.007 293.64 222.057 294.036 222.705 294.828C223.353 295.608 223.677 296.766 223.677 298.302C223.677 299.838 223.329 301.044 222.633 301.92C221.949 302.796 220.905 303.234 219.501 303.234C218.097 303.234 217.041 302.826 216.333 302.01C215.637 301.194 215.289 300.024 215.289 298.5ZM227.8 302.082L227.71 305.934L229.276 306.06C229.276 306.396 229.174 306.756 228.97 307.14H224.794L224.74 306.51C225.292 306.33 225.832 306.192 226.36 306.096C226.288 301.2 226.228 297.558 226.18 295.17C225.64 295.158 225.112 295.086 224.596 294.954L224.668 294.018C225.364 293.838 226.336 293.748 227.584 293.748C227.692 293.94 227.794 294.294 227.89 294.81C229.426 294.03 230.398 293.64 230.806 293.64C231.922 293.64 232.75 294.078 233.29 294.954C233.83 295.818 234.1 296.946 234.1 298.338C234.1 299.718 233.794 300.876 233.182 301.812C232.582 302.748 231.706 303.216 230.554 303.216C230.122 303.216 229.648 303.108 229.132 302.892C228.628 302.676 228.184 302.406 227.8 302.082ZM230.482 294.99C229.738 294.99 228.874 295.254 227.89 295.782C227.866 298.014 227.842 299.688 227.818 300.804C228.118 301.104 228.514 301.38 229.006 301.632C229.51 301.872 229.948 301.992 230.32 301.992C231.736 301.992 232.444 300.828 232.444 298.5C232.444 297.612 232.342 296.916 232.138 296.412C231.934 295.896 231.7 295.53 231.436 295.314C231.172 295.098 230.854 294.99 230.482 294.99ZM237.828 289.626C238.2 289.626 238.464 289.638 238.62 289.662C238.62 290.082 238.542 290.562 238.386 291.102C238.278 298.182 238.224 301.74 238.224 301.776L239.736 301.92C239.736 302.256 239.634 302.616 239.43 303H235.29L235.236 302.37C235.788 302.178 236.328 302.034 236.856 301.938L236.676 291.048C236.016 291.012 235.488 290.94 235.092 290.832L235.164 289.896C235.776 289.716 236.664 289.626 237.828 289.626ZM247.943 297.114L247.853 301.758C248.369 301.794 248.885 301.878 249.401 302.01L249.365 302.64C249.173 302.736 248.825 302.844 248.321 302.964C247.829 303.072 247.343 303.126 246.863 303.126C246.647 302.694 246.527 302.28 246.503 301.884C245.135 302.784 244.175 303.234 243.623 303.234C242.771 303.234 242.087 303.006 241.571 302.55C241.055 302.094 240.797 301.458 240.797 300.642C240.797 298.758 241.949 297.786 244.253 297.726C245.597 297.69 246.275 297.672 246.287 297.672L246.269 297.06C246.245 296.232 246.089 295.638 245.801 295.278C245.513 294.906 244.997 294.72 244.253 294.72C243.941 294.72 243.605 294.792 243.245 294.936L242.813 296.736C242.753 296.748 242.651 296.754 242.507 296.754L241.769 296.7C241.577 296.184 241.475 295.47 241.463 294.558C241.691 294.438 242.213 294.258 243.029 294.018C243.845 293.766 244.367 293.64 244.595 293.64C245.819 293.64 246.683 293.91 247.187 294.45C247.691 294.99 247.943 295.878 247.943 297.114ZM244.019 302.01C244.367 302.01 245.171 301.62 246.431 300.84L246.341 298.59C245.525 298.662 244.841 298.728 244.289 298.788C243.737 298.848 243.293 299.01 242.957 299.274C242.621 299.526 242.453 299.928 242.453 300.48C242.453 301.5 242.975 302.01 244.019 302.01ZM257.394 300.12C257.562 300.816 257.646 301.434 257.646 301.974C257.646 302.502 257.634 302.844 257.61 303H250.806C250.662 302.784 250.578 302.46 250.554 302.028L255.72 294.864H252.642L252.21 296.736C252.03 296.748 251.922 296.754 251.886 296.754L251.166 296.7C250.998 296.004 250.914 295.398 250.914 294.882C250.914 294.354 250.926 294.012 250.95 293.856H257.34C257.412 294.036 257.448 294.372 257.448 294.864L252.516 301.92H255.918L256.35 300.03L257.394 300.12ZM267.876 295.656C267.924 296.04 267.948 296.484 267.948 296.988C267.948 297.492 267.9 299.088 267.804 301.776L269.316 301.92C269.316 302.256 269.214 302.616 269.01 303H264.87L264.816 302.37C265.368 302.178 265.908 302.034 266.436 301.938C266.364 298.746 266.298 296.97 266.238 296.61C266.19 296.25 266.106 295.95 265.986 295.71C265.866 295.458 265.68 295.284 265.428 295.188C265.176 295.092 264.792 295.044 264.276 295.044C263.772 295.044 263.106 295.236 262.278 295.62C262.206 298.356 262.158 300.408 262.134 301.776L263.646 301.92C263.646 302.256 263.544 302.616 263.34 303H259.2L259.146 302.37C259.698 302.178 260.238 302.034 260.766 301.938C260.754 301.074 260.724 299.856 260.676 298.284C260.628 296.7 260.598 295.662 260.586 295.17C259.926 295.134 259.398 295.062 259.002 294.954L259.074 294.018C259.722 293.838 260.664 293.748 261.9 293.748C262.068 294.048 262.176 294.36 262.224 294.684C262.752 294.408 263.274 294.168 263.79 293.964C264.306 293.748 264.63 293.64 264.762 293.64C266.094 293.64 267.024 294.048 267.552 294.864C268.104 294.564 268.674 294.288 269.262 294.036C269.862 293.772 270.222 293.64 270.342 293.64C271.434 293.64 272.25 293.91 272.79 294.45C273.342 294.978 273.618 295.848 273.618 297.06C273.618 297.42 273.57 298.992 273.474 301.776L274.986 301.92C274.986 302.256 274.884 302.616 274.68 303H270.54L270.486 302.37C271.038 302.178 271.578 302.034 272.106 301.938C272.058 300.042 272.016 298.608 271.98 297.636C271.944 296.664 271.806 295.992 271.566 295.62C271.326 295.236 270.846 295.044 270.126 295.044C269.406 295.044 268.656 295.248 267.876 295.656ZM279.05 292.146C278.738 292.218 278.432 292.254 278.132 292.254C277.844 292.254 277.556 292.236 277.268 292.2C277.196 291.864 277.16 291.528 277.16 291.192C277.16 290.844 277.172 290.586 277.196 290.418C277.46 290.358 277.736 290.328 278.024 290.328C278.324 290.328 278.642 290.34 278.978 290.364C279.05 290.676 279.086 290.982 279.086 291.282C279.086 291.57 279.074 291.858 279.05 292.146ZM275.774 294.036C276.794 293.856 277.586 293.766 278.15 293.766C278.714 293.766 279.074 293.778 279.23 293.802C279.23 294.09 279.194 294.408 279.122 294.756C279.05 295.104 279.008 295.272 278.996 295.26L278.834 301.776L280.346 301.92C280.346 302.256 280.244 302.616 280.04 303H275.9L275.846 302.37C276.398 302.178 276.938 302.034 277.466 301.938C277.394 298.938 277.334 296.688 277.286 295.188C276.59 295.188 276.062 295.116 275.702 294.972L275.774 294.036ZM283.777 289.518C284.149 289.518 284.413 289.53 284.569 289.554C284.569 289.926 284.491 290.406 284.335 290.994C284.263 294.162 284.227 296.556 284.227 298.176L287.125 295.08L285.685 294.936C285.685 294.6 285.787 294.24 285.991 293.856H290.563L290.617 294.648C290.341 294.756 289.837 294.894 289.105 295.062L286.639 297.294L289.681 301.776L291.193 301.92C291.193 302.256 291.091 302.616 290.887 303H288.421L285.613 298.212L284.209 299.49C284.185 300.498 284.173 301.26 284.173 301.776L285.685 301.92C285.685 302.256 285.583 302.616 285.379 303H281.239L281.185 302.37C281.737 302.178 282.277 302.034 282.805 301.938C282.733 297.09 282.673 293.424 282.625 290.94C281.965 290.904 281.437 290.832 281.041 290.724L281.113 289.788C281.725 289.608 282.613 289.518 283.777 289.518ZM200.494 314.84C200.11 314.72 199.6 314.66 198.964 314.66H197.47L197.416 319.196L198.784 319.178C199.672 319.166 200.38 318.986 200.908 318.638C201.436 318.29 201.7 317.63 201.7 316.658C201.7 315.674 201.298 315.068 200.494 314.84ZM197.398 320.348L197.344 324.794L198.838 324.92C198.838 325.256 198.736 325.616 198.532 326H194.392L194.338 325.37C194.842 325.19 195.358 325.052 195.886 324.956C195.814 320.396 195.754 316.916 195.706 314.516C195.37 314.468 194.842 314.324 194.122 314.084C194.122 313.928 194.152 313.7 194.212 313.4H198.262C200.458 313.4 201.886 313.67 202.546 314.21C203.194 314.726 203.518 315.536 203.518 316.64C203.518 318.5 202.498 319.706 200.458 320.258L203.536 324.812L205.03 324.938C205.03 325.262 204.928 325.616 204.724 326H202.51L198.73 320.348H197.398ZM210.615 324.992C211.143 324.992 211.971 324.74 213.099 324.236C213.327 324.548 213.447 324.824 213.459 325.064C212.847 325.424 212.247 325.706 211.659 325.91C211.071 326.114 210.651 326.216 210.399 326.216C209.007 326.216 207.945 325.802 207.213 324.974C206.481 324.134 206.115 322.964 206.115 321.464C206.115 319.964 206.469 318.788 207.177 317.936C207.897 317.072 208.971 316.64 210.399 316.64C211.503 316.64 212.343 317.036 212.919 317.828C213.507 318.62 213.801 319.682 213.801 321.014C213.705 321.182 213.627 321.296 213.567 321.356L207.771 321.266C207.783 322.478 207.993 323.402 208.401 324.038C208.821 324.674 209.559 324.992 210.615 324.992ZM212.163 320.24C212.163 319.448 212.019 318.836 211.731 318.404C211.443 317.96 210.963 317.738 210.291 317.738C209.619 317.738 209.019 317.864 208.491 318.116C208.131 318.836 207.903 319.574 207.807 320.33C208.755 320.318 210.207 320.288 212.163 320.24ZM216.585 324.884L216.441 318.098H215.055L215.001 317.468C215.121 317.384 215.469 317.228 216.045 317L217.521 314.696C217.761 314.72 217.947 314.78 218.079 314.876L218.061 316.856C218.961 316.856 219.699 316.916 220.275 317.036C220.275 317.36 220.173 317.714 219.969 318.098H218.025C218.001 319.538 217.977 321.722 217.953 324.65C218.625 324.686 219.297 324.806 219.969 325.01L219.951 325.64C219.783 325.748 219.351 325.874 218.655 326.018C217.971 326.162 217.407 326.234 216.963 326.234C216.903 326.138 216.825 325.934 216.729 325.622C216.633 325.298 216.585 325.052 216.585 324.884ZM224.751 315.146C224.439 315.218 224.133 315.254 223.833 315.254C223.545 315.254 223.257 315.236 222.969 315.2C222.897 314.864 222.861 314.528 222.861 314.192C222.861 313.844 222.873 313.586 222.897 313.418C223.161 313.358 223.437 313.328 223.725 313.328C224.025 313.328 224.343 313.34 224.679 313.364C224.751 313.676 224.787 313.982 224.787 314.282C224.787 314.57 224.775 314.858 224.751 315.146ZM221.475 317.036C222.495 316.856 223.287 316.766 223.851 316.766C224.415 316.766 224.775 316.778 224.931 316.802C224.931 317.09 224.895 317.408 224.823 317.756C224.751 318.104 224.709 318.272 224.697 318.26L224.535 324.776L226.047 324.92C226.047 325.256 225.945 325.616 225.741 326H221.601L221.547 325.37C222.099 325.178 222.639 325.034 223.167 324.938C223.095 321.938 223.035 319.688 222.987 318.188C222.291 318.188 221.763 318.116 221.403 317.972L221.475 317.036ZM229.478 312.518C229.85 312.518 230.114 312.53 230.27 312.554C230.27 312.926 230.192 313.406 230.036 313.994C229.964 317.162 229.928 319.556 229.928 321.176L232.826 318.08L231.386 317.936C231.386 317.6 231.488 317.24 231.692 316.856H236.264L236.318 317.648C236.042 317.756 235.538 317.894 234.806 318.062L232.34 320.294L235.382 324.776L236.894 324.92C236.894 325.256 236.792 325.616 236.588 326H234.122L231.314 321.212L229.91 322.49C229.886 323.498 229.874 324.26 229.874 324.776L231.386 324.92C231.386 325.256 231.284 325.616 231.08 326H226.94L226.886 325.37C227.438 325.178 227.978 325.034 228.506 324.938C228.434 320.09 228.374 316.424 228.326 313.94C227.666 313.904 227.138 313.832 226.742 313.724L226.814 312.788C227.426 312.608 228.314 312.518 229.478 312.518ZM242.327 324.812C242.675 324.812 243.065 324.74 243.497 324.596C243.929 324.44 244.283 324.254 244.559 324.038C244.511 321.482 244.469 319.544 244.433 318.224C243.689 318.224 243.137 318.152 242.777 318.008L242.849 317.072C243.869 316.892 244.667 316.802 245.243 316.802C245.831 316.802 246.203 316.814 246.359 316.838C246.359 317.054 246.323 317.342 246.251 317.702C246.191 318.062 246.149 318.26 246.125 318.296L245.909 324.722C246.545 324.758 247.061 324.83 247.457 324.938L247.421 325.856C246.893 326.024 246.383 326.108 245.891 326.108C245.399 326.108 245.099 326.102 244.991 326.09C244.763 325.634 244.631 325.214 244.595 324.83C244.007 325.274 243.461 325.616 242.957 325.856C242.465 326.096 242.141 326.216 241.985 326.216C240.929 326.216 240.161 325.934 239.681 325.37C239.213 324.794 238.979 323.954 238.979 322.85C238.979 322.838 239.033 321.302 239.141 318.242C238.445 318.242 237.803 318.164 237.215 318.008L237.287 317.072C238.307 316.892 239.099 316.802 239.663 316.802C240.227 316.802 240.587 316.814 240.743 316.838C240.743 317.126 240.707 317.444 240.635 317.792C240.563 318.14 240.521 318.308 240.509 318.296L240.527 322.184C240.527 323.096 240.641 323.762 240.869 324.182C241.097 324.602 241.583 324.812 242.327 324.812ZM250.818 312.626C251.19 312.626 251.454 312.638 251.61 312.662C251.61 313.082 251.532 313.562 251.376 314.102C251.268 321.182 251.214 324.74 251.214 324.776L252.726 324.92C252.726 325.256 252.624 325.616 252.42 326H248.28L248.226 325.37C248.778 325.178 249.318 325.034 249.846 324.938L249.666 314.048C249.006 314.012 248.478 313.94 248.082 313.832L248.154 312.896C248.766 312.716 249.654 312.626 250.818 312.626ZM258.341 324.812C258.689 324.812 259.079 324.74 259.511 324.596C259.943 324.44 260.297 324.254 260.573 324.038C260.525 321.482 260.483 319.544 260.447 318.224C259.703 318.224 259.151 318.152 258.791 318.008L258.863 317.072C259.883 316.892 260.681 316.802 261.257 316.802C261.845 316.802 262.217 316.814 262.373 316.838C262.373 317.054 262.337 317.342 262.265 317.702C262.205 318.062 262.163 318.26 262.139 318.296L261.923 324.722C262.559 324.758 263.075 324.83 263.471 324.938L263.435 325.856C262.907 326.024 262.397 326.108 261.905 326.108C261.413 326.108 261.113 326.102 261.005 326.09C260.777 325.634 260.645 325.214 260.609 324.83C260.021 325.274 259.475 325.616 258.971 325.856C258.479 326.096 258.155 326.216 257.999 326.216C256.943 326.216 256.175 325.934 255.695 325.37C255.227 324.794 254.993 323.954 254.993 322.85C254.993 322.838 255.047 321.302 255.155 318.242C254.459 318.242 253.817 318.164 253.229 318.008L253.301 317.072C254.321 316.892 255.113 316.802 255.677 316.802C256.241 316.802 256.601 316.814 256.757 316.838C256.757 317.126 256.721 317.444 256.649 317.792C256.577 318.14 256.535 318.308 256.523 318.296L256.541 322.184C256.541 323.096 256.655 323.762 256.883 324.182C257.111 324.602 257.597 324.812 258.341 324.812ZM273.132 318.656C273.18 319.04 273.204 319.484 273.204 319.988C273.204 320.492 273.156 322.088 273.06 324.776L274.572 324.92C274.572 325.256 274.47 325.616 274.266 326H270.126L270.072 325.37C270.624 325.178 271.164 325.034 271.692 324.938C271.62 321.746 271.554 319.97 271.494 319.61C271.446 319.25 271.362 318.95 271.242 318.71C271.122 318.458 270.936 318.284 270.684 318.188C270.432 318.092 270.048 318.044 269.532 318.044C269.028 318.044 268.362 318.236 267.534 318.62C267.462 321.356 267.414 323.408 267.39 324.776L268.902 324.92C268.902 325.256 268.8 325.616 268.596 326H264.456L264.402 325.37C264.954 325.178 265.494 325.034 266.022 324.938C266.01 324.074 265.98 322.856 265.932 321.284C265.884 319.7 265.854 318.662 265.842 318.17C265.182 318.134 264.654 318.062 264.258 317.954L264.33 317.018C264.978 316.838 265.92 316.748 267.156 316.748C267.324 317.048 267.432 317.36 267.48 317.684C268.008 317.408 268.53 317.168 269.046 316.964C269.562 316.748 269.886 316.64 270.018 316.64C271.35 316.64 272.28 317.048 272.808 317.864C273.36 317.564 273.93 317.288 274.518 317.036C275.118 316.772 275.478 316.64 275.598 316.64C276.69 316.64 277.506 316.91 278.046 317.45C278.598 317.978 278.874 318.848 278.874 320.06C278.874 320.42 278.826 321.992 278.73 324.776L280.242 324.92C280.242 325.256 280.14 325.616 279.936 326H275.796L275.742 325.37C276.294 325.178 276.834 325.034 277.362 324.938C277.314 323.042 277.272 321.608 277.236 320.636C277.2 319.664 277.062 318.992 276.822 318.62C276.582 318.236 276.102 318.044 275.382 318.044C274.662 318.044 273.912 318.248 273.132 318.656Z" fill="white"/>
<path d="M44.8572 110.7L44.7972 113.64L46.4772 113.8C46.4772 114.173 46.3639 114.573 46.1372 115H41.5372L41.4772 114.3C42.1039 114.087 42.7172 113.927 43.3172 113.82C43.1839 108.647 43.0772 104.767 42.9972 102.18C42.5039 102.087 41.9105 101.927 41.2172 101.7L41.2772 101H46.2772C46.5039 101.427 46.6172 101.827 46.6172 102.2C45.9505 102.253 45.4172 102.28 45.0172 102.28C44.9905 103.667 44.9639 104.92 44.9372 106.04C44.9239 107.16 44.9105 107.947 44.8972 108.4L49.6772 102.36L48.0772 102.2C48.0772 101.827 48.1905 101.427 48.4172 101H53.4972L53.5572 101.88C52.9439 102.093 52.3439 102.253 51.7572 102.36L47.8172 107.1L52.4172 113.64L54.0972 113.8C54.0972 114.173 53.9839 114.573 53.7572 115H51.2572L46.7172 108.46L44.8572 110.7ZM59.8048 114.04C60.9248 114.04 61.6782 113.693 62.0648 113C62.4648 112.293 62.6648 111.293 62.6648 110C62.6648 107.947 62.2115 106.66 61.3048 106.14C60.9315 105.927 60.4048 105.82 59.7248 105.82C59.0582 105.82 58.4248 105.96 57.8248 106.24C57.2915 107.267 57.0248 108.46 57.0248 109.82C57.0248 111.127 57.1982 112.133 57.5448 112.84C57.9448 113.64 58.6982 114.04 59.8048 114.04ZM55.1848 110C55.1848 108.307 55.5715 106.987 56.3448 106.04C57.1182 105.08 58.3115 104.6 59.9248 104.6C61.5382 104.6 62.7048 105.04 63.4248 105.92C64.1448 106.787 64.5048 108.073 64.5048 109.78C64.5048 111.487 64.1182 112.827 63.3448 113.8C62.5848 114.773 61.4248 115.26 59.8648 115.26C58.3048 115.26 57.1315 114.807 56.3448 113.9C55.5715 112.993 55.1848 111.693 55.1848 110ZM72.6266 103.26L72.3066 103.24H72.2266L71.6066 101.28C71.3132 101.227 71.0532 101.2 70.8266 101.2C70.1732 101.2 69.7132 101.453 69.4466 101.96C69.1932 102.467 69.0666 103.353 69.0666 104.62V104.86H69.3666C70.2866 104.86 70.9932 104.913 71.4866 105.02C71.4999 105.02 71.5266 105.027 71.5666 105.04C71.5532 105.427 71.4399 105.82 71.2266 106.22H68.9466V113.64H69.2466C69.7666 113.64 70.2266 113.667 70.6266 113.72C71.0266 113.773 71.2399 113.813 71.2666 113.84C71.2666 114.187 71.1532 114.573 70.9266 115H65.6866L65.6266 114.3C66.2399 114.087 66.7999 113.927 67.3066 113.82V106.22H65.7666L65.7066 105.52C66.1866 105.333 66.7199 105.187 67.3066 105.08V104.26C67.3066 102.753 67.5866 101.653 68.1466 100.96C68.3732 100.693 68.6932 100.473 69.1066 100.3C69.5199 100.113 69.9999 100.02 70.5466 100.02C71.6132 100.02 72.6266 100.253 73.5866 100.72C73.5866 101.547 73.5066 102.373 73.3466 103.2C73.1999 103.24 72.9599 103.26 72.6266 103.26ZM78.4698 113.68C78.8565 113.68 79.2898 113.6 79.7698 113.44C80.2498 113.267 80.6432 113.06 80.9498 112.82C80.8965 109.98 80.8498 107.827 80.8098 106.36C79.9832 106.36 79.3698 106.28 78.9698 106.12L79.0498 105.08C80.1832 104.88 81.0698 104.78 81.7098 104.78C82.3632 104.78 82.7765 104.793 82.9498 104.82C82.9498 105.06 82.9098 105.38 82.8298 105.78C82.7632 106.18 82.7165 106.4 82.6898 106.44L82.4498 113.58C83.1565 113.62 83.7298 113.7 84.1698 113.82L84.1298 114.84C83.5432 115.027 82.9765 115.12 82.4298 115.12C81.8832 115.12 81.5498 115.113 81.4298 115.1C81.1765 114.593 81.0298 114.127 80.9898 113.7C80.3365 114.193 79.7298 114.573 79.1698 114.84C78.6232 115.107 78.2632 115.24 78.0898 115.24C76.9165 115.24 76.0632 114.927 75.5298 114.3C75.0098 113.66 74.7498 112.727 74.7498 111.5C74.7498 111.487 74.8098 109.78 74.9298 106.38C74.1565 106.38 73.4432 106.293 72.7898 106.12L72.8698 105.08C74.0032 104.88 74.8832 104.78 75.5098 104.78C76.1365 104.78 76.5365 104.793 76.7098 104.82C76.7098 105.14 76.6698 105.493 76.5898 105.88C76.5098 106.267 76.4632 106.453 76.4498 106.44L76.4698 110.76C76.4698 111.773 76.5965 112.513 76.8498 112.98C77.1032 113.447 77.6432 113.68 78.4698 113.68ZM87.9044 100.14C88.3177 100.14 88.611 100.153 88.7844 100.18C88.7844 100.647 88.6977 101.18 88.5244 101.78C88.4044 109.647 88.3444 113.6 88.3444 113.64L90.0244 113.8C90.0244 114.173 89.911 114.573 89.6844 115H85.0844L85.0244 114.3C85.6377 114.087 86.2377 113.927 86.8244 113.82L86.6244 101.72C85.891 101.68 85.3044 101.6 84.8644 101.48L84.9444 100.44C85.6244 100.24 86.611 100.14 87.9044 100.14Z" fill="black"/>
<path d="M257.04 212.26C255.253 212.26 253.826 211.647 252.76 210.42C251.693 209.193 251.16 207.38 251.16 204.98C251.16 202.567 251.62 200.76 252.54 199.56C253.473 198.347 254.92 197.74 256.88 197.74C258.853 197.74 260.513 198.233 261.86 199.22C261.86 199.9 261.766 200.707 261.58 201.64C261.286 201.693 260.9 201.72 260.42 201.72L259.98 199.66C259.22 199.407 258.286 199.28 257.18 199.28C256.446 199.28 255.44 199.48 254.16 199.88C254.08 200.027 253.98 200.233 253.86 200.5C253.74 200.753 253.58 201.3 253.38 202.14C253.193 202.967 253.1 203.8 253.1 204.64C253.1 208.733 254.426 210.78 257.08 210.78C258.48 210.78 259.56 210.527 260.32 210.02C260.373 208.34 260.406 207.08 260.42 206.24L258.48 205.76L258.54 205.06H263.14C263.366 205.487 263.48 205.887 263.48 206.26C262.96 206.34 262.4 206.393 261.8 206.42C261.88 208.66 261.92 210.207 261.92 211.06C261.586 211.287 260.92 211.547 259.92 211.84C258.933 212.12 257.973 212.26 257.04 212.26ZM269.205 211.04C270.325 211.04 271.079 210.693 271.465 210C271.865 209.293 272.065 208.293 272.065 207C272.065 204.947 271.612 203.66 270.705 203.14C270.332 202.927 269.805 202.82 269.125 202.82C268.459 202.82 267.825 202.96 267.225 203.24C266.692 204.267 266.425 205.46 266.425 206.82C266.425 208.127 266.599 209.133 266.945 209.84C267.345 210.64 268.099 211.04 269.205 211.04ZM264.585 207C264.585 205.307 264.972 203.987 265.745 203.04C266.519 202.08 267.712 201.6 269.325 201.6C270.939 201.6 272.105 202.04 272.825 202.92C273.545 203.787 273.905 205.073 273.905 206.78C273.905 208.487 273.519 209.827 272.745 210.8C271.985 211.773 270.825 212.26 269.265 212.26C267.705 212.26 266.532 211.807 265.745 210.9C264.972 209.993 264.585 208.693 264.585 207ZM278.047 197.14C278.46 197.14 278.754 197.153 278.927 197.18C278.927 197.647 278.84 198.18 278.667 198.78C278.547 206.647 278.487 210.6 278.487 210.64L280.167 210.8C280.167 211.173 280.054 211.573 279.827 212H275.227L275.167 211.3C275.78 211.087 276.38 210.927 276.967 210.82L276.767 198.72C276.034 198.68 275.447 198.6 275.007 198.48L275.087 197.44C275.767 197.24 276.754 197.14 278.047 197.14ZM286.525 210.78L288.305 210.74C290.145 210.74 291.065 211.5 291.065 213.02C291.065 213.727 290.759 214.38 290.145 214.98C289.545 215.593 288.825 216.053 287.985 216.36C287.145 216.667 286.359 216.82 285.625 216.82C284.905 216.82 284.232 216.713 283.605 216.5C282.979 216.3 282.445 215.967 282.005 215.5C281.565 215.033 281.345 214.493 281.345 213.88C281.345 213.733 281.579 213.347 282.045 212.72C282.525 212.107 282.839 211.747 282.985 211.64C282.865 211.56 282.632 211.333 282.285 210.96C281.939 210.573 281.745 210.307 281.705 210.16C282.039 209.547 282.565 208.947 283.285 208.36C282.219 207.72 281.685 206.667 281.685 205.2C281.685 204.027 282.059 203.133 282.805 202.52C283.552 201.907 284.485 201.6 285.605 201.6C286.725 201.6 287.592 201.78 288.205 202.14C289.272 201.927 290.319 201.82 291.345 201.82C291.599 201.82 291.725 201.973 291.725 202.28C291.725 202.813 291.625 203.18 291.425 203.38L289.125 203C289.605 203.613 289.845 204.347 289.845 205.2C289.845 206.533 289.452 207.493 288.665 208.08C287.879 208.653 286.912 208.94 285.765 208.94C285.405 208.94 284.979 208.893 284.485 208.8C284.285 209.213 284.032 209.66 283.725 210.14C283.965 210.567 284.899 210.78 286.525 210.78ZM289.065 214.46C289.199 214.087 289.265 213.7 289.265 213.3C289.265 212.913 289.112 212.6 288.805 212.36C288.499 212.12 288.105 212 287.625 212C285.719 212 284.552 211.98 284.125 211.94C283.765 212.513 283.512 212.993 283.365 213.38C283.232 213.78 283.165 214.007 283.165 214.06C283.165 214.58 283.412 214.967 283.905 215.22C284.399 215.473 284.965 215.6 285.605 215.6C286.259 215.6 286.912 215.493 287.565 215.28C288.232 215.067 288.732 214.793 289.065 214.46ZM288.045 205.28C288.045 203.627 287.285 202.8 285.765 202.8C284.245 202.8 283.485 203.6 283.485 205.2C283.485 206.013 283.685 206.64 284.085 207.08C284.485 207.52 285.065 207.74 285.825 207.74C287.305 207.74 288.045 206.92 288.045 205.28ZM296.408 199.94C296.061 200.02 295.721 200.06 295.388 200.06C295.068 200.06 294.748 200.04 294.428 200C294.348 199.627 294.308 199.253 294.308 198.88C294.308 198.493 294.321 198.207 294.348 198.02C294.641 197.953 294.948 197.92 295.268 197.92C295.601 197.92 295.955 197.933 296.328 197.96C296.408 198.307 296.448 198.647 296.448 198.98C296.448 199.3 296.435 199.62 296.408 199.94ZM292.768 202.04C293.901 201.84 294.781 201.74 295.408 201.74C296.035 201.74 296.435 201.753 296.608 201.78C296.608 202.1 296.568 202.453 296.488 202.84C296.408 203.227 296.361 203.413 296.348 203.4L296.168 210.64L297.848 210.8C297.848 211.173 297.735 211.573 297.508 212H292.908L292.848 211.3C293.461 211.087 294.061 210.927 294.648 210.82C294.568 207.487 294.501 204.987 294.448 203.32C293.675 203.32 293.088 203.24 292.688 203.08L292.768 202.04Z" fill="white"/>
<path d="M50.2593 312.86C50.2993 312.94 50.3526 313.247 50.4193 313.78C50.4993 314.313 50.5393 314.767 50.5393 315.14C50.5393 315.5 50.5193 315.787 50.4793 316H40.9793L40.9193 315.3C41.546 315.073 42.1126 314.92 42.6193 314.84C42.5393 309.587 42.4726 305.713 42.4193 303.22C42.0726 303.167 41.486 303.007 40.6593 302.74L40.7593 302H45.5793C45.806 302.373 45.9193 302.767 45.9193 303.18C45.1993 303.207 44.6793 303.227 44.3593 303.24C44.3326 305.8 44.306 308.133 44.2793 310.24C44.266 312.333 44.2526 313.807 44.2393 314.66H48.6193L49.0993 312.76C49.766 312.76 50.1526 312.793 50.2593 312.86ZM55.4352 303.94C55.0886 304.02 54.7486 304.06 54.4152 304.06C54.0952 304.06 53.7752 304.04 53.4552 304C53.3752 303.627 53.3352 303.253 53.3352 302.88C53.3352 302.493 53.3486 302.207 53.3752 302.02C53.6686 301.953 53.9752 301.92 54.2952 301.92C54.6286 301.92 54.9819 301.933 55.3552 301.96C55.4352 302.307 55.4752 302.647 55.4752 302.98C55.4752 303.3 55.4619 303.62 55.4352 303.94ZM51.7952 306.04C52.9286 305.84 53.8086 305.74 54.4352 305.74C55.0619 305.74 55.4619 305.753 55.6352 305.78C55.6352 306.1 55.5952 306.453 55.5152 306.84C55.4352 307.227 55.3886 307.413 55.3752 307.4L55.1952 314.64L56.8752 314.8C56.8752 315.173 56.7619 315.573 56.5352 316H51.9352L51.8752 315.3C52.4886 315.087 53.0886 314.927 53.6752 314.82C53.5952 311.487 53.5286 308.987 53.4752 307.32C52.7019 307.32 52.1152 307.24 51.7152 307.08L51.7952 306.04ZM65.7476 312.8C65.9342 313.573 66.0276 314.26 66.0276 314.86C66.0276 315.447 66.0142 315.827 65.9876 316H58.4276C58.2676 315.76 58.1742 315.4 58.1476 314.92L63.8876 306.96H60.4676L59.9876 309.04C59.7876 309.053 59.6676 309.06 59.6276 309.06L58.8276 309C58.6409 308.227 58.5476 307.553 58.5476 306.98C58.5476 306.393 58.5609 306.013 58.5876 305.84H65.6876C65.7676 306.04 65.8076 306.413 65.8076 306.96L60.3276 314.8H64.1076L64.5876 312.7L65.7476 312.8ZM72.3146 315.04C73.4346 315.04 74.1879 314.693 74.5746 314C74.9746 313.293 75.1746 312.293 75.1746 311C75.1746 308.947 74.7213 307.66 73.8146 307.14C73.4413 306.927 72.9146 306.82 72.2346 306.82C71.5679 306.82 70.9346 306.96 70.3346 307.24C69.8013 308.267 69.5346 309.46 69.5346 310.82C69.5346 312.127 69.7079 313.133 70.0546 313.84C70.4546 314.64 71.2079 315.04 72.3146 315.04ZM67.6946 311C67.6946 309.307 68.0813 307.987 68.8546 307.04C69.6279 306.08 70.8213 305.6 72.4346 305.6C74.0479 305.6 75.2146 306.04 75.9346 306.92C76.6546 307.787 77.0146 309.073 77.0146 310.78C77.0146 312.487 76.6279 313.827 75.8546 314.8C75.0946 315.773 73.9346 316.26 72.3746 316.26C70.8146 316.26 69.6413 315.807 68.8546 314.9C68.0813 313.993 67.6946 312.693 67.6946 311ZM86.2163 312.8C86.403 313.573 86.4963 314.26 86.4963 314.86C86.4963 315.447 86.483 315.827 86.4563 316H78.8963C78.7363 315.76 78.643 315.4 78.6163 314.92L84.3563 306.96H80.9363L80.4563 309.04C80.2563 309.053 80.1363 309.06 80.0963 309.06L79.2963 309C79.1097 308.227 79.0163 307.553 79.0163 306.98C79.0163 306.393 79.0297 306.013 79.0563 305.84H86.1563C86.2363 306.04 86.2763 306.413 86.2763 306.96L80.7963 314.8H84.5763L85.0563 312.7L86.2163 312.8ZM92.7834 315.04C93.9034 315.04 94.6567 314.693 95.0434 314C95.4434 313.293 95.6434 312.293 95.6434 311C95.6434 308.947 95.19 307.66 94.2834 307.14C93.91 306.927 93.3834 306.82 92.7034 306.82C92.0367 306.82 91.4034 306.96 90.8034 307.24C90.27 308.267 90.0034 309.46 90.0034 310.82C90.0034 312.127 90.1767 313.133 90.5234 313.84C90.9234 314.64 91.6767 315.04 92.7834 315.04ZM88.1634 311C88.1634 309.307 88.55 307.987 89.3234 307.04C90.0967 306.08 91.29 305.6 92.9034 305.6C94.5167 305.6 95.6834 306.04 96.4034 306.92C97.1234 307.787 97.4834 309.073 97.4834 310.78C97.4834 312.487 97.0967 313.827 96.3234 314.8C95.5634 315.773 94.4034 316.26 92.8434 316.26C91.2834 316.26 90.11 315.807 89.3234 314.9C88.55 313.993 88.1634 312.693 88.1634 311ZM108.625 307.84C108.678 308.267 108.705 308.76 108.705 309.32C108.705 309.88 108.652 311.653 108.545 314.64L110.225 314.8C110.225 315.173 110.112 315.573 109.885 316H105.285L105.225 315.3C105.838 315.087 106.438 314.927 107.025 314.82C106.945 311.273 106.872 309.3 106.805 308.9C106.752 308.5 106.658 308.167 106.525 307.9C106.392 307.62 106.185 307.427 105.905 307.32C105.625 307.213 105.198 307.16 104.625 307.16C104.065 307.16 103.325 307.373 102.405 307.8C102.325 310.84 102.272 313.12 102.245 314.64L103.925 314.8C103.925 315.173 103.812 315.573 103.585 316H98.9851L98.9251 315.3C99.5384 315.087 100.138 314.927 100.725 314.82C100.712 313.86 100.678 312.507 100.625 310.76C100.572 309 100.538 307.847 100.525 307.3C99.7917 307.26 99.2051 307.18 98.7651 307.06L98.8451 306.02C99.5651 305.82 100.612 305.72 101.985 305.72C102.172 306.053 102.292 306.4 102.345 306.76C102.932 306.453 103.512 306.187 104.085 305.96C104.658 305.72 105.018 305.6 105.165 305.6C106.645 305.6 107.678 306.053 108.265 306.96C108.878 306.627 109.512 306.32 110.165 306.04C110.832 305.747 111.232 305.6 111.365 305.6C112.578 305.6 113.485 305.9 114.085 306.5C114.698 307.087 115.005 308.053 115.005 309.4C115.005 309.8 114.952 311.547 114.845 314.64L116.525 314.8C116.525 315.173 116.412 315.573 116.185 316H111.585L111.525 315.3C112.138 315.087 112.738 314.927 113.325 314.82C113.272 312.713 113.225 311.12 113.185 310.04C113.145 308.96 112.992 308.213 112.725 307.8C112.458 307.373 111.925 307.16 111.125 307.16C110.325 307.16 109.492 307.387 108.625 307.84Z" fill="black"/>
<path d="M239.721 406C241.414 406 242.668 406.28 243.481 406.84C244.308 407.387 244.721 408.36 244.721 409.76C244.721 411.16 244.314 412.273 243.501 413.1C242.688 413.913 241.374 414.32 239.561 414.32H237.881L237.821 418.66L239.381 418.8C239.381 419.173 239.268 419.573 239.041 420H234.541L234.481 419.32C235.041 419.107 235.614 418.947 236.201 418.84C236.121 413.64 236.054 409.773 236.001 407.24C235.641 407.173 235.054 407.013 234.241 406.76L234.341 406H239.721ZM239.361 413.02C240.508 413.007 241.381 412.72 241.981 412.16C242.581 411.587 242.881 410.833 242.881 409.9C242.881 408.967 242.588 408.32 242.001 407.96C241.414 407.587 240.474 407.4 239.181 407.4C238.941 407.4 238.534 407.407 237.961 407.42C237.961 407.433 237.941 409.307 237.901 413.04L239.361 413.02ZM248.545 405.14C248.958 405.14 249.252 405.153 249.425 405.18C249.425 405.647 249.338 406.18 249.165 406.78C249.045 414.647 248.985 418.6 248.985 418.64L250.665 418.8C250.665 419.173 250.552 419.573 250.325 420H245.725L245.665 419.3C246.278 419.087 246.878 418.927 247.465 418.82L247.265 406.72C246.532 406.68 245.945 406.6 245.505 406.48L245.585 405.44C246.265 405.24 247.252 405.14 248.545 405.14ZM259.783 413.46L259.683 418.62C260.257 418.66 260.83 418.753 261.403 418.9L261.363 419.6C261.15 419.707 260.763 419.827 260.203 419.96C259.657 420.08 259.117 420.14 258.583 420.14C258.343 419.66 258.21 419.2 258.183 418.76C256.663 419.76 255.597 420.26 254.983 420.26C254.037 420.26 253.277 420.007 252.703 419.5C252.13 418.993 251.843 418.287 251.843 417.38C251.843 415.287 253.123 414.207 255.683 414.14C257.177 414.1 257.93 414.08 257.943 414.08L257.923 413.4C257.897 412.48 257.723 411.82 257.403 411.42C257.083 411.007 256.51 410.8 255.683 410.8C255.337 410.8 254.963 410.88 254.563 411.04L254.083 413.04C254.017 413.053 253.903 413.06 253.743 413.06L252.923 413C252.71 412.427 252.597 411.633 252.583 410.62C252.837 410.487 253.417 410.287 254.323 410.02C255.23 409.74 255.81 409.6 256.063 409.6C257.423 409.6 258.383 409.9 258.943 410.5C259.503 411.1 259.783 412.087 259.783 413.46ZM255.423 418.9C255.81 418.9 256.703 418.467 258.103 417.6L258.003 415.1C257.097 415.18 256.337 415.253 255.723 415.32C255.11 415.387 254.617 415.567 254.243 415.86C253.87 416.14 253.683 416.587 253.683 417.2C253.683 418.333 254.263 418.9 255.423 418.9ZM264.185 418.72C264.651 418.92 265.218 419.02 265.885 419.02C266.565 419.02 267.098 418.893 267.485 418.64C267.871 418.387 268.065 418.04 268.065 417.6C268.065 417.16 267.885 416.793 267.525 416.5C267.165 416.207 266.725 415.947 266.205 415.72C265.685 415.493 265.165 415.253 264.645 415C264.125 414.747 263.685 414.413 263.325 414C262.965 413.587 262.785 413.107 262.785 412.56C262.785 411.64 263.091 410.92 263.705 410.4C264.318 409.867 265.165 409.6 266.245 409.6C267.338 409.6 268.365 409.847 269.325 410.34C269.338 410.473 269.345 410.833 269.345 411.42C269.345 411.993 269.285 412.487 269.165 412.9C268.845 413.007 268.465 413.06 268.025 413.06L267.365 411.02C267.071 410.873 266.671 410.8 266.165 410.8C265.671 410.8 265.278 410.933 264.985 411.2C264.691 411.453 264.545 411.78 264.545 412.18C264.545 412.567 264.725 412.907 265.085 413.2C265.458 413.493 265.905 413.76 266.425 414C266.945 414.227 267.465 414.473 267.985 414.74C268.505 414.993 268.945 415.333 269.305 415.76C269.678 416.173 269.865 416.653 269.865 417.2C269.865 418.16 269.491 418.913 268.745 419.46C268.011 419.993 267.105 420.26 266.025 420.26C265.438 420.26 264.811 420.167 264.145 419.98C263.478 419.78 262.918 419.527 262.465 419.22C262.465 418.327 262.545 417.533 262.705 416.84C263.011 416.787 263.425 416.76 263.945 416.76L264.185 418.72ZM273.048 418.76L272.888 411.22H271.348L271.288 410.52C271.421 410.427 271.808 410.253 272.448 410L274.088 407.44C274.354 407.467 274.561 407.533 274.708 407.64L274.688 409.84C275.688 409.84 276.508 409.907 277.148 410.04C277.148 410.4 277.034 410.793 276.808 411.22H274.648C274.621 412.82 274.594 415.247 274.568 418.5C275.314 418.54 276.061 418.673 276.808 418.9L276.788 419.6C276.601 419.72 276.121 419.86 275.348 420.02C274.588 420.18 273.961 420.26 273.468 420.26C273.401 420.153 273.314 419.927 273.208 419.58C273.101 419.22 273.048 418.947 273.048 418.76ZM282.121 407.94C281.774 408.02 281.434 408.06 281.101 408.06C280.781 408.06 280.461 408.04 280.141 408C280.061 407.627 280.021 407.253 280.021 406.88C280.021 406.493 280.034 406.207 280.061 406.02C280.354 405.953 280.661 405.92 280.981 405.92C281.314 405.92 281.667 405.933 282.041 405.96C282.121 406.307 282.161 406.647 282.161 406.98C282.161 407.3 282.147 407.62 282.121 407.94ZM278.481 410.04C279.614 409.84 280.494 409.74 281.121 409.74C281.747 409.74 282.147 409.753 282.321 409.78C282.321 410.1 282.281 410.453 282.201 410.84C282.121 411.227 282.074 411.413 282.061 411.4L281.881 418.64L283.561 418.8C283.561 419.173 283.447 419.573 283.221 420H278.621L278.561 419.3C279.174 419.087 279.774 418.927 280.361 418.82C280.281 415.487 280.214 412.987 280.161 411.32C279.387 411.32 278.801 411.24 278.401 411.08L278.481 410.04ZM291.553 410.74L291.493 406.74C290.76 406.7 290.173 406.62 289.733 406.5L289.813 405.46C290.493 405.26 291.48 405.16 292.773 405.16C293.186 405.16 293.48 405.173 293.653 405.2C293.653 405.44 293.613 405.76 293.533 406.16C293.466 406.547 293.42 406.76 293.393 406.8L293.213 418.62C293.76 418.647 294.34 418.74 294.953 418.9L294.913 419.6C293.993 420.027 293.18 420.24 292.473 420.24C292.326 420.24 292.213 420.233 292.133 420.22C292.026 420.02 291.893 419.56 291.733 418.84C290.2 419.707 289.126 420.173 288.513 420.24C287.233 420.24 286.273 419.753 285.633 418.78C284.993 417.807 284.673 416.56 284.673 415.04C284.673 413.507 284.993 412.22 285.633 411.18C286.286 410.127 287.246 409.6 288.513 409.6C289.5 409.6 290.513 409.98 291.553 410.74ZM288.853 410.96C287.293 410.96 286.513 412.24 286.513 414.8C286.513 415.8 286.673 416.667 286.993 417.4C287.153 417.8 287.386 418.12 287.693 418.36C288.013 418.6 288.38 418.72 288.793 418.72C289.206 418.72 289.686 418.627 290.233 418.44C290.793 418.253 291.273 418.04 291.673 417.8L291.553 412.1C291.193 411.793 290.753 411.527 290.233 411.3C289.713 411.073 289.253 410.96 288.853 410.96ZM298.682 405.14C299.095 405.14 299.388 405.153 299.562 405.18C299.562 405.647 299.475 406.18 299.302 406.78C299.182 414.647 299.122 418.6 299.122 418.64L300.802 418.8C300.802 419.173 300.688 419.573 300.462 420H295.862L295.802 419.3C296.415 419.087 297.015 418.927 297.602 418.82L297.402 406.72C296.668 406.68 296.082 406.6 295.642 406.48L295.722 405.44C296.402 405.24 297.388 405.14 298.682 405.14ZM306.96 418.88C307.547 418.88 308.467 418.6 309.72 418.04C309.973 418.387 310.107 418.693 310.12 418.96C309.44 419.36 308.773 419.673 308.12 419.9C307.467 420.127 307 420.24 306.72 420.24C305.173 420.24 303.993 419.78 303.18 418.86C302.367 417.927 301.96 416.627 301.96 414.96C301.96 413.293 302.353 411.987 303.14 411.04C303.94 410.08 305.133 409.6 306.72 409.6C307.947 409.6 308.88 410.04 309.52 410.92C310.173 411.8 310.5 412.98 310.5 414.46C310.393 414.647 310.307 414.773 310.24 414.84L303.8 414.74C303.813 416.087 304.047 417.113 304.5 417.82C304.967 418.527 305.787 418.88 306.96 418.88ZM308.68 413.6C308.68 412.72 308.52 412.04 308.2 411.56C307.88 411.067 307.347 410.82 306.6 410.82C305.853 410.82 305.187 410.96 304.6 411.24C304.2 412.04 303.947 412.86 303.84 413.7C304.893 413.687 306.507 413.653 308.68 413.6ZM318.255 411.28C318.188 411.213 318.041 411.18 317.815 411.18C317.588 411.18 317.248 411.26 316.795 411.42C316.355 411.58 315.955 411.767 315.595 411.98C315.515 414.94 315.461 417.16 315.435 418.64L317.115 418.8C317.115 419.173 317.001 419.573 316.775 420H312.175L312.115 419.3C312.728 419.087 313.328 418.927 313.915 418.82C313.835 415.433 313.768 412.927 313.715 411.3C312.981 411.26 312.395 411.18 311.955 411.06L312.035 410.02C312.741 409.82 313.788 409.72 315.175 409.72C315.388 410.053 315.521 410.48 315.575 411C317.108 410.067 318.021 409.6 318.315 409.6C318.608 409.6 318.948 409.66 319.335 409.78C319.721 409.887 320.008 410.007 320.195 410.14C320.195 411.473 320.068 412.56 319.815 413.4C319.628 413.453 319.408 413.48 319.155 413.48C318.915 413.48 318.748 413.473 318.655 413.46L318.255 411.28Z" fill="black"/>
</g>
<defs>
<filter id="filter0_d_1_298" x="0" y="0" width="343" height="483" filterUnits="userSpaceOnUse" color-interpolation-filters="sRGB">
<feFlood flood-opacity="0" result="BackgroundImageFix"/>
<feColorMatrix in="SourceAlpha" type="matrix" values="0 0 0 0 0 0 0 0 0 0 0 0 0 0 0 0 0 0 127 0" result="hardAlpha"/>
<feOffset dy="4"/>
<feGaussianBlur stdDeviation="2"/>
<feComposite in2="hardAlpha" operator="out"/>
<feColorMatrix type="matrix" values="0 0 0 0 0 0 0 0 0 0 0 0 0 0 0 0 0 0 0.25 0"/>
<feBlend mode="normal" in2="BackgroundImageFix" result="effect1_dropShadow_1_298"/>
<feBlend mode="normal" in="SourceGraphic" in2="effect1_dropShadow_1_298" result="shape"/>
</filter>
<filter id="filter1_d_1_298" x="43" y="11" width="257" height="42" filterUnits="userSpaceOnUse" color-interpolation-filters="sRGB">
<feFlood flood-opacity="0" result="BackgroundImageFix"/>
<feColorMatrix in="SourceAlpha" type="matrix" values="0 0 0 0 0 0 0 0 0 0 0 0 0 0 0 0 0 0 127 0" result="hardAlpha"/>
<feOffset dy="4"/>
<feGaussianBlur stdDeviation="2"/>
<feComposite in2="hardAlpha" operator="out"/>
<feColorMatrix type="matrix" values="0 0 0 0 0 0 0 0 0 0 0 0 0 0 0 0 0 0 0.25 0"/>
<feBlend mode="normal" in2="BackgroundImageFix" result="effect1_dropShadow_1_298"/>
<feBlend mode="normal" in="SourceGraphic" in2="effect1_dropShadow_1_298" result="shape"/>
</filter>
</defs>
</svg>
